<svg width="60" height="21" viewBox="0 0 60 21" fill="none" xmlns="http://www.w3.org/2000/svg">
<path fill-rule="evenodd" clip-rule="evenodd" d="M10.4811 0C4.73344 0 -0.0956782 4.73255 0.00143983 10.455C0.0967625 16.0708 4.76301 20.5714 10.4818 20.5714C12.9373 20.5714 15.1989 19.7417 16.9878 18.3497C18.7768 19.7415 21.0385 20.5714 23.4941 20.5714C25.9496 20.5714 28.2113 19.7417 30.0002 18.3497C31.7892 19.7415 34.0508 20.5714 36.5065 20.5714C38.9622 20.5714 41.2238 19.7417 43.0125 18.3497C44.8017 19.7415 47.0633 20.5714 49.519 20.5714C55.237 20.5714 59.9033 16.0715 59.9986 10.455C60.0957 4.73218 55.2664 0 49.5186 0C47.0834 0 44.8131 0.849412 43.0125 2.2636C41.2116 0.849412 38.9412 0 36.5059 0C34.0707 0 31.8006 0.849412 29.9998 2.2636C28.1993 0.849412 25.929 0 23.4938 0C21.0585 0 18.7883 0.849413 16.9876 2.26379C15.1869 0.849413 12.9164 0 10.4811 0ZM23.4941 18.2371C21.6947 18.2371 20.0312 17.6617 18.6853 16.6875C20.0758 14.9736 20.9215 12.8126 20.9614 10.455C21.003 7.9978 20.1366 5.72334 18.6793 3.92765C20.0363 2.92956 21.7088 2.3343 23.4938 2.3343C25.279 2.3343 26.9513 2.92956 28.3082 3.92746C26.8508 5.72334 25.9841 7.99817 26.0256 10.4551C26.0659 12.8126 26.9117 14.9738 28.3026 16.6877C26.9567 17.6619 25.2934 18.2371 23.4941 18.2371ZM18.5878 10.4161C18.6183 8.62167 18.0144 6.94735 16.9876 5.59318C15.9609 6.94735 15.357 8.62167 15.3874 10.4161C15.4168 12.1452 16.0075 13.7387 16.9878 15.0299C17.9679 13.7387 18.5584 12.1454 18.5878 10.4161ZM13.0138 10.455C12.9721 7.9978 13.8386 5.72334 15.2959 3.92765C13.939 2.92956 12.2663 2.3343 10.4811 2.3343C6.04294 2.3343 2.30035 6.01471 2.37505 10.4161C2.44866 14.7536 6.05419 18.2371 10.4818 18.2371C12.2809 18.2371 13.9444 17.6619 15.2903 16.6875C13.8995 14.9736 13.0539 12.8126 13.0138 10.455ZM33.9737 10.455C34.0155 7.9978 33.1491 5.72334 31.6917 3.92746C33.0484 2.92956 34.7209 2.3343 36.5059 2.3343C38.2911 2.3343 39.9638 2.92956 41.3209 3.92765C39.8635 5.72334 38.997 7.9978 39.0387 10.455C39.0786 12.8126 39.9242 14.9736 41.3151 16.6875C39.9692 17.6619 38.3057 18.2371 36.5065 18.2371C34.7072 18.2371 33.0437 17.6617 31.6977 16.6875C33.0883 14.9736 33.9338 12.8126 33.9737 10.455ZM41.4122 10.4161C41.3819 8.62167 41.9858 6.94716 43.0125 5.593C44.0395 6.94716 44.6432 8.62167 44.6127 10.4161C44.5832 12.1454 43.9926 13.7387 43.0125 15.0299C42.0323 13.7387 41.4417 12.1452 41.4122 10.4161ZM49.519 18.2371C47.7195 18.2371 46.056 17.6617 44.71 16.6875C46.1007 14.9738 46.9461 12.8128 46.9862 10.4551C47.0282 7.99761 46.1618 5.72316 44.7044 3.92746C46.0611 2.92956 47.7336 2.3343 49.5186 2.3343C53.9571 2.3343 57.6998 6.01434 57.625 10.4161C57.5513 14.7544 53.9459 18.2371 49.519 18.2371ZM31.6002 10.4709C31.6305 8.67647 31.0268 7.00214 29.9998 5.64798C28.9731 7.00214 28.3693 8.67647 28.3997 10.4709C28.4292 12.2 29.0198 13.7935 30 15.0847C30.9801 13.7935 31.5707 12.2002 31.6002 10.4709Z" fill="#878787"/>
</svg>
