<svg width="45" height="36" viewBox="0 0 45 36" fill="none" xmlns="http://www.w3.org/2000/svg">
<path d="M38.0944 3.79249C35.2263 2.47647 32.1506 1.50687 28.9348 0.951548C28.8762 0.940831 28.8177 0.967615 28.7876 1.02118C28.392 1.72471 27.9539 2.64252 27.647 3.36392C24.1883 2.8461 20.7472 2.8461 17.3594 3.36392C17.0525 2.62649 16.5984 1.72471 16.2011 1.02118C16.1709 0.969402 16.1124 0.942618 16.0538 0.951548C12.8398 1.5051 9.76418 2.47469 6.89425 3.79249C6.86941 3.8032 6.84811 3.82108 6.83398 3.84428C1.00011 12.56 -0.598032 21.0614 0.185963 29.4575C0.18951 29.4985 0.212568 29.5378 0.244496 29.5628C4.09352 32.3894 7.82195 34.1054 11.4811 35.2429C11.5397 35.2607 11.6018 35.2393 11.639 35.1911C12.5046 34.009 13.2762 32.7627 13.9378 31.452C13.9768 31.3752 13.9395 31.2841 13.8597 31.2538C12.6359 30.7895 11.4705 30.2235 10.3495 29.5807C10.2608 29.5289 10.2537 29.4021 10.3353 29.3413C10.5712 29.1646 10.8072 28.9806 11.0324 28.7949C11.0732 28.761 11.13 28.7539 11.1779 28.7753C18.5424 32.1377 26.5154 32.1377 33.793 28.7753C33.841 28.7521 33.8977 28.7593 33.9403 28.7932C34.1656 28.9789 34.4015 29.1646 34.6392 29.3413C34.7207 29.4021 34.7154 29.5289 34.6267 29.5807C33.5057 30.236 32.3404 30.7895 31.1147 31.252C31.0349 31.2824 30.9994 31.3752 31.0385 31.452C31.7142 32.7608 32.4858 34.0072 33.3354 35.1893C33.3709 35.2393 33.4347 35.2607 33.4933 35.2429C37.1703 34.1054 40.8987 32.3894 44.7477 29.5628C44.7814 29.5378 44.8027 29.5003 44.8062 29.4592C45.7445 19.7525 43.2347 11.3207 38.1529 3.84605C38.1405 3.82108 38.1192 3.8032 38.0944 3.79249ZM15.0375 24.3451C12.8203 24.3451 10.9934 22.3096 10.9934 19.8096C10.9934 17.3097 12.7849 15.2741 15.0375 15.2741C17.3079 15.2741 19.1171 17.3276 19.0816 19.8096C19.0816 22.3096 17.2901 24.3451 15.0375 24.3451ZM29.9902 24.3451C27.773 24.3451 25.946 22.3096 25.946 19.8096C25.946 17.3097 27.7375 15.2741 29.9902 15.2741C32.2606 15.2741 34.0698 17.3276 34.0343 19.8096C34.0343 22.3096 32.2606 24.3451 29.9902 24.3451Z" fill="white"/>
</svg>
