<svg width="102" height="102" viewBox="0 0 102 102" fill="none" xmlns="http://www.w3.org/2000/svg">
<path d="M51 81.4614L51 19.6152" stroke="#362618" stroke-width="5" stroke-linecap="round" stroke-linejoin="round"/>
<path d="M61.4686 30.0616H47.2729C45.0908 30.0522 42.9733 30.8057 41.2882 32.1917C39.6023 33.5777 38.4533 35.5092 38.0406 37.6523C37.6278 39.7953 37.9767 42.0152 39.0269 43.9283C40.0772 45.8415 41.7631 47.3276 43.7921 48.1297L58.2006 53.8914C60.2235 54.6966 61.9027 56.1816 62.9487 58.091C63.9946 60.0004 64.3427 62.2146 63.9325 64.3527C63.5223 66.4908 62.3801 68.4193 60.7018 69.8061C59.0235 71.1928 56.9146 71.9514 54.7367 71.951H40.524" stroke="#362618" stroke-width="5" stroke-linecap="round" stroke-linejoin="round"/>
<path d="M3 51C3 63.7304 8.05787 75.9395 17.0596 84.9413C26.0613 93.943 38.2698 99 51 99C63.7311 99 75.9396 93.943 84.9413 84.9413C93.943 75.9395 99 63.7304 99 51C99 38.2696 93.943 26.0607 84.9413 17.0589C75.9396 8.05717 63.7311 3 51 3C38.2698 3 26.0613 8.05717 17.0596 17.0589C8.05787 26.0607 3 38.2696 3 51Z" stroke="#362618" stroke-width="5" stroke-linecap="round" stroke-linejoin="round"/>
</svg>
