<svg width="29" height="25" viewBox="0 0 29 25" fill="none" xmlns="http://www.w3.org/2000/svg">
<path d="M25.0723 3.85655C24.4614 3.26797 23.7361 2.80107 22.9378 2.48251C22.1396 2.16396 21.2839 2 20.4199 2C19.5558 2 18.7001 2.16396 17.9019 2.48251C17.1036 2.80107 16.3783 3.26797 15.7674 3.85655L14.4997 5.07749L13.2319 3.85655C11.998 2.66822 10.3245 2.00062 8.57951 2.00062C6.83452 2.00062 5.16099 2.66822 3.92709 3.85655C2.6932 5.04489 2 6.65662 2 8.33718C2 10.0177 2.6932 11.6295 3.92709 12.8178L5.19485 14.0387L14.4997 23L23.8045 14.0387L25.0723 12.8178C25.6834 12.2295 26.1682 11.531 26.499 10.7622C26.8298 9.99339 27 9.16936 27 8.33718C27 7.50499 26.8298 6.68096 26.499 5.91216C26.1682 5.14336 25.6834 4.44486 25.0723 3.85655V3.85655Z" stroke="#C6002F" stroke-width="3" stroke-linecap="round" stroke-linejoin="round"/>
</svg>
