<svg width="45" height="45" viewBox="0 0 45 45" fill="none" xmlns="http://www.w3.org/2000/svg">
<path d="M22.5132 4.05255C28.5284 4.05255 29.2408 4.07892 31.6064 4.18441C33.805 4.28111 34.9922 4.65032 35.7837 4.958C36.8302 5.36238 37.5865 5.85466 38.3692 6.63704C39.1606 7.42821 39.6443 8.17543 40.0489 9.22153C40.3567 10.0127 40.726 11.2082 40.8227 13.3971C40.9283 15.7707 40.9547 16.4827 40.9547 22.4868C40.9547 28.4997 40.9283 29.2118 40.8227 31.5765C40.726 33.7742 40.3567 34.9609 40.0489 35.7521C39.6443 36.7982 39.1518 37.5542 38.3692 38.3366C37.5777 39.1278 36.8302 39.6113 35.7837 40.0156C34.9922 40.3233 33.7962 40.6925 31.6064 40.7892C29.232 40.8947 28.5196 40.9211 22.5132 40.9211C16.4979 40.9211 15.7856 40.8947 13.42 40.7892C11.2214 40.6925 10.0342 40.3233 9.24272 40.0156C8.19621 39.6113 7.43991 39.119 6.65722 38.3366C5.86574 37.5454 5.38206 36.7982 4.97753 35.7521C4.66973 34.9609 4.30037 33.7654 4.20363 31.5765C4.0981 29.203 4.07172 28.4909 4.07172 22.4868C4.07172 16.4739 4.0981 15.7619 4.20363 13.3971C4.30037 11.1995 4.66973 10.0127 4.97753 9.22153C5.38206 8.17543 5.87454 7.41942 6.65722 6.63704C7.4487 5.84587 8.19621 5.36238 9.24272 4.958C10.0342 4.65032 11.2302 4.28111 13.42 4.18441C15.7856 4.07892 16.4979 4.05255 22.5132 4.05255ZM22.5132 0C16.4012 0 15.6361 0.0263723 13.2353 0.131862C10.8433 0.237351 9.19875 0.624145 7.77409 1.17796C6.28786 1.75816 5.03029 2.52295 3.78151 3.78004C2.52394 5.02833 1.75884 6.28541 1.17842 7.76226C0.624389 9.19516 0.237444 10.8302 0.131913 13.2213C0.0263826 15.63 0 16.3948 0 22.5044C0 28.614 0.0263826 29.3788 0.131913 31.7787C0.237444 34.1698 0.624389 35.8136 1.17842 37.2377C1.75884 38.7234 2.52394 39.9805 3.78151 41.2288C5.03029 42.477 6.28786 43.2506 7.76529 43.822C9.19875 44.3759 10.8345 44.7626 13.2265 44.8681C15.6273 44.9736 16.3924 45 22.5044 45C28.6164 45 29.3815 44.9736 31.7823 44.8681C34.1743 44.7626 35.8188 44.3759 37.2435 43.822C38.7209 43.2506 39.9785 42.477 41.2273 41.2288C42.4761 39.9805 43.2499 38.7234 43.8216 37.2465C44.3756 35.8136 44.7626 34.1786 44.8681 31.7875C44.9736 29.3876 45 28.6228 45 22.5132C45 16.4036 44.9736 15.6388 44.8681 13.2389C44.7626 10.8478 44.3756 9.20395 43.8216 7.77984C43.2675 6.28541 42.5024 5.02833 41.2449 3.78004C39.9961 2.53174 38.7385 1.75816 37.2611 1.18676C35.8276 0.632936 34.1919 0.246142 31.7999 0.140652C29.3903 0.0263723 28.6252 0 22.5132 0Z" fill="white"/>
<path d="M22.5129 10.9434C16.1283 10.9434 10.9485 16.1211 10.9485 22.5032C10.9485 28.8853 16.1283 34.0631 22.5129 34.0631C28.8975 34.0631 34.0773 28.8853 34.0773 22.5032C34.0773 16.1211 28.8975 10.9434 22.5129 10.9434ZM22.5129 30.0018C18.3709 30.0018 15.0115 26.6437 15.0115 22.5032C15.0115 18.3628 18.3709 15.0047 22.5129 15.0047C26.655 15.0047 30.0144 18.3628 30.0144 22.5032C30.0144 26.6437 26.655 30.0018 22.5129 30.0018Z" fill="white"/>
<path d="M37.235 10.4878C37.235 11.9823 36.0214 13.1866 34.5352 13.1866C33.0401 13.1866 31.8353 11.9735 31.8353 10.4878C31.8353 8.9934 33.0489 7.78906 34.5352 7.78906C36.0214 7.78906 37.235 9.00219 37.235 10.4878Z" fill="white"/>
</svg>
