<svg width="96" height="96" viewBox="0 0 96 96" fill="none" xmlns="http://www.w3.org/2000/svg">
<path d="M25.7747 14.8525C21.3254 17.3233 17.6579 20.9922 15.189 25.4425" stroke="#362618" stroke-width="5" stroke-linecap="round" stroke-linejoin="round"/>
<path d="M22.1787 3C17.6122 4.29831 13.4533 6.74211 10.0967 10.0994C6.74016 13.4567 4.29729 17.6161 3 22.1829" stroke="#362618" stroke-width="5" stroke-linecap="round" stroke-linejoin="round"/>
<path d="M15.8574 73.7139H80.1434" stroke="#362618" stroke-width="5" stroke-linecap="round" stroke-linejoin="round"/>
<path d="M80.1434 73.7127C80.1434 73.7127 73.7148 68.1156 73.7148 47.9984C73.7148 31.927 62.7348 17.707 48.0004 17.707C33.2661 17.707 22.286 31.927 22.286 47.9984C22.286 68.2227 15.8574 73.7127 15.8574 73.7127" stroke="#362618" stroke-width="5" stroke-linecap="round" stroke-linejoin="round"/>
<path d="M54.4287 86.5713C54.4287 88.2761 53.7516 89.9116 52.546 91.1171C51.3404 92.3227 49.705 92.9999 48.0001 92.9999C46.2953 92.9999 44.6598 92.3227 43.4543 91.1171C42.2487 89.9116 41.5715 88.2761 41.5715 86.5713" stroke="#362618" stroke-width="5" stroke-linecap="round" stroke-linejoin="round"/>
<path d="M48.0002 17.7087V9.42871" stroke="#362618" stroke-width="5" stroke-linecap="round" stroke-linejoin="round"/>
<path d="M70.2261 14.8525C72.4362 16.0865 74.4664 17.6179 76.2604 19.404C78.0492 21.1967 79.581 23.2289 80.8118 25.4425" stroke="#362618" stroke-width="5" stroke-linecap="round" stroke-linejoin="round"/>
<path d="M73.8213 3C78.3877 4.29831 82.5466 6.74211 85.9032 10.0994C89.2598 13.4567 91.7027 17.6161 93 22.1829" stroke="#362618" stroke-width="5" stroke-linecap="round" stroke-linejoin="round"/>
</svg>
