<svg width="76" height="76" viewBox="0 0 76 76" fill="none" xmlns="http://www.w3.org/2000/svg">
<path d="M37.5106 0.000176404C33.0024 0.0275086 28.5 0.286569 24.0269 0.77601L23.0388 0.893176L21.811 1.03884C21.5459 1.06734 21.1572 1.12118 20.9538 1.15918C20.7056 1.20331 20.4561 1.24133 20.2055 1.27318C19.8837 1.3137 19.5628 1.3591 19.2429 1.40934L18.2803 1.56134C17.5792 1.66901 15.5087 2.03634 14.4625 2.24218C10.5976 2.99584 6.3076 4.12318 4.54584 4.85151C3.2999 5.36767 1.74157 6.45384 1.16763 7.20434C0.641052 7.95809 0.287018 8.79366 0.125111 9.66484C0.0197688 10.1652 0.00887164 10.3932 0.00160667 12.2995C-0.00929078 14.6048 0.0342987 16.1723 0.161436 18.2053C0.764428 27.7655 2.68964 35.7487 6.2858 43.5387C8.69103 48.962 11.9095 54.0837 15.8574 58.7703C19.4899 63.0865 23.5583 66.915 28.1897 70.392C30.9831 72.482 34.4993 74.8412 35.7307 75.4428C37.1329 76.13 38.7093 76.1838 40.0534 75.5917C41.1431 75.1072 45.0735 72.5073 47.7288 70.5123C51.8652 67.3741 55.6581 63.9076 59.0585 60.1573C60.9111 58.1148 64.6562 53.0197 66.2399 50.3882C72.1318 40.6032 75.4991 28.592 75.8697 16.1502C75.9786 14.1172 76.0331 12.2742 75.9786 11.3083C75.9657 11.0672 75.9451 10.8265 75.9169 10.5863L75.9205 9.32917L75.3212 8.24301C74.989 7.60626 74.5162 7.03274 73.9299 6.55518C73.2179 5.90601 72.5786 5.53868 71.0857 4.91168C67.4641 3.39168 62.5929 2.19468 56.7083 1.37134C54.8376 1.09275 52.9575 0.864637 51.0707 0.687343L49.6032 0.535343C49.108 0.484701 48.6114 0.445631 48.1138 0.418176C45.7105 0.241561 43.3027 0.114859 40.8925 0.0381764C39.7656 0.00519613 38.6381 -0.00641773 37.5106 0.00334307V0.000176404ZM38.1173 2.62851C50.2497 2.60634 60.3771 4.00918 68.6265 6.84651C71.6778 7.89151 72.2226 8.21768 72.8402 9.35451C73.3051 10.2095 73.3124 10.3362 73.1816 14.7093C72.466 38.7443 63.0107 56.5695 43.7113 70.2558C41.372 71.9183 38.9309 73.432 38.3207 73.5998C38.0192 73.6822 37.467 73.4953 36.5662 73.0077C34.779 72.0418 30.3256 68.8815 27.3397 66.459C22.4286 62.4848 17.5065 57.1585 14.1538 52.19C6.99777 41.6007 3.28174 29.2507 2.84221 14.6143C2.71507 10.3393 2.72597 10.2063 3.19093 9.35134C3.80845 8.22084 4.36059 7.88834 7.29563 6.89084C15.3961 4.12634 23.9506 2.85018 35.6653 2.65068C36.4935 2.63801 37.3108 2.62851 38.1173 2.62851ZM34.6991 4.87051L34.5356 4.88001C33.8091 4.95601 32.9083 5.53234 32.476 6.21634C31.4843 7.78384 31.6769 11.2577 32.8247 12.4673C33.2715 12.9423 33.5076 13.0247 34.354 13.0247C34.917 13.0247 35.5672 12.898 35.8324 12.7302C36.0976 12.5655 36.5226 12.0747 36.7769 11.6377C37.4452 10.4977 37.4598 7.63184 36.8023 6.35568C36.3809 5.54184 35.5927 4.95284 34.848 4.88001L34.7681 4.87368H34.6955L34.6991 4.87051ZM38.673 5.06051L38.6113 8.96501C38.5849 10.2147 38.5728 11.4645 38.5749 12.7143C38.5925 12.7795 38.6168 12.8431 38.6476 12.9043C38.7384 12.9202 38.9709 12.9328 39.276 12.9328H39.9371V11.2577C39.9371 9.65534 39.9553 9.58884 40.3948 9.64584C40.7581 9.69334 40.9833 10.0448 41.51 11.3653L42.1711 13.0247H43.7694L43.0647 11.2387L42.3636 9.44951L42.9376 8.97134C43.6386 8.38234 43.8566 7.52734 43.5551 6.54251C43.2245 5.44368 42.3854 5.06368 40.3185 5.06051H38.673ZM47.3038 5.25051C45.4694 5.25051 44.6412 6.46334 44.6521 9.13917C44.6521 10.9062 44.9572 12.0208 45.6111 12.6637C46.3666 13.4015 48.0085 13.5313 49.0438 12.9297C49.6032 12.6067 49.9591 11.6123 49.97 10.371C49.97 10.0417 49.9555 9.78201 49.9047 9.59834C49.7848 9.30067 49.4324 9.26268 48.4262 9.17717L47.5726 9.10434C47.4237 9.18034 47.4128 9.35767 47.4128 9.75034V9.87701L47.4164 9.93401C47.4382 10.3077 47.5435 10.371 47.9468 10.371C48.3754 10.371 48.4771 10.466 48.4771 10.8587C48.4771 11.9828 47.46 12.48 46.6972 11.7327C45.651 10.7067 45.8871 6.79268 47.0132 6.47601C47.4854 6.34301 48.2664 6.84018 48.2664 7.27084C48.2664 7.43551 48.528 7.52417 49.0111 7.52417C49.8611 7.52417 49.9555 7.27401 49.4397 6.39051C49.2592 6.0335 48.9579 5.73304 48.5763 5.52932C48.1946 5.3256 47.7506 5.22833 47.3038 5.25051ZM28.4185 5.37084C28.0219 5.36124 27.625 5.37606 27.2307 5.41518L25.9484 5.53551L25.8903 9.49067L25.8322 13.4458L27.3869 13.3128C28.2405 13.2368 29.1668 13.0785 29.4538 12.9613C30.3292 12.5877 30.8269 11.8023 30.845 10.7605C30.8559 10.0322 30.7542 9.71867 30.3982 9.40201C29.9405 8.99668 29.9405 8.99034 30.3437 8.40134C30.5837 8.07396 30.7183 7.69641 30.7337 7.30815C30.749 6.91989 30.6444 6.53517 30.4309 6.19417C30.1294 5.67801 29.4756 5.40567 28.4185 5.37084ZM51.2559 5.60518V13.5535L52.0006 13.6295L52.7489 13.7087V11.9448C52.7489 9.99101 52.6799 10.0638 54.3 10.3013L55.0991 10.4217V12.1823C55.0991 13.7023 55.15 13.9588 55.4733 14.0348C56.4177 14.2533 56.3923 14.3515 56.3305 10.2285L56.2724 6.29234L55.6876 6.23218L55.0991 6.17201V9.23734L54.191 9.12334C52.7017 8.93968 52.7489 8.99667 52.7489 7.34368C52.7489 6.25118 52.6762 5.81734 52.4837 5.81734C52.2304 5.80032 51.9797 5.76107 51.7354 5.70017L51.3867 5.61468L51.2559 5.60518ZM24.3465 5.70651L23.62 5.78251C22.9044 5.85534 22.879 5.89018 22.3232 7.49568C22.0145 8.39818 21.633 9.47801 21.4805 9.89601L21.2008 10.656L20.507 8.66418C20.1256 7.56851 19.7369 6.59951 19.6424 6.51084C19.5516 6.42218 19.1775 6.40634 18.8142 6.47918L18.1531 6.60584V10.4818C18.1531 14.171 18.1713 14.3547 18.5636 14.3547C18.7978 14.3535 19.0305 14.3215 19.2538 14.2597C19.4645 14.1868 19.5226 13.8163 19.4717 12.8758C19.4333 12.1975 19.4333 11.518 19.4717 10.8397C19.5371 10.143 19.6025 10.2443 20.3726 12.252L21.2044 14.4212L21.9745 11.9892L22.7446 9.56034L22.7773 10.7003C22.8323 10.8438 22.8361 10.9983 22.7882 11.1437L22.8063 11.6915C22.8572 13.5218 22.9153 13.8037 23.195 13.7087C23.4338 13.6375 23.6838 13.5991 23.936 13.5947C24.3283 13.5947 24.3465 13.411 24.3465 9.64901V5.70651ZM39.9371 6.14984L40.838 6.25434C42.1166 6.40951 42.6542 7.19168 42.0185 7.96751C41.7279 8.31584 40.3621 8.60084 40.0933 8.36334C40.0098 8.28734 39.9371 7.75534 39.9371 7.18534V6.14984ZM34.6264 6.22901C34.9279 6.24167 35.2185 6.45068 35.451 6.86234C35.9305 7.71101 35.8942 10.694 35.3929 11.3748C34.9098 12.0303 34.285 12.0303 33.8019 11.3748C33.5258 11.0012 33.4023 10.3963 33.3587 9.14867C33.3042 7.67934 33.3587 7.34051 33.7401 6.80534C34.0162 6.40951 34.3249 6.21951 34.6264 6.22901ZM27.336 6.57734H28.0407C28.8944 6.57734 29.2576 6.86234 29.2576 7.54001C29.2576 8.14167 28.967 8.37918 28.0298 8.53751L27.3397 8.65468V7.61601L27.336 6.57734ZM58.2013 6.59318C58.1577 6.6094 58.1191 6.63435 58.0886 6.66601V14.5193L58.6771 14.5985C59.0004 14.6397 59.3346 14.6903 59.4254 14.703C59.5126 14.7188 59.5852 12.9898 59.5852 10.8555C59.5852 8.72434 59.5126 6.94467 59.4254 6.89718C59.1832 6.81077 58.9328 6.74296 58.6771 6.69451L58.2013 6.59318ZM14.6877 7.28351C14.5192 7.29539 14.3525 7.32191 14.1901 7.36268C13.5362 7.52101 13.529 7.54634 12.7371 10.6085C12.3012 12.3058 11.8072 14.1868 11.6473 14.7948L11.3531 15.8968L12.0288 15.7702C12.306 15.7241 12.5782 15.6573 12.8424 15.5707C12.9151 15.5327 13.0422 15.0323 13.1258 14.456C13.2892 13.2843 13.2747 13.3033 14.339 13.126L15.1127 12.9962L15.367 13.9525C15.6213 14.8898 15.6431 14.9057 16.3042 14.7948C16.5656 14.7605 16.8216 14.6999 17.067 14.6143C17.176 14.5352 15.1491 7.47984 14.9711 7.31834C14.9347 7.28668 14.8294 7.27401 14.6877 7.28351ZM61.0782 7.34051V11.2228C61.0782 14.2058 61.1399 15.1115 61.347 15.1147C61.4923 15.1147 61.8265 15.1685 62.088 15.2318C62.553 15.3427 62.5602 15.3142 62.622 13.0342L62.6801 10.7225L63.8498 13.3097C64.4891 14.7347 65.1647 15.976 65.3427 16.0678C66.1927 16.5112 66.2145 16.4035 66.1564 12.3312L66.0983 8.40451L65.5098 8.26834L64.9213 8.12901V10.2443C64.9141 12.6732 64.8923 12.6637 63.6137 9.80101C62.6765 7.70468 62.375 7.33734 61.5722 7.33734L61.0782 7.34051ZM8.04392 9.04734C8.00033 9.04734 7.66251 9.14234 7.292 9.25317L6.61999 9.46217V10.4438L6.68174 13.5725C6.7108 15.0608 6.75439 16.2483 6.84884 17.3155C6.88879 17.3282 6.93602 17.3218 6.99414 17.2997C7.20119 17.2268 8.16016 16.9133 9.13004 16.5967C10.7864 16.0615 10.8918 15.995 10.8918 15.4757C10.8918 15.1748 10.8591 14.9247 10.8191 14.9247C10.7792 14.9247 10.1871 15.0957 9.50418 15.3047C9.07063 15.4435 8.63208 15.5703 8.18922 15.6847C8.14927 15.6847 8.11657 14.19 8.11657 12.366C8.11657 10.5388 8.08025 9.04734 8.04392 9.04734ZM67.9872 9.04734C67.9472 9.04734 67.9145 10.827 67.9145 13.0025V16.9577L68.6047 17.154C68.9897 17.2648 69.3239 17.3598 69.353 17.3725C69.382 17.382 69.4075 15.6087 69.4075 13.4268V9.45901L68.7355 9.25001C68.4905 9.16964 68.2407 9.10093 67.9872 9.04418V9.04734ZM28.2187 9.69967C29.1741 9.73134 29.7698 10.6402 29.2322 11.4983C29.0034 11.8625 28.7237 12.0018 28.1316 12.0462L27.336 12.1032V10.9758C27.336 9.99101 27.3905 9.83584 27.7865 9.74401C27.9273 9.71067 28.0729 9.69573 28.2187 9.69967ZM14.2264 9.70918L14.5097 10.7288C14.6659 11.2988 14.7168 11.568 14.6587 11.7295C14.6571 11.7525 14.6497 11.7748 14.6372 11.7951C14.6246 11.8153 14.6072 11.8329 14.586 11.8467C14.5589 11.871 14.5284 11.8922 14.4952 11.91C13.983 12.1982 13.6307 12.1095 13.7687 11.72C13.8414 11.5237 13.9721 10.9917 14.0593 10.5357L14.2264 9.70918ZM39.2143 14.9658C37.1982 15.007 35.4583 15.5042 34.4702 16.3782C33.5875 17.1603 33.4895 17.9932 34.2232 18.4207C35.1495 18.9558 36.6679 19.1173 42.0985 19.2693C47.0677 19.4087 47.6634 19.4593 48.5279 19.8298C49.5886 20.289 50.05 20.8843 50.0173 21.7615C49.9955 22.4898 49.447 23.272 48.9529 23.272C48.1211 23.272 45.3604 22.6577 43.4098 22.037C42.6263 21.7757 41.8243 21.5589 41.0087 21.3878L40.8707 21.3783C40.3476 21.391 39.7155 21.7615 37.8993 23.1232C37.1002 23.7217 35.6835 24.5608 34.7499 24.9915C31.7204 26.3943 30.7869 27.5058 30.3655 30.2133C30.1367 31.6795 29.857 32.2653 28.5529 33.9722C27.4704 35.3908 26.7076 37.2972 26.7004 38.586C26.7004 39.2098 26.4461 40.2042 26.032 41.2428C25.4871 42.614 25.3636 43.2283 25.3236 44.7958C25.2801 46.4235 25.1965 46.8225 24.7316 47.5793C24.3937 48.124 24.1286 48.941 24.0341 49.7137C23.8997 50.8537 23.7907 51.0627 22.8354 52.057C22.2578 52.6523 21.7856 53.2445 21.7856 53.3712C21.7856 53.4408 21.6948 53.5928 21.5568 53.7765C21.5277 53.8968 21.4623 53.9823 21.3788 53.9918C21.3042 54.0831 21.2242 54.1708 21.139 54.2547C20.3253 55.078 19.9258 56.0248 20.2672 56.3257C20.4452 56.484 20.5905 56.4333 20.8375 56.123C21.3061 55.5277 21.5749 55.6005 21.3606 56.2623C21.2371 56.6423 21.2589 56.8513 21.4296 56.9178C21.7493 57.0413 22.9625 56.8735 23.5982 56.617C23.9324 56.4808 24.1794 56.1325 24.361 55.5403C24.5063 55.0558 24.7751 54.5048 24.9568 54.318C25.1566 54.109 25.3236 53.4788 25.3781 52.7157C25.458 51.601 25.5634 51.3508 26.2863 50.537C26.7585 50.0113 27.2561 49.1532 27.4523 48.5357C27.6448 47.9403 27.9499 47.1962 28.1352 46.8827C29.5046 44.5393 30.3873 43.184 30.5435 43.184C31.0157 43.184 31.3935 44.0833 31.3935 45.2107C31.3935 46.0973 31.4807 46.433 31.735 46.5597C32.0437 46.7117 32.0474 46.7908 31.7677 47.2817C31.573 47.6375 31.4173 48.0086 31.3027 48.39C31.0957 49.15 30.4128 49.9638 29.6972 50.29C29.3702 50.442 28.6583 50.9487 28.1134 51.4205C27.3288 52.0982 27.1217 52.4022 27.1254 52.8993C27.129 53.7353 27.4378 54.1723 27.7974 53.8493C28.226 53.4693 28.4222 53.5802 28.2696 54.1185C28.1316 54.6062 28.1534 54.6188 28.8435 54.4985C29.7262 54.3402 30.5254 53.8873 30.6743 53.463C30.736 53.2857 30.8704 53.0133 30.9722 52.8582C31.0775 52.6998 31.4698 51.9905 31.8512 51.2748C32.3234 50.3882 32.8429 49.7612 33.4967 49.2862C34.0198 48.9062 34.5865 48.295 34.7608 47.9308C35.2658 46.8605 36.7333 45.9422 36.7333 46.7022C36.7333 47.1455 35.9051 48.4882 35.3021 49.0233C34.5429 49.6978 33.9581 50.6035 33.9581 51.1038C33.9581 51.544 34.2559 51.6738 34.492 51.3413C34.7245 51.0057 34.9897 51.1387 34.8734 51.5313C34.8627 51.5679 34.8542 51.6049 34.848 51.6422C34.8843 51.7372 34.9388 51.8163 35.0115 51.8797C35.1023 51.9018 35.2294 51.9113 35.4183 51.9113C36.5153 51.9113 37.5506 51.3603 37.7068 50.6922C37.8285 50.2764 38.0142 49.8769 38.2589 49.5047C38.5277 49.112 38.6222 48.7383 38.535 48.4248C38.3897 47.915 38.782 46.5977 39.0799 46.5977C39.2978 46.5977 40.0752 48.0132 40.2713 48.7827C40.379 49.139 40.5721 49.4715 40.838 49.758C41.2303 50.1412 41.401 50.1633 43.319 50.0683C45.3059 49.9702 45.4004 49.9417 45.9162 49.3812C46.3012 48.9568 46.4829 48.4787 46.57 47.649C46.7226 46.186 47.4491 45.1917 49.1128 44.153L50.3551 43.3803L50.6602 43.8047C50.8309 44.0358 51.1942 44.7198 51.4703 45.3215C51.9352 46.3222 51.9534 46.4868 51.7064 47.3482C51.5574 47.8675 51.4993 48.4692 51.5756 48.6877C51.6555 48.9093 51.5502 49.4983 51.3395 50.0177L51.176 50.423L51.1433 50.6003C51.1033 50.7583 51.0863 50.92 51.0925 51.0817L51.4666 51.43C52.0369 51.9747 52.4329 52.0412 52.6145 51.6263C52.7743 51.2463 53.1775 51.259 53.1775 51.6422C53.1775 52.0443 53.5953 51.8955 54.0784 51.3255C54.4489 50.8822 54.4525 50.803 54.1365 50.0082C53.9476 49.5395 53.8423 49.0107 53.8931 48.8333C53.944 48.6528 53.8931 48.1398 53.7769 47.6933C53.511 46.5479 53.5246 45.3664 53.8168 44.2258C54.0239 43.3455 53.9985 43.1523 53.5153 42.2308C53.2211 41.6703 53.0213 41.1732 53.0686 41.132C53.1194 41.0877 53.5226 41.1795 53.9694 41.3347C56.0399 42.0567 57.6564 41.892 58.6408 40.8597L59.1421 40.3308C59.15 40.3017 59.1549 40.272 59.1566 40.2422L57.9615 40.1472C57.6886 40.1247 57.4161 40.0983 57.1442 40.068C56.4213 39.9635 56.1053 39.7355 54.9502 38.8362C53.8822 38.0065 53.8459 37.9432 53.9585 37.2022C54.0275 36.762 53.9222 35.8025 53.7151 34.9823C53.3809 33.646 53.3809 33.4528 53.6933 32.4997C53.8786 31.9297 54.0312 31.2108 54.0312 30.9068C54.0312 29.9885 53.4572 28.5762 52.778 27.8257C52.3965 27.3844 52.1041 26.8896 51.9134 26.3627C51.7388 25.8514 51.4846 25.3634 51.1579 24.9123C50.6638 24.2663 50.6493 24.1872 50.9436 23.5665C51.1497 23.0164 51.2551 22.4415 51.2559 21.8628C51.2559 20.954 51.1651 20.726 50.5621 20.118C49.2544 18.7943 48.6369 18.6708 42.3891 18.5093C35.1786 18.3193 34.0452 18.0787 35.164 16.9798C35.6217 16.5302 36.37 16.5428 37.9247 17.0242C39.6284 17.5498 41.7098 17.6797 42.9267 17.3377C43.9728 17.0432 43.991 17.059 42.1784 16.7233C41.8878 16.6695 41.6444 16.5333 41.6444 16.4162C41.6444 16.375 41.6735 16.3465 41.7207 16.3243C41.7534 16.2673 41.9059 16.2547 42.1929 16.2832C42.3237 16.2895 42.4762 16.3022 42.6579 16.3243C45.4512 16.6537 45.9162 16.679 45.9162 16.4922C45.9162 16.185 44.0418 15.5517 42.0839 15.2002C41.1405 15.0284 40.1779 14.9498 39.2143 14.9658ZM39.988 16.5207C40.2766 16.5433 40.5603 16.6009 40.8307 16.6917L41.7534 16.983L41.0923 16.9925L41.0051 16.9957L40.8925 16.9893C40.5659 16.9967 40.2413 16.9427 39.9408 16.831C39.5666 16.6188 39.6502 16.5048 39.988 16.5207Z" fill="#858585"/>
</svg>
