<svg width="60" height="42" viewBox="0 0 60 42" fill="none" xmlns="http://www.w3.org/2000/svg">
<path fill-rule="evenodd" clip-rule="evenodd" d="M31.2038 3.33326C28.062 6.97493 19.101 18.732 18.0798 20.2543C16.1138 23.1711 15.9401 24.5845 15.8821 25.5263C15.8251 26.4507 15.8251 28.1174 17.4245 29.4764C20.1038 31.7228 23.8614 31.36 27.1961 31.36H54.6606C55.8362 31.36 56.1836 31.0335 56.8196 30.2368C59.0166 27.0842 60 23.6601 60 20.5982C60 14.0398 55.4713 5.77919 44.0029 2.0468L42.7106 3.78598C51.8076 7.84329 55.5669 13.1517 55.5669 20.5793C55.6249 22.5725 55.065 24.7282 53.6771 26.7213H26.9636C25.3643 26.7213 25.1327 25.0184 25.7108 24.0577C28.0011 20.2266 30.5569 16.5411 33.3619 13.0255C36.0606 9.63771 38.7197 6.46695 41.5147 3.15182C42.2666 2.22822 41.7649 1.34006 40.2621 1.0506C37.1396 0.434599 33.8829 0 29.9316 0C8.01872 0 0 11.8297 0 20.5982C0 30.1098 8.07576 41.1429 29.9895 41.1429C42.1509 41.1429 50.1116 37.4641 54.7176 32.7363H50.0723C46.0436 36.2328 39.1241 38.7158 29.9895 38.7158C11.4289 38.7158 4.58753 28.9141 4.58753 20.4712C4.72176 12.9348 12.0649 2.53582 30.4526 2.19194C31.1467 2.17378 31.6871 2.77166 31.2038 3.33326Z" fill="#808080" fill-opacity="0.94"/>
</svg>
