<svg width="222" height="25" viewBox="0 0 222 25" fill="none" xmlns="http://www.w3.org/2000/svg">
<path d="M4.78163 18.9375C4.38491 19.3595 3.80836 19.625 3.16667 19.625C1.97002 19.625 0.999999 18.7016 0.999999 17.5625C1 16.4234 1.97002 15.5 3.16667 15.5L14 15.5M10.0211 20.5417C9.7566 20.823 9.37224 21 8.94444 21C8.14668 21 7.5 20.3844 7.5 19.625C7.5 18.8656 8.14668 18.25 8.94444 18.25L14 18.25M7.85439 10.4584C7.58992 10.177 7.20555 10 6.77778 10C5.98001 10 5.33333 10.6156 5.33333 11.375C5.33333 12.1344 5.98001 12.75 6.77778 12.75L14 12.75" stroke="#E8D7C8" stroke-linecap="round" stroke-linejoin="round"/>
<path d="M55.144 20.128V24H39.368V1.28H54.856V5.152H43.784V10.624H53.352V14.208H43.784V20.128H55.144ZM71.0065 24V21.12C70.6012 21.824 70.0785 22.4213 69.4385 22.912C68.8198 23.3813 68.1265 23.7333 67.3585 23.968C66.5905 24.2027 65.8012 24.32 64.9905 24.32C63.9878 24.32 63.1238 24.1707 62.3985 23.872C61.6945 23.552 61.1185 23.104 60.6705 22.528C60.2438 21.952 59.9345 21.2587 59.7425 20.448C59.5505 19.616 59.4545 18.7093 59.4545 17.728V7.232H63.7425V16.8C63.7425 17.5467 63.8278 18.2187 63.9985 18.816C64.1692 19.392 64.4678 19.8507 64.8945 20.192C65.3212 20.512 65.9078 20.672 66.6545 20.672C67.1878 20.672 67.7212 20.5547 68.2545 20.32C68.7878 20.0853 69.2785 19.744 69.7265 19.296C70.1745 18.8267 70.5478 18.272 70.8465 17.632V7.232H75.1345V24H71.0065ZM90.636 10.944C89.3347 10.944 88.172 11.2 87.148 11.712C86.124 12.2027 85.388 12.9173 84.94 13.856V24H80.652V7.232H84.588V10.816C85.1853 9.664 85.9427 8.75733 86.86 8.096C87.7773 7.43467 88.748 7.072 89.772 7.008C90.0067 7.008 90.188 7.008 90.316 7.008C90.444 7.008 90.5507 7.01867 90.636 7.04V10.944ZM102.152 24.32C100.787 24.32 99.5602 24.096 98.4722 23.648C97.3842 23.1787 96.4562 22.5387 95.6882 21.728C94.9416 20.9173 94.3656 19.9893 93.9602 18.944C93.5549 17.8987 93.3522 16.8 93.3522 15.648C93.3522 14.4747 93.5549 13.3653 93.9602 12.32C94.3656 11.2747 94.9416 10.3467 95.6882 9.536C96.4562 8.72533 97.3842 8.096 98.4722 7.648C99.5602 7.17867 100.787 6.944 102.152 6.944C103.518 6.944 104.734 7.17867 105.8 7.648C106.888 8.096 107.816 8.72533 108.584 9.536C109.352 10.3467 109.928 11.2747 110.312 12.32C110.718 13.3653 110.92 14.4747 110.92 15.648C110.92 16.8 110.718 17.8987 110.312 18.944C109.928 19.9893 109.352 20.9173 108.584 21.728C107.838 22.5387 106.92 23.1787 105.832 23.648C104.744 24.096 103.518 24.32 102.152 24.32ZM97.7682 15.648C97.7682 16.6293 97.9602 17.504 98.3442 18.272C98.7282 19.0187 99.2509 19.6053 99.9122 20.032C100.574 20.4587 101.32 20.672 102.152 20.672C102.963 20.672 103.699 20.4587 104.36 20.032C105.022 19.584 105.544 18.9867 105.928 18.24C106.334 17.472 106.536 16.5973 106.536 15.616C106.536 14.656 106.334 13.792 105.928 13.024C105.544 12.256 105.022 11.6587 104.36 11.232C103.699 10.8053 102.963 10.592 102.152 10.592C101.32 10.592 100.574 10.816 99.9122 11.264C99.2509 11.6907 98.7282 12.288 98.3442 13.056C97.9602 13.8027 97.7682 14.6667 97.7682 15.648Z" fill="#362618"/>
<path d="M129.085 7.232C128.936 7.08267 128.659 6.88 128.253 6.624C127.869 6.368 127.389 6.12267 126.813 5.888C126.259 5.65333 125.651 5.45067 124.989 5.28C124.328 5.088 123.656 4.992 122.973 4.992C121.779 4.992 120.872 5.216 120.253 5.664C119.656 6.112 119.357 6.74133 119.357 7.552C119.357 8.17067 119.549 8.66133 119.933 9.024C120.317 9.38667 120.893 9.696 121.661 9.952C122.429 10.208 123.389 10.4853 124.541 10.784C126.035 11.1467 127.325 11.5947 128.413 12.128C129.523 12.64 130.365 13.3227 130.941 14.176C131.539 15.008 131.837 16.1173 131.837 17.504C131.837 18.72 131.613 19.7653 131.165 20.64C130.717 21.4933 130.099 22.1867 129.309 22.72C128.52 23.2533 127.624 23.648 126.621 23.904C125.619 24.1387 124.552 24.256 123.421 24.256C122.291 24.256 121.16 24.1387 120.029 23.904C118.899 23.6693 117.811 23.3387 116.765 22.912C115.72 22.464 114.76 21.9307 113.885 21.312L115.837 17.504C116.029 17.696 116.371 17.952 116.861 18.272C117.352 18.5707 117.949 18.88 118.653 19.2C119.357 19.4987 120.125 19.7547 120.957 19.968C121.789 20.1813 122.632 20.288 123.485 20.288C124.68 20.288 125.587 20.0853 126.205 19.68C126.824 19.2747 127.133 18.6987 127.133 17.952C127.133 17.2693 126.888 16.736 126.397 16.352C125.907 15.968 125.224 15.6373 124.349 15.36C123.475 15.0613 122.44 14.7413 121.245 14.4C119.816 13.9947 118.621 13.5467 117.661 13.056C116.701 12.544 115.987 11.904 115.517 11.136C115.048 10.368 114.813 9.408 114.813 8.256C114.813 6.69867 115.176 5.39733 115.901 4.352C116.648 3.28533 117.651 2.48533 118.909 1.952C120.168 1.39733 121.565 1.12 123.101 1.12C124.168 1.12 125.171 1.23733 126.109 1.472C127.069 1.70667 127.965 2.016 128.797 2.4C129.629 2.784 130.376 3.2 131.037 3.648L129.085 7.232ZM146.031 23.136C145.669 23.2853 145.231 23.456 144.719 23.648C144.207 23.84 143.653 23.9893 143.055 24.096C142.479 24.224 141.893 24.288 141.295 24.288C140.506 24.288 139.781 24.1493 139.119 23.872C138.458 23.5947 137.925 23.1573 137.519 22.56C137.135 21.9413 136.943 21.1413 136.943 20.16V10.528H134.735V7.232H136.943V1.792H141.231V7.232H144.751V10.528H141.231V18.72C141.253 19.296 141.413 19.712 141.711 19.968C142.01 20.224 142.383 20.352 142.831 20.352C143.279 20.352 143.717 20.2773 144.143 20.128C144.57 19.9787 144.911 19.8507 145.167 19.744L146.031 23.136ZM159.848 10.944C158.547 10.944 157.384 11.2 156.36 11.712C155.336 12.2027 154.6 12.9173 154.152 13.856V24H149.864V7.232H153.8V10.816C154.398 9.664 155.155 8.75733 156.072 8.096C156.99 7.43467 157.96 7.072 158.984 7.008C159.219 7.008 159.4 7.008 159.528 7.008C159.656 7.008 159.763 7.01867 159.848 7.04V10.944ZM173.986 24V21.664C173.346 22.56 172.535 23.232 171.554 23.68C170.572 24.1067 169.495 24.32 168.322 24.32C167.255 24.32 166.284 24.096 165.41 23.648C164.535 23.1787 163.842 22.5387 163.33 21.728C162.839 20.9173 162.594 20.0107 162.594 19.008C162.594 18.1547 162.786 17.3867 163.17 16.704C163.554 16.0213 164.076 15.456 164.738 15.008C165.399 14.5387 166.156 14.1867 167.01 13.952C167.884 13.7173 168.791 13.6 169.73 13.6C170.626 13.6 171.426 13.6747 172.13 13.824C172.834 13.9733 173.399 14.144 173.826 14.336V13.376C173.826 12.288 173.506 11.4453 172.866 10.848C172.247 10.2293 171.319 9.92 170.082 9.92C169.207 9.92 168.332 10.08 167.458 10.4C166.604 10.72 165.73 11.1893 164.834 11.808L163.522 9.088C164.567 8.40533 165.666 7.88267 166.818 7.52C167.97 7.136 169.196 6.944 170.498 6.944C172.14 6.944 173.527 7.22133 174.658 7.776C175.788 8.30933 176.642 9.09867 177.218 10.144C177.815 11.168 178.114 12.4053 178.114 13.856V24H173.986ZM173.122 19.776C173.591 19.3707 173.826 18.9653 173.826 18.56V16.64C173.292 16.4267 172.727 16.2667 172.13 16.16C171.532 16.0533 170.967 16 170.434 16C169.964 16 169.506 16.0533 169.058 16.16C168.61 16.2667 168.204 16.4373 167.842 16.672C167.479 16.8853 167.191 17.1627 166.978 17.504C166.764 17.824 166.658 18.208 166.658 18.656C166.658 19.1467 166.786 19.584 167.042 19.968C167.319 20.352 167.671 20.6507 168.098 20.864C168.546 21.0773 169.026 21.184 169.538 21.184C169.986 21.184 170.434 21.1307 170.882 21.024C171.33 20.9173 171.746 20.768 172.13 20.576C172.535 20.3627 172.866 20.096 173.122 19.776ZM195.568 24V21.376C195.034 22.3147 194.32 23.04 193.424 23.552C192.549 24.064 191.536 24.32 190.384 24.32C189.232 24.32 188.165 24.096 187.184 23.648C186.224 23.2 185.381 22.5813 184.656 21.792C183.952 21.0027 183.397 20.0853 182.992 19.04C182.608 17.9733 182.416 16.832 182.416 15.616C182.416 13.9947 182.736 12.5333 183.376 11.232C184.016 9.90933 184.901 8.864 186.032 8.096C187.162 7.328 188.442 6.944 189.872 6.944C191.13 6.944 192.25 7.25333 193.232 7.872C194.213 8.46933 194.992 9.23733 195.568 10.176V0.639999H199.856V24H195.568ZM195.568 13.856C195.354 13.216 195.002 12.6507 194.512 12.16C194.042 11.6693 193.52 11.2853 192.944 11.008C192.389 10.7307 191.813 10.592 191.216 10.592C190.576 10.592 189.989 10.7307 189.456 11.008C188.922 11.2853 188.453 11.6693 188.048 12.16C187.664 12.6293 187.365 13.1733 187.152 13.792C186.96 14.3893 186.864 15.0293 186.864 15.712C186.864 16.3947 186.97 17.0453 187.184 17.664C187.418 18.2613 187.749 18.784 188.176 19.232C188.602 19.68 189.093 20.032 189.648 20.288C190.224 20.544 190.832 20.672 191.472 20.672C191.898 20.672 192.325 20.608 192.752 20.48C193.178 20.3307 193.573 20.1387 193.936 19.904C194.32 19.648 194.65 19.3493 194.928 19.008C195.226 18.6453 195.44 18.2613 195.568 17.856V13.856ZM215.561 24V21.664C214.921 22.56 214.11 23.232 213.129 23.68C212.147 24.1067 211.07 24.32 209.897 24.32C208.83 24.32 207.859 24.096 206.985 23.648C206.11 23.1787 205.417 22.5387 204.905 21.728C204.414 20.9173 204.169 20.0107 204.169 19.008C204.169 18.1547 204.361 17.3867 204.745 16.704C205.129 16.0213 205.651 15.456 206.313 15.008C206.974 14.5387 207.731 14.1867 208.585 13.952C209.459 13.7173 210.366 13.6 211.305 13.6C212.201 13.6 213.001 13.6747 213.705 13.824C214.409 13.9733 214.974 14.144 215.401 14.336V13.376C215.401 12.288 215.081 11.4453 214.441 10.848C213.822 10.2293 212.894 9.92 211.657 9.92C210.782 9.92 209.907 10.08 209.033 10.4C208.179 10.72 207.305 11.1893 206.409 11.808L205.097 9.088C206.142 8.40533 207.241 7.88267 208.393 7.52C209.545 7.136 210.771 6.944 212.073 6.944C213.715 6.944 215.102 7.22133 216.233 7.776C217.363 8.30933 218.217 9.09867 218.793 10.144C219.39 11.168 219.689 12.4053 219.689 13.856V24H215.561ZM214.697 19.776C215.166 19.3707 215.401 18.9653 215.401 18.56V16.64C214.867 16.4267 214.302 16.2667 213.705 16.16C213.107 16.0533 212.542 16 212.009 16C211.539 16 211.081 16.0533 210.633 16.16C210.185 16.2667 209.779 16.4373 209.417 16.672C209.054 16.8853 208.766 17.1627 208.553 17.504C208.339 17.824 208.233 18.208 208.233 18.656C208.233 19.1467 208.361 19.584 208.617 19.968C208.894 20.352 209.246 20.6507 209.673 20.864C210.121 21.0773 210.601 21.184 211.113 21.184C211.561 21.184 212.009 21.1307 212.457 21.024C212.905 20.9173 213.321 20.768 213.705 20.576C214.11 20.3627 214.441 20.096 214.697 19.776Z" fill="#E8D7C8"/>
<circle cx="25.5" cy="15.5" r="6.5" stroke="#E8D7C8" stroke-width="4"/>
</svg>
