<svg width="73" height="70" viewBox="0 0 73 70" fill="none" xmlns="http://www.w3.org/2000/svg">
<path d="M70.4565 6.66667V7M70.4565 6.66667H70.0726M70.4565 6.66667V6.66667ZM70.4565 7V7ZM70.4565 7V7.33333M70.4565 7.33333V7.33333ZM70.4565 7.33333L70.8404 7.66667M70.8404 7.66667V7.66667ZM70.8404 7.66667H70.4565V8M70.4565 8V8ZM70.4565 8L70.8404 8.33333M70.8404 8.33333V8.33333ZM70.8404 8.33333H70.4565M70.4565 8.33333V8.33333ZM70.4565 8.33333L70.0726 8.66667M70.0726 8.66667V8.66667ZM70.0726 8.66667V9M70.0726 9V9ZM70.0726 9V9.33333M70.0726 9.33333V9.33333ZM70.0726 9.33333V9.66667M70.0726 9.66667V9.66667ZM70.0726 9.66667L70.4565 10V10.6667V12V12.6667M70.4565 12.6667V12.6667ZM70.4565 12.6667H70.8404L70.4565 13M70.4565 13V13ZM70.4565 13V13.3333M70.4565 13.3333V13.3333ZM70.4565 13.3333V13.6667M70.4565 13.6667V13.6667ZM70.4565 13.6667H70.0726M70.0726 13.6667V13.6667ZM70.0726 13.6667V14M70.0726 14V14ZM70.0726 14V14.3333L69.6887 14.6667M69.6887 14.6667V14.6667ZM69.6887 14.6667L68.9209 16L68.537 16.3333V16.6667M68.537 16.6667V16.6667ZM68.537 16.6667H68.1531M68.537 16.6667V17L68.1531 17.3333M68.1531 17.3333V17.3333ZM68.1531 17.3333V17.6667M68.1531 17.6667V17.6667ZM68.1531 17.6667V18M68.1531 18V18ZM68.1531 18V18.3333M68.1531 18.3333V18.3333ZM68.1531 18.3333L67.7692 19.6667M67.7692 19.6667V19.6667ZM67.7692 19.6667V20M67.7692 20V20ZM67.7692 20V21M67.7692 21V21ZM67.7692 21V21.6667M67.7692 21.6667V21.6667ZM67.7692 21.6667V22M67.7692 22V22ZM67.7692 22L67.3853 22.3333M67.3853 22.3333V22.3333ZM67.3853 22.3333V22M67.3853 22V22ZM67.3853 22H67.0014M67.0014 22V22ZM67.0014 22H66.6175M66.6175 22V22ZM66.6175 22H66.2336M66.2336 22V22ZM66.2336 22H65.8497M65.8497 22V22ZM65.8497 22H65.4657M65.4657 22V22ZM65.4657 22H65.0818M65.0818 22V22ZM65.0818 22V21.6667M65.0818 21.6667V21.6667ZM65.0818 21.6667H64.6979M64.6979 21.6667V21.6667ZM64.6979 21.6667H64.314M64.314 21.6667V21.6667ZM64.314 21.6667H63.9301M63.9301 21.6667V21.6667ZM63.9301 21.6667H63.5462M63.5462 21.6667V21.6667ZM63.5462 21.6667H63.1623M63.1623 21.6667V21.6667ZM63.1623 21.6667H62.7784M62.7784 21.6667V21.6667ZM62.7784 21.6667V22L62.3945 21.6667M62.3945 21.6667V22M62.3945 21.6667V21.6667ZM62.3945 22V22ZM62.3945 22H62.0106M62.0106 22V22ZM62.0106 22V22.3333M62.0106 22.3333V22.3333ZM62.0106 22.3333H61.6267M62.0106 22.3333V22.6667M61.6267 22.3333V22.3333ZM62.0106 22.6667V22.6667ZM62.0106 22.6667V23M62.0106 23V23ZM62.0106 23V23.3333M62.0106 23.3333V23.3333ZM62.0106 23.3333H61.6267L62.7784 24M62.7784 24V24ZM62.7784 24H62.3945M62.3945 24V24ZM62.3945 24H62.0106M62.0106 24V24ZM62.0106 24V24.3333M62.0106 24.3333V24.3333ZM62.0106 24.3333H61.6267M61.6267 24.3333V24.3333ZM61.6267 24.3333H61.2428L61.6267 25V25.3333V25.6667L61.2428 26H61.6267H62.0106M62.0106 26V26ZM62.0106 26V26.3333M62.0106 26.3333V26.3333ZM62.0106 26.3333H62.3945L62.7784 26.6667H63.1623M63.1623 26.6667V26.6667ZM63.1623 26.6667H63.5462M63.5462 26.6667V26.6667ZM63.5462 26.6667H63.9301M63.9301 26.6667V26.6667ZM63.9301 26.6667H64.314M64.314 26.6667V27M64.314 26.6667L64.6979 27M64.314 27V27ZM64.6979 27V27ZM64.6979 27H65.0818L65.8497 27.3333M65.8497 27.3333V27.3333ZM65.8497 27.3333L66.2336 27M66.2336 27V27ZM66.2336 27V26.6667M66.2336 26.6667V26.6667ZM66.2336 26.6667V26.3333H66.6175M66.6175 26.3333V26.3333ZM66.6175 26.3333V26.6667M66.6175 26.6667V26.6667ZM66.6175 26.6667L67.0014 27M67.0014 27V27ZM67.0014 27V27.3333V27.6667H67.3853V28M67.3853 28V28ZM67.3853 28H67.7692M67.7692 28V28ZM67.7692 28V28.3333M67.7692 28.3333V28.3333ZM67.7692 28.3333L68.1531 28.6667V29M68.1531 29V29ZM68.1531 29V29.3333M68.1531 29.3333V29.3333ZM68.1531 29.3333L67.7692 29.6667M67.7692 29.6667V29.6667ZM67.7692 29.6667V30M67.7692 30V30ZM67.7692 30V30.3333M67.7692 30.3333V30.3333ZM67.7692 30.3333H67.3853M67.3853 30.3333V30.3333ZM67.3853 30.3333V30.6667M67.3853 30.6667V30.6667ZM67.3853 30.6667V31M67.3853 31V31ZM67.3853 31V31.3333M67.3853 31.3333V31.3333ZM67.3853 31.3333V31.6667M67.3853 31.6667V31.6667ZM67.3853 31.6667L67.7692 32V32.3333M67.7692 32.3333V32.3333ZM67.7692 32.3333H67.3853M67.3853 32.3333V32.3333ZM67.3853 32.3333H67.0014M67.0014 32.3333V32.6667M67.0014 32.3333V32.3333ZM67.0014 32.3333H66.6175M66.6175 32.3333V32.3333ZM66.6175 32.3333V32.6667M66.6175 32.6667V32.6667ZM66.6175 32.6667L66.2336 33M66.2336 33V33ZM66.2336 33V33.3333M66.2336 33.3333V33.3333ZM66.2336 33.3333H65.8497V33.6667M65.8497 33.6667V33.6667ZM65.8497 33.6667H65.4657M65.4657 33.6667V33.6667ZM65.4657 33.6667H65.0818M65.0818 33.6667V33.6667ZM65.0818 33.6667V34M65.0818 34V34ZM65.0818 34H64.6979V34.3333M64.6979 34.3333V34.3333ZM64.6979 34.3333V34.6667M64.6979 34.6667V34.6667ZM64.6979 34.6667V35M64.6979 35V35ZM64.6979 35H64.314M64.314 35V35ZM64.314 35H63.9301M63.9301 35V35ZM63.9301 35V35.3333M63.9301 35.3333V35.3333ZM63.9301 35.3333H63.5462M63.5462 35.3333V35.3333ZM63.5462 35.3333H62.7784M62.7784 35.3333V35.3333ZM62.7784 35.3333H62.3945M62.3945 35.3333V35.3333ZM62.3945 35.3333V35.6667M62.3945 35.6667V35.6667ZM62.3945 35.6667V36M62.3945 36V36ZM62.3945 36L62.0106 36.3333M62.0106 36.3333V36.3333ZM62.0106 36.3333H61.6267M61.6267 36.3333V36.3333ZM61.6267 36.3333H61.2428M61.2428 36.3333V36.3333ZM61.2428 36.3333V36.6667M61.2428 36.6667V36.6667ZM61.2428 36.6667V37M61.2428 37V37ZM61.2428 37H61.6267M61.6267 37V37ZM61.6267 37V37.3333M61.6267 37.3333V37.3333ZM61.6267 37.3333H62.3945L62.7784 37.6667M62.7784 37.6667V37.6667ZM62.7784 37.6667L63.1623 38M63.1623 38V38ZM63.1623 38L63.5462 38.3333M63.5462 38.3333V38.3333ZM63.5462 38.3333H63.9301V38.6667M63.9301 38.6667V38.6667ZM63.9301 38.6667V39M63.9301 39V39ZM63.9301 39H63.5462M63.5462 39V39ZM63.5462 39L63.1623 39.3333V39.6667M63.1623 39.6667V39.6667ZM63.1623 39.6667V40M63.1623 40V40ZM63.1623 40L62.7784 40.3333M62.7784 40.3333V40.3333ZM62.7784 40.3333H62.3945M62.3945 40.3333V40.3333ZM62.3945 40.3333V40.6667H62.0106M62.0106 40.6667V40.6667ZM62.0106 40.6667H61.6267V40.3333M61.6267 40.3333V40.3333ZM61.6267 40.3333H61.2428M61.2428 40.3333V40.3333ZM61.2428 40.3333H60.8589M60.8589 40.3333V40.3333ZM60.8589 40.3333H60.475V40.6667M60.475 40.6667V40.6667ZM60.475 40.6667H60.0911M60.0911 40.6667V40.6667ZM60.0911 40.6667H59.7072M59.7072 40.6667V40.6667ZM59.7072 40.6667H59.3233V41H58.9394M58.9394 41V41ZM58.9394 41H58.5555M58.5555 41V41ZM58.5555 41V41.3333M58.5555 41.3333V41.3333ZM58.5555 41.3333H58.1716M58.1716 41.3333V41.3333ZM58.1716 41.3333H57.7877M57.7877 41.3333V41.3333ZM57.7877 41.3333V41.6667M57.7877 41.6667V41.6667ZM57.7877 41.6667H57.4038M57.4038 41.6667V41.6667ZM57.4038 41.6667H57.0199M57.0199 41.6667V41.6667ZM57.0199 41.6667H56.636M56.636 41.6667V41.6667ZM56.636 41.6667V41.3333M56.636 41.3333V41.3333ZM56.636 41.3333H56.2521M56.2521 41.3333V41.3333ZM56.2521 41.3333H55.8681M55.8681 41.3333V41.3333ZM55.8681 41.3333V41.6667M55.8681 41.6667V41.6667ZM55.8681 41.6667H56.2521M56.2521 41.6667V41.6667ZM56.2521 41.6667V42M56.2521 42V42ZM56.2521 42V42.3333M56.2521 42.3333V42.3333ZM56.2521 42.3333H55.8681M55.8681 42.3333V42.3333ZM55.8681 42.3333H55.4842M55.4842 42.3333V42.3333ZM55.4842 42.3333V42M55.4842 42V42ZM55.4842 42H55.1003M55.1003 42V42ZM55.1003 42H54.7164M54.7164 42V42ZM54.7164 42H54.3325M54.3325 42V42ZM54.3325 42V41.6667M54.3325 41.6667V41.6667ZM54.3325 41.6667V41.3333M54.3325 41.3333V41.3333ZM54.3325 41.3333H53.9486M53.9486 41.3333V41.3333ZM53.9486 41.3333H53.5647M53.5647 41.3333V41.3333ZM53.5647 41.3333H53.1808M53.1808 41.3333V41.3333ZM53.1808 41.3333H52.7969M52.7969 41.3333V41.3333ZM52.7969 41.3333H52.413M52.413 41.3333V41.3333ZM52.413 41.3333V41M52.413 41V41ZM52.413 41V40.6667M52.413 40.6667V40.6667ZM52.413 40.6667H52.0291M52.0291 40.6667V40.6667ZM52.0291 40.6667H51.6452M51.6452 40.6667V40.6667ZM51.6452 40.6667H51.2613M51.2613 40.6667V40.6667ZM51.2613 40.6667H50.8774M50.8774 40.6667V40.6667ZM50.8774 40.6667V41M50.8774 41V41ZM50.8774 41H51.2613M51.2613 41V41ZM51.2613 41H51.6452M51.6452 41V41ZM51.6452 41V41.3333M51.6452 41.3333V41.3333ZM51.6452 41.3333V41.6667M51.6452 41.6667V41.6667ZM51.6452 41.6667H52.0291M52.0291 41.6667V41.6667ZM52.0291 41.6667V42M52.0291 42V42ZM52.0291 42H51.6452M51.6452 42V42ZM51.6452 42H51.2613M51.2613 42V42ZM51.2613 42H50.8774M50.8774 42V42ZM50.8774 42H50.4935V41.6667M50.4935 41.6667V41.6667ZM50.4935 41.6667H50.1096M50.1096 41.6667V41.6667ZM50.1096 41.6667V42M50.1096 42V42ZM50.1096 42H49.7257M49.7257 42V42ZM49.7257 42H49.3418M49.3418 42V42ZM49.3418 42V42.3333M49.3418 42.3333V42.3333ZM49.3418 42.3333H48.9579M48.9579 42.3333V42.3333ZM48.9579 42.3333H48.574M48.574 42.3333V42.3333ZM48.574 42.3333L48.1901 42.6667M48.1901 42.6667V42.6667ZM48.1901 42.6667V43M48.1901 43V43ZM48.1901 43H48.574M48.574 43V43ZM48.574 43V43.3333M48.574 43.3333V43.3333ZM48.574 43.3333V43.6667M48.574 43.6667V43.6667ZM48.574 43.6667H48.9579M48.574 43.6667L48.9579 44M48.9579 43.6667V43.6667ZM48.9579 44V44ZM48.9579 44H48.574V44.3333H48.1901M48.1901 44.3333V44.3333ZM48.1901 44.3333V44.6667M48.1901 44.6667V44.6667ZM48.1901 44.6667H48.574M48.574 44.6667V44.6667ZM48.574 44.6667H48.9579M48.9579 44.6667V44.6667ZM48.9579 44.6667L49.3418 45M49.3418 45V45ZM49.3418 45H49.7257M49.7257 45V45ZM49.7257 45V45.3333M49.7257 45.3333V45.3333ZM49.7257 45.3333H49.3418M49.3418 45.3333V45.3333ZM49.3418 45.3333V45.6667H49.7257M49.7257 45.6667V45.6667ZM49.7257 45.6667V46M49.7257 46V46ZM49.7257 46V46.3333M49.7257 46.3333V46.3333ZM49.7257 46.3333L50.4935 46.6667M50.4935 46.6667V46.6667ZM50.4935 46.6667H50.8774M50.8774 46.6667V46.6667ZM50.8774 46.6667H51.2613M51.2613 46.6667V46.6667ZM51.2613 46.6667V47M51.2613 47V47ZM51.2613 47H50.8774M50.8774 47V47ZM50.8774 47V47.3333V47.6667M50.8774 47.6667V47.6667ZM50.8774 47.6667L50.4935 48M50.4935 48V48ZM50.4935 48L51.2613 48.3333M51.2613 48.3333V48.3333ZM51.2613 48.3333V48.6667H51.6452V49M51.6452 49V49ZM51.6452 49L52.0291 49.6667H52.413V50H52.7969V50.3333M52.7969 50.3333V50.3333ZM52.7969 50.3333V50.6667M52.7969 50.6667V50.6667ZM52.7969 50.6667V51M52.7969 51V51ZM52.7969 51L53.1808 51.3333M53.1808 51.3333V51.3333ZM53.1808 51.3333V51.6667M53.1808 51.6667V51.6667ZM53.1808 51.6667H52.7969M52.7969 51.6667V51.6667ZM52.7969 51.6667V52M52.7969 52V52ZM52.7969 52V52.3333V53M52.7969 53V53ZM52.7969 53H53.1808M53.1808 53V53ZM53.1808 53L52.7969 53.3333M52.7969 53.3333V53.3333ZM52.7969 53.3333L53.1808 54L52.413 54.6667M52.413 54.6667V54.6667ZM52.413 54.6667H52.0291M52.0291 54.6667V54.6667ZM52.0291 54.6667V55M52.0291 55V55ZM52.0291 55L51.6452 55.3333M51.6452 55.3333V55.3333ZM51.6452 55.3333V55.6667M51.6452 55.6667V55.6667ZM51.6452 55.6667L51.2613 56M51.2613 56V56ZM51.2613 56V56.3333L50.8774 56.6667L50.4935 57M50.4935 57V57ZM50.4935 57V57.3333M50.4935 57.3333V57.3333ZM50.4935 57.3333H50.1096V57.6667M50.1096 57.6667V57.6667ZM50.1096 57.6667V58M50.1096 58V58ZM50.1096 58H50.4935V58.3333V58.6667M50.4935 58.6667V58.6667ZM50.4935 58.6667H50.8774M50.8774 58.6667V58.6667ZM50.8774 58.6667H51.2613M51.2613 58.6667V58.6667ZM51.2613 58.6667V58.3333M51.2613 58.3333V58.3333ZM51.2613 58.3333H51.6452M51.6452 58.3333V58.3333ZM51.6452 58.3333H52.0291M52.0291 58.3333V58L52.413 58.3333H52.0291ZM52.0291 58.3333V58.3333ZM52.0291 58.3333L51.6452 58.6667M51.6452 58.6667V58.6667ZM51.6452 58.6667V59H52.0291M52.0291 59V59ZM52.0291 59V59.3333M52.0291 59.3333V59.3333ZM52.0291 59.3333H51.6452M51.6452 59.3333V59.3333ZM51.6452 59.3333H51.2613M51.2613 59.3333V59.3333ZM51.2613 59.3333L50.8774 59.6667M50.8774 59.6667V59.6667ZM50.8774 59.6667H50.4935M50.4935 59.6667V59.6667ZM50.4935 59.6667V60M50.4935 60V60ZM50.4935 60H50.1096M50.1096 60V60ZM50.1096 60V60.3333M50.1096 60.3333V60.3333ZM50.1096 60.3333H49.7257M49.7257 60.3333V60.3333ZM49.7257 60.3333V60.6667M49.7257 60.6667V60.6667ZM49.7257 60.6667H49.3418M49.3418 60.6667V60.6667ZM49.3418 60.6667H48.9579V61M48.9579 61V61ZM48.9579 61H48.574V61.3333M48.574 61.3333V61.3333ZM48.574 61.3333V61.6667M48.574 61.6667V61.6667ZM48.574 61.6667V62M48.574 62V62ZM48.574 62H48.1901M48.1901 62V62ZM48.1901 62H47.8062M47.8062 62V62ZM47.8062 62V61.6667M47.8062 61.6667V61.6667ZM47.8062 61.6667V61.3333H47.4223M47.4223 61.3333V61.3333ZM47.4223 61.3333L47.0384 61.6667M47.0384 61.6667V61.6667ZM47.0384 61.6667H46.6545M46.6545 61.6667V61.6667ZM46.6545 61.6667V62M46.6545 62V62ZM46.6545 62H47.0384M47.0384 62V62ZM47.0384 62L46.6545 62.3333M46.6545 62.3333V62.3333ZM46.6545 62.3333H47.0384M47.0384 62.3333V62.3333ZM47.0384 62.3333V62.6667M47.0384 62.6667V62.6667ZM47.0384 62.6667L47.4223 63M47.4223 63V63ZM47.4223 63V63.3333M47.4223 63.3333V63.3333ZM47.4223 63.3333H47.0384M47.4223 63.3333V63.6667H47.0384M47.4223 63.3333H47.8062M47.0384 63.3333V63.3333ZM47.0384 63.3333V63.6667M47.0384 63.6667V63.6667ZM47.8062 63.3333V63.3333ZM47.8062 63.3333H48.1901M48.1901 63.3333V63.3333ZM48.1901 63.3333H48.574M48.574 63.3333V63.3333ZM48.574 63.3333H48.9579M48.9579 63.3333V63.3333ZM48.9579 63.3333H49.3418M49.3418 63.3333V63.3333ZM49.3418 63.3333V63.6667M49.3418 63.6667V63.6667ZM49.3418 63.6667V64M49.3418 64V64ZM49.3418 64H48.9579M49.3418 64V64.3333V64.6667H49.7257M49.7257 64.6667V64.6667ZM49.7257 64.6667H50.1096M50.1096 64.6667V64.6667ZM50.1096 64.6667V65M50.1096 65V65ZM50.1096 65L50.4935 64.6667M50.4935 64.6667V64.6667ZM50.4935 64.6667V65M50.4935 65V65ZM50.4935 65H50.8774M50.4935 65V65.3333M50.8774 65V65ZM50.4935 65.3333V65.3333ZM50.4935 65.3333V65.6667M50.4935 65.6667V65.6667ZM50.4935 65.6667V66M50.4935 66V66ZM50.4935 66V66.3333M50.4935 66.3333V66.3333ZM50.4935 66.3333V66.6667H50.1096M50.1096 66.6667V66.6667ZM50.1096 66.6667V66.3333M50.1096 66.3333V66.3333ZM50.1096 66.3333L49.7257 66.6667M49.7257 66.6667V66.6667ZM49.7257 66.6667H49.3418M49.3418 66.6667V66.6667ZM49.3418 66.6667V67M49.3418 67V67ZM49.3418 67V67.3333M49.3418 67.3333V67.3333ZM49.3418 67.3333V67.6667M49.3418 67.6667V67.6667ZM49.3418 67.6667H48.9579M48.9579 67.6667V67.6667ZM48.9579 67.6667H48.574M48.574 67.6667V67.6667ZM48.574 67.6667V68M48.574 68V68ZM48.574 68H48.9579M48.9579 68V68ZM48.9579 68V68.3333M48.9579 68.3333V68.3333ZM48.9579 68.3333H49.3418M49.3418 68.3333V68.3333ZM49.3418 68.3333H49.7257M49.3418 68.3333V68.6667M49.3418 68.6667V68.6667ZM49.3418 68.6667V69M49.3418 69V69ZM49.3418 69H48.9579M48.9579 69V69ZM48.9579 69H48.574M48.574 69V69ZM48.574 69V68.6667M48.574 68.6667V68.6667ZM48.574 68.6667H48.1901M48.1901 68.6667V68.6667ZM48.1901 68.6667H47.8062M47.8062 68.6667V68.6667ZM47.8062 68.6667V69M47.8062 69V69ZM47.8062 69H47.4223M47.4223 69V69ZM47.4223 69H47.0384M47.0384 69V69ZM47.0384 69V68.6667M47.0384 68.6667V68.6667ZM47.0384 68.6667H46.6545M46.6545 68.6667V68.6667ZM46.6545 68.6667L46.2705 69M46.2705 69V69ZM46.2705 69V68.6667M46.2705 68.6667V68.6667ZM46.2705 68.6667H45.8866M45.8866 68.6667V68.6667ZM45.8866 68.6667V69H45.5027M45.5027 69V69ZM45.5027 69V68.6667M45.5027 68.6667V68.6667ZM45.5027 68.6667H45.1188M45.1188 68.6667V68.6667ZM45.1188 68.6667V68.3333M45.1188 68.3333V68.3333ZM45.1188 68.3333H44.7349M44.7349 68.3333V68.3333ZM44.7349 68.3333V68.6667H44.351M44.351 68.6667V68.6667ZM44.351 68.6667V69M44.351 68.6667H43.9671M44.351 69V69ZM43.9671 68.6667V68.6667ZM43.9671 68.6667H43.5832M43.5832 68.6667V68.6667ZM43.5832 68.6667V69M43.5832 68.6667V68.3333M43.5832 69V69ZM43.5832 68.3333V68.3333ZM43.5832 68.3333V68M43.5832 68V68ZM43.5832 68V67.6667M43.5832 67.6667V67.6667ZM43.5832 67.6667V67.3333L43.1993 67.6667V67.3333M43.1993 67.3333V67.3333ZM43.1993 67.3333H42.8154M42.8154 67.3333V67.3333ZM42.8154 67.3333V67M42.8154 67V67ZM42.8154 67V66.6667M42.8154 66.6667V66.6667ZM42.8154 66.6667V66.3333M42.8154 66.3333V66.3333ZM42.8154 66.3333V66M42.8154 66V66ZM42.8154 66H43.1993M43.1993 66V66ZM43.1993 66V65.6667M43.1993 65.6667V65.6667ZM43.1993 65.6667H43.5832M43.5832 65.6667V65.6667ZM43.5832 65.6667V65.3333M43.5832 65.3333V65.3333ZM43.5832 65.3333V65M43.5832 65V65ZM43.5832 65H43.9671M43.9671 65V65ZM43.9671 65V65.3333M43.9671 65H44.351M44.351 65V65ZM44.351 65V64.6667M44.351 64.6667V64.6667ZM44.351 64.6667V64.3333M44.351 64.3333V64.3333ZM44.351 64.3333H44.7349V64M44.7349 64V64ZM44.7349 64H44.351M44.351 64V64ZM44.351 64H43.9671M43.9671 64V64ZM43.9671 64V63.6667H44.351M44.351 63.6667V63.6667ZM44.351 63.6667V63.3333M44.351 63.3333V63.3333ZM44.351 63.3333H44.7349M44.7349 63.3333V63.3333ZM44.7349 63.3333V63M44.7349 63V63ZM44.7349 63V62.6667M44.7349 62.6667V62.6667ZM44.7349 62.6667H45.1188V62.3333M45.1188 62.3333V62.3333ZM45.1188 62.3333H44.7349M44.7349 62.3333V62.3333ZM44.7349 62.3333V62M44.7349 62V62ZM44.7349 62L45.1188 61.6667M45.1188 61.6667V61.6667ZM45.1188 61.6667V61.3333M45.1188 61.3333V61.3333ZM45.1188 61.3333H45.5027M45.5027 61.3333V61.3333ZM45.5027 61.3333V61M45.5027 61V61ZM45.5027 61V60.6667M45.5027 60.6667V60.6667ZM45.5027 60.6667H45.8866M45.8866 60.6667V60.6667ZM45.8866 60.6667L46.2705 60.3333M46.2705 60.3333V60.3333ZM46.2705 60.3333H45.8866M45.8866 60.3333V60.3333ZM45.8866 60.3333H45.5027M45.5027 60.3333V60.3333ZM45.5027 60.3333V60M45.5027 60V60ZM45.5027 60H45.8866M45.8866 60V60ZM45.8866 60V59.6667M45.8866 59.6667V59.6667ZM45.8866 59.6667H46.2705M46.2705 59.6667V59.6667ZM46.2705 59.6667V59.3333M46.2705 59.3333V59.3333ZM46.2705 59.3333H46.6545M46.2705 59.3333V59M46.2705 59V59ZM46.2705 59H45.8866M45.8866 59V59ZM45.8866 59V58.6667M45.8866 59H45.5027M45.5027 59V59ZM45.5027 59H45.1188M45.1188 59V59ZM45.1188 59V59.3333M45.1188 59V58.6667M45.1188 59.3333V59.3333ZM45.1188 58.6667V58.6667ZM45.1188 58.6667L44.7349 58.3333M44.7349 58.3333V58.3333ZM44.7349 58.3333H44.351M44.351 58.3333V58.3333ZM44.351 58.3333H43.9671M43.9671 58.3333V58.3333ZM43.9671 58.3333H43.5832M43.5832 58.3333V58.3333ZM43.5832 58.3333H43.1993M43.1993 58.3333V58.3333ZM43.1993 58.3333H42.8154V58M42.8154 58V58ZM42.8154 58H42.4315L41.6637 57.6667L41.2798 57.3333M41.2798 57.3333V57.3333ZM41.2798 57.3333V57M41.2798 57V57ZM41.2798 57V56.6667M41.2798 56.6667V56.6667ZM41.2798 56.6667V56.3333M41.2798 56.3333V56.3333ZM41.2798 56.3333H40.8959M40.8959 56.3333V56.3333ZM40.8959 56.3333L40.512 56V55.6667M40.512 55.6667V55.6667ZM40.512 55.6667H40.1281M40.1281 55.6667V55.6667ZM40.1281 55.6667H39.7442M39.7442 55.6667V55.6667ZM39.7442 55.6667V56H39.3603H38.9764M38.9764 56V56ZM38.9764 56V56.3333H38.5925H38.2086L37.4408 56M37.4408 56V56ZM37.4408 56V56.3333M37.4408 56.3333V56.3333ZM37.4408 56.3333H37.0569M37.0569 56.3333V56.3333ZM37.0569 56.3333H36.6729H35.9051H35.5212H35.1373L35.5212 56V55.6667V55.3333L35.1373 55M35.1373 55V55ZM35.1373 55H34.7534M34.7534 55V55ZM34.7534 55H34.3695M34.3695 55V55ZM34.3695 55V55.3333H33.9856L33.6017 55V54.6667V54.3333M33.6017 54.3333V54.3333ZM33.6017 54.3333L33.2178 54V53.6667M33.2178 53.6667V53.6667ZM33.2178 53.6667L32.45 53.3333L32.8339 52.6667M32.8339 52.6667V52.6667ZM32.8339 52.6667L33.2178 52.3333L32.8339 52V51.3333M32.8339 51.3333V51.3333ZM32.8339 51.3333H32.45H32.0661M32.0661 51.3333V51.3333ZM32.0661 51.3333V51M32.0661 51V51ZM32.0661 51H31.6822M31.6822 51V51ZM31.6822 51V51.3333M31.6822 51.3333V51.3333ZM31.6822 51.3333H31.2983M31.2983 51.3333V51.3333ZM31.2983 51.3333V51.6667M31.2983 51.6667V51.6667ZM31.2983 51.6667H31.6822M31.2983 51.6667V52M31.2983 52V52ZM31.2983 52L30.9144 52.3333M30.9144 52.3333V52.3333ZM30.9144 52.3333L30.5305 52.6667M30.5305 52.6667V52.6667ZM30.5305 52.6667L30.1466 53M30.1466 53V53.3333M30.1466 53V53ZM30.1466 53H29.7627M30.1466 53.3333V53.3333ZM30.1466 53.3333H29.7627M29.7627 53.3333V53.3333ZM29.7627 53.3333V53M29.7627 53V53ZM29.7627 53V52.6667M29.7627 52.6667V52.6667ZM29.7627 52.6667H29.3788M29.3788 52.6667V52.6667ZM29.3788 52.6667H28.9949M29.3788 52.6667V52.3333M28.9949 52.6667V52.6667ZM28.9949 52.6667V53M28.9949 52.6667H28.611M28.611 52.6667V52.6667ZM28.611 52.6667H28.2271M28.2271 52.6667H27.8432M28.2271 52.6667V52.3333M28.2271 52.6667V52.6667ZM27.8432 52.6667V52.6667ZM27.8432 52.6667L27.4592 53M27.4592 53V53ZM27.4592 53V52.6667M27.4592 52.6667V52.6667ZM27.4592 52.6667H27.0753M27.0753 52.6667V52.6667ZM27.0753 52.6667V52.3333M27.0753 52.3333V52.3333ZM27.0753 52.3333H27.4592M27.4592 52.3333V52.3333ZM27.4592 52.3333H27.8432M27.8432 52.3333V52.3333ZM27.8432 52.3333H28.2271M28.2271 52.3333V52.3333ZM28.2271 52.3333V52M28.2271 52V51.6667M28.2271 52V52ZM28.2271 51.6667V51.6667ZM28.2271 51.6667H28.611M28.2271 51.6667V51.3333H28.611M28.611 51.6667V51.6667ZM28.611 51.3333V51.3333ZM28.611 51.3333V51M28.611 51V51ZM28.611 51H28.2271M28.2271 51V51ZM28.2271 51V50.6667M28.2271 50.6667V50.6667ZM28.2271 50.6667H27.8432M27.8432 50.6667V50.6667ZM27.8432 50.6667H27.4592M27.4592 50.6667V50.6667ZM27.4592 50.6667V50.3333L27.0753 50.6667M27.0753 50.6667V50.6667ZM27.0753 50.6667H26.6914M26.6914 50.6667V50.6667ZM26.6914 50.6667V51M26.6914 51V51ZM26.6914 51H26.3075V51.3333M26.3075 51.3333V51.3333ZM26.3075 51.3333H25.9236M25.9236 51.3333V51.3333ZM25.9236 51.3333V51.6667M25.9236 51.6667V51.6667ZM25.9236 51.6667L25.5397 52M25.5397 52V52ZM25.5397 52V52.3333H25.1558M25.1558 52.3333V52.3333ZM25.1558 52.3333V52.6667M25.1558 52.6667V52.6667ZM25.1558 52.6667H24.7719M24.7719 52.6667V52.6667ZM24.7719 52.6667V52.3333M24.7719 52.3333V52.3333ZM24.7719 52.3333H24.388M24.388 52.3333V52.3333ZM24.388 52.3333H24.0041M24.0041 52.3333V52.3333ZM24.0041 52.3333H23.6202M23.6202 52.3333V52.3333ZM23.6202 52.3333L23.2363 52.6667L22.8524 52.3333M22.8524 52.3333V52.3333ZM22.8524 52.3333V52M22.8524 52V52ZM22.8524 52V51.6667M22.8524 51.6667V51.6667ZM22.8524 51.6667H23.2363M23.2363 51.6667V51.6667ZM23.2363 51.6667V51.3333V51H22.4685M22.4685 51V51ZM22.4685 51L22.0846 51.3333M22.0846 51.3333V51M22.0846 51.3333V51.3333ZM22.0846 51.3333H21.7007M22.0846 51V51ZM21.7007 51.3333V51.3333ZM21.7007 51.3333H21.3168L20.9329 51.6667M20.9329 51.6667V51.6667ZM20.9329 51.6667H20.549V52M20.549 52H20.1651M20.549 52V52ZM20.549 52V52.3333M20.1651 52V52ZM20.549 52.3333V52.3333ZM20.549 52.3333V52.6667V53L20.9329 53.3333M20.9329 53.3333V53.3333ZM20.9329 53.3333L21.3168 53.6667M21.3168 53.6667H20.9329M21.3168 53.6667V54M21.3168 54V54ZM21.3168 54H20.9329M20.9329 54V54ZM20.9329 54H20.549M20.549 54V54ZM20.549 54V54.3333M20.549 54.3333V54.3333ZM20.549 54.3333H20.1651M20.1651 54.3333V54.3333ZM20.1651 54.3333V54M20.1651 54V54ZM20.1651 54H19.7812M19.7812 54V54ZM19.7812 54H19.3973V53.6667H19.0134M19.0134 53.6667V53.6667ZM19.0134 53.6667H18.6295M18.6295 53.6667V53.6667ZM18.6295 53.6667H17.4777V54M17.4777 54V54ZM17.4777 54L17.8616 54.3333L17.0938 55L16.326 55.6667M16.326 55.6667V55.6667ZM16.326 55.6667V56L15.1743 56.6667M15.1743 56.6667V56.6667ZM15.1743 56.6667H14.7904M14.7904 56.6667V56.6667ZM14.7904 56.6667V57M14.7904 57V57ZM14.7904 57H14.4065M14.4065 57V57ZM14.4065 57H14.0226M14.0226 57V57ZM14.0226 57H13.6387M13.6387 57V57ZM13.6387 57H13.2548V57.3333M13.2548 57.3333V57.3333ZM13.2548 57.3333H12.8709M12.8709 57.3333V57.3333ZM12.8709 57.3333V57.6667M12.8709 57.6667V57.6667ZM12.8709 57.6667H12.487M12.487 57.6667V57.6667ZM12.487 57.6667H12.1031M12.1031 57.6667V57.6667ZM12.1031 57.6667V58H11.7192M11.7192 58V58ZM11.7192 58H11.3353M11.3353 58V58ZM11.3353 58V57.6667M11.3353 57.6667V57.6667ZM11.3353 57.6667H11.7192M11.3353 57.6667V57.3333H11.7192V57.6667M11.3353 57.6667H10.9514M11.7192 57.6667V57.6667ZM10.9514 57.6667V57.6667ZM10.9514 57.6667H10.5675M10.5675 57.6667V57.6667ZM10.5675 57.6667H10.1836M10.1836 57.6667V57.6667ZM10.1836 57.6667H9.79966M9.79966 57.6667V57.6667ZM9.79966 57.6667V57.3333V57V56.6667M9.79966 56.6667V56.6667ZM9.79966 56.6667V56.3333M9.79966 56.3333V56.3333ZM9.79966 56.3333H9.41576M9.41576 56.3333V56.3333ZM9.41576 56.3333V56.6667M9.41576 56.3333H9.03185M9.03185 56.3333V56.3333ZM9.03185 56.3333H8.64795M8.64795 56.3333V56.3333ZM8.64795 56.3333H8.26405M8.26405 56.3333V56.3333ZM8.26405 56.3333V56M8.26405 56V56ZM8.26405 56H7.88014M7.88014 56V56ZM7.88014 56L7.49624 55.6667M7.49624 55.6667V55.6667ZM7.49624 55.6667H7.11233M7.11233 55.6667V55.6667ZM7.11233 55.6667V56M7.11233 56V56ZM7.11233 56L6.72843 55.6667M6.72843 55.6667V55.6667ZM6.72843 55.6667L6.34453 55.3333M6.34453 55.3333V55.3333ZM6.34453 55.3333V55.6667M6.34453 55.6667H5.96062M6.34453 55.6667V55.6667ZM6.34453 55.6667L5.96062 56M5.96062 55.6667V56M5.96062 55.6667V55.6667ZM5.96062 55.6667H5.57672M5.96062 56V56ZM5.57672 55.6667V55.6667ZM5.57672 55.6667V56M5.57672 56V56ZM5.57672 56H5.19281M5.19281 56V56ZM5.19281 56V55.6667L4.80891 56M4.80891 56V56ZM4.80891 56L5.19281 56.3333V56.6667V57M5.19281 57V57ZM5.19281 57H4.80891M4.80891 57V57ZM4.80891 57H4.0411M4.0411 57V57ZM4.0411 57H3.6572M3.6572 57V57ZM3.6572 57H3.27329M3.27329 57V57ZM3.27329 57V56.6667M3.27329 56.6667V56.6667ZM3.27329 56.6667H2.88939M2.88939 56.6667V56.6667ZM2.88939 56.6667V56.3333M2.88939 56.3333V56.3333ZM2.88939 56.3333H2.50549M2.50549 56.3333V56.3333ZM2.50549 56.3333V56M2.50549 56V56ZM2.50549 56V55.6667M2.50549 55.6667V55.6667ZM2.50549 55.6667H2.12158M2.50549 55.6667V55.3333M2.50549 55.3333V55.3333ZM2.50549 55.3333H2.12158L2.50549 54.6667M2.50549 54.6667V54.6667ZM2.50549 54.6667V54.3333M2.50549 54.3333V54.3333ZM2.50549 54.3333V54H2.12158L2.50549 53.6667M2.50549 53.6667V53.6667ZM2.50549 53.6667H2.88939M2.88939 53.6667V53.6667ZM2.88939 53.6667V53.3333M2.88939 53.3333V53.3333ZM2.88939 53.3333H3.27329M3.27329 53.3333V53.3333ZM3.27329 53.3333H3.6572M3.6572 53.3333V53.3333ZM3.6572 53.3333H4.0411M4.0411 53.3333V53.3333ZM4.0411 53.3333V53H4.42501M4.42501 53V53ZM4.42501 53H4.80891M4.80891 53V53ZM4.80891 53H5.19281M5.19281 53V53ZM5.19281 53H5.57672M5.57672 53V53ZM5.57672 53H5.96062M5.96062 53V53ZM5.96062 53V53.3333M5.96062 53.3333V53.3333ZM5.96062 53.3333H6.34453M6.34453 53.3333V53.3333ZM6.34453 53.3333H6.72843M6.72843 53.3333V53.3333ZM6.72843 53.3333V53.6667M6.72843 53.6667V53.6667ZM6.72843 53.6667H7.11233M7.11233 53.6667V53.6667ZM7.11233 53.6667H7.49624M7.49624 53.6667V53.6667ZM7.49624 53.6667H7.88014M7.88014 53.6667V53.6667ZM7.88014 53.6667V54M7.88014 54V54ZM7.88014 54H8.26405M8.26405 54V54ZM8.26405 54V54.3333H8.64795M8.64795 54.3333V54.3333ZM8.64795 54.3333H9.03185M9.03185 54.3333V54.3333ZM9.03185 54.3333H9.41576M9.03185 54.3333V54.6667H9.41576M9.41576 54.3333V54.3333ZM9.41576 54.3333V54.6667M9.41576 54.3333H9.79966M9.41576 54.6667V54.6667ZM9.79966 54.3333V54.3333ZM9.79966 54.3333H10.1836M10.1836 54.3333V54.3333ZM10.1836 54.3333V54.6667M10.1836 54.3333L10.5675 54.6667M10.1836 54.6667V54.6667ZM10.1836 54.6667H10.5675M10.5675 54.6667V54.6667ZM10.5675 54.6667V54.3333M10.5675 54.6667H10.9514M10.5675 54.3333V54.3333ZM10.9514 54.6667V54.6667ZM10.9514 54.6667H11.3353M11.3353 54.6667V54.6667ZM11.3353 54.6667V54.3333M11.3353 54.3333V54.3333ZM11.3353 54.3333H11.7192M11.7192 54.3333V54.3333ZM11.7192 54.3333V54H12.1031M12.1031 54V54ZM12.1031 54H12.487M12.487 54V54ZM12.487 54H12.8709M12.8709 54V54ZM12.8709 54V53.6667M12.8709 53.6667V53.6667ZM12.8709 53.6667V53.3333M12.8709 53.3333V53.3333ZM12.8709 53.3333V53M12.8709 53V53ZM12.8709 53H13.2548M13.2548 53V53ZM13.2548 53H13.6387H14.0226M14.0226 53V53ZM14.0226 53V53.3333M14.0226 53.3333V53.3333ZM14.0226 53.3333V53.6667M14.0226 53.6667V53.6667ZM14.0226 53.6667H14.4065M14.4065 53.6667V53.6667ZM14.4065 53.6667V54M14.4065 54V54ZM14.4065 54H14.7904H15.1743M15.1743 54V54ZM15.1743 54H15.5582M15.5582 54V54ZM15.5582 54H15.9421M15.9421 54V54ZM15.9421 54H16.326M16.326 54V54ZM16.326 54V53.6667M16.326 53.6667V53.6667ZM16.326 53.6667H16.7099M16.7099 53.6667V54M16.7099 53.6667V53.6667ZM16.7099 53.6667H17.0938M16.7099 54V54ZM17.0938 53.6667V53.6667ZM17.0938 53.6667V53.3333V53M17.0938 53V53ZM17.0938 53H16.7099M16.7099 53V53ZM16.7099 53L16.326 53.3333M16.326 53.3333V53.3333ZM16.326 53.3333L15.9421 53M15.9421 53V53ZM15.9421 53H15.5582M15.5582 53V53ZM15.5582 53H15.1743M15.1743 53V53ZM15.1743 53H14.7904M14.7904 53V53ZM14.7904 53V52.6667M14.7904 52.6667V52.6667ZM14.7904 52.6667H14.4065M14.4065 52.6667V52.6667ZM14.4065 52.6667V52.3333M14.4065 52.3333V52.3333ZM14.4065 52.3333H14.0226M14.0226 52.3333V52.3333ZM14.0226 52.3333V52M14.0226 52V52ZM14.0226 52H13.6387M13.6387 52V52ZM13.6387 52V51.6667M13.6387 52L13.2548 51.6667M13.6387 51.6667V51.6667ZM13.2548 51.6667V51.6667ZM13.2548 51.6667H12.8709M12.8709 51.6667V51.6667ZM12.8709 51.6667H12.487V52M12.487 52V52ZM12.487 52L12.1031 51.6667M12.1031 51.6667V51.6667ZM12.1031 51.6667V52M12.1031 52V52ZM12.1031 52V52.3333M12.1031 52.3333V52.3333ZM12.1031 52.3333V52.6667M12.1031 52.6667V52.6667ZM12.1031 52.6667V53H11.7192M11.7192 53V53ZM11.7192 53V53.3333M11.7192 53.3333V53.3333ZM11.7192 53.3333H11.3353M11.3353 53.3333V53.3333ZM11.3353 53.3333V53M11.3353 53.3333H10.9514M11.3353 53V53ZM10.9514 53.3333V53.3333ZM10.9514 53.3333H10.5675M10.5675 53.3333V53.3333ZM10.5675 53.3333H10.1836M10.1836 53.3333V53.3333ZM10.1836 53.3333H9.79966V53M9.79966 53V53ZM9.79966 53H9.41576M9.41576 53V53ZM9.41576 53V52.6667M9.41576 52.6667V52.6667ZM9.41576 52.6667H9.03185M9.03185 52.6667V52.6667ZM9.03185 52.6667H8.64795M8.64795 52.6667V52.6667ZM8.64795 52.6667V52.3333M8.64795 52.3333V52.3333ZM8.64795 52.3333H8.26405M8.26405 52.3333V52.3333ZM8.26405 52.3333V52M8.26405 52V52ZM8.26405 52H7.88014M8.26405 52V51.6667M8.26405 52H8.64795M7.88014 52V52ZM7.88014 52V51.6667M7.88014 51.6667V51.6667ZM7.88014 51.6667H8.26405M7.88014 51.6667L8.26405 51.3333M7.88014 51.6667H7.49624M8.26405 51.6667V51.6667ZM8.26405 51.6667L8.64795 52M8.26405 51.6667H8.64795M8.26405 51.6667V51.3333M8.64795 52V52ZM8.64795 51.6667V51.6667ZM8.64795 51.6667L8.26405 51.3333M8.64795 51.6667V51.3333M8.26405 51.3333V51.3333ZM8.26405 51.3333H8.64795M8.26405 51.3333V51M8.64795 51.3333V51.3333ZM7.49624 51.6667V51.6667ZM7.49624 51.6667V52M7.49624 52V52ZM7.49624 52H7.11233M7.11233 52V52ZM7.11233 52H6.72843M6.72843 52V52ZM6.72843 52H6.34453M6.34453 52V52ZM6.34453 52H5.96062M5.96062 52V52ZM5.96062 52H5.57672M5.57672 52V52ZM5.57672 52V51.6667M5.57672 51.6667V51.6667ZM5.57672 51.6667H5.19281M5.19281 51.6667V51.6667ZM5.19281 51.6667V51.3333M5.19281 51.3333V51.3333ZM5.19281 51.3333H4.80891V51M4.80891 51V51ZM4.80891 51L4.42501 50.6667M4.42501 50.6667V50.6667ZM4.42501 50.6667L4.0411 50.3333M4.0411 50.3333V50.3333ZM4.0411 50.3333H3.6572M3.6572 50.3333V50.3333ZM3.6572 50.3333V50M3.6572 50V50ZM3.6572 50V49.6667M3.6572 49.6667V49.6667ZM3.6572 49.6667V49.3333H4.0411M4.0411 49.3333V49.3333ZM4.0411 49.3333L4.42501 49M4.42501 49V49ZM4.42501 49H4.80891M4.80891 49V49ZM4.80891 49L5.19281 48.6667M5.19281 48.6667V48.6667ZM5.19281 48.6667H5.57672V48.3333M5.57672 48.3333V48.3333ZM5.57672 48.3333H5.96062M5.96062 48.3333V48.3333ZM5.96062 48.3333H6.34453M6.34453 48.3333V48.3333ZM6.34453 48.3333H6.72843M6.72843 48.3333V48.3333ZM6.72843 48.3333H7.11233M7.11233 48.3333V48.3333ZM7.11233 48.3333H7.49624M7.49624 48.3333V48.3333ZM7.49624 48.3333H7.88014M7.88014 48.3333V48.3333ZM7.88014 48.3333V48M7.88014 48V48ZM7.88014 48V47.6667M7.88014 47.6667V47.6667ZM7.88014 47.6667H7.49624M7.88014 47.6667V47.3333M7.49624 47.6667V47.6667ZM7.88014 47.3333V47.3333ZM7.88014 47.3333H8.26405M8.26405 47.3333V47.3333ZM8.26405 47.3333V47M8.26405 47V47ZM8.26405 47H8.64795M8.64795 47V47ZM8.64795 47V46.6667M8.64795 46.6667V46.6667ZM8.64795 46.6667L8.26405 46.3333M8.26405 46.3333V46.3333ZM8.26405 46.3333H7.88014V46M7.88014 46V46ZM7.88014 46V45.6667M7.88014 45.6667V45.6667ZM7.88014 45.6667V45.3333M7.88014 45.3333V45.3333ZM7.88014 45.3333V45H8.26405M8.26405 45V45ZM8.26405 45L8.64795 44.6667M8.64795 44.6667V44.6667ZM8.64795 44.6667H9.03185M9.03185 44.6667V44.6667ZM9.03185 44.6667H9.41576M9.41576 44.6667V44.6667ZM9.41576 44.6667H9.79966M9.79966 44.6667V44.6667ZM9.79966 44.6667H10.1836M10.1836 44.6667V44.6667ZM10.1836 44.6667H10.5675M10.5675 44.6667V44.6667ZM10.5675 44.6667V44.3333M10.5675 44.3333V44.3333ZM10.5675 44.3333V44M10.5675 44V44ZM10.5675 44H10.9514M10.9514 44V44ZM10.9514 44V43.6667H11.3353M11.3353 43.6667V43.6667ZM11.3353 43.6667L10.9514 43.3333M10.9514 43.3333V43.3333ZM10.9514 43.3333V43M10.9514 43V43ZM10.9514 43V42.6667M10.9514 42.6667V42.6667ZM10.9514 42.6667H11.3353M11.3353 42.6667V42.6667ZM11.3353 42.6667L11.7192 42.3333M11.7192 42.3333V42.3333ZM11.7192 42.3333V42.6667M11.7192 42.6667V42.6667ZM11.7192 42.6667L12.1031 42.3333M12.1031 42.3333V42.3333ZM12.1031 42.3333H12.487M12.487 42.3333V42.3333ZM12.487 42.3333V42H12.8709M12.8709 42V42ZM12.8709 42H13.2548M13.2548 42V42ZM13.2548 42H13.6387M13.6387 42V42ZM13.6387 42H14.0226M13.6387 42V42.3333M14.0226 42V42ZM13.6387 42.3333V42.3333ZM13.6387 42.3333H14.0226M14.0226 42.3333V42.3333ZM14.0226 42.3333V42.6667H14.4065M14.0226 42.3333L14.4065 42.6667M14.0226 42.3333H14.4065M14.4065 42.6667V42.6667ZM14.4065 42.3333V42.3333ZM14.4065 42.3333L14.7904 42M14.7904 42V42ZM14.7904 42V41.6667H14.4065M14.4065 41.6667V41.6667ZM14.4065 41.6667V41.3333M14.4065 41.3333V41.3333ZM14.4065 41.3333L14.0226 41M14.0226 41V41ZM14.0226 41V40.6667M14.0226 40.6667V40.6667ZM14.0226 40.6667H14.4065M14.4065 40.6667V40.6667ZM14.4065 40.6667V40.3333M14.4065 40.3333V40.3333ZM14.4065 40.3333V40M14.4065 40V40ZM14.4065 40H14.0226M14.0226 40V40ZM14.0226 40H13.6387V40.3333M13.6387 40.3333V40.3333ZM13.6387 40.3333H13.2548M13.2548 40.3333V40.3333ZM13.2548 40.3333V40M13.2548 40V40ZM13.2548 40V39.6667L12.8709 39.3333M12.8709 39.3333V39.3333ZM12.8709 39.3333V39M12.8709 39V39ZM12.8709 39L13.2548 38.6667M13.2548 38.6667V38.6667ZM13.2548 38.6667V38.3333H13.6387M13.6387 38.3333V38.3333ZM13.6387 38.3333L14.0226 38.6667V38.3333M14.0226 38.3333V38.3333ZM14.0226 38.3333L14.4065 38.6667M14.4065 38.6667V38.6667ZM14.4065 38.6667H14.7904M14.7904 38.6667V38.6667ZM14.7904 38.6667H15.1743M15.1743 38.6667V38.6667ZM15.1743 38.6667L14.7904 38.3333H14.4065M15.1743 38.6667V38.3333M14.4065 38.3333V38.3333ZM14.4065 38.3333H15.1743M15.1743 38.3333V38.3333ZM15.1743 38.3333H15.5582M15.5582 38.3333V38.3333ZM15.5582 38.3333L15.9421 38M15.9421 38V38ZM15.9421 38V37.6667H16.326M16.326 37.6667V37.6667ZM16.326 37.6667V37.3333M16.326 37.3333V37.3333ZM16.326 37.3333H16.7099M16.7099 37.3333V37.3333ZM16.7099 37.3333V37M16.7099 37V37ZM16.7099 37V36.6667M16.7099 36.6667V36.6667ZM16.7099 36.6667H17.0938M16.7099 36.6667L17.0938 37M17.0938 36.6667V36.6667ZM17.0938 36.6667V37M17.0938 36.6667L17.4777 36.3333M17.0938 37V37ZM17.4777 36.3333V36.3333ZM17.4777 36.3333L17.8616 36M17.8616 36V36ZM17.8616 36V35.6667H18.2456M18.2456 35.6667V35.6667ZM18.2456 35.6667V35.3333H18.6295M18.6295 35.3333V35.3333ZM18.6295 35.3333V35M18.6295 35V35ZM18.6295 35H19.0134M19.0134 35V35ZM19.0134 35V34.6667H19.3973V34.3333M19.3973 34.3333V34.3333ZM19.3973 34.3333L19.7812 34M19.7812 34V34ZM19.7812 34V33.6667H20.1651M20.1651 33.6667V33.6667ZM20.1651 33.6667V33.3333H20.549V33M20.549 33V33ZM20.549 33V32.6667M20.549 32.6667V32.6667ZM20.549 32.6667H20.9329M20.9329 32.6667V32.6667ZM20.9329 32.6667V32.3333M20.9329 32.3333V32.3333ZM20.9329 32.3333V32M20.9329 32V32ZM20.9329 32H21.3168V31.6667M21.3168 31.6667V31.6667ZM21.3168 31.6667V31.3333H21.7007V31M21.7007 31V31ZM21.7007 31V30.6667H22.0846M22.0846 30.6667V30.6667ZM22.0846 30.6667V30.3333V30H22.4685M22.4685 30V30ZM22.4685 30V29.6667V29.3333M22.4685 29.3333V29.3333ZM22.4685 29.3333L22.8524 29M22.8524 29V29ZM22.8524 29V28.6667M22.8524 28.6667V28.6667ZM22.8524 28.6667V28.3333L23.2363 28M23.2363 28V28ZM23.2363 28V27.6667M23.2363 27.6667V27.6667ZM23.2363 27.6667V27.3333H23.6202M23.6202 27.3333V27.3333ZM23.6202 27.3333V27M23.6202 27V27ZM23.6202 27V26.6667M23.6202 26.6667H23.2363M23.6202 26.6667V26.6667ZM23.6202 26.6667V26.3333M23.2363 26.6667V26.6667ZM23.2363 26.6667H22.8524M22.8524 26.6667V26.6667ZM22.8524 26.6667V26.3333M23.6202 26.3333H23.2363M23.6202 26.3333V26.3333ZM23.6202 26.3333V26M23.2363 26.3333V26.3333ZM23.6202 26V26ZM23.6202 26H24.0041M24.0041 26V26ZM24.0041 26V25.6667M24.0041 25.6667V25.6667ZM24.0041 25.6667V25.3333M24.0041 25.3333V25.3333ZM24.0041 25.3333V25M24.0041 25V25ZM24.0041 25V24.6667M24.0041 24.6667V24.6667ZM24.0041 24.6667H24.388V24.3333M24.388 24.3333V24.3333ZM24.388 24.3333V24M24.388 24V24ZM24.388 24V23.6667M24.388 23.6667V23.6667ZM24.388 23.6667V23.3333M24.388 23.3333V23.3333ZM24.388 23.3333V23M24.388 23V23ZM24.388 23V22.6667M24.388 22.6667V22.6667ZM24.388 22.6667V22.3333H24.7719V22M24.7719 22V22ZM24.7719 22V21.6667M24.7719 21.6667V21.6667ZM24.7719 21.6667V21.3333M24.7719 21.3333V21.3333ZM24.7719 21.3333V21M24.7719 21V21ZM24.7719 21V20.6667M24.7719 20.6667V20.6667ZM24.7719 20.6667V20.3333M24.7719 20.3333V20.3333ZM24.7719 20.3333V20M24.7719 20V20ZM24.7719 20V19.6667M24.7719 19.6667V19.6667ZM24.7719 19.6667V19.3333L25.1558 19V18.6667M25.1558 18.6667V18.6667ZM25.1558 18.6667V18.3333H25.5397M25.5397 18.3333V18.3333ZM25.5397 18.3333V18M25.5397 18V18ZM25.5397 18V17.6667M25.5397 17.6667V17.6667ZM25.5397 17.6667V17.3333M25.5397 17.3333V17.3333ZM25.5397 17.3333H25.9236V17M25.9236 17V17ZM25.9236 17V16.6667M25.9236 16.6667V16.6667ZM25.9236 16.6667V16.3333M25.9236 16.3333V16.3333ZM25.9236 16.3333V16H26.3075M26.3075 16V16ZM26.3075 16V15.6667V15.3333M26.3075 15.3333V15.3333ZM26.3075 15.3333V15M26.3075 15V15ZM26.3075 15V14.6667M26.3075 14.6667V14.6667ZM26.3075 14.6667V14.3333M26.3075 14.3333V14.3333ZM26.3075 14.3333V14M26.3075 14V14ZM26.3075 14L26.6914 13.6667M26.6914 13.6667V13.6667ZM26.6914 13.6667H27.0753M27.0753 13.6667V13.6667ZM27.0753 13.6667H27.4592M27.4592 13.6667V13.6667ZM27.4592 13.6667V14M27.4592 13.6667H27.8432M27.4592 14V14ZM27.4592 14H27.8432M27.8432 14V14ZM27.8432 14V13.6667M27.8432 14L27.4592 14.3333M27.8432 13.6667V13.6667ZM27.4592 14.3333V14.3333ZM27.4592 14.3333V14.6667M27.4592 14.6667V14.6667ZM27.4592 14.6667H27.8432M27.8432 14.6667V14.6667ZM27.8432 14.6667V15M27.8432 15V15ZM27.8432 15L28.2271 15.3333M28.2271 15.3333V15.3333ZM28.2271 15.3333H28.611M28.611 15.3333V15.3333ZM28.611 15.3333V15.6667H28.9949M28.9949 15.6667V15.6667ZM28.9949 15.6667H29.3788M29.3788 15.6667V15.6667ZM29.3788 15.6667H29.7627M29.7627 15.6667V15.6667ZM29.7627 15.6667V15.3333M29.7627 15.3333V15.3333ZM29.7627 15.3333H30.1466M30.1466 15.3333V15.3333ZM30.1466 15.3333V15H30.5305M30.5305 15V15ZM30.5305 15V14.6667M30.5305 14.6667V14.6667ZM30.5305 14.6667H30.9144M30.9144 14.6667V14.6667ZM30.9144 14.6667H31.2983M31.2983 14.6667V14.6667ZM31.2983 14.6667V14.3333M31.2983 14.6667H31.6822M31.2983 14.3333V14.3333ZM31.6822 14.6667V14.6667ZM31.6822 14.6667V14.3333M31.6822 14.3333V14.3333ZM31.6822 14.3333H32.0661M32.0661 14.3333V14.3333ZM32.0661 14.3333V14.6667M32.0661 14.3333H32.45L32.8339 13.6667H33.2178L33.6017 13.3333M32.0661 14.6667V14.6667ZM33.6017 13.3333V13.3333ZM33.6017 13.3333L34.3695 13M34.3695 13V13ZM34.3695 13L34.7534 12.3333M34.7534 12.3333V12.3333ZM34.7534 12.3333H35.1373L35.9051 11.6667V11.3333H36.289M36.289 11.3333V11.3333ZM36.289 11.3333L36.6729 11M36.6729 11V11ZM36.6729 11H37.0569M37.0569 11V11ZM37.0569 11V10.6667M37.0569 11H37.4408M37.0569 10.6667V10.6667ZM37.4408 11V11ZM37.4408 11V10.6667L37.8247 10.3333H38.2086M38.2086 10.3333V10.3333ZM38.2086 10.3333V10M38.2086 10V10ZM38.2086 10H38.5925V9.66667M38.5925 9.66667V9.66667ZM38.5925 9.66667V9.33333V9M38.5925 9V9ZM38.5925 9V8.66667M38.5925 8.66667V8.66667ZM38.5925 8.66667V8.33333M38.5925 8.33333V8.33333ZM38.5925 8.33333L38.9764 8M38.5925 8.33333V8M38.9764 8V8ZM38.9764 8H38.5925M38.9764 8V7.66667M38.5925 8V8ZM38.9764 7.66667V7.66667ZM38.9764 7.66667V7.33333M38.9764 7.33333V7.33333ZM38.9764 7.33333H39.3603M39.3603 7.33333V7.33333ZM39.3603 7.33333V7M39.3603 7V7ZM39.3603 7H39.7442M39.7442 7V7ZM39.7442 7V6.66667M39.7442 6.66667V6.66667ZM39.7442 6.66667H40.1281M40.1281 6.66667V6.66667ZM40.1281 6.66667V6.33333M40.1281 6.33333V6.33333ZM40.1281 6.33333H40.512M40.512 6.33333V6.33333ZM40.512 6.33333H40.8959V6M40.8959 6V6ZM40.8959 6L41.2798 5.66667M41.2798 5.66667V5.66667ZM41.2798 5.66667L41.6637 5.33333V5M41.6637 5V5ZM41.6637 5H42.0476M42.0476 5V5ZM42.0476 5H42.4315M42.4315 5V5ZM42.4315 5V4.66667M42.4315 4.66667V4.66667ZM42.4315 4.66667H42.8154M42.8154 4.66667V4.66667ZM42.8154 4.66667H43.1993M43.1993 4.66667V4.66667ZM43.1993 4.66667V4.33333H43.5832M43.5832 4.33333V4.33333ZM43.5832 4.33333H43.9671M43.9671 4.33333V4.33333ZM43.9671 4.33333L44.351 4M44.351 4V4ZM44.351 4H44.7349M44.7349 4V4ZM44.7349 4V3.66667M44.7349 4L45.1188 3.66667M45.1188 3.66667V3.66667ZM45.1188 3.66667H45.5027M45.5027 3.66667V3.66667ZM45.5027 3.66667L45.8866 3.33333M45.8866 3.33333V3.33333ZM45.8866 3.33333H46.2705M46.2705 3.33333V3.33333ZM46.2705 3.33333V3M46.2705 3V3ZM46.2705 3H46.6545M46.6545 3V3ZM46.6545 3H47.0384M47.0384 3V3ZM47.0384 3V2.66667M47.0384 3H47.4223M47.0384 2.66667V2.66667ZM47.4223 3V3ZM47.4223 3H47.8062M47.8062 3V3ZM47.8062 3V2.66667H48.1901M48.1901 2.66667V2.66667ZM48.1901 2.66667H48.574M48.574 2.66667V2.66667ZM48.574 2.66667H48.9579M48.9579 2.66667V2.66667ZM48.9579 2.66667H49.3418V2.33333M49.3418 2.33333V2.33333ZM49.3418 2.33333H49.7257M49.7257 2.33333V2.33333ZM49.7257 2.33333H50.1096M50.1096 2.33333V2.33333ZM50.1096 2.33333H50.4935M50.4935 2.33333V2.33333ZM50.4935 2.33333H50.8774M50.8774 2.33333V2.33333ZM50.8774 2.33333H51.2613M51.2613 2.33333V2.33333ZM51.2613 2.33333H51.6452M51.6452 2.33333V2.33333ZM51.6452 2.33333H52.0291M52.0291 2.33333V2.33333ZM52.0291 2.33333H52.413M52.413 2.33333V2.33333ZM52.413 2.33333H52.7969M52.7969 2.33333V2.33333ZM52.7969 2.33333H53.5647M53.5647 2.33333V2M53.5647 2.33333H53.9486M53.5647 2V2ZM53.9486 2.33333V2.33333ZM53.9486 2.33333H54.3325V2.66667M54.3325 2.66667V2.66667ZM54.3325 2.66667H54.7164M54.7164 2.66667V2.66667ZM54.7164 2.66667V2.33333M54.7164 2.33333V2.33333ZM54.7164 2.33333H55.1003M55.1003 2.33333V2.33333ZM55.1003 2.33333H55.4842M55.4842 2.33333V2.33333ZM55.4842 2.33333L55.8681 2M55.8681 2V2ZM55.8681 2H56.2521M56.2521 2V2ZM56.2521 2H56.636M56.636 2V2ZM56.636 2H57.0199M57.0199 2V2ZM57.0199 2H57.4038M57.4038 2V2ZM57.4038 2H57.7877M57.7877 2V2ZM57.7877 2H58.1716M58.1716 2V2ZM58.1716 2V1.66667M58.1716 1.66667V1.66667ZM58.1716 1.66667H58.5555M58.5555 1.66667V1.66667ZM58.5555 1.66667H58.9394M58.9394 1.66667V1.66667ZM58.9394 1.66667H59.3233M59.3233 1.66667V1.66667ZM59.3233 1.66667H59.7072V1.33333M59.7072 1.33333V1.33333ZM59.7072 1.33333H60.0911M60.0911 1.33333V1.33333ZM60.0911 1.33333H60.475V1M60.475 1V1ZM60.475 1H60.8589M60.8589 1V1ZM60.8589 1H61.2428M61.2428 1V1ZM61.2428 1H62.0106M62.0106 1V1ZM62.0106 1H62.3945M62.3945 1V1ZM62.3945 1H62.7784M62.7784 1V1ZM62.7784 1H63.1623M63.1623 1V1ZM63.1623 1H63.5462M63.5462 1V1ZM63.5462 1H63.9301M63.9301 1V1ZM63.9301 1V1.33333M63.9301 1L64.314 1.33333M63.9301 1.33333V1.33333ZM63.9301 1.33333H63.5462M63.9301 1.33333H64.314M63.5462 1.33333V1.33333ZM64.314 1.33333V1.33333ZM64.314 1.33333H64.6979V1.66667M64.6979 1.66667V1.66667ZM64.6979 1.66667V2M64.6979 2V2ZM64.6979 2V2.33333M64.6979 2.33333V2.33333ZM64.6979 2.33333V2.66667M64.6979 2.66667V2.66667ZM64.6979 2.66667V3M64.6979 3V3ZM64.6979 3V3.33333M64.6979 3.33333V3.33333ZM64.6979 3.33333H65.0818M65.0818 3.33333V3.33333ZM65.0818 3.33333V3.66667M65.0818 3.66667V3.66667ZM65.0818 3.66667V4M65.0818 4V4ZM65.0818 4H65.4657M65.4657 4V4ZM65.4657 4V4.33333M65.4657 4.33333V4.33333ZM65.4657 4.33333H65.8497M65.8497 4.33333V4.33333ZM65.8497 4.33333V4.66667M65.8497 4.66667H66.2336M65.8497 4.66667V4.66667ZM66.2336 4.66667V4.66667ZM66.2336 4.66667H66.6175M66.6175 4.66667V4.66667ZM66.6175 4.66667H67.0014M66.6175 4.66667V5M67.0014 4.66667V4.66667ZM67.0014 4.66667L66.6175 5M67.0014 4.66667V5M66.6175 5V5ZM67.0014 5V5ZM67.0014 5H67.3853M67.3853 5V5ZM67.3853 5H67.7692M67.7692 5V5ZM67.7692 5H68.1531M68.1531 5V5ZM68.1531 5H68.537M68.537 5V5ZM68.537 5L68.1531 5.33333M68.1531 5.33333V5.33333ZM68.1531 5.33333V5.66667M68.1531 5.66667V5.66667ZM68.1531 5.66667V6M68.1531 6V6ZM68.1531 6V6.33333H68.537M68.537 6.33333V6.33333ZM68.537 6.33333H68.9209M68.9209 6.33333V6.33333ZM68.9209 6.33333H69.3048M69.3048 6.33333V6.33333ZM69.3048 6.33333V6.66667M69.3048 6.66667V6.66667ZM69.3048 6.66667H69.6887M69.6887 6.66667V6.66667ZM69.6887 6.66667V7M69.6887 6.66667H70.0726M70.0726 6.66667V6.66667ZM30.1466 52.3333V52.3333ZM30.1466 52.3333V52M30.1466 52.3333H29.7627M30.1466 52V52ZM30.1466 52H29.7627M30.1466 52V51.6667M30.1466 52H30.5305M30.1466 52L30.5305 51.6667M29.7627 52V52ZM29.7627 52V52.3333M29.7627 52.3333V52.3333ZM29.3788 52.3333V52.3333ZM30.1466 51.6667V51.6667ZM30.5305 51.6667V51.6667ZM30.5305 51.6667V52M30.5305 52V52Z" stroke="#13263A"/>
</svg>
