<svg width="133" height="70" viewBox="0 0 133 70" fill="none" xmlns="http://www.w3.org/2000/svg">
<path d="M62.1191 7.48962V7.48962ZM62.1191 7.48962H62.8941M62.1191 7.48962L61.7316 7.82233M62.8941 7.48962V7.48962ZM62.8941 7.48962V7.82233M62.8941 7.82233V7.82233ZM62.8941 7.82233L63.6692 7.48962L64.0567 7.1569L63.6692 6.82418M63.6692 6.82418V6.82418ZM63.6692 6.82418L64.0567 6.49146H63.6692L64.0567 5.82602H64.4442H64.8318V5.49331M64.8318 5.49331V5.49331ZM64.8318 5.49331L65.2193 5.16059V5.49331L65.6068 5.16059H65.9944V4.82787L66.7694 5.16059M66.7694 5.16059V5.16059ZM66.7694 5.16059V5.49331M66.7694 5.49331V5.49331ZM66.7694 5.49331L67.1569 5.16059M67.1569 5.16059V5.16059ZM67.1569 5.16059V4.82787H67.932V5.16059M67.932 5.16059V5.16059ZM67.932 5.16059L68.3195 4.82787H68.707H69.0946V4.16243H69.4821M69.4821 4.16243V4.16243ZM69.4821 4.16243H70.2571L70.6447 4.49515M70.6447 4.49515V4.49515ZM70.6447 4.49515L71.0322 4.16243L72.5823 3.497H73.3573L73.7449 3.16428L74.5199 2.49884L74.9074 1.83341H75.295M75.295 1.83341V1.83341ZM75.295 1.83341V1.50069H75.6825H76.07H76.4575M76.4575 1.50069V1.50069ZM76.4575 1.50069H76.8451M76.8451 1.50069V1.50069ZM76.8451 1.50069L77.2326 1.16797M77.2326 1.16797V1.16797ZM77.2326 1.16797V1.50069M77.2326 1.50069V1.50069ZM77.2326 1.50069H77.6201L77.2326 1.83341M77.2326 1.83341V1.83341ZM77.2326 1.83341L77.6201 2.16612M77.6201 2.16612V2.16612ZM77.6201 2.16612V2.49884M77.6201 2.49884V2.49884ZM77.6201 2.49884V2.83156M77.6201 2.83156V2.83156ZM77.6201 2.83156V3.16428M77.6201 3.16428V3.16428ZM77.6201 3.16428H78.0076M77.6201 3.16428V3.497M78.0076 3.16428V3.16428ZM77.6201 3.497V3.497ZM77.6201 3.497H78.0076M78.0076 3.497V3.497ZM78.0076 3.497V3.82972M78.0076 3.82972V3.82972ZM78.0076 3.82972H78.3952M78.3952 3.82972V3.82972ZM78.3952 3.82972L78.7827 4.16243V3.82972M78.7827 3.82972V3.82972ZM78.7827 3.82972H79.1702M78.7827 3.82972V3.497V3.16428L79.1702 2.83156M79.1702 2.83156V2.83156ZM79.1702 2.83156L78.7827 2.49884M78.7827 2.49884V2.49884ZM78.7827 2.49884L78.3952 2.16612M78.3952 2.16612V2.16612ZM78.3952 2.16612V1.83341H78.7827V1.50069M78.7827 1.50069V1.50069ZM78.7827 1.50069H79.1702V1.83341M79.1702 1.83341V1.83341ZM79.1702 1.83341H79.5577V2.16612M79.5577 2.16612V2.16612ZM79.5577 2.16612V2.49884H79.9453M79.9453 2.49884V2.49884ZM79.9453 2.49884V2.83156H80.3328M80.3328 2.83156V2.83156ZM80.3328 2.83156H80.7203H81.1078V3.16428M81.1078 3.16428V3.16428ZM81.1078 3.16428H81.4954M81.4954 3.16428V3.16428ZM81.4954 3.16428L81.8829 3.497M81.8829 3.497V3.497ZM81.8829 3.497V3.82972M81.8829 3.82972V3.82972ZM81.8829 3.82972H81.4954M81.4954 3.82972V3.82972ZM81.4954 3.82972L81.8829 4.16243M81.8829 4.16243V4.16243ZM81.8829 4.16243H82.2704V4.49515M82.2704 4.49515V4.49515ZM82.2704 4.49515H83.0455M83.0455 4.49515V4.49515ZM83.0455 4.49515H82.658V4.82787H83.0455V4.49515ZM83.0455 4.49515H83.433V4.82787M83.433 4.82787V4.82787ZM83.433 4.82787H83.8205M83.8205 4.82787V4.82787ZM83.8205 4.82787V4.49515M83.8205 4.82787H84.2081M83.8205 4.49515V4.49515ZM84.2081 4.82787V4.82787ZM84.2081 4.82787V5.16059M84.2081 5.16059V5.16059ZM84.2081 5.16059L83.8205 5.49331L84.9831 5.82602V6.15874H85.3706M85.3706 6.15874V6.15874ZM85.3706 6.15874H85.7582M85.7582 6.15874V6.15874ZM85.7582 6.15874V6.49146M85.7582 6.49146V6.49146ZM85.7582 6.49146H86.1457L86.5332 6.15874M86.5332 6.15874V6.15874ZM86.5332 6.15874L86.9207 5.82602V6.15874H87.3083L87.6958 6.49146V6.82418L88.0833 7.48962V7.82233H88.8584M88.8584 7.82233V7.82233ZM88.8584 7.82233H89.2459M89.2459 7.82233V7.82233ZM89.2459 7.82233H89.6334V8.15505M89.6334 8.15505H89.2459M89.6334 8.15505V8.15505ZM89.6334 8.15505H90.0209H90.4085M89.2459 8.15505V8.15505ZM90.4085 8.15505V8.15505ZM90.4085 8.15505H90.796H91.1835L91.571 7.82233M91.571 7.82233V7.82233ZM91.571 7.82233L91.9586 8.15505M91.9586 8.15505V8.15505ZM91.9586 8.15505H92.3461M92.3461 8.15505V8.15505ZM92.3461 8.15505V8.48777M92.3461 8.48777V8.48777ZM92.3461 8.48777V8.82049M92.3461 8.82049V8.82049ZM92.3461 8.82049V9.15321M92.3461 9.15321V9.15321ZM92.3461 9.15321V9.48593H91.9586M91.9586 9.48593V9.48593ZM91.9586 9.48593V9.81864M91.9586 9.81864V9.81864ZM91.9586 9.81864V10.1514M91.9586 10.1514V10.1514ZM91.9586 10.1514V10.4841M91.9586 10.4841V10.4841ZM91.9586 10.4841H92.3461M92.3461 10.4841V10.4841ZM92.3461 10.4841L92.7336 10.8168V10.4841M92.7336 10.4841V10.4841ZM92.7336 10.4841H93.1211M93.1211 10.4841V10.4841ZM93.1211 10.4841V10.8168M93.1211 10.8168V10.8168ZM93.1211 10.8168H93.5087M93.5087 10.8168V10.8168ZM93.5087 10.8168H93.8962V11.1495M93.8962 11.1495V11.1495ZM93.8962 11.1495V11.4822M93.8962 11.4822V11.4822ZM93.8962 11.4822H94.6712M94.6712 11.4822V11.4822ZM94.6712 11.4822V11.815M94.6712 11.815V11.815ZM94.6712 11.815H95.0588M95.0588 11.815V11.815ZM95.0588 11.815V12.1477M95.0588 12.1477V12.1477ZM95.0588 12.1477L94.6712 12.4804V12.8131M94.6712 12.8131V12.8131ZM94.6712 12.8131H95.0588M95.0588 12.8131V12.8131ZM95.0588 12.8131V13.1458H95.4463M95.4463 13.1458V13.1458ZM95.4463 13.1458V13.4785M95.4463 13.4785V13.4785ZM95.4463 13.4785H95.8338M95.8338 13.4785V13.4785ZM95.8338 13.4785V13.8113M95.8338 13.8113V13.8113ZM95.8338 13.8113H95.4463M95.8338 13.8113V14.144M95.4463 13.8113V13.8113ZM95.8338 14.144V14.144ZM95.8338 14.144V14.4767M95.8338 14.4767V14.4767ZM95.8338 14.4767H96.2213M95.8338 14.4767V14.8094M95.8338 14.8094V14.8094ZM95.8338 14.8094H96.2213M96.2213 14.8094V14.8094ZM96.2213 14.8094V15.1421M96.2213 15.1421V15.1421ZM96.2213 15.1421V15.4749M96.2213 15.4749V15.4749ZM96.2213 15.4749H96.6089M96.6089 15.4749V15.4749ZM96.6089 15.4749H96.9964M96.9964 15.4749V15.4749ZM96.9964 15.4749V15.8076M96.9964 15.8076V15.8076ZM96.9964 15.8076H97.3839M97.3839 15.8076V15.8076ZM97.3839 15.8076H97.7714L98.5465 16.1403H99.7091L100.097 16.8057L100.484 17.4712L100.872 17.8039H101.259H101.647M101.647 17.8039V17.8039ZM101.647 17.8039V17.4712M101.647 17.4712V17.4712ZM101.647 17.4712V17.1384M101.647 17.1384V17.1384ZM101.647 17.1384H102.034M102.034 17.1384V17.1384ZM102.034 17.1384V17.4712M102.034 17.4712V17.4712ZM102.034 17.4712V17.8039M102.034 17.8039V17.8039ZM102.034 17.8039H102.422M102.422 17.8039V17.8039ZM102.422 17.8039V17.4712L102.809 16.8057M102.809 16.8057V16.8057ZM102.809 16.8057L103.197 16.473M103.197 16.473V16.473ZM103.197 16.473L103.584 16.8057V16.473M103.584 16.473V16.473ZM103.584 16.473V16.1403H103.972M103.972 16.1403V16.1403ZM103.972 16.1403H104.359M104.359 16.1403V16.1403ZM104.359 16.1403H104.747M104.747 16.1403V16.1403ZM104.747 16.1403L104.359 15.8076H104.747M104.747 15.8076V15.8076ZM104.747 15.8076H105.134M105.134 15.8076V15.8076ZM105.134 15.8076L105.522 16.1403M105.522 16.1403H105.134M105.522 16.1403V16.473M105.522 16.1403V16.1403ZM105.522 16.1403V15.8076M105.522 16.1403H105.909V15.8076M105.134 16.1403V16.1403ZM105.134 16.1403V16.473M105.134 16.473V16.473ZM105.134 16.473H105.522M105.522 16.473V16.473ZM105.522 15.8076V15.8076ZM105.909 15.8076V15.8076ZM105.909 15.8076H106.297M106.297 15.8076V15.8076ZM106.297 15.8076H106.685M106.685 15.8076V15.8076ZM106.685 15.8076V15.4749M106.685 15.4749H107.072M106.685 15.4749V15.1421M107.072 15.4749V15.4749ZM106.685 15.1421H107.072M106.685 15.1421V15.1421ZM107.072 15.1421V15.1421ZM107.072 15.1421V14.8094M107.072 14.8094V14.8094ZM107.072 14.8094H107.46M107.46 14.8094V14.8094ZM107.46 14.8094V14.4767M107.46 14.4767V14.4767ZM107.46 14.4767H107.847H108.235M108.235 14.4767V14.4767ZM108.235 14.4767V14.8094H108.622M108.622 14.8094V14.8094ZM108.622 14.8094L108.235 15.1421M108.235 15.1421V15.1421ZM108.235 15.1421H108.622M108.622 15.1421V15.1421ZM108.622 15.1421H109.01M109.01 15.1421V15.1421ZM109.01 15.1421V14.8094M109.01 15.1421H109.397M109.01 14.8094V14.8094ZM109.397 15.1421V15.1421ZM109.397 15.1421H109.785M109.785 15.1421V15.1421ZM109.785 15.1421L110.172 15.4749M110.172 15.4749V15.4749ZM110.172 15.4749V15.8076M110.172 15.8076V15.8076ZM110.172 15.8076H110.56M110.56 15.8076V15.8076ZM110.56 15.8076H110.947M110.947 15.8076V15.8076ZM110.947 15.8076V16.1403M110.947 16.1403V16.1403ZM110.947 16.1403H111.335M111.335 16.1403V16.1403ZM111.335 16.1403V16.473M111.335 16.473V16.473ZM111.335 16.473H112.11L112.885 16.8057L113.272 16.473L113.66 16.8057M113.66 16.8057V16.8057ZM113.66 16.8057H114.048M114.048 16.8057V16.8057ZM114.048 16.8057H114.435V17.1384H114.823M114.823 17.1384V17.1384ZM114.823 17.1384L115.21 17.4712H115.598V17.8039M115.598 17.8039V17.8039ZM115.598 17.8039L115.985 17.4712M115.985 17.4712V17.4712ZM115.985 17.4712V17.1384M115.985 17.1384V17.1384ZM115.985 17.1384H116.373M116.373 17.1384V17.1384ZM116.373 17.1384V17.4712M116.373 17.4712V17.4712ZM116.373 17.4712H116.76M116.76 17.4712V17.4712ZM116.76 17.4712H117.148M117.148 17.4712V17.4712ZM117.148 17.4712V17.1384H117.535M117.535 17.1384V17.1384ZM117.535 17.1384V17.4712M117.535 17.1384L117.923 17.4712V17.1384M117.923 17.1384V17.1384ZM117.923 17.1384H118.31M118.31 17.1384V17.1384ZM118.31 17.1384H118.698M118.698 17.1384V17.1384ZM118.698 17.1384H119.473L119.085 17.4712M119.085 17.4712V17.4712ZM119.085 17.4712H119.473M119.473 17.4712V17.4712ZM119.473 17.4712V17.8039M119.473 17.8039V17.8039ZM119.473 17.8039V18.1366M119.473 18.1366V18.1366ZM119.473 18.1366V18.4693M119.473 18.4693V18.4693ZM119.473 18.4693V18.802M119.473 18.802V18.802ZM119.473 18.802L119.085 19.1348M119.085 19.1348H119.473M119.085 19.1348V19.4675L119.473 19.1348M119.085 19.1348L118.698 20.1329M119.473 19.1348V19.1348ZM118.698 20.1329V20.1329ZM118.698 20.1329L119.473 20.4656V20.7983L119.86 20.4656M119.86 20.4656V20.4656ZM119.86 20.4656H120.248M120.248 20.4656V20.4656ZM120.248 20.4656V20.7983M120.248 20.7983V20.7983ZM120.248 20.7983L120.635 21.1311H121.023H121.411M121.411 21.1311V21.1311ZM121.411 21.1311V21.4638M121.411 21.4638V21.4638ZM121.411 21.4638L121.798 21.7965M121.798 21.7965V21.7965ZM121.798 21.7965L122.186 22.1292M122.186 22.1292V22.1292ZM122.186 22.1292H122.573H122.961V22.4619M122.961 22.4619V22.4619ZM122.961 22.4619L123.348 22.7947M123.348 22.7947V22.7947ZM123.348 22.7947V23.1274M123.348 23.1274V23.1274ZM123.348 23.1274V23.4601L123.736 23.1274M123.736 23.1274V23.1274ZM123.736 23.1274H124.123M124.123 23.1274V23.1274ZM124.123 23.1274V23.4601M124.123 23.4601V23.4601ZM124.123 23.4601H124.511M124.511 23.4601V23.4601ZM124.511 23.4601V23.7928M124.511 23.7928V23.7928ZM124.511 23.7928H124.898M124.898 23.7928V23.7928ZM124.898 23.7928V24.1255M124.898 24.1255V24.1255ZM124.898 24.1255V24.4582M124.898 24.4582V24.4582ZM124.898 24.4582V24.791V25.1237M124.898 25.1237V25.1237ZM124.898 25.1237V25.4564M124.898 25.4564V25.4564ZM124.898 25.4564L124.511 25.7891M124.511 25.7891V25.7891ZM124.511 25.7891V26.1218M124.511 26.1218V26.1218ZM124.511 26.1218V26.4546M124.511 26.4546V26.4546ZM124.511 26.4546H124.123M124.123 26.4546V26.4546ZM124.123 26.4546V26.7873M124.123 26.7873V26.7873ZM124.123 26.7873L124.511 27.12V27.4527H124.123M124.123 27.4527V27.4527ZM124.123 27.4527L124.511 27.7854H124.123M124.123 27.7854V27.7854ZM124.123 27.7854V28.1182M124.123 28.1182V28.1182ZM124.123 28.1182V28.4509M124.123 28.4509V28.4509ZM124.123 28.4509H123.736M123.736 28.4509V28.4509ZM123.736 28.4509L123.348 28.7836M123.348 28.7836V28.7836ZM123.348 28.7836V28.4509M123.348 28.7836H122.961M123.348 28.4509V28.4509ZM122.961 28.7836V28.7836ZM122.961 28.7836V29.1163H122.573M122.573 29.1163V29.1163ZM122.573 29.1163L122.961 29.449M122.961 29.449V29.449ZM122.961 29.449V29.7817M122.961 29.449H122.573M122.961 29.7817V30.1145M122.961 29.7817L123.348 30.1145H122.961M122.573 29.449V29.449ZM122.573 29.449H122.186M122.186 29.449V29.449ZM122.186 29.449V29.7817M122.186 29.7817V29.7817ZM122.186 29.7817H122.573M122.573 29.7817V29.7817ZM122.573 29.7817L122.961 30.1145M122.961 30.1145V30.1145ZM122.961 30.1145V30.4472M122.961 30.4472V30.4472ZM122.961 30.4472H122.573M122.573 30.4472V30.4472ZM122.573 30.4472V30.7799M122.573 30.7799H122.961M122.573 30.7799V31.1126M122.961 30.7799V30.7799ZM122.573 31.1126V31.1126ZM122.573 31.1126V31.4453M122.573 31.4453V31.4453ZM122.573 31.4453V31.778M122.573 31.778V31.778ZM122.573 31.778H122.186M122.186 31.778V31.778ZM122.186 31.778V32.1108M122.186 32.1108V32.1108ZM122.186 32.1108V32.4435M122.186 32.4435V32.4435ZM122.186 32.4435H122.573M122.573 32.4435V32.4435ZM122.573 32.4435H122.961L123.348 32.1108L122.961 32.7762V33.1089V33.4416L122.573 33.7744M122.573 33.7744V33.7744ZM122.573 33.7744V34.1071V34.4398V34.7725M122.573 34.7725V34.7725ZM122.573 34.7725H122.186M122.186 34.7725V34.7725ZM122.186 34.7725H121.798M121.798 34.7725V34.7725ZM121.798 34.7725V35.1052M121.798 35.1052V35.1052ZM121.798 35.1052H121.411M121.411 35.1052V35.1052ZM121.411 35.1052V35.438M121.411 35.438V35.438ZM121.411 35.438V35.7707M121.411 35.7707V35.7707ZM121.411 35.7707V36.1034M121.411 36.1034V36.1034ZM121.411 36.1034V36.4361H121.023M121.023 36.4361V36.4361ZM121.023 36.4361V36.7688M121.023 36.7688V36.7688ZM121.023 36.7688V37.1015H121.411M121.411 37.1015V37.1015ZM121.411 37.1015H121.798M121.798 37.1015V37.1015ZM121.798 37.1015V36.7688M121.798 36.7688V36.7688ZM121.798 36.7688H122.186M122.186 36.7688V36.7688ZM122.186 36.7688V36.4361M122.186 36.4361V36.4361ZM122.186 36.4361H122.573M122.573 36.4361V36.4361ZM122.573 36.4361H122.961M122.961 36.4361V36.4361ZM122.961 36.4361V36.1034H123.348M123.348 36.1034V36.4361M123.348 36.1034V36.1034ZM123.348 36.1034H123.736M123.348 36.4361V36.4361ZM123.736 36.1034V36.1034ZM123.736 36.1034H124.123M124.123 36.1034V36.1034ZM124.123 36.1034H124.511V35.7707M124.511 35.7707V35.7707ZM124.511 35.7707H124.898M124.898 35.7707V35.7707ZM124.898 35.7707V36.1034M124.898 36.1034V36.1034ZM124.898 36.1034L125.286 36.4361M125.286 36.4361V36.4361ZM125.286 36.4361V36.7688V37.1015H125.673M125.673 37.1015V37.1015ZM125.673 37.1015V37.4343M125.673 37.4343V37.4343ZM125.673 37.4343H126.061M126.061 37.4343V37.4343ZM126.061 37.4343V37.1015H126.448M126.448 37.1015V37.1015ZM126.448 37.1015H126.836M126.836 37.1015V37.1015ZM126.836 37.1015V37.4343M126.836 37.4343V37.4343ZM126.836 37.4343V37.767M126.836 37.767V37.767ZM126.836 37.767H126.448M126.448 37.767V37.767ZM126.448 37.767V38.0997M126.448 38.0997V38.0997ZM126.448 38.0997H126.061M126.448 38.0997L126.061 38.4324H126.448M126.061 38.0997V38.0997ZM126.448 38.4324V38.4324ZM126.448 38.4324V38.7651H126.061M126.061 38.7651V38.7651ZM126.061 38.7651H125.673M125.673 38.7651V38.7651ZM125.673 38.7651V39.0979M125.673 39.0979V39.0979ZM125.673 39.0979V39.4306M125.673 39.4306V39.4306ZM125.673 39.4306V39.7633M125.673 39.7633V39.7633ZM125.673 39.7633L126.061 40.096M126.061 40.096V40.096ZM126.061 40.096H126.448M126.448 40.096V40.096ZM126.448 40.096V40.4287M126.448 40.4287V40.4287ZM126.448 40.4287V40.7614H126.836M126.836 40.7614V40.7614ZM126.836 40.7614V41.0942M126.836 41.0942V41.0942ZM126.836 41.0942H127.223M127.223 41.0942V41.0942ZM127.223 41.0942V41.4269H127.611V41.7596V42.0923V42.425V42.7578V43.0905L127.998 43.4232V43.7559M127.998 43.7559V43.7559ZM127.998 43.7559L128.386 44.0886M128.386 44.0886V44.0886ZM128.386 44.0886H128.773M128.773 44.0886V44.0886ZM128.773 44.0886H129.161M129.161 44.0886V44.0886ZM129.161 44.0886H129.549M129.549 44.0886V44.0886ZM129.549 44.0886H129.936L129.549 44.4213H129.936M129.936 44.4213V44.4213ZM129.936 44.4213V44.7541M129.936 44.7541V44.7541ZM129.936 44.7541V45.0868M129.936 45.0868V45.0868ZM129.936 45.0868H129.549M129.549 45.0868V45.0868ZM129.549 45.0868H129.161V45.4195M129.161 45.4195V45.4195ZM129.161 45.4195V45.7522M129.161 45.7522V45.7522ZM129.161 45.7522V46.0849M129.161 46.0849V46.0849ZM129.161 46.0849H129.549M129.549 46.0849V46.0849ZM129.549 46.0849V46.4177M129.549 46.4177V46.4177ZM129.549 46.4177V46.7504M129.549 46.7504V46.7504ZM129.549 46.7504H129.936M129.936 46.7504V46.7504ZM129.936 46.7504V47.0831M129.936 47.0831V47.0831ZM129.936 47.0831V47.4158H130.324M130.324 47.4158V47.4158ZM130.324 47.4158V47.7485M130.324 47.7485V47.7485ZM130.324 47.7485H130.711M130.711 47.7485V47.7485ZM130.711 47.7485V48.0812M130.711 48.0812V48.0812ZM130.711 48.0812V48.414M130.711 48.414V48.414ZM130.711 48.414V48.7467M130.711 48.7467V48.7467ZM130.711 48.7467V49.0794M130.711 49.0794V49.0794ZM130.711 49.0794V49.4121H130.324V49.7448M130.324 49.7448V49.7448ZM130.324 49.7448V50.0776M130.324 50.0776V50.0776ZM130.324 50.0776H130.711V50.4103M130.711 50.4103V50.4103ZM130.711 50.4103V50.743H131.099L130.711 51.0757H131.099M131.099 51.0757V51.0757ZM131.099 51.0757V51.4084V51.7411M131.099 51.7411V51.7411ZM131.099 51.7411L131.486 52.0739M131.486 52.0739V52.0739ZM131.486 52.0739V52.4066M131.486 52.4066V52.4066ZM131.486 52.4066V52.7393M131.486 52.7393V52.7393ZM131.486 52.7393V53.072M131.486 53.072V53.072ZM131.486 53.072L131.099 53.4047M131.099 53.4047V53.4047ZM131.099 53.4047L130.711 53.7375M130.711 53.7375V53.7375ZM130.711 53.7375V54.0702M130.711 54.0702V54.0702ZM130.711 54.0702V54.4029M130.711 54.4029V54.4029ZM130.711 54.4029H131.099M130.711 54.4029L130.324 54.7356M131.099 54.4029V54.4029ZM130.324 54.7356V54.7356ZM130.324 54.7356H130.711M130.711 54.7356V54.7356ZM130.711 54.7356V55.0683M130.711 55.0683V55.0683ZM130.711 55.0683H130.324M130.324 55.0683V55.0683ZM130.324 55.0683V55.401M130.324 55.401V55.401ZM130.324 55.401H129.936M129.936 55.401V55.7338M129.936 55.401V55.401ZM129.936 55.401L129.549 55.7338M129.549 55.7338V55.7338ZM129.549 55.7338H129.161M129.161 55.7338V55.7338ZM129.161 55.7338V56.0665M129.161 56.0665V56.0665ZM129.161 56.0665V56.3992M129.161 56.3992V56.3992ZM129.161 56.3992H128.773M128.773 56.3992V56.3992ZM128.773 56.3992H128.386M128.386 56.3992V56.3992ZM128.386 56.3992L127.998 56.7319M127.998 56.7319V56.7319ZM127.998 56.7319V57.0646H127.611V56.7319M127.611 56.7319V56.7319ZM127.611 56.7319H127.223M127.223 56.7319V56.7319ZM127.223 56.7319L126.836 57.0646M126.836 57.0646V57.0646ZM126.836 57.0646V57.3974M126.836 57.3974V57.3974ZM126.836 57.3974H126.448M126.448 57.3974V57.3974ZM126.448 57.3974V57.7301M126.448 57.7301V57.7301ZM126.448 57.7301H126.061M126.061 57.7301V57.7301ZM126.061 57.7301V58.0628M126.061 58.0628V58.0628ZM126.061 58.0628V58.3955M126.061 58.3955V58.3955ZM126.061 58.3955V58.7282M126.061 58.7282V58.7282ZM126.061 58.7282H125.673M125.673 58.7282V58.7282ZM125.673 58.7282V59.0609M125.673 58.7282H125.286M125.673 59.0609V59.0609ZM125.286 58.7282V58.7282ZM125.286 58.7282H124.898M124.898 58.7282V58.7282ZM124.898 58.7282V59.0609M124.898 59.0609V59.0609ZM124.898 59.0609H124.511M124.511 59.0609V59.0609ZM124.511 59.0609H124.123M124.123 59.0609V59.0609ZM124.123 59.0609L123.736 59.3937M123.736 59.3937V59.3937ZM123.736 59.3937H124.123M124.123 59.3937V59.3937ZM124.123 59.3937V59.7264M124.123 59.7264V59.7264ZM124.123 59.7264H124.511M124.123 59.7264V60.0591M124.511 59.7264V59.7264ZM124.123 60.0591V60.0591ZM124.123 60.0591H123.736M123.736 60.0591V60.0591ZM123.736 60.0591V60.3918M123.736 60.3918V60.3918ZM123.736 60.3918H124.123M123.736 60.3918V60.7245M123.736 60.7245V60.7245ZM123.736 60.7245H123.348M123.348 60.7245V60.7245ZM123.348 60.7245V61.0573M123.348 60.7245H122.961M123.348 61.0573V61.0573ZM123.348 61.0573H122.961M122.961 61.0573V60.7245M122.961 61.0573V61.0573ZM122.961 61.0573H122.573M122.961 60.7245V60.7245ZM122.573 61.0573V61.0573ZM122.573 61.0573V61.39H121.798V61.7227M121.798 61.7227V61.7227ZM121.798 61.7227L121.411 62.0554H121.023M121.023 62.0554V62.0554ZM121.023 62.0554V62.7208M121.023 62.7208V62.7208ZM121.023 62.7208L120.635 63.0536M120.635 63.0536V63.0536ZM120.635 63.0536V63.3863V63.719V64.0517V64.3844H121.023L120.635 65.0499M120.635 65.0499V65.0499ZM120.635 65.0499V66.048M120.635 66.048V66.048ZM120.635 66.048H120.248M120.248 66.048V66.048ZM120.248 66.048H119.86M119.86 66.048V66.048ZM119.86 66.048H119.473M119.473 66.048V66.048ZM119.473 66.048H119.085M119.085 66.048V66.048ZM119.085 66.048H118.698M118.698 66.048V66.048ZM118.698 66.048H118.31H117.923M117.923 66.048V66.048ZM117.923 66.048H117.535M117.535 66.048V66.048ZM117.535 66.048H117.148M117.148 66.048V66.048ZM117.148 66.048V65.7153H116.76M116.76 65.7153V65.7153ZM116.76 65.7153H116.373M116.373 65.7153V65.7153ZM116.373 65.7153L115.985 65.3826M115.985 65.3826V65.3826ZM115.985 65.3826H115.598M115.598 65.3826V65.3826ZM115.598 65.3826V65.7153M115.598 65.7153V65.7153ZM115.598 65.7153H115.21M115.21 65.7153V65.7153ZM115.21 65.7153L114.823 66.048M114.823 66.048V66.048ZM114.823 66.048H114.435M114.435 66.048V66.048ZM114.435 66.048H114.048M114.048 66.048V66.048ZM114.048 66.048L113.66 65.7153M113.66 65.7153V65.7153ZM113.66 65.7153V65.3826M113.66 65.3826V65.3826ZM113.66 65.3826H113.272V65.0499M113.272 65.0499V65.0499ZM113.272 65.0499H112.885M112.885 65.0499V65.0499ZM112.885 65.0499V64.7172M112.885 64.7172V64.7172ZM112.885 64.7172H112.497M112.497 64.7172V64.7172ZM112.497 64.7172V64.3844M112.497 64.3844V64.3844ZM112.497 64.3844H112.11M112.11 64.3844V64.3844ZM112.11 64.3844H111.722M111.722 64.3844V64.3844ZM111.722 64.3844H111.335M111.335 64.3844V64.3844ZM111.335 64.3844V64.7172M111.335 64.7172V64.7172ZM111.335 64.7172V65.0499M111.335 65.0499V65.0499ZM111.335 65.0499H110.947M110.947 65.0499V65.0499ZM110.947 65.0499H110.56M110.56 65.0499V65.0499ZM110.56 65.0499H110.172M110.172 65.0499V65.0499ZM110.172 65.0499H109.785M109.785 65.0499V65.0499ZM109.785 65.0499H109.397M109.397 65.0499V65.0499ZM109.397 65.0499V65.3826M109.397 65.3826V65.3826ZM109.397 65.3826H109.01M109.01 65.3826V65.3826ZM109.01 65.3826L108.622 65.7153M108.622 65.7153V65.7153ZM108.622 65.7153V66.048M108.622 66.048V66.048ZM108.622 66.048H108.235M108.235 66.048V66.048ZM108.235 66.048H107.847M107.847 66.048V66.048ZM107.847 66.048V66.3808L107.46 67.0462M107.46 67.0462V67.0462ZM107.46 67.0462L107.072 67.3789M107.072 67.3789V67.3789ZM107.072 67.3789V67.7116M107.072 67.7116V67.7116ZM107.072 67.7116V68.0443M107.072 68.0443V68.0443ZM107.072 68.0443L106.685 68.3771M106.685 68.3771V68.3771ZM106.685 68.3771H106.297M106.297 68.3771V68.3771ZM106.297 68.3771H105.909L105.522 68.7098V69.0425M105.522 69.0425V69.0425ZM105.522 69.0425H105.134M105.134 69.0425V69.0425ZM105.134 69.0425H104.747M104.747 69.0425V69.0425ZM104.747 69.0425L104.359 68.3771M104.359 68.3771V68.3771ZM104.359 68.3771H103.584H103.197M103.197 68.3771V68.3771ZM103.197 68.3771V68.7098H102.809M102.809 68.7098V68.7098ZM102.809 68.7098V69.0425M102.809 69.0425V69.0425ZM102.809 69.0425H102.422M102.422 69.0425V69.0425ZM102.422 69.0425H102.034M102.034 69.0425V69.0425ZM102.034 69.0425H101.647M101.647 69.0425V69.0425ZM101.647 69.0425H101.259M101.259 69.0425V69.0425ZM101.259 69.0425H100.872M100.872 69.0425V69.0425ZM100.872 69.0425H100.484V68.7098M100.484 68.7098V68.7098ZM100.484 68.7098H100.097M100.097 68.7098V68.7098ZM100.097 68.7098V68.3771M100.097 68.3771V68.3771ZM100.097 68.3771H99.7091M99.7091 68.3771V68.3771ZM99.7091 68.3771H99.3215M99.3215 68.3771V68.3771ZM99.3215 68.3771V68.0443M99.3215 68.0443V68.0443ZM99.3215 68.0443H98.934M98.934 68.0443V68.3771M98.934 68.0443V68.0443ZM98.934 68.0443H98.5465M98.934 68.3771V68.3771ZM98.5465 68.0443V68.0443ZM98.5465 68.0443V68.3771M98.5465 68.3771V68.3771ZM98.5465 68.3771H98.159V67.7116M98.159 67.7116V67.7116ZM98.159 67.7116L97.7714 67.3789H97.3839M97.3839 67.3789V67.3789ZM97.3839 67.3789H96.9964M96.9964 67.3789V67.3789ZM96.9964 67.3789V67.0462L96.6089 66.7135H96.2213V66.3808M96.2213 66.3808V66.3808ZM96.2213 66.3808V66.048H95.8338L95.4463 65.3826M95.4463 65.3826V65.3826ZM95.4463 65.3826L95.8338 65.0499L95.4463 64.7172L95.0588 64.0517L94.6712 63.719V64.0517L94.2837 63.719H93.5087V63.3863V63.0536H93.1211V62.7208L92.7336 62.0554H92.3461V61.7227M92.3461 61.7227V61.7227ZM92.3461 61.7227V61.39L91.571 61.0573M91.571 61.0573V61.39M91.571 61.0573V61.0573ZM91.571 61.0573H91.1835M91.571 61.39V61.39ZM91.1835 61.0573V61.0573ZM91.1835 61.0573V60.7245M91.1835 60.7245V60.7245ZM91.1835 60.7245H90.796M90.796 60.7245V60.7245ZM90.796 60.7245H90.4085M90.4085 60.7245V60.7245ZM90.4085 60.7245L89.6334 60.3918M89.6334 60.3918V60.3918ZM89.6334 60.3918H88.8584V60.0591V59.7264M88.8584 59.7264V59.7264ZM88.8584 59.7264V59.3937M88.8584 59.3937V59.3937ZM88.8584 59.3937H88.4708M88.4708 59.3937V59.3937ZM88.4708 59.3937V59.0609M88.4708 59.0609V59.0609ZM88.4708 59.0609V58.7282H88.0833M88.0833 58.7282V58.7282ZM88.0833 58.7282L87.3083 58.3955M87.3083 58.3955V58.3955ZM87.3083 58.3955H86.9207V58.0628H86.5332M86.5332 58.0628V58.0628ZM86.5332 58.0628H86.1457M86.1457 58.0628V58.0628ZM86.1457 58.0628L85.7582 57.7301M85.7582 57.7301V57.7301ZM85.7582 57.7301H86.1457V57.3974M86.1457 57.3974V57.3974ZM86.1457 57.3974V57.0646M86.1457 57.0646V57.0646ZM86.1457 57.0646L85.7582 56.7319M85.7582 56.7319V56.7319ZM85.7582 56.7319V56.3992M85.7582 56.3992V56.3992ZM85.7582 56.3992V56.0665L85.3706 56.3992M85.3706 56.3992V56.3992ZM85.3706 56.3992H84.9831H84.5956H84.2081M84.2081 56.3992V56.3992ZM84.2081 56.3992H83.8205L83.433 55.7338H83.0455M83.0455 55.7338V55.7338ZM83.0455 55.7338H82.658V56.0665M82.658 56.0665V56.0665ZM82.658 56.0665V56.3992H82.2704M82.2704 56.3992V56.3992ZM82.2704 56.3992L81.8829 56.0665M81.8829 56.0665V56.0665ZM81.8829 56.0665H81.1078V56.3992M81.1078 56.3992V56.3992ZM81.1078 56.3992L80.7203 56.0665V55.7338L80.3328 56.0665H79.9453H79.5577M79.5577 56.0665V56.0665ZM79.5577 56.0665L79.1702 56.3992V56.0665M79.1702 56.0665V56.0665ZM79.1702 56.0665H78.7827M78.7827 56.0665V56.0665ZM78.7827 56.0665L78.3952 55.7338M78.3952 55.7338V55.7338ZM78.3952 55.7338V55.401M78.3952 55.401V55.401ZM78.3952 55.401H78.0076M78.0076 55.401V55.401ZM78.0076 55.401V55.0683M78.0076 55.0683V55.0683ZM78.0076 55.0683H77.6201M77.6201 55.0683V55.0683ZM77.6201 55.0683H77.2326M77.2326 55.0683V55.0683ZM77.2326 55.0683V55.401M77.2326 55.401V55.401ZM77.2326 55.401H76.8451M76.8451 55.401V55.401ZM76.8451 55.401H76.4575M76.4575 55.401V55.401ZM76.4575 55.401H76.07M76.07 55.401V55.401ZM76.07 55.401V55.0683M76.07 55.401L75.6825 55.0683M75.6825 55.0683V55.0683ZM75.6825 55.0683H75.295M75.295 55.0683V55.0683ZM75.295 55.0683V54.7356H74.9074M74.9074 54.7356V54.7356ZM74.9074 54.7356V54.4029M74.9074 54.4029V54.4029ZM74.9074 54.4029V54.0702M74.9074 54.0702V54.0702ZM74.9074 54.0702H74.5199M74.5199 54.0702V54.0702ZM74.5199 54.0702L74.9074 53.7375M74.9074 53.7375V53.7375ZM74.9074 53.7375H74.5199V53.4047M74.5199 53.4047V53.4047ZM74.5199 53.4047V53.072M74.5199 53.072V53.072ZM74.5199 53.072V52.7393M74.5199 52.7393V52.7393ZM74.5199 52.7393H74.1324M74.1324 52.7393V52.7393ZM74.1324 52.7393H73.7449M73.7449 52.7393V52.7393ZM73.7449 52.7393V52.4066M73.7449 52.4066V52.4066ZM73.7449 52.4066V52.0739M73.7449 52.0739V52.0739ZM73.7449 52.0739H73.3573M73.3573 52.0739V52.0739ZM73.3573 52.0739V51.7411M73.3573 51.7411V51.7411ZM73.3573 51.7411H72.9698M72.9698 51.7411V51.7411ZM72.9698 51.7411V51.4084M72.9698 51.4084V51.4084ZM72.9698 51.4084V51.0757M72.9698 51.0757V51.0757ZM72.9698 51.0757V50.743M72.9698 50.743V50.743ZM72.9698 50.743V50.4103M72.9698 50.4103V50.4103ZM72.9698 50.4103V50.0776M72.9698 50.0776V50.0776ZM72.9698 50.0776H72.5823M72.5823 50.0776V50.0776ZM72.5823 50.0776V49.7448M72.5823 49.7448V49.7448ZM72.5823 49.7448V49.4121M72.5823 49.4121V49.4121ZM72.5823 49.4121H72.1948M72.1948 49.4121V49.4121ZM72.1948 49.4121V49.0794M72.1948 49.0794V49.0794ZM72.1948 49.0794H71.8072M71.8072 49.0794V49.0794ZM71.8072 49.0794V48.7467M71.8072 48.7467V48.7467ZM71.8072 48.7467V48.414M71.8072 48.414V48.414ZM71.8072 48.414H72.1948M72.1948 48.414V48.414ZM72.1948 48.414V48.0812M72.1948 48.0812V48.0812ZM72.1948 48.0812H71.8072M71.8072 48.0812V48.0812ZM71.8072 48.0812V47.7485M71.8072 47.7485V47.7485ZM71.8072 47.7485H71.4197M71.4197 47.7485V47.7485ZM71.4197 47.7485L71.0322 48.0812M71.0322 48.0812V48.0812ZM71.0322 48.0812V48.414M71.0322 48.414V48.414ZM71.0322 48.414V48.7467M71.0322 48.7467V48.7467ZM71.0322 48.7467H70.6447M70.6447 48.7467V48.7467ZM70.6447 48.7467H70.2571M70.2571 48.7467V48.7467ZM70.2571 48.7467H69.8696M69.8696 48.7467V48.7467ZM69.8696 48.7467V49.0794M69.8696 49.0794V49.0794ZM69.8696 49.0794H69.4821M69.4821 49.0794V49.0794ZM69.4821 49.0794H69.0946M69.0946 49.0794V49.0794ZM69.0946 49.0794H68.707M68.707 49.0794V49.0794ZM68.707 49.0794H68.3195M68.3195 49.0794V49.0794ZM68.3195 49.0794V49.4121M68.3195 49.4121V49.4121ZM68.3195 49.4121V49.7448M68.3195 49.7448V49.7448ZM68.3195 49.7448H67.932M67.932 49.7448V49.7448ZM67.932 49.7448H67.5445M67.5445 49.7448V49.7448ZM67.5445 49.7448H67.1569M67.1569 49.7448V49.7448ZM67.1569 49.7448H66.7694M66.7694 49.7448V49.7448ZM66.7694 49.7448V50.0776M66.7694 50.0776V50.0776ZM66.7694 50.0776V50.4103M66.7694 50.4103V50.4103ZM66.7694 50.4103V50.743M66.7694 50.743V50.743ZM66.7694 50.743H66.3819M66.3819 50.743V50.743ZM66.3819 50.743V51.0757M66.3819 51.0757V51.0757ZM66.3819 51.0757H65.9944M65.9944 51.0757V51.0757ZM65.9944 51.0757V51.4084M65.9944 51.4084V51.4084ZM65.9944 51.4084V51.7411V52.4066H65.6068M65.6068 52.4066V52.4066ZM65.6068 52.4066H65.2193H64.8318L64.4442 52.7393H64.0567V53.072M64.0567 53.072V53.072ZM64.0567 53.072H63.6692H63.2817L62.8941 52.7393L62.5066 52.4066M62.5066 52.4066V52.4066ZM62.5066 52.4066L62.1191 52.7393M62.1191 52.7393V52.7393ZM62.1191 52.7393V52.4066H61.7316M61.7316 52.4066V52.4066ZM61.7316 52.4066V52.0739M61.7316 52.0739V52.0739ZM61.7316 52.0739H61.344M61.344 52.0739V52.0739ZM61.344 52.0739H60.9565M60.9565 52.0739V52.0739ZM60.9565 52.0739H60.569L60.9565 52.4066H60.569M60.569 52.4066V52.4066ZM60.569 52.4066L60.1815 52.7393H59.7939M59.7939 52.7393V52.7393ZM59.7939 52.7393H59.4064L59.0189 53.072L58.6314 53.4047H58.2438M58.2438 53.4047V53.4047ZM58.2438 53.4047H57.8563M57.8563 53.4047V53.4047ZM57.8563 53.4047V53.072M57.8563 53.072V53.072ZM57.8563 53.072L57.4688 52.7393M57.4688 52.7393V52.7393ZM57.4688 52.7393L56.3062 52.4066L56.6937 52.0739L56.3062 51.7411H55.9187V51.0757H55.5312M55.5312 51.0757V51.0757ZM55.5312 51.0757H55.1436M55.1436 51.0757V51.0757ZM55.1436 51.0757H54.7561H53.9811M53.9811 51.0757V51.0757ZM53.9811 51.0757V50.743M53.9811 50.743V50.743ZM53.9811 50.743H53.206L52.431 51.0757V50.743H52.0434M52.0434 50.743V50.743ZM52.0434 50.743V51.0757H51.6559M51.6559 51.0757V51.4084M51.6559 51.0757H51.2684M51.6559 51.4084V51.4084ZM51.2684 51.0757V51.0757ZM51.2684 51.0757V50.743M51.2684 50.743V50.743ZM51.2684 50.743L51.6559 50.4103M51.6559 50.4103V50.4103ZM51.6559 50.4103V50.0776H51.2684M51.2684 50.0776V50.0776ZM51.2684 50.0776H50.8809M50.8809 50.0776V50.0776ZM50.8809 50.0776H50.4933M50.4933 50.0776V50.0776ZM50.4933 50.0776H49.7183H49.3308M49.3308 50.0776V50.0776ZM49.3308 50.0776V50.4103H48.9432M48.9432 50.4103V50.4103ZM48.9432 50.4103L48.5557 50.743H48.1682M48.1682 50.743V50.743ZM48.1682 50.743L47.7807 51.0757M47.7807 51.0757V51.0757ZM47.7807 51.0757H47.3931M47.3931 51.0757V51.0757ZM47.3931 51.0757H47.0056M47.0056 51.0757V51.0757ZM47.0056 51.0757L46.6181 50.743H46.2306M46.2306 50.743V50.743ZM46.2306 50.743L45.4555 50.4103M45.4555 50.4103V50.4103ZM45.4555 50.4103V50.0776H45.068M45.068 50.0776V50.0776ZM45.068 50.0776L44.6804 49.7448H43.9054H43.5179H43.1303M43.1303 49.7448V49.7448ZM43.1303 49.7448L42.7428 50.0776M42.7428 50.0776V50.0776ZM42.7428 50.0776H42.3553H41.9678H41.5802M41.5802 50.0776V50.0776ZM41.5802 50.0776H41.1927H40.8052M40.8052 50.0776V50.0776ZM40.8052 50.0776V50.4103M40.8052 50.4103V50.4103ZM40.8052 50.4103V50.743H41.1927V51.0757H40.8052M40.8052 51.0757V51.0757ZM40.8052 51.0757H40.4177L40.0301 51.4084L39.6426 51.7411M39.6426 51.7411V51.7411ZM39.6426 51.7411H39.2551M39.2551 51.7411V51.7411ZM39.2551 51.7411V51.4084H38.8676M38.8676 51.4084V51.4084ZM38.8676 51.4084H38.48M38.48 51.4084V51.4084ZM38.48 51.4084V51.0757H38.0925M38.0925 51.0757V51.0757ZM38.0925 51.0757V50.743M38.0925 50.743V50.743ZM38.0925 50.743V50.4103M38.0925 50.4103V50.4103ZM38.0925 50.4103H37.705V50.0776H38.0925L37.705 49.0794H37.3175V48.7467H36.5424M36.5424 48.7467V48.7467ZM36.5424 48.7467V49.0794M36.5424 49.0794V49.0794ZM36.5424 49.0794H36.1549M36.1549 49.0794V49.0794ZM36.1549 49.0794L36.5424 49.4121M36.5424 49.4121V49.4121ZM36.5424 49.4121L36.1549 49.7448M36.1549 49.7448V49.7448ZM36.1549 49.7448L35.7674 50.0776M35.7674 50.0776V50.0776ZM35.7674 50.0776H35.3798M35.3798 50.0776V50.0776ZM35.3798 50.0776H34.9923M34.9923 50.0776V50.0776ZM34.9923 50.0776H34.6048M34.6048 50.0776V50.0776ZM34.6048 50.0776H34.2173M34.2173 50.0776V50.0776ZM34.2173 50.0776H33.8297M33.8297 50.0776V50.0776ZM33.8297 50.0776H33.4422M33.4422 50.0776V50.0776ZM33.4422 50.0776H33.0547M33.0547 50.0776V50.0776ZM33.0547 50.0776H32.6672M32.6672 50.0776V50.0776ZM32.6672 50.0776V50.4103M32.6672 50.4103V50.4103ZM32.6672 50.4103H32.2796M32.2796 50.4103V50.4103ZM32.2796 50.4103H31.8921M31.8921 50.4103V50.4103ZM31.8921 50.4103H31.5046M31.5046 50.4103V50.4103ZM31.5046 50.4103V50.0776M31.5046 50.0776V50.0776ZM31.5046 50.0776H31.1171M31.1171 50.0776V50.0776ZM31.1171 50.0776V49.7448M31.1171 49.7448V49.7448ZM31.1171 49.7448H30.7295M30.7295 49.7448V49.7448ZM30.7295 49.7448H30.342M30.342 49.7448V49.7448ZM30.342 49.7448V49.4121M30.342 49.4121V49.4121ZM30.342 49.4121H29.9545M29.9545 49.4121V49.4121ZM29.9545 49.4121H29.567M29.567 49.4121V49.4121ZM29.567 49.4121H29.1794M29.1794 49.4121V49.4121ZM29.1794 49.4121H28.7919M28.7919 49.4121V49.4121ZM28.7919 49.4121L28.4044 49.0794M28.4044 49.0794V49.0794ZM28.4044 49.0794H28.0169M28.0169 49.0794V49.0794ZM28.0169 49.0794H27.6293M27.6293 49.0794V49.0794ZM27.6293 49.0794H27.2418M27.2418 49.0794V49.0794ZM27.2418 49.0794H26.8543M26.8543 49.0794V49.0794ZM26.8543 49.0794H26.4667M26.4667 49.0794V49.0794ZM26.4667 49.0794H26.0792M26.0792 49.0794V49.0794ZM26.0792 49.0794V49.4121M26.0792 49.4121V49.4121ZM26.0792 49.4121L25.6917 49.0794M25.6917 49.0794V49.0794ZM25.6917 49.0794H25.3042M25.3042 49.0794V49.0794ZM25.3042 49.0794H24.9166M24.9166 49.0794V49.0794ZM24.9166 49.0794H24.5291M24.5291 49.0794V49.0794ZM24.5291 49.0794H24.1416M24.1416 49.0794V49.0794ZM24.1416 49.0794H23.7541M23.7541 49.0794V49.0794ZM23.7541 49.0794V48.7467M23.7541 48.7467V48.7467ZM23.7541 48.7467V48.414H23.3665V48.7467H22.979M22.979 48.7467V48.7467ZM22.979 48.7467L22.5915 48.414H22.204M22.204 48.414V48.414ZM22.204 48.414H21.8164M21.8164 48.414V48.414ZM21.8164 48.414H21.4289M21.4289 48.414V48.414ZM21.4289 48.414H21.0414M21.0414 48.414V48.414ZM21.0414 48.414V48.7467M21.0414 48.7467V48.7467ZM21.0414 48.7467H20.6539M20.6539 48.7467V48.7467ZM20.6539 48.7467V48.414M20.6539 48.414V48.414ZM20.6539 48.414H20.2663M20.2663 48.414V48.414ZM20.2663 48.414V48.7467M20.2663 48.7467H19.8788M20.2663 48.7467V48.7467ZM19.8788 48.7467V48.7467ZM19.8788 48.7467H19.4913M19.8788 48.7467V49.0794M19.8788 49.0794V49.0794ZM19.8788 49.0794H19.4913M19.4913 49.0794V49.0794ZM19.4913 49.0794V49.4121M19.4913 49.4121V49.4121ZM19.4913 49.4121V49.7448M19.4913 49.7448V49.7448ZM19.4913 49.7448H19.1038M19.1038 49.7448V49.7448ZM19.1038 49.7448H18.7162M18.7162 49.7448V49.7448ZM18.7162 49.7448V50.0776H18.3287M18.3287 50.0776V50.0776ZM18.3287 50.0776H17.9412M17.9412 50.0776V50.0776ZM17.9412 50.0776H17.5537M17.5537 50.0776V50.4103M17.5537 50.0776V50.0776ZM17.5537 50.0776H17.1661M17.5537 50.4103V50.4103ZM17.1661 50.0776V50.0776ZM17.1661 50.0776H16.7786M16.7786 50.0776V50.0776ZM16.7786 50.0776H16.3911V50.4103M16.3911 50.4103V50.4103ZM16.3911 50.4103L16.0036 50.743M16.0036 50.743V50.743ZM16.0036 50.743H15.616M15.616 50.743V50.743ZM15.616 50.743V51.0757M15.616 51.0757V51.0757ZM15.616 51.0757H15.2285M15.2285 51.0757V51.0757ZM15.2285 51.0757V51.4084M15.2285 51.4084V51.4084ZM15.2285 51.4084H14.841M14.841 51.4084V51.4084ZM14.841 51.4084V51.7411M14.841 51.7411V51.7411ZM14.841 51.7411H14.4535M14.4535 51.7411V51.7411ZM14.4535 51.7411H14.0659M14.0659 51.7411V51.7411ZM14.0659 51.7411H13.6784V51.4084M13.6784 51.4084V51.4084ZM13.6784 51.4084H13.2909M13.2909 51.4084V51.4084ZM13.2909 51.4084H12.9034M12.9034 51.4084V51.4084ZM12.9034 51.4084H12.5158M12.5158 51.4084V51.4084ZM12.5158 51.4084H12.1283M12.1283 51.4084V51.4084ZM12.1283 51.4084V51.7411M12.1283 51.7411V51.7411ZM12.1283 51.7411H11.7408M11.7408 51.7411V51.7411ZM11.7408 51.7411V52.0739M11.7408 52.0739V52.0739ZM11.7408 52.0739H11.3533M11.3533 52.0739V52.0739ZM11.3533 52.0739H10.9657M10.9657 52.0739V52.4066M10.9657 52.0739V52.0739ZM10.9657 52.0739H10.5782V52.4066M10.9657 52.4066V52.4066ZM10.5782 52.4066V52.4066ZM10.5782 52.4066V52.7393H10.1907M10.1907 52.7393V52.7393ZM10.1907 52.7393V53.072M10.1907 53.072V53.072ZM10.1907 53.072V53.4047M10.1907 53.4047V53.4047ZM10.1907 53.4047H9.80315M9.80315 53.4047V53.4047ZM9.80315 53.4047V53.7375H9.41562M9.41562 53.7375V53.7375ZM9.41562 53.7375H9.0281L8.64057 54.0702M8.64057 54.0702V54.0702ZM8.64057 54.0702H8.25305M8.25305 54.0702V54.0702ZM8.25305 54.0702H7.86552M7.86552 54.0702V54.0702ZM7.86552 54.0702V54.4029M7.86552 54.4029V54.4029ZM7.86552 54.4029H7.478M7.478 54.4029V54.4029ZM7.478 54.4029V54.7356M7.478 54.7356V54.7356ZM7.478 54.7356H7.09047L7.478 55.0683H7.09047M7.09047 55.0683V55.0683ZM7.09047 55.0683V55.401M7.09047 55.401V55.401ZM7.09047 55.401H6.70295M6.70295 55.401V55.401ZM6.70295 55.401V55.7338M6.70295 55.7338V55.7338ZM6.70295 55.7338H6.31542M6.31542 55.7338V55.7338ZM6.31542 55.7338H5.92789M5.92789 55.7338V55.7338ZM5.92789 55.7338V56.0665M5.92789 56.0665V56.0665ZM5.92789 56.0665V56.3992M5.92789 56.3992V56.3992ZM5.92789 56.3992H6.31542V56.7319M6.31542 56.7319V56.7319ZM6.31542 56.7319V57.0646H5.92789M5.92789 57.0646V57.0646ZM5.92789 57.0646V57.3974M5.92789 57.3974V57.3974ZM5.92789 57.3974V57.7301H5.54037M5.54037 57.7301V57.7301ZM5.54037 57.7301V58.0628M5.54037 58.0628V58.0628ZM5.54037 58.0628H5.15284M5.15284 58.0628V58.0628ZM5.15284 58.0628H4.76532M4.76532 58.0628V58.0628ZM4.76532 58.0628V57.7301M4.76532 58.0628H4.37779M4.76532 57.7301V57.7301ZM4.37779 58.0628V58.0628ZM4.37779 58.0628H3.60274M3.60274 58.0628V58.0628ZM3.60274 58.0628L3.21522 58.3955M3.21522 58.3955V58.3955ZM3.21522 58.3955L2.82769 58.0628M2.82769 58.0628V58.0628ZM2.82769 58.0628V57.7301M2.82769 57.7301V57.7301ZM2.82769 57.7301V57.3974V57.0646M2.82769 57.0646V57.0646ZM2.82769 57.0646V56.7319H2.44016V56.3992M2.44016 56.3992V56.3992ZM2.44016 56.3992V56.0665M2.44016 56.0665V56.0665ZM2.44016 56.0665V55.7338L2.05264 55.401M2.05264 55.401V55.401ZM2.05264 55.401V55.0683L1.66511 54.7356M1.66511 54.7356V54.7356ZM1.66511 54.7356V54.4029M1.66511 54.4029V54.4029ZM1.66511 54.4029V54.0702M1.66511 54.0702V54.0702ZM1.66511 54.0702V53.7375M1.66511 53.7375V53.7375ZM1.66511 53.7375V53.4047M1.66511 53.4047V53.4047ZM1.66511 53.4047V53.072M1.66511 53.072V53.072ZM1.66511 53.072V52.7393M1.66511 52.7393V52.7393ZM1.66511 52.7393V52.4066M1.66511 52.4066V52.4066ZM1.66511 52.4066V52.0739M1.66511 52.0739V52.0739ZM1.66511 52.0739V51.7411M1.66511 51.7411V51.7411ZM1.66511 51.7411V51.4084M1.66511 51.4084V51.4084ZM1.66511 51.4084V51.0757M1.66511 51.0757V51.0757ZM1.66511 51.0757H1.27759M1.27759 51.0757V51.0757ZM1.27759 51.0757V50.743M1.27759 50.743V50.743ZM1.27759 50.743V50.4103M1.27759 50.4103V50.4103ZM1.27759 50.4103V50.0776M1.27759 50.0776V50.0776ZM1.27759 50.0776V49.7448M1.27759 49.7448V49.7448ZM1.27759 49.7448H1.66511M1.66511 49.7448V49.7448ZM1.66511 49.7448V49.4121M1.66511 49.4121V49.4121ZM1.66511 49.4121V49.0794M1.66511 49.0794V49.0794ZM1.66511 49.0794V48.7467M1.66511 48.7467V48.7467ZM1.66511 48.7467V48.414M1.66511 48.414V48.414ZM1.66511 48.414V48.0812H2.05264V47.7485M2.05264 47.7485V47.7485ZM2.05264 47.7485V47.4158M2.05264 47.4158V47.4158ZM2.05264 47.4158V47.0831M2.05264 47.0831V47.0831ZM2.05264 47.0831L1.66511 46.7504V46.4177M1.66511 46.4177V46.4177ZM1.66511 46.4177V46.0849V45.7522M1.66511 45.7522V45.7522ZM1.66511 45.7522V45.4195M1.66511 45.4195V45.4195ZM1.66511 45.4195H2.05264M2.05264 45.4195V45.4195ZM2.05264 45.4195L1.66511 45.0868M1.66511 45.0868V45.0868ZM1.66511 45.0868H2.05264M2.05264 45.0868V45.0868ZM2.05264 45.0868V44.7541M2.05264 44.7541H1.66511M2.05264 44.7541V44.7541ZM2.05264 44.7541V44.4213M1.66511 44.7541V44.7541ZM2.05264 44.4213V44.4213ZM2.05264 44.4213V44.0886M2.05264 44.0886V44.0886ZM2.05264 44.0886V43.7559M2.05264 43.7559V43.7559ZM2.05264 43.7559H2.44016V43.4232V43.0905M2.44016 43.0905V43.0905ZM2.44016 43.0905V42.7578M2.44016 42.7578V42.7578ZM2.44016 42.7578V42.425M2.44016 42.425V42.425ZM2.44016 42.425H2.82769V42.0923M2.82769 42.0923V42.0923ZM2.82769 42.0923V41.7596M2.82769 41.7596V41.7596ZM2.82769 41.7596V41.4269M2.82769 41.4269V41.4269ZM2.82769 41.4269V41.0942M2.82769 41.0942V41.0942ZM2.82769 41.0942V40.7614M2.82769 40.7614V40.7614ZM2.82769 40.7614V40.4287V40.096M2.82769 40.096V40.096ZM2.82769 40.096V39.7633V39.4306M2.82769 39.4306V39.4306ZM2.82769 39.4306V39.0979V38.7651M2.82769 38.7651V38.7651ZM2.82769 38.7651V38.4324M2.82769 38.4324V38.4324ZM2.82769 38.4324V38.0997M2.82769 38.0997V38.0997ZM2.82769 38.0997V37.767M2.82769 37.767V37.767ZM2.82769 37.767V37.4343M2.82769 37.4343V37.4343ZM2.82769 37.4343V37.1015M2.82769 37.1015V37.1015ZM2.82769 37.1015V36.7688H3.21522M3.21522 36.7688V36.7688ZM3.21522 36.7688H3.60274V36.4361M3.60274 36.4361V36.4361ZM3.60274 36.4361L3.99027 36.1034M3.99027 36.1034V36.1034ZM3.99027 36.1034H4.37779V35.7707M4.37779 35.7707V35.7707ZM4.37779 35.7707H4.76532M4.76532 35.7707V35.7707ZM4.76532 35.7707V35.438M4.76532 35.438V35.438ZM4.76532 35.438H5.15284M5.15284 35.438V35.438ZM5.15284 35.438L5.54037 35.1052M5.54037 35.1052V35.1052ZM5.54037 35.1052H5.92789M5.92789 35.1052V35.1052ZM5.92789 35.1052V34.7725M5.92789 34.7725V34.7725ZM5.92789 34.7725H6.31542M6.31542 34.7725V34.7725ZM6.31542 34.7725V34.4398H6.70295M6.70295 34.4398V34.4398ZM6.70295 34.4398V34.1071M6.70295 34.1071V34.1071ZM6.70295 34.1071L7.09047 33.7744M7.09047 33.7744V33.7744ZM7.09047 33.7744L7.478 33.4416M7.478 33.4416V33.4416ZM7.478 33.4416L7.86552 33.1089M7.86552 33.1089V33.1089ZM7.86552 33.1089L8.25305 32.7762M8.25305 32.7762V32.7762ZM8.25305 32.7762V32.4435H8.64057M8.64057 32.4435V32.4435ZM8.64057 32.4435V31.778M8.64057 31.778V31.778ZM8.64057 31.778H9.0281V31.4453M9.0281 31.4453V31.4453ZM9.0281 31.4453V31.1126M9.0281 31.1126V31.1126ZM9.0281 31.1126H9.41562V30.7799M9.41562 30.7799V30.7799ZM9.41562 30.7799V30.4472M9.41562 30.4472V30.4472ZM9.41562 30.4472V30.1145M9.41562 30.1145V30.1145ZM9.41562 30.1145V29.7817M9.41562 29.7817V29.7817ZM9.41562 29.7817V29.449V29.1163M9.41562 29.1163V29.1163ZM9.41562 29.1163V28.7836V28.4509V28.1182L9.0281 27.7854V27.4527M9.0281 27.4527V27.4527ZM9.0281 27.4527L9.41562 27.12V26.7873M9.41562 26.7873V26.7873ZM9.41562 26.7873V26.4546M9.41562 26.4546V26.4546ZM9.41562 26.4546V26.1218V25.7891V25.4564M9.41562 25.4564V25.4564ZM9.41562 25.4564V25.1237M9.41562 25.1237V25.1237ZM9.41562 25.1237V24.791M9.41562 24.791V24.791ZM9.41562 24.791V24.4582V24.1255M9.41562 24.1255V24.1255ZM9.41562 24.1255V23.7928M9.41562 23.7928V23.7928ZM9.41562 23.7928H9.80315M9.80315 23.7928V23.7928ZM9.80315 23.7928V23.4601M9.80315 23.4601V23.4601ZM9.80315 23.4601H10.1907V23.1274M10.1907 23.1274V23.1274ZM10.1907 23.1274V22.7947M10.1907 22.7947V22.7947ZM10.1907 22.7947H10.5782M10.5782 22.7947V22.7947ZM10.5782 22.7947V22.4619M10.5782 22.4619V22.4619ZM10.5782 22.4619H10.9657V22.1292M10.9657 22.1292V22.1292ZM10.9657 22.1292V21.7965M10.9657 21.7965V21.7965ZM10.9657 21.7965H11.3533V21.4638M11.3533 21.4638V21.4638ZM11.3533 21.4638V21.1311M11.3533 21.1311V21.1311ZM11.3533 21.1311H11.7408M11.7408 21.1311V21.1311ZM11.7408 21.1311V20.7983M11.7408 20.7983V20.7983ZM11.7408 20.7983H12.1283V20.4656M12.1283 20.4656V20.4656ZM12.1283 20.4656H12.5158V20.1329M12.5158 20.1329V20.1329ZM12.5158 20.1329V19.8002M12.5158 19.8002V19.8002ZM12.5158 19.8002H12.9034V19.4675M12.9034 19.4675V19.4675ZM12.9034 19.4675L13.2909 19.1348V18.802V18.4693L13.6784 18.1366M13.6784 18.1366V18.1366ZM13.6784 18.1366V17.8039M13.6784 17.8039V17.8039ZM13.6784 17.8039L14.0659 17.4712M14.0659 17.4712V17.4712ZM14.0659 17.4712V17.1384M14.0659 17.1384V17.1384ZM14.0659 17.1384V16.8057L14.4535 16.473V16.1403M14.4535 16.1403V16.1403ZM14.4535 16.1403H14.841M14.841 16.1403V16.1403ZM14.841 16.1403V15.8076H15.2285M15.2285 15.8076V15.8076ZM15.2285 15.8076H15.616L16.0036 15.4749H16.7786H17.1661H18.3287L19.1038 15.1421H19.8788H20.2663L20.6539 14.8094H21.0414M21.0414 14.8094V14.8094ZM21.0414 14.8094L21.8164 14.4767L22.204 14.144M22.204 14.144V14.144ZM22.204 14.144H22.5915M22.5915 14.144V14.144ZM22.5915 14.144V13.8113H22.979M22.979 13.8113V13.8113ZM22.979 13.8113H23.3665V13.4785H23.7541M23.7541 13.4785V13.4785ZM23.7541 13.4785L24.1416 13.1458H24.5291M24.5291 13.1458V13.1458ZM24.5291 13.1458H24.9166L25.3042 12.8131M25.3042 12.8131V12.8131ZM25.3042 12.8131L25.6917 12.4804M25.6917 12.4804V12.4804ZM25.6917 12.4804H26.0792M26.0792 12.4804V12.4804ZM26.0792 12.4804L26.4667 12.1477H26.8543M26.8543 12.1477V12.1477ZM26.8543 12.1477L27.2418 11.815H27.6293L28.0169 11.4822M28.0169 11.4822V11.4822ZM28.0169 11.4822H28.4044V11.1495H28.7919H29.1794L29.567 10.8168M29.567 10.8168V10.8168ZM29.567 10.8168H29.9545M29.9545 10.8168V10.8168ZM29.9545 10.8168H30.342M30.342 10.8168V10.8168ZM30.342 10.8168H30.7295M30.7295 10.8168V10.8168ZM30.7295 10.8168V11.1495H30.342V11.4822M30.342 11.4822V11.4822ZM30.342 11.4822V11.815M30.342 11.815V11.815ZM30.342 11.815L29.9545 12.1477V12.4804M29.9545 12.4804V12.4804ZM29.9545 12.4804V12.8131V13.1458M29.9545 13.1458V13.1458ZM29.9545 13.1458L30.342 13.4785M30.342 13.4785V13.4785ZM30.342 13.4785V13.8113M30.342 13.8113V13.8113ZM30.342 13.8113V14.144V14.4767M30.342 14.4767V14.4767ZM30.342 14.4767L30.7295 14.8094V15.1421M30.7295 15.1421V15.1421ZM30.7295 15.1421L31.1171 15.4749M31.1171 15.4749V15.4749ZM31.1171 15.4749V15.8076H31.5046L31.8921 16.1403V16.473M31.8921 16.473V16.473ZM31.8921 16.473L32.2796 16.8057M32.2796 16.8057V16.8057ZM32.2796 16.8057H32.6672V17.1384H33.0547M33.0547 17.1384V17.1384ZM33.0547 17.1384L33.4422 17.4712M33.4422 17.4712V17.4712ZM33.4422 17.4712H33.8297V17.8039M33.8297 17.8039V17.8039ZM33.8297 17.8039H34.2173M34.2173 17.8039V17.8039ZM34.2173 17.8039V18.1366M34.2173 18.1366V18.1366ZM34.2173 18.1366H34.6048M34.6048 18.1366V18.1366ZM34.6048 18.1366V18.4693H34.9923M34.9923 18.4693V18.4693ZM34.9923 18.4693V18.802H35.3798M35.3798 18.802V18.802ZM35.3798 18.802V19.1348M35.3798 19.1348V19.1348ZM35.3798 19.1348H35.7674M35.7674 19.1348V19.1348ZM35.7674 19.1348V19.4675M35.7674 19.4675V19.4675ZM35.7674 19.4675L36.1549 19.8002M36.1549 19.8002V19.8002ZM36.1549 19.8002V20.1329M36.1549 20.1329V20.1329ZM36.1549 20.1329L36.5424 20.4656M36.5424 20.4656V20.4656ZM36.5424 20.4656L36.9299 20.7983M36.9299 20.7983V20.7983ZM36.9299 20.7983H37.3175M37.3175 20.7983V20.7983ZM37.3175 20.7983V21.1311H37.705M37.705 21.1311V21.1311ZM37.705 21.1311H38.0925M38.0925 21.1311V21.1311ZM38.0925 21.1311V21.4638M38.0925 21.4638V21.4638ZM38.0925 21.4638H38.48V21.7965H38.8676M38.8676 21.7965V21.7965ZM38.8676 21.7965H39.2551M39.2551 21.7965V21.7965ZM39.2551 21.7965V22.1292H39.6426M39.6426 22.1292V22.1292ZM39.6426 22.1292H40.0301M40.0301 22.1292V22.1292ZM40.0301 22.1292V22.4619M40.0301 22.4619V22.4619ZM40.0301 22.4619V22.7947M40.0301 22.7947V22.7947ZM40.0301 22.7947H40.4177L40.0301 23.1274M40.0301 23.1274V23.1274ZM40.0301 23.1274L40.4177 23.4601M40.4177 23.4601V23.4601ZM40.4177 23.4601V23.7928M40.4177 23.7928V23.7928ZM40.4177 23.7928H40.8052M40.8052 23.7928V23.7928ZM40.8052 23.7928V24.1255M40.8052 24.1255V24.1255ZM40.8052 24.1255V24.4582M40.8052 24.4582V24.4582ZM40.8052 24.4582V24.791M40.8052 24.791V24.791ZM40.8052 24.791V25.1237M40.8052 25.1237V25.1237ZM40.8052 25.1237V25.4564M40.8052 25.4564V25.4564ZM40.8052 25.4564V25.7891M40.8052 25.7891V25.7891ZM40.8052 25.7891H41.1927V26.1218M41.1927 26.1218V26.1218ZM41.1927 26.1218V26.4546M41.1927 26.4546V26.4546ZM41.1927 26.4546L41.5802 26.7873M41.5802 26.7873V26.7873ZM41.5802 26.7873V27.12M41.5802 27.12V27.12ZM41.5802 27.12V27.4527M41.5802 27.4527V27.4527ZM41.5802 27.4527H41.9678M41.9678 27.4527V27.4527ZM41.9678 27.4527V27.7854M41.9678 27.7854V27.7854ZM41.9678 27.7854V28.1182M41.9678 28.1182V28.1182ZM41.9678 28.1182V28.4509M41.9678 28.4509V28.4509ZM41.9678 28.4509V28.7836M41.9678 28.7836V28.7836ZM41.9678 28.7836V29.1163M41.9678 29.1163V29.1163ZM41.9678 29.1163V29.449M41.9678 29.449V29.449ZM41.9678 29.449H42.3553V29.7817M42.3553 29.7817V29.7817ZM42.3553 29.7817V30.1145H42.7428M42.7428 30.1145V30.1145ZM42.7428 30.1145V30.4472H43.1303M43.1303 30.4472V30.4472ZM43.1303 30.4472L43.5179 30.7799M43.5179 30.7799V30.7799ZM43.5179 30.7799H43.9054L44.2929 31.1126M44.2929 31.1126V31.1126ZM44.2929 31.1126H44.6804M44.6804 31.1126V31.1126ZM44.6804 31.1126H45.068L45.4555 31.4453M45.4555 31.4453V31.4453ZM45.4555 31.4453H45.843M45.843 31.4453V31.4453ZM45.843 31.4453H46.2306M46.2306 31.4453V31.4453ZM46.2306 31.4453H46.6181M46.6181 31.4453V31.4453ZM46.6181 31.4453V31.778M46.6181 31.778V31.778ZM46.6181 31.778H47.0056V32.1108M47.0056 32.1108V32.1108ZM47.0056 32.1108V32.4435M47.0056 32.4435V32.4435ZM47.0056 32.4435L47.3931 32.7762M47.3931 32.7762V32.7762ZM47.3931 32.7762L47.7807 33.1089M47.7807 33.1089V33.1089ZM47.7807 33.1089H48.1682M48.1682 33.1089V33.1089ZM48.1682 33.1089H48.5557M48.5557 33.1089V33.1089ZM48.5557 33.1089V33.4416H48.9432H49.3308M49.3308 33.4416V33.4416ZM49.3308 33.4416H49.7183M49.7183 33.4416V33.4416ZM49.7183 33.4416H50.1058M50.1058 33.4416V33.4416ZM50.1058 33.4416H50.4933H50.8809L51.2684 33.1089M51.2684 33.1089V33.1089ZM51.2684 33.1089H51.6559H52.0434M52.0434 33.1089V33.1089ZM52.0434 33.1089H52.431L52.8185 32.7762H53.206M53.206 32.7762V32.7762ZM53.206 32.7762L53.5935 32.4435M53.5935 32.4435V32.4435ZM53.5935 32.4435H53.9811L54.3686 32.1108M54.3686 32.1108V32.1108ZM54.3686 32.1108H54.7561V31.778H55.1436M55.1436 31.778V31.778ZM55.1436 31.778L55.5312 31.4453M55.5312 31.4453V31.4453ZM55.5312 31.4453V31.1126H55.9187V30.7799M55.9187 30.7799V30.7799ZM55.9187 30.7799V30.4472M55.9187 30.7799L56.3062 30.4472M55.9187 30.4472V30.4472ZM55.9187 30.4472H56.3062M56.3062 30.4472V30.4472ZM56.3062 30.4472H56.6937M56.6937 30.4472V30.4472ZM56.6937 30.4472H57.0813L57.4688 30.1145M57.4688 30.1145V30.1145ZM57.4688 30.1145H57.8563M57.8563 30.1145V30.1145ZM57.8563 30.1145V29.7817M57.8563 29.7817V29.7817ZM57.8563 29.7817H58.2438M58.2438 29.7817V29.7817ZM58.2438 29.7817V29.449H58.6314H59.0189V29.1163M59.0189 29.1163V29.1163ZM59.0189 29.1163H59.4064V28.7836M59.4064 28.7836V28.7836ZM59.4064 28.7836H59.7939V28.4509M59.7939 28.4509V28.4509ZM59.7939 28.4509H60.1815V28.1182M60.1815 28.1182V28.1182ZM60.1815 28.1182V27.7854H60.569M60.569 27.7854V27.7854ZM60.569 27.7854L60.9565 27.4527H61.344V27.12M61.344 27.12V27.12ZM61.344 27.12L61.7316 26.7873M61.7316 26.7873V26.7873ZM61.7316 26.7873L62.1191 26.4546M62.1191 26.4546V26.4546ZM62.1191 26.4546L62.5066 26.1218M62.5066 26.1218V26.1218ZM62.5066 26.1218V25.7891M62.5066 25.7891V25.7891ZM62.5066 25.7891L62.8941 25.4564M62.8941 25.4564V25.4564ZM62.8941 25.4564V25.1237M62.8941 25.1237V25.1237ZM62.8941 25.1237V24.791M62.8941 24.791V24.791ZM62.8941 24.791V24.4582M62.8941 24.4582V24.4582ZM62.8941 24.4582V24.1255M62.8941 24.1255V24.1255ZM62.8941 24.1255V23.7928M62.8941 23.7928V23.7928ZM62.8941 23.7928V23.4601M62.8941 23.4601V23.4601ZM62.8941 23.4601V23.1274M62.8941 23.1274V23.1274ZM62.8941 23.1274V22.7947M62.8941 22.7947V22.7947ZM62.8941 22.7947V22.4619M62.8941 22.4619V22.4619ZM62.8941 22.4619V22.1292M62.8941 22.1292V22.1292ZM62.8941 22.1292V21.7965M62.8941 21.7965V21.7965ZM62.8941 21.7965V21.4638M62.8941 21.4638V21.4638ZM62.8941 21.4638V21.1311V20.7983M62.8941 20.7983V20.7983ZM62.8941 20.7983L62.5066 20.4656M62.5066 20.4656V20.4656ZM62.5066 20.4656V20.1329M62.5066 20.1329V20.1329ZM62.5066 20.1329V19.8002M62.5066 19.8002V19.8002ZM62.5066 19.8002V19.4675M62.5066 19.4675V19.4675ZM62.5066 19.4675V19.1348M62.5066 19.1348V19.1348ZM62.5066 19.1348V18.802M62.5066 18.802V18.802ZM62.5066 18.802V18.4693M62.5066 18.4693V18.4693ZM62.5066 18.4693V18.1366M62.5066 18.1366V18.1366ZM62.5066 18.1366V17.8039M62.5066 17.8039V17.8039ZM62.5066 17.8039V17.4712M62.5066 17.4712V17.4712ZM62.5066 17.4712V17.1384M62.5066 17.1384V17.1384ZM62.5066 17.1384H62.1191M62.1191 17.1384V17.1384ZM62.1191 17.1384V16.8057M62.1191 16.8057V16.8057ZM62.1191 16.8057V16.473M62.1191 16.473V16.473ZM62.1191 16.473V16.1403M62.1191 16.1403V16.1403ZM62.1191 16.1403V15.8076M62.1191 15.8076V15.8076ZM62.1191 15.8076V15.4749M62.1191 15.4749V15.4749ZM62.1191 15.4749H62.5066M62.5066 15.4749V15.4749ZM62.5066 15.4749V15.1421M62.5066 15.1421V15.1421ZM62.5066 15.1421V14.8094M62.5066 14.8094V14.8094ZM62.5066 14.8094V14.4767M62.5066 14.4767V14.4767ZM62.5066 14.4767V14.144H62.1191M62.1191 14.144V14.144ZM62.1191 14.144V13.8113M62.1191 13.8113V13.8113ZM62.1191 13.8113V13.4785M62.1191 13.4785V13.4785ZM62.1191 13.4785V13.1458M62.1191 13.1458V13.1458ZM62.1191 13.1458V12.8131M62.1191 12.8131V12.8131ZM62.1191 12.8131V12.4804H61.7316M61.7316 12.4804V12.4804ZM61.7316 12.4804V12.1477M61.7316 12.1477V12.1477ZM61.7316 12.1477V11.815M61.7316 11.815V11.815ZM61.7316 11.815V11.4822M61.7316 11.4822V11.4822ZM61.7316 11.4822V11.1495M61.7316 11.1495V11.1495ZM61.7316 11.1495V10.8168M61.7316 10.8168V10.8168ZM61.7316 10.8168H62.1191M61.7316 10.8168V10.4841M62.1191 10.8168V10.8168ZM61.7316 10.4841V10.4841ZM61.7316 10.4841V10.1514M61.7316 10.1514V10.1514ZM61.7316 10.1514V9.81864M61.7316 9.81864V9.81864ZM61.7316 9.81864H62.1191M61.7316 9.81864V9.48593M62.1191 9.81864V9.81864ZM61.7316 9.48593V9.48593ZM61.7316 9.48593V9.15321M61.7316 9.15321V9.15321ZM61.7316 9.15321V8.82049M61.7316 8.82049V8.82049ZM61.7316 8.82049V8.48777M61.7316 8.48777V8.48777ZM61.7316 8.48777V8.15505M61.7316 8.15505V8.15505ZM61.7316 8.15505V7.82233M61.7316 7.82233V7.82233Z" stroke="#13263A"/>
</svg>
