<svg width="171" height="105" viewBox="0 0 171 105" fill="none" xmlns="http://www.w3.org/2000/svg">
<path d="M0.876221 50.2761V49.9434M0.876221 50.2761V50.6088M0.876221 50.2761V50.2761ZM0.876221 50.2761H1.26375M0.876221 49.9434V49.9434ZM0.876221 49.9434L1.26375 49.6106M1.26375 49.6106V49.6106ZM1.26375 49.6106H1.65127M1.65127 49.6106V49.6106ZM1.65127 49.6106L2.42632 49.2779V49.6106M2.42632 49.6106V49.6106ZM2.42632 49.6106H2.81385M2.81385 49.6106V49.2779M2.81385 49.6106H3.20137M2.81385 49.2779V49.2779ZM3.20137 49.6106V49.2779M3.20137 49.6106V49.6106ZM3.20137 49.6106H3.5889L3.97642 49.9434L4.36395 49.6106M4.36395 49.6106V49.6106ZM4.36395 49.6106L4.75148 49.2779M4.75148 49.2779V49.2779ZM4.75148 49.2779V48.9452M4.75148 48.9452V48.9452ZM4.75148 48.9452V48.6125M4.75148 48.6125V48.6125ZM4.75148 48.6125H5.139M5.139 48.6125V48.6125ZM5.139 48.6125V48.9452M5.139 48.9452V48.9452ZM5.139 48.9452H5.52653M5.52653 48.9452V48.9452ZM5.52653 48.9452H5.91405M5.91405 48.9452V48.9452ZM5.91405 48.9452V49.2779M5.91405 49.2779V49.2779ZM5.91405 49.2779H6.30158M6.30158 49.2779V49.2779ZM6.30158 49.2779V49.6106H6.6891M6.6891 49.6106V49.6106ZM6.6891 49.6106H7.07663M7.07663 49.6106V49.6106ZM7.07663 49.6106V49.9434M7.07663 49.9434V49.9434ZM7.07663 49.9434H7.46415M7.46415 49.9434V50.2761M7.46415 49.9434V49.9434ZM7.46415 49.9434V49.6106H7.85168M7.46415 50.2761V50.2761ZM7.85168 49.6106V49.6106ZM7.85168 49.6106H8.23921M8.23921 49.6106V49.6106ZM8.23921 49.6106V49.2779H8.62673M8.62673 49.2779V49.2779ZM8.62673 49.2779L9.01426 48.9452V48.6125M9.01426 48.6125V48.6125ZM9.01426 48.6125V48.2798M9.01426 48.2798V48.2798ZM9.01426 48.2798H9.78931L9.40178 47.2816L9.78931 46.9489H10.1768M10.1768 46.9489V46.9489ZM10.1768 46.9489H10.5644L10.9519 46.6162M10.9519 46.6162V46.6162ZM10.9519 46.6162H11.7269V46.9489H12.1145M12.1145 46.9489V46.9489ZM12.1145 46.9489H12.502M12.502 46.9489V46.9489ZM12.502 46.9489L12.8895 46.6162V46.9489M12.8895 46.9489V46.9489ZM12.8895 46.9489H13.277V47.2816H13.6646M13.6646 47.2816V47.2816ZM13.6646 47.2816H14.0521V46.9489M14.0521 46.9489V46.9489ZM14.0521 46.9489H14.4396V47.2816M14.4396 47.2816V47.2816ZM14.4396 47.2816H14.8271V47.6143H15.2147V47.2816M15.2147 47.2816V47.2816ZM15.2147 47.2816H15.6022M15.6022 47.2816V47.2816ZM15.6022 47.2816V46.9489M15.6022 46.9489V46.9489ZM15.6022 46.9489H15.9897V46.6162M15.9897 46.6162V46.6162ZM15.9897 46.6162V46.2835M15.9897 46.2835V46.2835ZM15.9897 46.2835H16.3772M16.3772 46.2835V46.2835ZM16.3772 46.2835H16.7648M16.7648 46.2835V46.2835ZM16.7648 46.2835H17.1523M17.1523 46.2835V46.2835ZM17.1523 46.2835V45.9507M17.1523 45.9507V45.9507ZM17.1523 45.9507V45.618M17.1523 45.618V45.618ZM17.1523 45.618V45.2853H17.5398V44.6199M17.5398 44.6199V44.6199ZM17.5398 44.6199V43.9544H17.9273V43.6217M17.9273 43.6217V43.6217ZM17.9273 43.6217L18.3149 43.9544M18.3149 43.9544V43.9544ZM18.3149 43.9544H18.7024M18.7024 43.9544V43.9544ZM18.7024 43.9544H19.0899M19.0899 43.9544V43.9544ZM19.0899 43.9544V43.6217M19.0899 43.6217V43.6217ZM19.0899 43.6217L19.4774 43.289M19.4774 43.289V43.289ZM19.4774 43.289V42.9563M19.4774 42.9563V42.9563ZM19.4774 42.9563V42.6236L19.0899 42.2908M19.0899 42.2908V42.2908ZM19.0899 42.2908H18.7024M18.7024 42.2908V42.2908ZM18.7024 42.2908V41.9581M18.7024 41.9581V41.9581ZM18.7024 41.9581V41.6254M18.7024 41.6254V41.6254ZM18.7024 41.6254V41.2927V40.96M18.7024 40.96V40.96ZM18.7024 40.96H19.0899M19.0899 40.96V40.96ZM19.0899 40.96V40.6273M19.0899 40.6273V40.6273ZM19.0899 40.6273L19.4774 40.2945M19.4774 40.2945V40.2945ZM19.4774 40.2945V39.9618M19.4774 39.9618V39.9618ZM19.4774 39.9618V39.6291M19.4774 39.6291V39.6291ZM19.4774 39.6291V39.2964M19.4774 39.2964V39.2964ZM19.4774 39.2964V38.9637H19.865M19.865 38.9637V38.9637ZM19.865 38.9637H20.2525M20.2525 38.9637V38.9637ZM20.2525 38.9637L20.64 38.6309V38.9637M20.64 38.9637V38.9637ZM20.64 38.9637H21.4151M21.4151 38.9637V38.9637ZM21.4151 38.9637V38.6309M21.4151 38.6309V38.6309ZM21.4151 38.6309H21.8026V38.2982M21.8026 38.2982V38.2982ZM21.8026 38.2982H22.1901M22.1901 38.2982V38.2982ZM22.1901 38.2982V37.9655M22.1901 37.9655V37.9655ZM22.1901 37.9655H21.8026M21.8026 37.9655V37.9655ZM21.8026 37.9655V37.6328M21.8026 37.6328V37.6328ZM21.8026 37.6328H21.4151M21.8026 37.6328V37.3001M21.8026 37.6328H22.1901V37.3001M21.4151 37.6328V37.6328ZM21.8026 37.3001V37.3001ZM22.1901 37.3001V37.3001ZM22.1901 37.3001H22.5776M22.5776 37.3001V37.3001ZM22.5776 37.3001V37.6328M22.5776 37.6328V37.6328ZM22.5776 37.6328H22.9652M22.9652 37.6328V37.6328ZM22.9652 37.6328V37.3001M22.9652 37.3001V37.3001ZM22.9652 37.3001V36.9674M22.9652 36.9674V36.9674ZM22.9652 36.9674H23.3527M23.3527 36.9674V36.9674ZM23.3527 36.9674V36.6346M23.3527 36.6346V36.6346ZM23.3527 36.6346V36.3019H22.9652M22.9652 36.3019V36.3019ZM22.9652 36.3019L22.5776 35.9692M22.5776 35.9692V35.9692ZM22.5776 35.9692V35.6365M22.5776 35.6365V35.6365ZM22.5776 35.6365H22.9652M22.9652 35.6365V35.6365ZM22.9652 35.6365V35.3038M22.9652 35.3038V35.3038ZM22.9652 35.3038L23.3527 34.971M23.3527 34.971V34.971ZM23.3527 34.971V34.6383M23.3527 34.6383V34.6383ZM23.3527 34.6383V34.3056M23.3527 34.3056V34.3056ZM23.3527 34.3056V33.9729H23.7402M23.7402 33.9729V33.9729ZM23.7402 33.9729H24.1278M24.1278 33.9729V33.9729ZM24.1278 33.9729V33.6402M24.1278 33.6402V33.6402ZM24.1278 33.6402H24.5153M24.5153 33.6402V33.6402ZM24.5153 33.6402H24.9028L24.5153 33.3075H24.9028M24.9028 33.3075V33.3075ZM24.9028 33.3075V32.9747M24.9028 32.9747V32.9747ZM24.9028 32.9747V32.642M24.9028 32.642V32.642ZM24.9028 32.642H24.5153M24.5153 32.642V32.642ZM24.5153 32.642V32.3093M24.5153 32.3093V32.3093ZM24.5153 32.3093L24.9028 31.9766M24.9028 31.9766V31.9766ZM24.9028 31.9766H25.2903M25.2903 31.9766V31.9766ZM25.2903 31.9766H25.6779M25.6779 31.9766V31.9766ZM25.6779 31.9766V31.6439M25.6779 31.6439V31.6439ZM25.6779 31.6439H26.0654M26.0654 31.6439V31.6439ZM26.0654 31.6439V31.3111M26.0654 31.3111V31.3111ZM26.0654 31.3111V30.9784M26.0654 30.9784V30.9784ZM26.0654 30.9784V30.6457M26.0654 30.6457V30.6457ZM26.0654 30.6457V30.313M26.0654 30.313V30.313ZM26.0654 30.313L25.6779 29.9803M25.6779 29.9803V29.9803ZM25.6779 29.9803V29.6476M25.6779 29.6476V29.6476ZM25.6779 29.6476H26.0654M26.0654 29.6476V29.6476ZM26.0654 29.6476V29.3148M26.0654 29.3148V29.3148ZM26.0654 29.3148H26.4529M26.4529 29.3148V29.3148ZM26.4529 29.3148V28.9821M26.4529 28.9821V28.9821ZM26.4529 28.9821H26.8404V28.6494M26.8404 28.6494V28.6494ZM26.8404 28.6494V28.3167M26.8404 28.3167V28.3167ZM26.8404 28.3167H27.228M27.228 28.3167V28.3167ZM27.228 28.3167H27.6155M27.6155 28.3167V28.3167ZM27.6155 28.3167V27.984M27.6155 27.984V27.984ZM27.6155 27.984H28.003M28.003 27.984V28.3167M28.003 27.984V27.984ZM28.003 27.984V27.6512M28.003 28.3167V28.3167ZM28.003 27.6512V27.6512ZM28.003 27.6512H28.3905M28.3905 27.6512V27.6512ZM28.3905 27.6512V27.3185M28.3905 27.3185V27.3185ZM28.3905 27.3185V26.9858M28.3905 26.9858V26.9858ZM28.3905 26.9858V26.6531H28.7781M28.7781 26.6531V26.6531ZM28.7781 26.6531L29.1656 26.3204M29.1656 26.3204V26.3204ZM29.1656 26.3204V25.9877M29.1656 25.9877V25.9877ZM29.1656 25.9877V25.6549M29.1656 25.6549V25.6549ZM29.1656 25.6549V25.3222M29.1656 25.3222V25.3222ZM29.1656 25.3222V24.9895M29.1656 24.9895V24.9895ZM29.1656 24.9895H29.5531M29.5531 24.9895V24.9895ZM29.5531 24.9895V24.6568M29.5531 24.6568V24.6568ZM29.5531 24.6568L29.9406 24.3241M29.9406 24.3241V24.3241ZM29.9406 24.3241H29.5531M29.5531 24.3241V24.3241ZM29.5531 24.3241V23.9913M29.5531 23.9913V23.9913ZM29.5531 23.9913H29.9406M29.9406 23.9913V23.9913ZM29.9406 23.9913V23.6586V23.3259M29.9406 23.3259V23.3259ZM29.9406 23.3259H30.3282M30.3282 23.3259V23.3259ZM30.3282 23.3259V22.9932M30.3282 22.9932V22.9932ZM30.3282 22.9932V22.6605M30.3282 22.6605V22.6605ZM30.3282 22.6605H30.7157V22.3277M30.7157 22.3277V22.3277ZM30.7157 22.3277V21.995M30.7157 21.995V21.995ZM30.7157 21.995H31.1032M31.1032 21.995V21.995ZM31.1032 21.995H31.4907M31.4907 21.995V21.995ZM31.4907 21.995H31.8783M31.8783 21.995V21.995ZM31.8783 21.995H32.2658V21.6623M32.2658 21.6623V21.6623ZM32.2658 21.6623L32.6533 21.3296L32.2658 20.9969M32.2658 20.9969V20.9969ZM32.2658 20.9969V20.6642M32.2658 20.6642V20.6642ZM32.2658 20.6642V20.3314M32.2658 20.3314V20.3314ZM32.2658 20.3314V19.9987H31.8783M31.8783 19.9987V19.9987ZM31.8783 19.9987V19.666M31.8783 19.666V19.666ZM31.8783 19.666V19.3333M31.8783 19.3333V19.3333ZM31.8783 19.3333L32.2658 19.0006M32.2658 19.0006V19.0006ZM32.2658 19.0006V18.6678M32.2658 18.6678V18.6678ZM32.2658 18.6678H32.6533V18.3351M32.6533 18.3351L33.0408 18.6678V18.3351H32.6533ZM32.6533 18.3351V18.0024H33.0408M33.0408 18.0024V18.0024ZM33.0408 18.0024L33.4284 17.6697V18.0024M33.4284 18.0024V18.0024ZM33.4284 18.0024L33.8159 17.6697M33.8159 17.6697V17.6697ZM33.8159 17.6697V17.337M33.8159 17.337V17.337ZM33.8159 17.337H34.2034M34.2034 17.337V17.337ZM34.2034 17.337V17.0043M34.2034 17.0043V17.0043ZM34.2034 17.0043H34.5909M34.5909 17.0043V17.0043ZM34.5909 17.0043H34.9785M34.9785 17.0043V17.0043ZM34.9785 17.0043V16.6715M34.9785 16.6715V16.6715ZM34.9785 16.6715H35.366M35.366 16.6715V16.6715ZM35.366 16.6715V16.3388M35.366 16.3388V16.3388ZM35.366 16.3388V16.0061V15.6734H35.7535M35.7535 15.6734V15.6734ZM35.7535 15.6734V15.3407M35.7535 15.3407V15.3407ZM35.7535 15.3407V15.0079M35.7535 15.0079V15.0079ZM35.7535 15.0079H36.141V14.6752H36.5286M36.5286 14.6752V14.6752ZM36.5286 14.6752V14.3425M36.5286 14.3425V14.3425ZM36.5286 14.3425V14.0098H36.9161H37.3036M37.3036 14.0098V14.0098ZM37.3036 14.0098V13.6771H37.6911V13.3444M37.6911 13.3444V13.0116M37.6911 13.3444V13.3444ZM37.6911 13.3444H38.0787V13.6771H38.4662M37.6911 13.0116V13.0116ZM38.4662 13.6771V13.6771ZM38.4662 13.6771H38.8537M38.8537 13.6771V13.6771ZM38.8537 13.6771H39.2412M39.2412 13.6771V13.6771ZM39.2412 13.6771H39.6288M39.6288 13.6771V13.6771ZM39.6288 13.6771V13.3444M39.6288 13.3444V13.3444ZM39.6288 13.3444V13.0116V12.6789V12.3462H40.0163M40.0163 12.3462V12.3462ZM40.0163 12.3462L40.4038 12.0135V12.3462H40.7913L41.5664 12.6789V13.0116H42.729M42.729 13.0116V13.0116ZM42.729 13.0116H43.1165V12.6789L43.504 13.0116M43.504 13.0116V13.0116ZM43.504 13.0116V12.6789H43.8916M43.8916 12.6789V12.6789ZM43.8916 12.6789H44.2791V12.3462V12.0135M44.2791 12.0135V12.0135ZM44.2791 12.0135H44.6666V11.6808M44.6666 11.6808V11.6808ZM44.6666 11.6808H45.0541M45.0541 11.6808V11.6808ZM45.0541 11.6808H45.4417V11.348H45.8292M45.8292 11.348V11.348ZM45.8292 11.348V11.0153M45.8292 11.0153V11.0153ZM45.8292 11.0153H45.4417M45.4417 11.0153V11.0153ZM45.4417 11.0153V10.6826V10.3499M45.4417 10.3499V10.3499ZM45.4417 10.3499H45.8292H46.2167M46.2167 10.3499V10.3499ZM46.2167 10.3499V10.0172M46.2167 10.0172V10.0172ZM46.2167 10.0172H46.6042M46.6042 10.0172V10.0172ZM46.6042 10.0172H46.9918M46.9918 10.0172V10.0172ZM46.9918 10.0172V9.68446M46.9918 9.68446V9.68446ZM46.9918 9.68446H47.3793V9.35174M47.3793 9.35174V9.35174ZM47.3793 9.35174L47.7668 9.01902M47.7668 9.01902V9.01902ZM47.7668 9.01902H48.1543V8.6863M48.1543 8.6863V8.6863ZM48.1543 8.6863H48.5419M48.5419 8.6863V8.6863ZM48.5419 8.6863H48.9294M48.9294 8.6863V8.6863ZM48.9294 8.6863L48.5419 8.35358M48.5419 8.35358V8.35358ZM48.5419 8.35358V8.02087M48.5419 8.02087V8.02087ZM48.5419 8.02087V7.68815M48.5419 7.68815V7.68815ZM48.5419 7.68815H48.1543M48.1543 7.68815V7.68815ZM48.1543 7.68815V7.35543H48.5419M48.5419 7.35543V7.35543ZM48.5419 7.35543H48.9294M48.9294 7.35543V7.35543ZM48.9294 7.35543V7.68815M48.9294 7.68815V7.68815ZM48.9294 7.68815H49.3169M49.3169 7.68815V7.68815ZM49.3169 7.68815H49.7044M49.7044 7.68815V7.68815ZM49.7044 7.68815V8.02087M49.7044 8.02087V8.02087ZM49.7044 8.02087H50.092M50.092 8.02087V8.02087ZM50.092 8.02087V7.68815H50.4795H50.867M50.867 7.68815V7.68815ZM50.867 7.68815H51.2545M51.2545 7.68815V7.68815ZM51.2545 7.68815V7.35543M51.2545 7.35543H51.6421M51.2545 7.35543V7.35543ZM51.6421 7.35543V7.35543ZM51.6421 7.35543V7.02271M51.6421 7.02271V7.02271ZM51.6421 7.02271V6.68999M51.6421 6.68999V6.68999ZM51.6421 6.68999V6.35727M51.6421 6.35727V6.35727ZM51.6421 6.35727L52.0296 6.02456M52.0296 6.02456V6.02456ZM52.0296 6.02456L51.6421 5.69184M51.6421 5.69184V5.69184ZM51.6421 5.69184H52.0296M52.0296 5.69184V5.69184ZM52.0296 5.69184H52.4171M52.4171 5.69184V5.69184ZM52.4171 5.69184V5.35912M52.4171 5.35912V5.35912ZM52.4171 5.35912V5.0264M52.4171 5.0264V5.0264ZM52.4171 5.0264H52.8046M52.8046 5.0264V5.0264ZM52.8046 5.0264V5.35912H53.1922M53.1922 5.35912V5.35912ZM53.1922 5.35912V5.69184M53.1922 5.69184V5.69184ZM53.1922 5.69184H53.5797M53.5797 5.69184V5.69184ZM53.5797 5.69184H53.9672M53.9672 5.69184V5.69184ZM53.9672 5.69184H54.3547M54.3547 5.69184V5.69184ZM54.3547 5.69184V5.35912M54.3547 5.69184H54.7423M54.3547 5.35912V5.35912ZM54.7423 5.69184V5.69184ZM54.7423 5.69184V6.02456M54.7423 6.02456V6.02456ZM54.7423 6.02456H55.1298M54.7423 6.02456V6.35727M54.7423 6.35727V6.35727ZM54.7423 6.35727V6.68999M54.7423 6.68999V6.68999ZM54.7423 6.68999H55.1298M55.1298 6.68999V6.68999ZM55.1298 6.68999H55.5173V7.02271M55.5173 7.02271V7.02271ZM55.5173 7.02271H55.9048M55.9048 7.02271V7.02271ZM55.9048 7.02271L55.5173 7.35543M55.5173 7.35543V7.35543ZM55.5173 7.35543H55.9048M55.9048 7.35543V7.35543ZM55.9048 7.35543L56.2924 7.68815M56.2924 7.68815V7.68815ZM56.2924 7.68815H56.6799M56.6799 7.68815V7.68815ZM56.6799 7.68815H57.0674M57.0674 7.68815V7.68815ZM57.0674 7.68815V8.02087M57.0674 8.02087V8.02087ZM57.0674 8.02087H57.4549L57.8425 8.35358M57.8425 8.35358V8.35358ZM57.8425 8.35358H58.23H58.6175M58.6175 8.35358V8.6863M58.6175 8.35358V8.35358ZM58.6175 8.35358H59.005V8.02087M58.6175 8.6863V8.6863ZM59.005 8.02087V8.02087ZM59.005 8.02087V7.68815M59.005 7.68815V7.68815ZM59.005 7.68815V7.35543H59.3926M59.3926 7.35543V7.35543ZM59.3926 7.35543V7.68815M59.3926 7.68815V7.68815ZM59.3926 7.68815H59.7801M59.7801 7.68815V7.68815ZM59.7801 7.68815H60.1676M60.1676 7.68815V7.68815ZM60.1676 7.68815H60.5551M60.5551 7.68815V7.68815ZM60.5551 7.68815H60.9427M60.9427 7.68815V7.68815ZM60.9427 7.68815H61.3302M61.3302 7.68815V7.68815ZM61.3302 7.68815V8.02087M61.3302 8.02087V8.02087ZM61.3302 8.02087H61.7177M61.7177 8.02087V8.02087ZM61.7177 8.02087V8.35358M61.7177 8.02087H62.1053M62.1053 8.02087V8.02087ZM62.1053 8.02087H62.4928M62.4928 8.02087V8.02087ZM62.4928 8.02087H62.8803M62.8803 8.02087V8.02087ZM62.8803 8.02087H63.2678M63.2678 8.02087V7.68815M63.2678 8.02087V8.02087ZM63.2678 8.02087H63.6554M63.6554 8.02087V8.02087ZM63.6554 8.02087H64.0429M64.0429 8.02087V8.02087ZM64.0429 8.02087L64.4304 8.35358M64.4304 8.35358V8.35358ZM64.4304 8.35358L64.8179 8.6863M64.8179 8.6863V8.6863ZM64.8179 8.6863V9.01902M64.8179 9.01902V9.01902ZM64.8179 9.01902V9.35174M64.8179 9.35174V9.35174ZM64.8179 9.35174H65.2055M65.2055 9.35174V9.35174ZM65.2055 9.35174H65.593V9.01902M65.593 9.01902V9.01902ZM65.593 9.01902H65.9805M65.9805 9.01902V9.01902ZM65.9805 9.01902H66.368M66.368 9.01902V9.01902ZM66.368 9.01902H66.7556M66.7556 9.01902V9.01902ZM66.7556 9.01902V8.6863M66.7556 8.6863V8.6863ZM66.7556 8.6863H67.1431M67.1431 8.6863V8.6863ZM67.1431 8.6863H67.5306M67.5306 8.6863V8.6863ZM67.5306 8.6863H67.9181M67.9181 8.6863V8.6863ZM67.9181 8.6863H68.3057V9.01902M68.3057 9.01902V9.01902ZM68.3057 9.01902H68.6932M68.6932 9.01902V9.01902ZM68.6932 9.01902H69.0807M69.0807 9.01902V9.01902ZM69.0807 9.01902L69.4682 9.35174M69.4682 9.35174V9.35174ZM69.4682 9.35174V9.68446M69.4682 9.68446V9.68446ZM69.4682 9.68446H69.8558M69.8558 9.68446V9.68446ZM69.8558 9.68446H70.2433M70.2433 9.68446V9.68446ZM70.2433 9.68446H70.6308M70.6308 9.68446V9.68446ZM70.6308 9.68446H71.0183M71.0183 9.68446V9.68446ZM71.0183 9.68446L71.4059 10.0172M71.4059 10.0172V10.0172ZM71.4059 10.0172H71.7934M71.7934 10.0172V10.0172ZM71.7934 10.0172H72.1809M72.1809 10.0172V10.0172ZM72.1809 10.0172H72.5684M72.5684 10.0172V10.0172ZM72.5684 10.0172H72.956M72.956 10.0172V10.0172ZM72.956 10.0172V9.68446M72.956 9.68446V9.68446ZM72.956 9.68446H73.3435M73.3435 9.68446V9.68446ZM73.3435 9.68446V9.35174M73.3435 9.68446H73.731M73.731 9.68446V9.68446ZM73.731 9.68446H74.1185M74.1185 9.68446V9.68446ZM74.1185 9.68446H74.5061M74.5061 9.68446V9.68446ZM74.5061 9.68446V9.35174M74.5061 9.35174V9.35174ZM74.5061 9.35174V9.01902M74.5061 9.01902V9.01902ZM74.5061 9.01902H74.8936V8.6863M74.8936 8.6863V8.6863ZM74.8936 8.6863H75.2811M75.2811 8.6863V8.6863ZM75.2811 8.6863V8.35358L75.6686 8.6863M75.6686 8.6863V8.6863ZM75.6686 8.6863H76.0562M76.0562 8.6863V8.6863ZM76.0562 8.6863H76.4437M76.4437 8.6863V8.6863ZM76.4437 8.6863V9.01902M76.4437 9.01902V9.01902ZM76.4437 9.01902H76.8312M76.8312 9.01902V9.01902ZM76.8312 9.01902L77.2187 8.6863M77.2187 8.6863V8.6863ZM77.2187 8.6863H77.6063M77.6063 8.6863V8.6863ZM77.6063 8.6863H77.9938M77.9938 8.6863V8.6863ZM77.9938 8.6863H78.3813M78.3813 8.6863V8.6863ZM78.3813 8.6863V9.01902M78.3813 9.01902V9.01902ZM78.3813 9.01902H78.7688M78.7688 9.01902V9.01902ZM78.7688 9.01902L79.1564 9.35174M79.1564 9.35174H78.7688M79.1564 9.35174V9.35174ZM79.1564 9.35174V9.68446M78.7688 9.35174V9.35174ZM79.1564 9.68446V9.68446ZM79.1564 9.68446V10.0172H79.5439M79.5439 10.0172V10.0172ZM79.5439 10.0172V10.3499M79.5439 10.3499V10.3499ZM79.5439 10.3499V10.6826M79.5439 10.6826V10.6826ZM79.5439 10.6826V11.0153M79.5439 11.0153V11.0153ZM79.5439 11.0153H79.9314M79.9314 11.0153V11.0153ZM79.9314 11.0153L80.319 11.348M80.319 11.348V11.348ZM80.319 11.348H80.7065M80.7065 11.348V11.348ZM80.7065 11.348H81.094V11.6808M81.094 11.6808V11.6808ZM81.094 11.6808L81.4815 11.348V11.6808M81.4815 11.6808V11.6808ZM81.4815 11.6808L81.8691 12.0135M81.8691 12.0135V11.6808M81.8691 12.0135V12.0135ZM81.8691 12.0135H82.2566M81.8691 11.6808V11.6808ZM82.2566 12.0135V12.0135ZM82.2566 12.0135H82.6441M82.2566 12.0135V12.3462H82.6441M82.6441 12.0135V12.0135ZM82.6441 12.3462V12.3462ZM82.6441 12.3462V12.6789M82.6441 12.6789V12.6789ZM82.6441 12.6789V13.0116M82.6441 13.0116V13.0116ZM82.6441 13.0116H83.0316M83.0316 13.0116V13.0116ZM83.0316 13.0116V13.3444M83.0316 13.3444V13.3444ZM83.0316 13.3444H83.4192M83.4192 13.3444V13.3444ZM83.4192 13.3444V13.6771M83.4192 13.6771V13.6771ZM83.4192 13.6771V14.0098M83.4192 14.0098V14.0098ZM83.4192 14.0098H83.8067M83.8067 14.0098V14.0098ZM83.8067 14.0098H84.1942M84.1942 14.0098V14.0098ZM84.1942 14.0098H84.5817M84.5817 14.0098V14.0098ZM84.5817 14.0098H84.9693M84.9693 14.0098V14.0098ZM84.9693 14.0098H85.3568M85.3568 14.0098V14.0098ZM85.3568 14.0098H85.7443M85.7443 14.0098V14.0098ZM85.7443 14.0098H86.1318M86.1318 14.0098V14.0098ZM86.1318 14.0098H86.5194M86.5194 14.0098V14.0098ZM86.5194 14.0098V13.6771M86.5194 13.6771V13.6771ZM86.5194 13.6771H86.9069M86.9069 13.6771V13.6771ZM86.9069 13.6771H87.2944M87.2944 13.6771V13.6771ZM87.2944 13.6771V13.3444M87.2944 13.3444V13.3444ZM87.2944 13.3444H87.6819M87.6819 13.3444V13.3444ZM87.6819 13.3444V13.0116M87.6819 13.0116V13.0116ZM87.6819 13.0116H88.0695M88.0695 13.0116V13.0116ZM88.0695 13.0116V12.6789M88.0695 12.6789V12.6789ZM88.0695 12.6789H88.457M88.457 12.6789V12.6789ZM88.457 12.6789V12.3462M88.457 12.3462V12.3462ZM88.457 12.3462L88.8445 12.0135M88.8445 12.0135V12.0135ZM88.8445 12.0135V11.6808M88.8445 11.6808V11.6808ZM88.8445 11.6808H89.232M89.232 11.6808V11.6808ZM89.232 11.6808V11.348M89.232 11.348V11.348ZM89.232 11.348V11.0153M89.232 11.0153V11.0153ZM89.232 11.0153H89.6196M89.6196 11.0153V11.0153ZM89.6196 11.0153V10.6826M89.6196 10.6826V10.6826ZM89.6196 10.6826V10.3499M89.6196 10.3499V10.3499ZM89.6196 10.3499H90.0071M90.0071 10.3499V10.3499ZM90.0071 10.3499H90.3946M90.3946 10.3499V10.3499ZM90.3946 10.3499L90.7821 10.0172M90.7821 10.0172V10.0172ZM90.7821 10.0172L91.1697 9.68446H91.5572M91.5572 9.68446V9.68446ZM91.5572 9.68446H91.9447L93.4948 9.35174H93.8823H94.2699M94.2699 9.35174V9.35174ZM94.2699 9.35174H94.6574H95.0449M95.0449 9.35174V9.35174ZM95.0449 9.35174H95.4324M95.4324 9.35174V9.35174ZM95.4324 9.35174H95.82H96.2075M96.2075 9.35174V9.35174ZM96.2075 9.35174V9.01902H96.595M96.595 9.01902V9.01902ZM96.595 9.01902H96.9825M96.9825 9.01902V9.01902ZM96.9825 9.01902H97.3701M97.3701 9.01902V9.01902ZM97.3701 9.01902H97.7576M97.7576 9.01902V9.01902ZM97.7576 9.01902H98.1451M98.1451 9.01902V9.01902ZM98.1451 9.01902H98.5327M98.5327 9.01902V9.01902ZM98.5327 9.01902H98.9202M98.9202 9.01902V9.01902ZM98.9202 9.01902L99.3077 9.35174L99.6952 9.01902H100.083M100.083 9.01902V9.01902ZM100.083 9.01902V8.6863H100.47M100.47 8.6863V8.6863ZM100.47 8.6863H100.858V8.35358L101.245 8.6863M101.245 8.6863V8.6863ZM101.245 8.6863H101.633M101.633 8.6863V8.6863ZM101.633 8.6863H102.02M102.02 8.6863V8.6863ZM102.02 8.6863V8.35358M102.02 8.35358V8.35358ZM102.02 8.35358H102.408M102.408 8.35358V8.35358ZM102.408 8.35358H102.795M102.795 8.35358V8.35358ZM102.795 8.35358H103.183H103.57M103.57 8.35358V8.35358ZM103.57 8.35358L104.346 8.02087H104.733M104.733 8.02087V8.02087ZM104.733 8.02087L105.121 8.35358M105.121 8.35358V8.35358ZM105.121 8.35358H105.508M105.508 8.35358V8.35358ZM105.508 8.35358L105.896 8.02087M105.896 8.02087V8.02087ZM105.896 8.02087H106.283M106.283 8.02087V8.02087ZM106.283 8.02087H106.671M106.671 8.02087V8.02087ZM106.671 8.02087H107.058V7.68815M107.058 7.68815V7.68815ZM107.058 7.68815V7.35543M107.058 7.35543V7.35543ZM107.058 7.35543V7.02271M107.058 7.02271V7.02271ZM107.058 7.02271L107.446 6.68999M107.446 6.68999V6.68999ZM107.446 6.68999V6.35727M107.446 6.35727V6.35727ZM107.446 6.35727H107.833L108.221 6.02456M108.221 6.02456V6.02456ZM108.221 6.02456V5.69184M108.221 5.69184V5.69184ZM108.221 5.69184H108.608V5.35912M108.608 5.35912V5.35912ZM108.608 5.35912V5.0264M108.608 5.0264V5.0264ZM108.608 5.0264L108.996 4.69368M108.996 4.69368V4.69368ZM108.996 4.69368V4.36096M108.996 4.36096V4.36096ZM108.996 4.36096H109.383V4.02825M109.383 4.02825V4.02825ZM109.383 4.02825V3.69553M109.383 3.69553V3.69553ZM109.383 3.69553H109.771M109.771 3.69553V3.69553ZM109.771 3.69553V3.36281M109.771 3.69553L110.158 3.36281M109.771 3.36281V3.36281ZM110.158 3.36281V3.36281ZM110.158 3.36281H110.546M110.546 3.36281V3.36281ZM110.546 3.36281H110.933M110.933 3.36281V3.36281ZM110.933 3.36281V3.03009M110.933 3.03009V3.03009ZM110.933 3.03009H111.321M111.321 3.03009V3.36281M111.321 3.03009V3.03009ZM111.321 3.03009H111.709M111.321 3.36281V3.36281ZM111.709 3.03009V3.03009ZM111.709 3.03009V2.69737M111.709 2.69737V2.69737ZM111.709 2.69737H112.096M112.096 2.69737V2.69737ZM112.096 2.69737V3.03009M112.096 2.69737H112.484M112.096 3.03009V3.03009ZM112.484 2.69737V2.69737ZM112.484 2.69737V3.03009M112.484 3.03009V3.03009ZM112.484 3.03009H112.871M112.871 3.03009V3.03009ZM112.871 3.03009H113.259V2.69737M113.259 2.69737V2.69737ZM113.259 2.69737H113.646M113.646 2.69737V2.69737ZM113.646 2.69737V2.36466M113.646 2.36466V2.36466ZM113.646 2.36466H114.034M114.034 2.36466V2.36466ZM114.034 2.36466V2.03194M114.034 2.36466H114.421M114.034 2.03194V2.03194ZM114.421 2.36466V2.36466ZM114.421 2.36466H114.809M114.809 2.36466V2.36466ZM114.809 2.36466V2.03194M114.809 2.03194H114.421M114.809 2.03194V2.03194ZM114.809 2.03194V1.69922M114.421 2.03194V2.03194ZM114.809 1.69922V1.69922ZM114.809 1.69922L115.196 2.03194M115.196 2.03194V2.03194ZM115.196 2.03194V1.69922M115.196 2.03194H115.584M115.196 1.69922V1.69922ZM115.196 1.69922H115.584M115.584 1.69922V1.69922ZM115.584 1.69922V2.03194M115.584 2.03194V2.03194ZM115.584 2.03194H115.971M115.971 2.03194V2.03194ZM115.971 2.03194V1.69922M115.971 2.03194H116.359M115.971 1.69922V1.69922ZM116.359 2.03194V2.03194ZM116.359 2.03194H116.746M116.359 2.03194L116.746 1.69922V2.03194M116.746 2.03194V2.03194ZM116.746 2.03194H117.134M117.134 2.03194V2.03194ZM117.134 2.03194H117.521M117.521 2.03194V2.36466M117.521 2.03194V2.03194ZM117.521 2.03194H117.909M117.521 2.36466V2.36466ZM117.909 2.03194V2.03194ZM117.909 2.03194H118.296M118.296 2.03194V2.03194ZM118.296 2.03194V2.36466M118.296 2.36466V2.36466ZM118.296 2.36466V2.69737M118.296 2.69737V2.69737ZM118.296 2.69737H118.684M118.684 2.69737V2.69737ZM118.684 2.69737V2.36466M118.684 2.69737H119.072M118.684 2.36466V2.36466ZM119.072 2.69737V2.69737ZM119.072 2.69737V3.03009M119.072 3.03009V3.03009ZM119.072 3.03009H119.459M119.459 3.03009V3.03009ZM119.459 3.03009H119.847M119.847 3.03009V3.03009ZM119.847 3.03009V3.36281M119.847 3.36281V3.36281ZM119.847 3.36281H119.459M119.847 3.36281V3.69553M119.847 3.36281H120.234M119.459 3.36281V3.36281ZM119.459 3.36281V3.69553M119.459 3.69553V3.69553ZM119.459 3.69553H119.847M119.847 3.69553V3.69553ZM120.234 3.36281V3.36281ZM120.234 3.36281H120.622M120.622 3.36281V3.36281ZM120.622 3.36281V3.69553M120.622 3.69553V3.69553ZM120.622 3.69553H120.234M120.234 3.69553V3.69553ZM120.234 3.69553V4.02825M120.234 4.02825V4.02825ZM120.234 4.02825H120.622M120.622 4.02825V4.02825ZM120.622 4.02825H121.009M121.009 4.02825V4.02825ZM121.009 4.02825V4.36096M121.009 4.36096H121.397M121.009 4.36096V4.36096ZM121.009 4.36096H120.622M121.397 4.36096V4.36096ZM120.622 4.36096V4.36096ZM120.622 4.36096V4.69368M120.622 4.69368V4.69368ZM120.622 4.69368H121.009M121.009 4.69368V4.69368ZM121.009 4.69368V5.0264H121.397M121.397 5.0264V5.0264ZM121.397 5.0264V4.69368H121.784M121.784 4.69368V4.69368ZM121.784 4.69368V5.0264M121.784 5.0264V5.0264ZM121.784 5.0264H122.172M122.172 5.0264V4.69368M122.172 5.0264V5.0264ZM122.172 5.0264V5.35912M122.172 4.69368V4.69368ZM122.172 5.35912V5.35912ZM122.172 5.35912V5.69184H121.784M121.784 5.69184V5.69184ZM121.784 5.69184L122.172 6.02456M122.172 6.02456V6.02456ZM122.172 6.02456V6.35727M122.172 6.35727V6.35727ZM122.172 6.35727H122.559M122.559 6.35727V6.35727ZM122.559 6.35727L122.947 6.68999M122.947 6.68999V6.68999ZM122.947 6.68999V7.02271M122.947 7.02271V7.02271ZM122.947 7.02271H123.334M123.334 7.02271V7.02271ZM123.334 7.02271V7.35543M123.334 7.35543H122.947M123.334 7.35543V7.68815M123.334 7.35543H123.722M122.947 7.35543V7.35543ZM122.947 7.35543V7.68815M122.947 7.68815V7.68815ZM122.947 7.68815H123.334M123.334 7.68815V7.68815ZM123.334 7.68815H123.722M123.334 7.68815L123.722 8.02087M123.722 7.35543V7.35543ZM123.722 7.35543V7.68815M123.722 7.68815V7.68815ZM123.722 8.02087V8.02087ZM123.722 8.02087H124.109M124.109 8.02087V8.02087ZM124.109 8.02087H124.497M124.109 8.02087V8.35358M124.497 8.02087V8.02087ZM124.109 8.35358V8.35358ZM124.109 8.35358V8.6863M124.109 8.6863V8.6863ZM124.109 8.6863L124.497 9.01902M124.497 9.01902V9.01902ZM124.497 9.01902V9.35174M124.497 9.35174V9.35174ZM124.497 9.35174H124.109M124.109 9.35174V9.35174ZM124.109 9.35174V9.68446M124.109 9.68446V9.68446ZM124.109 9.68446H124.497M124.497 9.68446V9.68446ZM124.497 9.68446L124.884 10.0172M124.884 10.0172V10.0172ZM124.884 10.0172L125.272 10.3499M125.272 10.3499V10.3499ZM125.272 10.3499L124.884 10.6826M124.884 10.6826V10.6826ZM124.884 10.6826V11.0153M124.884 11.0153V11.0153ZM124.884 11.0153H125.272M125.272 11.0153V11.0153ZM125.272 11.0153V11.348M125.272 11.348V11.348ZM125.272 11.348H124.884M125.272 11.348V11.6808M125.272 11.348L125.659 11.6808M124.884 11.348V11.348ZM125.272 11.6808V11.6808ZM125.272 11.6808H125.659M125.272 11.6808V12.0135M125.659 11.6808V11.6808ZM125.272 12.0135V12.0135ZM125.272 12.0135H125.659M125.659 12.0135V12.0135ZM125.659 12.0135V12.3462M125.659 12.3462V12.3462ZM125.659 12.3462V12.6789H126.047M126.047 12.6789V12.6789ZM126.047 12.6789V13.0116M126.047 13.0116V13.0116ZM126.047 13.0116V13.3444M126.047 13.3444V13.3444ZM126.047 13.3444H126.434M126.434 13.3444V13.3444ZM126.434 13.3444V13.6771M126.434 13.6771V13.6771ZM126.434 13.6771L126.822 13.3444M126.434 13.6771H126.822M126.434 13.6771V14.0098M126.822 13.3444V13.3444ZM126.822 13.3444V13.6771M126.822 13.6771V13.6771ZM126.434 14.0098V14.0098ZM126.434 14.0098H126.822M126.434 14.0098H126.047M126.822 14.0098V14.0098ZM126.047 14.0098V14.0098ZM126.047 14.0098V14.3425M126.047 14.3425V14.3425ZM126.047 14.3425V14.6752M126.047 14.6752V14.6752ZM126.047 14.6752H126.434M126.434 14.6752V14.6752ZM126.434 14.6752V15.0079M126.434 15.0079V15.0079ZM126.434 15.0079H126.822V15.3407M126.822 15.3407V15.3407ZM126.822 15.3407V15.6734M126.822 15.6734V15.6734ZM126.822 15.6734H127.21V16.0061M127.21 16.0061V16.0061ZM127.21 16.0061V16.3388M127.21 16.3388V16.3388ZM127.21 16.3388H127.597M127.597 16.3388V16.3388ZM127.597 16.3388H127.985V16.6715M127.985 16.6715V16.6715ZM127.985 16.6715V17.0043M127.985 17.0043V17.0043ZM127.985 17.0043H128.372V17.337M128.372 17.337V17.337ZM128.372 17.337H128.76M128.76 17.337V17.337ZM128.76 17.337H129.147M129.147 17.337V17.337ZM129.147 17.337V17.6697M129.147 17.6697H128.76M129.147 17.6697V17.6697ZM129.147 17.6697V18.0024M128.76 17.6697V17.6697ZM129.147 18.0024V18.0024ZM129.147 18.0024V18.3351M129.147 18.3351V18.3351ZM129.147 18.3351H129.535M129.535 18.3351V18.3351ZM129.535 18.3351V18.6678M129.535 18.6678V18.6678ZM129.535 18.6678H129.922M129.535 18.6678V19.0006M129.922 18.6678V18.6678ZM129.535 19.0006V19.0006ZM129.535 19.0006V19.3333H129.922M129.922 19.3333V19.3333ZM129.922 19.3333V19.666M129.922 19.666V19.666ZM129.922 19.666H130.31M130.31 19.666V19.666ZM130.31 19.666H130.697M130.697 19.666V19.666ZM130.697 19.666V19.3333M130.697 19.666V19.9987M130.697 19.666H131.085M130.697 19.3333V19.3333ZM130.697 19.9987V19.9987ZM131.085 19.666V19.666ZM131.085 19.666V19.9987M131.085 19.9987V19.9987ZM131.085 19.9987H131.472M131.472 19.9987V19.9987ZM131.472 19.9987L131.86 20.3314M131.86 20.3314V20.3314ZM131.86 20.3314H131.472M131.472 20.3314V20.3314ZM131.472 20.3314V20.6642M131.472 20.6642V20.6642ZM131.472 20.6642V20.9969M131.472 20.9969V20.9969ZM131.472 20.9969H131.86M131.86 20.9969V20.9969ZM131.86 20.9969V21.3296M131.86 21.3296V21.3296ZM131.86 21.3296V21.6623M131.86 21.6623V21.6623ZM131.86 21.6623H131.472M131.472 21.6623V21.6623ZM131.472 21.6623V21.995M131.472 21.995V21.995ZM131.472 21.995H131.86M131.86 21.995V21.995ZM131.86 21.995V22.3277M131.86 22.3277H131.472M131.86 22.3277V22.3277ZM131.86 22.3277L132.247 21.995M132.247 21.995V21.995ZM132.247 21.995V22.3277M132.247 22.3277V22.3277ZM132.247 22.3277V22.6605M132.247 22.6605V22.6605ZM132.247 22.6605H131.86M132.247 22.6605V22.9932M132.247 22.9932V22.9932ZM132.247 22.9932H131.86M132.247 22.9932V23.3259M131.86 22.9932V22.9932ZM131.86 22.9932V23.3259M131.86 23.3259V23.3259ZM131.86 23.3259H132.247M132.247 23.3259V23.3259ZM132.247 23.3259H132.635M132.635 23.3259V23.3259ZM132.635 23.3259V23.6586M132.635 23.6586V23.6586ZM132.635 23.6586H133.022M133.022 23.6586V23.6586ZM133.022 23.6586H133.41M133.41 23.6586V23.6586ZM133.41 23.6586V23.9913H133.797M133.797 23.9913V23.9913ZM133.797 23.9913H134.185M133.797 23.9913L134.185 23.6586M134.185 23.9913V23.9913ZM134.185 23.9913V23.6586M134.185 23.9913H134.573M134.185 23.6586V23.6586ZM134.573 23.9913V23.9913ZM134.573 23.9913V24.3241M134.573 24.3241V24.3241ZM134.573 24.3241H134.96M134.96 24.3241V24.3241ZM134.96 24.3241L134.573 24.6568M134.573 24.6568V24.6568ZM134.573 24.6568H134.96M134.573 24.6568V24.9895M134.96 24.6568V24.6568ZM134.96 24.6568V24.9895M134.573 24.9895V24.9895ZM134.573 24.9895H134.96M134.573 24.9895L134.96 25.3222M134.96 24.9895V24.9895ZM134.96 24.9895V25.3222M134.96 25.3222V25.3222ZM134.96 25.3222H135.348M135.348 25.3222V25.3222ZM135.348 25.3222V25.6549M135.348 25.6549V25.6549ZM135.348 25.6549V25.9877M135.348 25.9877V25.9877ZM135.348 25.9877H135.735M135.348 25.9877V26.3204M135.348 26.3204V26.3204ZM135.348 26.3204H135.735M135.735 26.3204V26.3204ZM135.735 26.3204V26.6531M135.735 26.6531V26.6531ZM135.735 26.6531V26.9858M135.735 26.9858V26.9858ZM135.735 26.9858V27.3185M135.735 26.9858H135.348M135.735 27.3185H135.348M135.735 27.3185V27.3185ZM135.735 27.3185H136.123M135.348 26.9858V26.9858ZM135.348 26.9858V27.3185M135.348 27.3185V27.3185ZM136.123 27.3185V27.3185ZM136.123 27.3185V27.6512M136.123 27.6512V27.6512ZM136.123 27.6512H136.51M136.123 27.6512V27.984M136.51 27.6512V27.6512ZM136.123 27.984V27.984ZM136.123 27.984H136.51M136.51 27.984V27.984ZM136.51 27.984H136.898M136.51 27.984V28.3167H136.898M136.898 27.984V27.984ZM136.898 27.984V28.3167M136.898 28.3167V28.3167ZM136.898 28.3167H137.285M137.285 28.3167V28.3167ZM137.285 28.3167V28.6494M137.285 28.6494V28.6494ZM137.285 28.6494V28.9821M137.285 28.9821V28.9821ZM137.285 28.9821H137.673M137.673 28.9821V28.9821ZM137.673 28.9821H138.06M138.06 28.9821V28.9821ZM138.06 28.9821V29.3148M138.06 28.9821L138.448 29.3148M138.06 29.3148V29.3148ZM138.448 29.3148V29.3148ZM138.448 29.3148V29.6476M138.448 29.3148H138.835M138.448 29.6476V29.6476ZM138.448 29.6476H138.835M138.835 29.3148V29.3148ZM138.835 29.3148V29.6476M138.835 29.6476V29.6476ZM138.835 29.6476H139.223M139.223 29.6476V29.6476ZM139.223 29.6476V29.9803M139.223 29.9803V29.9803ZM139.223 29.9803H139.61M139.61 29.9803V29.9803ZM139.61 29.9803H139.998M139.998 29.9803V29.9803ZM139.998 29.9803L140.385 30.313M139.998 29.9803V30.313M140.385 30.313V30.313ZM140.385 30.313H139.998M140.385 30.313V30.6457M139.998 30.313V30.313ZM139.998 30.313V30.6457M139.998 30.6457V30.6457ZM139.998 30.6457H140.385M140.385 30.6457V30.6457ZM140.385 30.6457H140.773M140.773 30.6457V30.6457ZM140.773 30.6457V30.9784M140.773 30.9784V30.9784ZM140.773 30.9784H141.16M141.16 30.9784V30.9784ZM141.16 30.9784L140.773 31.3111M140.773 31.3111V31.3111ZM140.773 31.3111V31.6439M140.773 31.6439V31.6439ZM140.773 31.6439H141.16M141.16 31.6439V31.6439ZM141.16 31.6439V31.9766M141.16 31.9766V31.9766ZM141.16 31.9766H140.773M141.16 31.9766V32.3093M140.773 31.9766V31.9766ZM141.16 32.3093V32.3093ZM141.16 32.3093V32.642M141.16 32.642V32.642ZM141.16 32.642H140.773M140.773 32.642V32.642ZM140.773 32.642V32.9747M140.773 32.9747V32.9747ZM140.773 32.9747H141.16M141.16 32.9747V32.9747ZM141.16 32.9747H141.548M141.16 32.9747V33.3075M141.16 33.3075V33.3075ZM141.16 33.3075H141.548M141.16 33.3075V33.6402M141.548 33.3075V33.3075ZM141.16 33.6402V33.6402ZM141.16 33.6402H141.548M141.548 33.6402V33.6402ZM141.548 33.6402V33.9729M141.548 33.9729V33.9729ZM141.548 33.9729L141.16 34.3056M141.16 34.3056V34.3056ZM141.16 34.3056V33.9729M141.16 34.3056H141.548M141.16 33.9729V33.9729ZM141.548 34.3056V34.3056ZM141.548 34.3056V34.6383M141.548 34.6383H141.16M141.548 34.6383V34.6383ZM141.548 34.6383V34.971M141.548 34.971V34.971ZM141.548 34.971H141.936M141.936 34.971V34.971ZM141.936 34.971V35.3038M141.936 35.3038V35.3038ZM141.936 35.3038H142.323M142.323 35.3038V35.3038ZM142.323 35.3038V35.6365M142.323 35.6365V35.6365ZM142.323 35.6365V35.9692M142.323 35.9692V35.9692ZM142.323 35.9692H142.711M142.323 35.9692V36.3019M142.711 35.9692V35.9692ZM142.323 36.3019V36.3019ZM142.323 36.3019H142.711M142.323 36.3019L142.711 36.6346M142.711 36.3019V36.3019ZM142.711 36.6346V36.6346ZM142.711 36.6346V36.9674M142.711 36.9674V36.9674ZM142.711 36.9674H143.098M143.098 36.9674V36.9674ZM143.098 36.9674V37.3001M143.098 37.3001V37.3001ZM143.098 37.3001V37.6328M143.098 37.6328V37.6328ZM143.098 37.6328H143.486M143.486 37.6328V37.9655M143.486 37.6328V37.6328ZM143.486 37.9655V37.9655ZM143.486 37.9655V38.2982M143.486 38.2982V38.2982ZM143.486 38.2982L143.873 38.6309M143.873 38.6309V38.6309ZM143.873 38.6309H143.486M143.873 38.6309V38.9637M143.486 38.6309V38.6309ZM143.873 38.9637H143.486M143.873 38.9637V38.9637ZM143.873 38.9637V39.2964M143.486 38.9637V38.9637ZM143.873 39.2964V39.2964ZM143.873 39.2964V39.6291M143.873 39.6291V39.6291ZM143.873 39.6291H143.486M143.486 39.6291V39.6291ZM143.486 39.6291V39.9618M143.486 39.9618V39.9618ZM143.486 39.9618V40.2945M143.486 40.2945V40.2945ZM143.486 40.2945V40.6273M143.486 40.6273V40.6273ZM143.486 40.6273H143.098V40.96M143.098 40.96H143.486M143.098 40.96V40.96ZM143.486 40.96V40.96ZM143.486 40.96V41.2927M143.486 41.2927V41.2927ZM143.486 41.2927H143.098M143.098 41.2927V41.2927ZM143.098 41.2927V41.6254M143.098 41.6254H143.486M143.098 41.6254V41.6254ZM143.098 41.6254V41.9581M143.486 41.6254V41.6254ZM143.486 41.6254V41.9581M143.098 41.9581V41.9581ZM143.486 41.9581V41.9581ZM143.486 41.9581V42.2908M143.486 42.2908V42.2908ZM143.486 42.2908H143.873M143.873 42.2908V42.2908ZM143.873 42.2908V42.6236M143.873 42.6236V42.6236ZM143.873 42.6236V42.9563M143.873 42.9563H143.486M143.873 42.9563V42.9563ZM143.873 42.9563V43.289M143.486 42.9563V42.9563ZM143.873 43.289V43.289ZM143.873 43.289V43.6217M143.873 43.6217V43.6217ZM143.873 43.6217H143.486M143.486 43.6217V43.6217ZM143.486 43.6217V43.9544M143.486 43.9544V43.9544ZM143.486 43.9544V44.2872M143.486 44.2872V44.2872ZM143.486 44.2872H143.098M143.098 44.2872V43.9544M143.098 44.2872V44.2872ZM143.098 44.2872V44.6199M143.098 44.6199V44.6199ZM143.098 44.6199H142.711M143.098 44.6199V44.9526M142.711 44.6199V44.6199ZM143.098 44.9526V44.9526ZM143.098 44.9526H142.711M142.711 44.9526V44.9526ZM142.711 44.9526V45.2853M142.711 45.2853V45.2853ZM142.711 45.2853V45.618M142.711 45.618V45.618ZM142.711 45.618L143.098 45.9507M143.098 45.9507V45.9507ZM143.098 45.9507H142.711V46.2835M142.711 46.2835V46.2835ZM142.711 46.2835H142.323M142.711 46.2835V46.6162M142.323 46.2835V46.2835ZM142.323 46.2835V46.6162M142.711 46.6162V46.6162ZM142.711 46.6162H142.323M142.323 46.6162V46.6162ZM142.323 46.6162H141.936M141.936 46.6162V46.6162ZM141.936 46.6162V46.2835M141.936 46.6162V46.9489M141.936 46.2835V46.2835ZM141.936 46.9489V46.9489ZM141.936 46.9489H141.548M141.548 46.9489V46.9489ZM141.548 46.9489V47.2816M141.548 47.2816V47.2816ZM141.548 47.2816H141.936M141.548 47.2816V47.6143M141.936 47.2816V47.2816ZM141.548 47.6143V47.6143ZM141.548 47.6143H141.16M141.16 47.6143V47.6143ZM141.16 47.6143V47.9471M141.16 47.9471V47.9471ZM141.16 47.9471V48.2798M141.16 48.2798V48.2798ZM141.16 48.2798H141.548M141.16 48.2798V48.6125L141.548 48.2798M141.548 48.2798V48.2798ZM141.548 48.2798V48.6125M141.548 48.6125V48.6125ZM141.548 48.6125H141.936M141.936 48.6125V48.6125ZM141.936 48.6125V48.9452M141.936 48.9452V48.9452ZM141.936 48.9452H141.548M141.936 48.9452V49.2779M141.548 48.9452V48.9452ZM141.936 49.2779V49.2779ZM141.936 49.2779L141.548 49.6106M141.548 49.6106V49.6106ZM141.548 49.6106V49.9434M141.548 49.9434V49.9434ZM141.548 49.9434V50.2761M141.548 50.2761V50.2761ZM141.548 50.2761V50.6088M141.548 50.6088V50.6088ZM141.548 50.6088H141.16M141.16 50.6088V50.6088ZM141.16 50.6088V50.9415M141.16 50.9415V50.9415ZM141.16 50.9415V51.2742M141.16 51.2742V51.2742ZM141.16 51.2742H140.773M140.773 51.2742V51.2742ZM140.773 51.2742L141.16 51.607M141.16 51.607V51.607ZM141.16 51.607H140.773M141.16 51.607V51.9397M140.773 51.607V51.607ZM141.16 51.9397V51.9397ZM141.16 51.9397L140.773 52.2724M140.773 52.2724V52.2724ZM140.773 52.2724V52.6051M140.773 52.6051V52.6051ZM140.773 52.6051H141.16M140.773 52.6051V52.9378M141.16 52.6051V52.6051ZM140.773 52.9378V52.9378ZM140.773 52.9378H141.16M141.16 52.9378V52.9378ZM141.16 52.9378V53.2705M141.16 53.2705V53.2705ZM141.16 53.2705V53.6033M141.16 53.6033V53.6033ZM141.16 53.6033V53.936M141.16 53.936V53.936ZM141.16 53.936H141.548M141.548 53.936V53.936ZM141.548 53.936V54.2687M141.548 54.2687V54.2687ZM141.548 54.2687V54.6014M141.548 54.6014V54.6014ZM141.548 54.6014V54.9341M141.548 54.9341V54.9341ZM141.548 54.9341V55.2669M141.548 55.2669V55.2669ZM141.548 55.2669H141.16M141.548 55.2669L141.16 55.5996M141.16 55.2669V55.2669ZM141.16 55.5996V55.5996ZM141.16 55.5996H141.548M141.548 55.5996V55.5996ZM141.548 55.5996V55.9323M141.548 55.9323V55.9323ZM141.548 55.9323H141.16M141.16 55.9323V55.9323ZM141.16 55.9323V56.265M141.16 56.265V56.265ZM141.16 56.265V56.5977M141.16 56.5977V56.5977ZM141.16 56.5977V56.9305M141.16 56.9305V56.9305ZM141.16 56.9305H141.548M141.548 56.9305V56.9305ZM141.548 56.9305V57.2632M141.548 57.2632V57.2632ZM141.548 57.2632V57.5959M141.548 57.2632H141.16V57.5959M141.548 57.5959V57.5959ZM141.548 57.5959H141.16M141.548 57.5959V57.9286H141.936M141.16 57.5959V57.5959ZM141.936 57.9286V57.9286ZM141.936 57.9286V57.5959M141.936 57.9286V58.2613M141.936 57.5959V57.5959ZM141.936 58.2613V58.2613ZM141.936 58.2613V58.594M141.936 58.594V58.594ZM141.936 58.594H142.323M142.323 58.594V58.594ZM142.323 58.594V58.9268M142.323 58.9268V58.9268ZM142.323 58.9268V59.2595M142.323 59.2595V59.2595ZM142.323 59.2595V59.5922M142.323 59.5922V59.5922ZM142.323 59.5922V59.9249M142.323 59.9249V59.9249ZM142.323 59.9249V60.2576M142.323 60.2576V60.2576ZM142.323 60.2576V60.5904M142.323 60.5904V60.5904ZM142.323 60.5904V60.9231M142.323 60.9231V60.9231ZM142.323 60.9231H141.936M141.936 60.9231V60.9231ZM141.936 60.9231V61.2558M141.936 61.2558V61.2558ZM141.936 61.2558H141.548M141.548 61.2558V61.2558ZM141.548 61.2558H141.16M141.16 61.2558V61.2558ZM141.16 61.2558L140.773 61.5885M140.773 61.5885V61.5885ZM140.773 61.5885V61.9212H141.16M141.16 61.9212V61.9212ZM141.16 61.9212L141.548 62.2539M141.548 62.2539V62.2539ZM141.548 62.2539H141.936M141.936 62.2539V62.2539ZM141.936 62.2539V62.5867M141.936 62.5867V62.5867ZM141.936 62.5867H142.323M141.936 62.5867V62.9194H142.323M142.323 62.5867V62.5867ZM142.323 62.9194V62.9194ZM142.323 62.9194V63.2521M142.323 63.2521V63.2521ZM142.323 63.2521V63.5848M142.323 63.2521H141.936M142.323 63.5848L141.936 63.2521M142.323 63.5848V63.5848ZM142.323 63.5848H141.936M141.936 63.2521V63.2521ZM141.936 63.5848V63.5848ZM141.936 63.5848L142.323 63.9175M142.323 63.9175V63.9175ZM142.323 63.9175V64.2502M142.323 64.2502V64.2502ZM142.323 64.2502H142.711M142.711 64.2502V64.2502ZM142.711 64.2502V64.583M142.711 64.583V64.583ZM142.711 64.583H143.098M143.098 64.583V64.583ZM143.098 64.583H143.486M143.486 64.583V64.583ZM143.486 64.583L143.873 64.9157M143.873 64.9157V64.9157ZM143.873 64.9157H144.261M144.261 64.9157V64.9157ZM144.261 64.9157V65.2484M144.261 65.2484V65.2484ZM144.261 65.2484V65.5811M144.261 65.5811V65.5811ZM144.261 65.5811V65.9138M144.261 65.9138V65.9138ZM144.261 65.9138V66.2466H144.648M144.648 66.2466V66.2466ZM144.648 66.2466V66.5793M144.648 66.5793V66.5793ZM144.648 66.5793L145.036 66.912M145.036 66.912V66.912ZM145.036 66.912V67.2447M145.036 67.2447V67.2447ZM145.036 67.2447V67.5774H145.423M145.423 67.5774V67.5774ZM145.423 67.5774V67.9101M145.423 67.9101V67.9101ZM145.423 67.9101H145.811M145.811 67.9101V67.9101ZM145.811 67.9101H146.198V68.2429H146.586M146.586 68.2429V68.2429ZM146.586 68.2429H146.973V68.5756H147.361M147.361 68.5756V68.5756ZM147.361 68.5756H147.748V68.9083H148.136H148.523V69.241H148.911M148.911 69.241V69.241ZM148.911 69.241H149.298M149.298 69.241V69.241ZM149.298 69.241V69.5737M149.298 69.5737V69.5737ZM149.298 69.5737H149.686M149.686 69.5737V69.5737ZM149.686 69.5737H150.074M150.074 69.5737V69.5737ZM150.074 69.5737H150.461H150.849M150.849 69.5737V69.5737ZM150.849 69.5737H151.236M151.236 69.5737V69.5737ZM151.236 69.5737V69.9065H151.624M151.624 69.9065V69.9065ZM151.624 69.9065H152.011M152.011 69.9065V69.9065ZM152.011 69.9065H152.399M152.399 69.9065V69.9065ZM152.399 69.9065H152.786M152.786 69.9065V69.9065ZM152.786 69.9065L153.174 69.5737M153.174 69.5737V69.5737ZM153.174 69.5737H153.561M153.561 69.5737V69.5737ZM153.561 69.5737V69.241M153.561 69.241V69.241ZM153.561 69.241H153.174M153.174 69.241V69.241ZM153.174 69.241L152.786 68.9083M152.786 68.9083V68.9083ZM152.786 68.9083V68.5756M152.786 68.5756V68.5756ZM152.786 68.5756H153.174M153.174 68.5756V68.5756ZM153.174 68.5756H153.561M153.561 68.5756V68.5756ZM153.561 68.5756V68.2429M153.561 68.2429V68.2429ZM153.561 68.2429V67.9101M153.561 67.9101V67.9101ZM153.561 67.9101H153.174M153.174 67.9101V67.9101ZM153.174 67.9101V67.5774M153.174 67.5774V67.5774ZM153.174 67.5774H153.561M153.561 67.5774V67.5774ZM153.561 67.5774H153.949M153.949 67.5774V67.5774ZM153.949 67.5774L154.336 67.9101M154.336 67.9101V67.9101ZM154.336 67.9101H154.724M154.724 67.9101V67.9101ZM154.724 67.9101H155.111M155.111 67.9101V67.9101ZM155.111 67.9101V68.2429M155.111 68.2429V68.2429ZM155.111 68.2429H155.499V68.5756M155.499 68.5756V68.5756ZM155.499 68.5756H155.886M155.886 68.5756V68.5756ZM155.886 68.5756V68.9083M155.886 68.9083V68.9083ZM155.886 68.9083H156.274M156.274 68.9083V68.9083ZM156.274 68.9083V68.5756M156.274 68.5756V68.5756ZM156.274 68.5756V68.2429M156.274 68.2429V68.2429ZM156.274 68.2429V67.9101M156.274 67.9101V67.9101ZM156.274 67.9101L156.661 67.5774M156.661 67.5774V67.5774ZM156.661 67.5774H157.049M157.049 67.5774V67.5774ZM157.049 67.5774L157.437 67.2447M157.437 67.2447V67.2447ZM157.437 67.2447H157.824M157.824 67.2447V67.2447ZM157.824 67.2447V66.912M157.824 66.912V66.912ZM157.824 66.912H158.212M158.212 66.912V66.912ZM158.212 66.912H158.599M158.599 66.912V66.912ZM158.599 66.912V66.5793M158.599 66.5793V66.5793ZM158.599 66.5793H158.987M158.987 66.5793V66.5793ZM158.987 66.5793H159.374M159.374 66.5793V66.5793ZM159.374 66.5793H159.762M159.762 66.5793V66.5793ZM159.762 66.5793V66.2466H160.149M160.149 66.2466V66.2466ZM160.149 66.2466H160.537M160.537 66.2466V66.2466ZM160.537 66.2466V65.9138M160.537 65.9138V65.9138ZM160.537 65.9138H160.924M160.924 65.9138V65.9138ZM160.924 65.9138V65.5811H161.312M161.312 65.5811V65.5811ZM161.312 65.5811L161.699 65.2484M161.699 65.2484V65.2484ZM161.699 65.2484V65.5811H162.087M162.087 65.5811V65.5811ZM162.087 65.5811H162.474M162.474 65.5811V65.5811ZM162.474 65.5811V65.2484H162.862M162.862 65.2484V65.2484ZM162.862 65.2484L163.249 64.9157M163.249 64.9157V64.9157ZM163.249 64.9157V65.2484M163.249 65.2484V65.2484ZM163.249 65.2484H163.637M163.637 65.2484V65.2484ZM163.637 65.2484H164.024M164.024 65.2484V65.2484ZM164.024 65.2484H164.412M164.412 65.2484V65.2484ZM164.412 65.2484H164.8M164.8 65.2484V65.2484ZM164.8 65.2484H165.187M165.187 65.2484V65.2484ZM165.187 65.2484V65.5811M165.187 65.5811V65.5811ZM165.187 65.5811H165.575M165.575 65.5811V65.5811ZM165.575 65.5811H165.962M165.962 65.5811V65.5811ZM165.962 65.5811L166.35 65.9138H166.737M166.737 65.9138V65.9138ZM166.737 65.9138H167.125M167.125 65.9138V65.9138ZM167.125 65.9138L167.512 66.2466M167.512 66.2466V66.2466ZM167.512 66.2466H167.9M167.9 66.2466V66.2466ZM167.9 66.2466V66.5793M167.9 66.5793V66.5793ZM167.9 66.5793L168.287 66.912M168.287 66.912V66.912ZM168.287 66.912V67.2447H168.675M168.675 67.2447V67.2447ZM168.675 67.2447L169.062 67.5774M169.062 67.5774V67.5774ZM169.062 67.5774V67.9101M169.062 67.9101V67.9101ZM169.062 67.9101V68.2429M169.062 68.2429V68.2429ZM169.062 68.2429V68.5756H169.45M169.45 68.5756V68.5756ZM169.45 68.5756V68.9083M169.45 68.9083V68.9083ZM169.45 68.9083L169.062 69.241M169.062 69.241V69.241ZM169.062 69.241V69.5737M169.062 69.5737V69.5737ZM169.062 69.5737V69.9065M169.062 69.9065V69.9065ZM169.062 69.9065L169.45 70.2392M169.45 70.2392V70.2392ZM169.45 70.2392V70.5719M169.45 70.5719V70.5719ZM169.45 70.5719L169.062 70.2392M169.062 70.2392V70.2392ZM169.062 70.2392H168.675M168.675 70.2392V70.2392ZM168.675 70.2392V70.5719M168.675 70.5719V70.5719ZM168.675 70.5719V70.9046M168.675 70.9046V70.9046ZM168.675 70.9046V71.2373M168.675 71.2373V71.2373ZM168.675 71.2373H169.062M169.062 71.2373V71.2373ZM169.062 71.2373H169.45M169.45 71.2373V71.2373ZM169.45 71.2373H169.837M169.837 71.2373V71.2373ZM169.837 71.2373H170.225M169.837 71.2373V71.5701M170.225 71.2373V71.2373ZM170.225 71.2373L170.612 71.5701M170.225 71.2373V71.5701H170.612M170.612 71.5701H171M170.612 71.5701V71.5701ZM171 71.5701V71.5701ZM169.837 71.5701V71.5701ZM169.837 71.5701H169.45M169.45 71.5701V71.5701ZM169.45 71.5701V71.9028M169.45 71.9028V71.9028ZM169.45 71.9028H169.062V72.2355M169.062 72.2355V72.2355ZM169.062 72.2355V72.5682M169.062 72.5682V72.5682ZM169.062 72.5682V72.9009M169.062 72.9009V72.9009ZM169.062 72.9009L168.675 73.2336V73.5664M168.675 73.5664V73.5664ZM168.675 73.5664V73.8991M168.675 73.8991V73.8991ZM168.675 73.8991V74.2318M168.675 74.2318V74.2318ZM168.675 74.2318V74.5645M168.675 74.5645V74.5645ZM168.675 74.5645V74.8972M168.675 74.8972V74.8972ZM168.675 74.8972V75.23V75.5627M168.675 75.5627V75.5627ZM168.675 75.5627V75.8954V76.2281M168.675 76.2281V76.2281ZM168.675 76.2281L168.287 76.5608V76.8935V77.2263M168.287 77.2263V77.2263ZM168.287 77.2263V77.559M168.287 77.559V77.559ZM168.287 77.559V77.8917M168.287 77.8917V77.8917ZM168.287 77.8917L167.9 78.2244M167.9 78.2244V78.2244ZM167.9 78.2244V78.5571M167.9 78.5571V78.5571ZM167.9 78.5571H167.512M167.512 78.5571V78.5571ZM167.512 78.5571H167.125M167.125 78.5571V78.5571ZM167.125 78.5571H166.737M166.737 78.5571V78.5571ZM166.737 78.5571L166.35 78.8899M166.35 78.8899V78.8899ZM166.35 78.8899H165.962M165.962 78.8899V78.8899ZM165.962 78.8899H165.575M165.575 78.8899V78.8899ZM165.575 78.8899H165.187M165.187 78.8899V78.8899ZM165.187 78.8899H164.8M164.8 78.8899V78.8899ZM164.8 78.8899H164.412M164.412 78.8899V78.8899ZM164.412 78.8899H164.024M164.024 78.8899V78.8899ZM164.024 78.8899H163.637M163.637 78.8899V78.8899ZM163.637 78.8899H163.249V79.2226M163.249 79.2226V79.2226ZM163.249 79.2226H162.862H162.474H162.087M162.087 79.2226V79.2226ZM162.087 79.2226H161.699H161.312V79.5553H160.924H160.537H160.149V79.888H159.762M159.762 79.888V79.888ZM159.762 79.888H159.374M159.374 79.888V79.888ZM159.374 79.888L158.987 80.2207M158.987 80.2207V80.2207ZM158.987 80.2207H158.599V80.5534H158.212V80.8862L157.824 81.2189H157.437V81.5516M157.437 81.5516V81.5516ZM157.437 81.5516L157.049 81.8843M157.049 81.8843V81.8843ZM157.049 81.8843L156.661 82.217V82.5498M156.661 82.5498V82.5498ZM156.661 82.5498H156.274V82.8825L155.886 83.2152M155.886 83.2152V83.2152ZM155.886 83.2152L155.499 83.8806M155.499 83.8806V83.8806ZM155.499 83.8806V84.2133M155.499 84.2133V84.2133ZM155.499 84.2133V84.5461H155.111M155.111 84.5461V84.5461ZM155.111 84.5461V84.8788M155.111 84.8788V84.8788ZM155.111 84.8788L154.724 85.2115M154.724 85.2115V85.2115ZM154.724 85.2115V85.5442M154.724 85.5442V85.5442ZM154.724 85.5442L154.336 85.8769M154.336 85.8769V85.8769ZM154.336 85.8769L153.949 86.2097M153.949 86.2097V86.2097ZM153.949 86.2097V86.5424M153.949 86.5424V86.5424ZM153.949 86.5424H153.561V86.8751H153.174V87.2078M153.174 87.2078V87.2078ZM153.174 87.2078H152.786V87.5405M152.786 87.5405V87.5405ZM152.786 87.5405L152.399 87.8732V88.206M152.399 88.206V88.206ZM152.399 88.206H152.011M152.011 88.206V88.206ZM152.011 88.206V88.5387M152.011 88.5387V88.5387ZM152.011 88.5387V88.8714H151.624M151.624 88.8714V89.2041M151.624 88.8714V88.8714ZM151.624 89.2041V89.2041ZM151.624 89.2041V89.5368M151.624 89.2041H151.236M151.624 89.5368V89.5368ZM151.624 89.5368H150.849M151.624 89.5368H151.236M151.236 89.2041V89.2041ZM151.236 89.2041V89.5368M151.236 89.5368H150.849M150.849 89.5368V89.5368ZM150.849 89.5368V89.2041M150.849 89.5368H150.461M150.849 89.5368L150.461 89.8696M150.461 89.5368V89.5368ZM150.461 89.8696V89.8696ZM150.461 89.8696V90.2023M150.461 90.2023V90.2023ZM150.461 90.2023V90.535M150.461 90.535V90.535ZM150.461 90.535V90.8677M150.461 90.8677V90.8677ZM150.461 90.8677V91.2004M150.461 91.2004V91.2004ZM150.461 91.2004V91.5331M150.461 91.5331V91.5331ZM150.461 91.5331H150.849V91.8659M150.849 91.8659V91.8659ZM150.849 91.8659V92.1986H151.236M151.236 92.1986V92.1986ZM151.236 92.1986V92.5313M151.236 92.5313V92.5313ZM151.236 92.5313V92.864M151.236 92.864V92.864ZM151.236 92.864V93.1967M151.236 92.864H150.849M151.236 93.1967V93.1967ZM151.236 93.1967V93.5295H151.624M151.236 93.1967H150.849M151.236 93.1967L150.849 93.5295M151.624 93.5295V93.8622H152.011M151.624 93.5295L152.011 93.8622M152.011 93.8622V93.8622ZM152.011 93.8622V94.1949M152.011 94.1949V94.1949ZM150.849 92.864V92.864ZM150.849 92.864V93.1967M150.849 93.1967V93.1967ZM150.849 93.5295V93.5295ZM150.849 93.5295V93.8622M150.849 93.8622V93.8622ZM150.849 93.8622V94.1949M150.849 94.1949V94.1949ZM150.849 94.1949V94.5276M150.849 94.1949H151.236M150.849 94.5276V94.5276ZM150.849 94.5276H151.236M150.849 94.5276V94.8603M151.236 94.1949V94.1949ZM151.236 94.1949V94.5276M151.236 94.5276V94.5276ZM151.236 94.5276H151.624M151.624 94.5276V94.5276ZM151.624 94.5276V94.1949M151.624 94.1949V94.1949ZM150.849 94.8603V94.8603ZM150.849 94.8603V95.193M150.849 95.193V95.193ZM150.849 95.193V95.5258M150.849 95.5258V95.5258ZM150.849 95.5258V95.8585M150.849 95.8585V95.8585ZM150.849 95.8585H151.236M151.236 95.8585V95.8585ZM151.236 95.8585V96.1912M151.236 96.1912V96.1912ZM151.236 96.1912V96.5239M151.236 96.5239V96.5239ZM151.236 96.5239V96.8566M151.236 96.8566V96.8566ZM151.236 96.8566V97.1894H150.849M150.849 97.1894V97.1894ZM150.849 97.1894V97.5221M150.849 97.5221V97.5221ZM150.849 97.5221V97.8548M150.849 97.8548V97.8548ZM150.849 97.8548V98.1875M150.849 98.1875V98.1875ZM150.849 98.1875H150.461M150.461 98.1875V98.1875ZM150.461 98.1875V98.5202M150.461 98.5202V98.5202ZM150.461 98.5202V98.853H150.074M150.074 98.853V98.853ZM150.074 98.853V99.1857M150.074 99.1857V99.1857ZM150.074 99.1857V99.5184M150.074 99.5184V99.5184ZM150.074 99.5184V99.8511M150.074 99.8511V99.8511ZM150.074 99.8511V100.184M150.074 100.184V100.184ZM150.074 100.184H149.686M149.686 100.184V100.184ZM149.686 100.184V100.517M149.686 100.517V100.517ZM149.686 100.517H150.074V100.849M149.686 100.517L150.074 100.849M149.686 100.517H149.298M150.074 100.849V100.849ZM150.074 100.849H149.686M149.298 100.517V100.517ZM149.298 100.517H148.911M149.298 100.517V100.849M149.298 100.517L149.686 100.849M148.911 100.517V100.517ZM148.911 100.517H148.523M148.523 100.517V100.517ZM149.298 100.849V100.849ZM149.686 100.849V100.849ZM149.686 100.849V101.182M149.686 101.182V101.182ZM149.686 101.182V101.515M149.686 101.515V101.515ZM149.686 101.515V101.847M149.686 101.847V101.847ZM149.686 101.847L149.298 102.18H147.361L145.423 101.847L144.261 101.515H143.486L141.548 100.849L140.773 100.517L139.61 99.8511H139.223V99.1857L138.835 98.5202V98.1875L138.448 97.8548V96.8566M138.448 96.8566V96.8566ZM138.448 96.8566L137.673 96.1912V96.5239L136.51 97.1894M136.51 97.1894V97.1894ZM136.51 97.1894H135.735H134.96L134.573 97.5221M134.573 97.5221V97.5221ZM134.573 97.5221L134.185 97.1894L133.797 96.8566L133.41 95.8585L133.022 95.5258M133.022 95.5258V95.5258ZM133.022 95.5258L132.247 96.1912M132.247 96.1912V96.1912ZM132.247 96.1912L129.922 95.8585H129.535L128.76 96.1912H128.372L127.985 95.8585V95.5258M127.985 95.5258V95.5258ZM127.985 95.5258L127.597 95.193L127.21 94.8603H126.822H126.434M126.434 94.8603V94.8603ZM126.434 94.8603V94.5276M126.434 94.5276V94.5276ZM126.434 94.5276V94.1949M126.434 94.1949V94.1949ZM126.434 94.1949V93.8622M126.434 93.8622V93.8622ZM126.434 93.8622H126.047M126.047 93.8622V93.8622ZM126.047 93.8622H125.659M125.659 93.8622V93.8622ZM125.659 93.8622H125.272H124.884H124.497M124.497 93.8622V93.8622ZM124.497 93.8622V93.5295M124.497 93.5295V93.5295ZM124.497 93.5295H124.109M124.109 93.5295V93.5295ZM124.109 93.5295H123.722M123.722 93.5295V93.5295ZM123.722 93.5295H123.334M123.334 93.5295V93.5295ZM123.334 93.5295H122.947M122.947 93.5295V93.5295ZM122.947 93.5295V93.1967H122.559M122.559 93.1967V93.1967ZM122.559 93.1967H122.172H121.784L121.397 93.5295M121.397 93.5295V93.5295ZM121.397 93.5295H121.009M121.009 93.5295V93.5295ZM121.009 93.5295H120.622H120.234M120.234 93.5295V93.5295ZM120.234 93.5295H119.847M119.847 93.5295V93.5295ZM119.847 93.5295H119.459V93.8622M119.459 93.8622V93.8622ZM119.459 93.8622H119.072H118.684V94.1949M118.684 94.1949V94.1949ZM118.684 94.1949H118.296H117.909V94.5276H117.521V94.8603H117.134H116.746M116.746 94.8603V94.8603ZM116.746 94.8603H116.359M116.359 94.8603V94.8603ZM116.359 94.8603H115.971H115.584V95.193H115.196M115.196 95.193V95.193ZM115.196 95.193H114.809H114.421M114.421 95.193V95.193ZM114.421 95.193H114.034M114.034 95.193V95.193ZM114.034 95.193H113.646M113.646 95.193V95.193ZM113.646 95.193H113.259M113.259 95.193V95.193ZM113.259 95.193H112.871H112.484L112.096 95.5258M112.096 95.5258V95.5258ZM112.096 95.5258H111.709M111.709 95.5258V95.5258ZM111.709 95.5258H111.321H110.933M110.933 95.5258V95.5258ZM110.933 95.5258H110.546M110.546 95.5258V95.5258ZM110.546 95.5258H110.158M110.158 95.5258V95.5258ZM110.158 95.5258H109.771M109.771 95.5258V95.5258ZM109.771 95.5258L109.383 95.8585H108.996H108.608L108.221 96.1912L107.833 96.5239M107.833 96.5239V96.5239ZM107.833 96.5239H107.446L107.058 96.8566M107.058 96.8566V96.8566ZM107.058 96.8566H106.671H106.283M106.283 96.8566V96.8566ZM106.283 96.8566H105.896M105.896 96.8566V96.8566ZM105.896 96.8566L105.508 97.1894L105.121 97.5221M105.121 97.5221V97.5221ZM105.121 97.5221L104.733 97.8548M104.733 97.8548V97.8548ZM104.733 97.8548V98.1875M104.733 98.1875V98.1875ZM104.733 98.1875V98.5202H104.346M104.346 98.5202V98.5202ZM104.346 98.5202H103.958L103.57 98.853M103.57 98.853V98.853ZM103.57 98.853L103.183 99.1857H102.795V99.5184H102.408V99.8511H102.02V100.184V100.517H101.633V100.849M101.633 100.849V100.849ZM101.633 100.849H101.245V101.182M101.245 101.182V101.182ZM101.245 101.182L100.858 101.515M100.858 101.515V101.515ZM100.858 101.515V101.847H100.47M100.47 101.847V101.847ZM100.47 101.847H100.083M100.083 101.847V101.847ZM100.083 101.847V102.18H99.6952V102.513M99.6952 102.513V102.513ZM99.6952 102.513H99.3077L98.9202 102.846M98.9202 102.846V102.846ZM98.9202 102.846H98.5327V103.178M98.5327 103.178V103.178ZM98.5327 103.178L98.1451 102.846H97.7576V103.178M97.7576 103.178V103.178ZM97.7576 103.178H97.3701H96.9825V103.511H96.595M96.595 103.511V103.511ZM96.595 103.511L96.2075 103.844H95.82M95.82 103.844V103.844ZM95.82 103.844L95.4324 104.176M95.4324 104.176V104.176ZM95.4324 104.176H95.0449V103.844M95.0449 103.844V103.844ZM95.0449 103.844H94.6574M94.6574 103.844V103.844ZM94.6574 103.844L94.2699 104.176M94.2699 104.176V104.176ZM94.2699 104.176H93.8823M93.8823 104.176V104.176ZM93.8823 104.176L93.4948 104.509H93.1073M93.1073 104.509V104.509ZM93.1073 104.509H92.7198M92.7198 104.509V104.509ZM92.7198 104.509H92.3322M92.3322 104.509V104.509ZM92.3322 104.509H91.9447L91.5572 104.176M91.5572 104.176V104.176ZM91.5572 104.176L91.1697 103.844M91.1697 103.844V103.844ZM91.1697 103.844H90.7821M90.7821 103.844V103.844ZM90.7821 103.844L90.3946 103.511L90.0071 103.178M90.0071 103.178V103.178ZM90.0071 103.178H89.6196H89.232L88.8445 102.846M88.8445 102.846V102.846ZM88.8445 102.846H88.457M88.457 102.846V102.846ZM88.457 102.846H88.0695V103.178H87.6819M87.6819 103.178V103.178ZM87.6819 103.178H87.2944M87.2944 103.178V103.178ZM87.2944 103.178L86.5194 102.846M86.5194 102.846V102.846ZM86.5194 102.846H86.1318M86.1318 102.846V102.846ZM86.1318 102.846V102.513M86.1318 102.513V102.513ZM86.1318 102.513H85.7443M85.7443 102.513V102.513ZM85.7443 102.513V102.18M85.7443 102.18V102.18ZM85.7443 102.18H85.3568M85.3568 102.18V102.18ZM85.3568 102.18H84.9693M84.9693 102.18V102.18ZM84.9693 102.18H84.5817M84.5817 102.18V102.18ZM84.5817 102.18H84.1942M84.1942 102.18V102.18ZM84.1942 102.18V102.513M84.1942 102.513V102.513ZM84.1942 102.513H83.8067M83.8067 102.513V102.513ZM83.8067 102.513L83.4192 102.846H83.0316L82.6441 102.513M82.6441 102.513V102.513ZM82.6441 102.513H82.2566M82.2566 102.513V102.513ZM82.2566 102.513H81.8691L81.4815 102.846L81.094 103.178M81.094 103.178V103.178ZM81.094 103.178H80.7065M80.7065 103.178V103.178ZM80.7065 103.178H80.319L79.9314 102.846L79.5439 102.18M79.5439 102.18V102.18ZM79.5439 102.18H79.1564L78.7688 101.847M78.7688 101.847V101.847ZM78.7688 101.847H78.3813H77.9938V101.515H77.6063M77.6063 101.515V101.515ZM77.6063 101.515H77.2187H76.8312M76.8312 101.515V101.515ZM76.8312 101.515H76.4437M76.4437 101.515V101.515ZM76.4437 101.515L76.0562 101.847M76.0562 101.847V101.847ZM76.0562 101.847H75.6686M75.6686 101.847V101.847ZM75.6686 101.847H75.2811M75.2811 101.847V101.847ZM75.2811 101.847L74.8936 102.18M74.8936 102.18V102.18ZM74.8936 102.18L74.5061 102.513M74.5061 102.513V102.513ZM74.5061 102.513L74.1185 102.846H73.731M73.731 102.846V102.846ZM73.731 102.846H73.3435M73.3435 102.846V102.846ZM73.3435 102.846H72.956H72.5684M72.5684 102.846V102.846ZM72.5684 102.846L72.1809 103.178H71.7934H71.4059M71.4059 103.178V103.178ZM71.4059 103.178H71.0183H70.6308M70.6308 103.178V103.178ZM70.6308 103.178H70.2433V102.846H69.8558M69.8558 102.846V102.846ZM69.8558 102.846H69.4682M69.4682 102.846V102.846ZM69.4682 102.846H69.0807M69.0807 102.846V102.846ZM69.0807 102.846V102.513M69.0807 102.513V102.513ZM69.0807 102.513H68.6932M68.6932 102.513V102.513ZM68.6932 102.513L68.3057 102.18M68.3057 102.18V102.18ZM68.3057 102.18H67.9181H67.5306L67.1431 101.847H66.7556H66.368M66.368 101.847V101.847ZM66.368 101.847H65.9805M65.9805 101.847V101.847ZM65.9805 101.847H65.593M65.593 101.847V101.847ZM65.593 101.847H65.2055M65.2055 101.847V101.847ZM65.2055 101.847V101.515H64.8179M64.8179 101.515V101.515ZM64.8179 101.515H64.4304V101.182H63.6554M63.6554 101.182V101.182ZM63.6554 101.182L63.2678 100.849M63.2678 100.849V100.849ZM63.2678 100.849V100.517H62.8803M62.8803 100.517V100.517ZM62.8803 100.517H62.4928M62.4928 100.517V100.517ZM62.4928 100.517H61.7177L61.3302 100.849M61.3302 100.849V100.849ZM61.3302 100.849H60.9427H60.5551M60.5551 100.849V100.849ZM60.5551 100.849L60.1676 100.517M60.1676 100.517V100.517ZM60.1676 100.517H59.7801M59.7801 100.517V100.517ZM59.7801 100.517H59.3926V100.184M59.3926 100.184V100.184ZM59.3926 100.184L59.005 99.8511M59.005 99.8511V99.8511ZM59.005 99.8511H58.6175H58.23M58.23 99.8511V99.8511ZM58.23 99.8511H57.8425L57.4549 99.5184M57.4549 99.5184V99.5184ZM57.4549 99.5184H57.0674M57.0674 99.5184V99.5184ZM57.0674 99.5184H56.6799L56.2924 99.8511M56.2924 99.8511V99.8511ZM56.2924 99.8511L55.9048 99.5184M55.9048 99.5184V99.5184ZM55.9048 99.5184H55.5173L55.1298 99.8511H54.7423H54.3547M54.3547 99.8511V99.8511ZM54.3547 99.8511H53.9672H53.5797L53.1922 100.184H52.8046L52.4171 100.517M52.4171 100.517V100.517ZM52.4171 100.517H52.0296M52.0296 100.517V100.517ZM52.0296 100.517L51.6421 100.849H51.2545H50.867M50.867 100.849V100.849ZM50.867 100.849H50.4795L50.092 100.517H49.7044M49.7044 100.517V100.517ZM49.7044 100.517H49.3169M49.3169 100.517V100.517ZM49.3169 100.517H48.9294V100.184H48.5419H48.1543M48.1543 100.184V100.184ZM48.1543 100.184H47.7668L47.3793 99.8511M47.3793 99.8511V99.8511ZM47.3793 99.8511H46.9918M46.9918 99.8511V99.8511ZM46.9918 99.8511V99.5184M46.9918 99.5184V99.5184ZM46.9918 99.5184V99.1857M46.9918 99.1857V99.1857ZM46.9918 99.1857V98.853M46.9918 98.853V98.853ZM46.9918 98.853V98.5202M46.9918 98.5202V98.5202ZM46.9918 98.5202V98.1875H47.3793V97.8548M47.3793 97.8548V97.8548ZM47.3793 97.8548V97.5221V97.1894V96.8566M47.3793 96.8566V96.8566ZM47.3793 96.8566H47.7668M47.7668 96.8566V96.8566ZM47.7668 96.8566V96.5239M47.7668 96.5239V96.5239ZM47.7668 96.5239H48.1543M48.1543 96.5239V96.5239ZM48.1543 96.5239H48.5419M48.5419 96.5239V96.5239ZM48.5419 96.5239H48.9294V96.1912H49.3169H49.7044M49.7044 96.1912V96.1912ZM49.7044 96.1912H50.092M50.092 96.1912V96.1912ZM50.092 96.1912V95.8585M50.092 95.8585V95.8585ZM50.092 95.8585L50.4795 95.5258V95.193M50.4795 95.193V95.193ZM50.4795 95.193V94.8603M50.4795 94.8603V94.8603ZM50.4795 94.8603V94.5276H50.092M50.092 94.5276V94.5276ZM50.092 94.5276H49.7044M49.7044 94.5276V94.5276ZM49.7044 94.5276L49.3169 94.1949M49.3169 94.1949V94.1949ZM49.3169 94.1949H48.9294H48.5419M48.5419 94.1949V94.1949ZM48.5419 94.1949H48.1543M48.1543 94.1949V94.1949ZM48.1543 94.1949L47.7668 93.8622M47.7668 93.8622V93.8622ZM47.7668 93.8622L47.3793 93.5295M47.3793 93.5295V93.5295ZM47.3793 93.5295H46.9918L46.6042 93.1967M46.6042 93.1967V93.1967ZM46.6042 93.1967H46.2167V92.864H45.8292M45.8292 92.864V92.864ZM45.8292 92.864L45.4417 92.5313M45.4417 92.5313V92.5313ZM45.4417 92.5313V92.1986M45.4417 92.1986V92.1986ZM45.4417 92.1986H45.0541M45.0541 92.1986V92.1986ZM45.0541 92.1986H44.6666M44.6666 92.1986V92.1986ZM44.6666 92.1986H44.2791M44.2791 92.1986V92.1986ZM44.2791 92.1986V91.8659H43.8916M43.8916 91.8659V91.8659ZM43.8916 91.8659V91.5331M43.8916 91.5331V91.5331ZM43.8916 91.5331V91.2004H44.2791V90.8677M44.2791 90.8677V90.8677ZM44.2791 90.8677L43.8916 90.535M43.8916 90.535V90.535ZM43.8916 90.535V90.2023H43.504H43.1165H42.729M42.729 90.2023V90.2023ZM42.729 90.2023L42.3414 89.8696M42.3414 89.8696V89.8696ZM42.3414 89.8696H41.9539M41.9539 89.8696V89.8696ZM41.9539 89.8696L41.5664 89.5368M41.5664 89.5368V89.5368ZM41.5664 89.5368V89.2041H41.1789M41.1789 89.2041V89.2041ZM41.1789 89.2041V88.8714M41.1789 88.8714V88.8714ZM41.1789 88.8714L40.7913 88.5387V88.206M40.7913 88.206V88.206ZM40.7913 88.206V87.5405M40.7913 87.5405V87.5405ZM40.7913 87.5405L40.4038 87.2078M40.4038 87.2078V87.2078ZM40.4038 87.2078L40.0163 86.8751M40.0163 86.8751V86.8751ZM40.0163 86.8751V86.5424M40.0163 86.5424V86.5424ZM40.0163 86.5424V86.2097M40.0163 86.2097V86.2097ZM40.0163 86.2097H40.4038M40.4038 86.2097V86.2097ZM40.4038 86.2097H40.7913H41.1789H41.5664M41.5664 86.2097V86.2097ZM41.5664 86.2097V85.8769H41.9539V84.8788M41.9539 84.8788V84.8788ZM41.9539 84.8788L42.3414 84.5461H42.729H43.1165L43.504 84.8788L43.8916 85.2115H44.2791M44.2791 85.2115V85.2115ZM44.2791 85.2115H44.6666H45.0541L45.4417 84.8788M45.4417 84.8788V84.8788ZM45.4417 84.8788V84.5461V84.2133H45.0541L44.2791 83.5479M44.2791 83.5479V83.5479ZM44.2791 83.5479L43.8916 83.2152M43.8916 83.2152V83.2152ZM43.8916 83.2152H43.504H43.1165M43.1165 83.2152V83.2152ZM43.1165 83.2152H42.729M42.729 83.2152V83.2152ZM42.729 83.2152L41.9539 82.5498M41.9539 82.5498V82.5498ZM41.9539 82.5498H41.5664V82.217L41.1789 81.8843H40.7913V81.5516L40.4038 81.2189M40.4038 81.2189V81.2189ZM40.4038 81.2189H40.0163H39.6288H39.2412V81.5516H38.8537V81.8843M38.8537 81.8843V81.8843ZM38.8537 81.8843H37.6911M37.6911 81.8843V81.8843ZM37.6911 81.8843L37.3036 82.217M37.3036 82.217V82.217ZM37.3036 82.217V82.5498M37.3036 82.5498V82.5498ZM37.3036 82.5498L36.9161 82.8825M36.9161 82.8825V82.8825ZM36.9161 82.8825L36.5286 83.2152M36.5286 83.2152V83.2152ZM36.5286 83.2152V83.5479M36.5286 83.5479V83.5479ZM36.5286 83.5479V83.8806L36.141 84.2133L35.7535 84.5461L35.366 85.2115V85.5442V85.8769M35.366 85.8769V85.8769ZM35.366 85.8769L34.9785 86.2097M34.9785 86.2097V86.2097ZM34.9785 86.2097H34.5909M34.5909 86.2097V86.2097ZM34.5909 86.2097H34.2034M34.2034 86.2097V86.2097ZM34.2034 86.2097L33.0408 85.5442V85.2115M33.0408 85.2115V85.2115ZM33.0408 85.2115L32.6533 84.8788L32.2658 84.5461V83.8806M32.2658 83.8806V83.8806ZM32.2658 83.8806V83.5479M32.2658 83.5479V83.5479ZM32.2658 83.5479L31.8783 83.2152M31.8783 83.2152V83.2152ZM31.8783 83.2152V82.8825H31.4907H31.1032M31.1032 82.8825V82.8825ZM31.1032 82.8825L30.7157 82.5498L29.1656 82.217H28.7781V82.5498H28.3905V82.217M28.3905 82.217V82.217ZM28.3905 82.217H28.003M28.003 82.217V82.217ZM28.003 82.217H27.6155H27.228M27.228 82.217V82.217ZM27.228 82.217H26.8404M26.8404 82.217V82.217ZM26.8404 82.217H26.4529M26.4529 82.217V82.217ZM26.4529 82.217H26.0654M26.0654 82.217V82.217ZM26.0654 82.217H25.2903M25.2903 82.217V82.217ZM25.2903 82.217H24.9028V81.8843M24.9028 81.8843V81.8843ZM24.9028 81.8843V80.8862V80.5534M24.9028 80.5534V80.5534ZM24.9028 80.5534L24.5153 80.2207L24.1278 79.888H23.7402M23.7402 79.888V79.888ZM23.7402 79.888H22.5776L22.1901 79.5553L21.4151 79.888L21.0275 79.5553M21.0275 79.5553V79.5553ZM21.0275 79.5553V79.2226L20.64 78.8899H20.2525V78.5571M20.2525 78.5571V78.5571ZM20.2525 78.5571V78.2244M20.2525 78.2244V78.2244ZM20.2525 78.2244V77.8917M20.2525 77.8917V77.8917ZM20.2525 77.8917H20.64M20.64 77.8917V77.8917ZM20.64 77.8917L21.0275 77.559M21.0275 77.559V77.8917M21.0275 77.559L21.4151 77.8917M21.0275 77.8917V77.8917ZM21.4151 77.8917V77.8917ZM21.4151 77.8917V77.559M21.4151 77.559V77.559ZM21.4151 77.559H21.8026M21.8026 77.559V77.559ZM21.8026 77.559V77.8917M21.8026 77.559H22.1901M21.8026 77.8917V77.8917ZM22.1901 77.559V77.559ZM22.1901 77.559V77.8917M22.1901 77.559L22.5776 77.8917M22.1901 77.8917V77.8917ZM22.5776 77.8917V77.8917ZM22.5776 77.8917V77.559M22.5776 77.559V77.559ZM22.5776 77.559H22.9652M22.9652 77.559V77.559ZM22.9652 77.559H23.3527M23.3527 77.559V77.559ZM23.3527 77.559L23.7402 77.2263M23.7402 77.2263V77.2263ZM23.7402 77.2263H24.1278M24.1278 77.2263V77.2263ZM24.1278 77.2263L23.7402 76.8935M23.7402 76.8935V76.8935ZM23.7402 76.8935V76.5608M23.7402 76.5608V76.5608ZM23.7402 76.5608V76.2281M23.7402 76.2281V76.2281ZM23.7402 76.2281H23.3527M23.3527 76.2281V76.2281ZM23.3527 76.2281H22.9652V75.8954H22.5776M22.5776 75.8954V75.8954ZM22.5776 75.8954H22.1901M22.1901 75.8954V75.8954ZM22.1901 75.8954L21.8026 75.5627M21.8026 75.5627V75.5627ZM21.8026 75.5627H21.4151L21.0275 75.23M21.0275 75.23H21.4151M21.0275 75.23V74.8972M21.0275 74.8972V74.8972ZM21.0275 74.8972H20.64M21.0275 74.8972L20.64 74.5645M20.64 74.5645V74.5645ZM20.64 74.5645H20.2525M20.2525 74.5645V74.5645ZM20.2525 74.5645V74.2318H20.64M20.64 74.2318V74.2318ZM20.64 74.2318H21.0275M21.0275 74.2318V74.2318ZM21.0275 74.2318V73.8991M21.0275 74.2318H21.4151M21.4151 74.2318V74.2318ZM21.4151 74.2318H21.8026L22.1901 73.8991M22.1901 73.8991V73.8991ZM22.1901 73.8991H21.8026V73.5664M21.8026 73.5664V73.5664ZM21.8026 73.5664H22.1901M22.1901 73.5664V73.5664ZM22.1901 73.5664V73.2336M22.1901 73.2336V73.2336ZM22.1901 73.2336L22.5776 72.9009M22.5776 72.9009V72.9009ZM22.5776 72.9009V72.5682M22.5776 72.5682H22.1901M22.5776 72.5682V72.2355M22.1901 72.5682V72.5682ZM22.5776 72.2355V72.2355ZM22.5776 72.2355H22.9652M22.9652 72.2355V72.2355ZM22.9652 72.2355V71.9028H23.3527M23.3527 71.9028V71.9028ZM23.3527 71.9028V71.5701M23.3527 71.5701V71.5701ZM23.3527 71.5701V71.2373M23.3527 71.2373V71.2373ZM23.3527 71.2373H22.9652M22.9652 71.2373V71.2373ZM22.9652 71.2373H22.5776V70.9046V70.5719M22.5776 70.5719V70.5719ZM22.5776 70.5719H22.1901H21.8026M21.8026 70.5719V70.5719ZM21.8026 70.5719V70.2392M21.8026 70.2392V70.2392ZM21.8026 70.2392H21.4151M21.4151 70.2392V70.2392ZM21.4151 70.2392V69.9065M21.4151 69.9065V69.9065ZM21.4151 69.9065H21.0275V70.2392L20.64 69.9065H20.2525M20.2525 69.9065V69.9065ZM20.2525 69.9065H19.865V69.5737M19.865 69.5737V69.5737ZM19.865 69.5737H19.4774M19.4774 69.5737V69.5737ZM19.4774 69.5737H19.0899L18.7024 69.9065M18.7024 69.9065V69.9065ZM18.7024 69.9065V69.5737H18.3149M18.3149 69.5737V69.5737ZM18.3149 69.5737L17.9273 69.241M17.9273 69.241V69.241ZM17.9273 69.241H17.5398V68.9083M17.5398 68.9083V68.9083ZM17.5398 68.9083V68.5756H17.1523M17.1523 68.5756V68.5756ZM17.1523 68.5756V68.2429M17.1523 68.2429V68.2429ZM17.1523 68.2429V67.9101M17.1523 67.9101V67.9101ZM17.1523 67.9101H16.7648M16.7648 67.9101V67.9101ZM16.7648 67.9101V68.2429H16.3772M16.3772 68.2429V68.2429ZM16.3772 68.2429H15.9897M15.9897 68.2429V68.2429ZM15.9897 68.2429H15.6022M15.6022 68.2429V68.5756M15.6022 68.2429V67.9101H15.2147M15.2147 67.9101V67.9101ZM15.2147 67.9101H14.8271L15.2147 67.5774H14.8271M14.8271 67.5774V67.5774ZM14.8271 67.5774L14.4396 67.9101H14.0521V67.5774M14.0521 67.5774V67.5774ZM14.0521 67.5774L13.6646 67.2447M13.6646 67.2447V67.2447ZM13.6646 67.2447V66.912H13.277M13.277 66.912V66.912ZM13.277 66.912L12.8895 66.5793M12.8895 66.5793V66.5793ZM12.8895 66.5793H12.502V66.2466M12.502 66.2466H12.8895M12.502 66.2466V66.2466ZM12.502 66.2466V65.9138M12.502 65.9138V65.9138ZM12.502 65.9138H12.1145V65.5811H11.7269M11.7269 65.5811V65.5811ZM11.7269 65.5811H11.3394M11.7269 65.5811V65.2484M11.7269 65.2484H11.3394M11.7269 65.2484V65.2484ZM11.7269 65.2484V64.9157M11.3394 65.2484V65.2484ZM11.7269 64.9157V64.9157ZM11.7269 64.9157V64.583H11.3394M11.3394 64.583V64.583ZM11.3394 64.583H10.9519V64.2502H10.5644H9.78931M9.78931 64.2502V64.2502ZM9.78931 64.2502V63.9175H10.1768V63.5848H10.5644M10.5644 63.5848V63.5848ZM10.5644 63.5848V63.2521H10.9519M10.9519 63.2521V63.2521ZM10.9519 63.2521V62.9194H10.5644M10.5644 62.9194V62.9194ZM10.5644 62.9194V62.5867M10.5644 62.5867V62.5867ZM10.5644 62.5867L10.1768 62.2539V61.9212L9.78931 62.2539V61.9212M9.78931 61.9212V61.9212ZM9.78931 61.9212V61.5885M9.78931 61.5885V61.5885ZM9.78931 61.5885V61.2558M9.78931 61.2558V61.2558ZM9.78931 61.2558H10.1768V60.9231M10.1768 60.9231V60.9231ZM10.1768 60.9231L10.5644 60.5904L10.1768 60.2576V59.9249M10.1768 59.9249H10.5644M10.1768 59.9249V59.5922M10.1768 59.5922V59.5922ZM10.1768 59.5922V59.2595L10.5644 58.9268V58.594M10.5644 58.594V58.594ZM10.5644 58.594V58.2613M10.5644 58.2613V58.2613ZM10.5644 58.2613V57.9286M10.5644 57.9286V57.9286ZM10.5644 57.9286H10.1768M10.1768 57.9286V57.5959M10.1768 57.9286H9.78931V58.2613M9.78931 58.2613V58.2613ZM9.78931 58.2613H9.40178M9.40178 58.2613V58.2613ZM9.40178 58.2613H9.01426M9.01426 58.2613V58.2613ZM9.01426 58.2613V58.594H8.62673M8.62673 58.594V58.594ZM8.62673 58.594V58.2613M8.62673 58.2613V58.2613ZM8.62673 58.2613H8.23921V57.9286M8.23921 57.9286H8.62673M8.23921 57.9286V57.2632L7.85168 57.5959V57.2632M7.85168 57.2632V57.2632ZM7.85168 57.2632L7.46415 56.9305L7.85168 56.5977L7.46415 56.265M7.46415 56.265V56.265ZM7.46415 56.265L7.07663 55.9323H6.6891V55.5996L6.30158 55.9323V55.5996M6.30158 55.5996V55.5996ZM6.30158 55.5996V54.9341H5.91405V55.2669H5.139M5.139 55.2669V55.2669ZM5.139 55.2669V54.9341L4.75148 54.6014M4.75148 54.6014V54.6014ZM4.75148 54.6014V53.936M4.75148 53.936V53.936ZM4.75148 53.936H4.36395V53.6033H3.97642M3.97642 53.6033V53.6033ZM3.97642 53.6033H3.20137M3.20137 53.6033V53.6033ZM3.20137 53.6033H2.81385V53.2705M2.81385 53.2705V53.2705ZM2.81385 53.2705L2.42632 52.9378M2.42632 52.9378V52.9378ZM2.42632 52.9378H2.0388M2.42632 52.9378V52.6051M2.42632 52.6051V52.6051ZM2.42632 52.6051L2.0388 52.2724M2.0388 52.2724V52.2724ZM2.0388 52.2724V51.9397M2.0388 51.9397V51.9397ZM2.0388 51.9397V51.607H1.65127V51.2742M1.65127 51.2742V51.2742ZM1.65127 51.2742L1.26375 50.9415M1.26375 50.9415V50.9415ZM1.26375 50.9415H0.876221V50.6088M0.876221 50.6088V50.6088Z" stroke="#13263A"/>
</svg>
