<svg width="124" height="61" viewBox="0 0 124 61" fill="none" xmlns="http://www.w3.org/2000/svg">
<path d="M1.39209 19.4552V19.4552ZM1.39209 19.4552H1.77962M1.39209 19.4552V19.7879M1.77962 19.4552V19.4552ZM1.77962 19.4552H2.16714M2.16714 19.4552V19.4552ZM2.16714 19.4552V19.1225M2.16714 19.1225V19.1225ZM2.16714 19.1225H1.77962M1.77962 19.1225V19.1225ZM1.77962 19.1225V18.7897M1.77962 18.7897V18.7897ZM1.77962 18.7897V18.457M1.77962 18.457V18.457ZM1.77962 18.457H1.39209M1.77962 18.457V18.1243M1.77962 18.457H2.16714V18.1243M1.39209 18.457V18.457ZM1.39209 18.457V18.1243M1.39209 18.1243V18.1243ZM1.39209 18.1243H1.77962M1.77962 18.1243V18.1243ZM2.16714 18.1243V18.1243ZM2.16714 18.1243H2.55467M2.55467 18.1243V18.1243ZM2.55467 18.1243H2.94219M2.94219 18.1243V18.1243ZM2.94219 18.1243V18.457M2.94219 18.457V18.457ZM2.94219 18.457H3.32972M3.32972 18.457V18.457ZM3.32972 18.457V18.7897M3.32972 18.7897V18.7897ZM3.32972 18.7897V19.1225M3.32972 19.1225V19.1225ZM3.32972 19.1225V19.4552M3.32972 19.4552V19.4552ZM3.32972 19.4552H3.71724M3.71724 19.4552V19.4552ZM3.71724 19.4552H4.10477M4.10477 19.4552V19.4552ZM4.10477 19.4552L4.49229 19.7879M4.49229 19.7879V19.7879ZM4.49229 19.7879H4.10477M4.10477 19.7879V19.7879ZM4.10477 19.7879V20.1206M4.10477 20.1206V20.1206ZM4.10477 20.1206H4.49229M4.49229 20.1206V20.4533M4.49229 20.1206V20.1206ZM4.49229 20.4533V20.4533ZM4.49229 20.4533H4.87982M4.87982 20.4533V20.4533ZM4.87982 20.4533V20.786M4.87982 20.786V20.786ZM4.87982 20.786V21.1188M4.87982 21.1188V21.1188ZM4.87982 21.1188H4.49229M4.49229 21.1188V21.1188ZM4.49229 21.1188V21.4515H4.87982M4.87982 21.4515V21.4515ZM4.87982 21.4515V21.7842M4.87982 21.7842V21.7842ZM4.87982 21.7842H5.26735M5.26735 21.7842V21.7842ZM5.26735 21.7842H5.65487M5.65487 21.7842V21.7842ZM5.65487 21.7842V21.4515M5.65487 21.4515V21.4515ZM5.65487 21.4515V21.1188M5.65487 21.1188V21.1188ZM5.65487 21.1188V20.786M5.65487 20.786V20.786ZM5.65487 20.786V20.4533M5.65487 20.4533V20.4533ZM5.65487 20.4533V20.1206M5.65487 20.1206V20.1206ZM5.65487 20.1206H6.0424M6.0424 20.1206V20.1206ZM6.0424 20.1206V19.7879M6.0424 19.7879V19.7879ZM6.0424 19.7879V19.4552M6.0424 19.4552V19.4552ZM6.0424 19.4552V19.1225H6.42992M6.42992 19.1225V19.1225ZM6.42992 19.1225H6.81745M6.81745 19.1225V19.1225ZM6.81745 19.1225V18.7897M6.81745 18.7897V18.7897ZM6.81745 18.7897V18.457M6.81745 18.457V18.457ZM6.81745 18.457V18.1243M6.81745 18.1243V18.1243ZM6.81745 18.1243H7.20497M7.20497 18.1243V18.1243ZM7.20497 18.1243H7.5925M7.5925 18.1243V18.1243ZM7.5925 18.1243V17.7916M7.5925 17.7916V17.7916ZM7.5925 17.7916V17.4589H7.98002M7.98002 17.4589V17.4589ZM7.98002 17.4589H8.36755M8.36755 17.4589V17.4589ZM8.36755 17.4589V17.1261M8.36755 17.1261V17.1261ZM8.36755 17.1261V16.7934M8.36755 16.7934V16.7934ZM8.36755 16.7934H8.75507M8.75507 16.7934V16.7934ZM8.75507 16.7934V16.4607M8.75507 16.4607V16.4607ZM8.75507 16.4607H9.1426M9.1426 16.4607V16.4607ZM9.1426 16.4607H9.53013M9.53013 16.4607V16.4607ZM9.53013 16.4607V16.128M9.53013 16.4607L9.91765 16.128M9.91765 16.128V16.128ZM9.91765 16.128H10.3052M10.3052 16.128V16.128ZM10.3052 16.128H10.6927M10.6927 16.128V16.128ZM10.6927 16.128V15.7953M10.6927 15.7953V15.7953ZM10.6927 15.7953H11.0802M11.0802 15.7953V15.7953ZM11.0802 15.7953V16.128M11.0802 16.128V16.128ZM11.0802 16.128H11.4678M11.4678 16.128V16.128ZM11.4678 16.128V15.7953H11.8553M11.8553 15.7953V15.7953ZM11.8553 15.7953V16.128M11.8553 16.128V16.128ZM11.8553 16.128H12.2428M12.2428 16.128V16.128ZM12.2428 16.128V16.4607M12.2428 16.128H12.6303M12.2428 16.4607V16.4607ZM12.6303 16.128V16.128ZM12.6303 16.128V15.7953M12.6303 15.7953V15.7953ZM12.6303 15.7953V15.4626H13.0179M13.0179 15.4626V15.4626ZM13.0179 15.4626L13.4054 15.1298M13.4054 15.1298V15.1298ZM13.4054 15.1298H13.7929H14.1804M14.1804 15.1298V15.1298ZM14.1804 15.1298V15.4626M14.1804 15.1298V14.7971M14.1804 15.4626V15.4626ZM14.1804 14.7971V14.7971ZM14.1804 14.7971H14.568M14.568 14.7971V14.7971ZM14.568 14.7971V15.1298M14.568 15.1298V15.1298ZM14.568 15.1298H14.9555M14.9555 15.1298V15.1298ZM14.9555 15.1298L15.343 15.4626M15.343 15.4626V15.4626ZM15.343 15.4626H15.7305M15.7305 15.4626V15.4626ZM15.7305 15.4626V15.7953M15.7305 15.7953V15.7953ZM15.7305 15.7953H16.1181M16.1181 15.7953V15.7953ZM16.1181 15.7953L16.5056 16.128M16.5056 16.128V16.128ZM16.5056 16.128L16.8931 15.7953M16.8931 15.7953V15.7953ZM16.8931 15.7953H17.2806M17.2806 15.7953V15.7953ZM17.2806 15.7953V15.4626H17.6682M17.6682 15.4626V15.4626ZM17.6682 15.4626V15.1298M17.6682 15.1298V15.1298ZM17.6682 15.1298H18.0557M18.0557 15.1298V15.1298ZM18.0557 15.1298V14.7971M18.0557 14.7971V14.7971ZM18.0557 14.7971V14.4644M18.0557 14.4644V14.4644ZM18.0557 14.4644V14.1317M18.0557 14.1317V14.1317ZM18.0557 14.1317V13.799M18.0557 13.799V13.799ZM18.0557 13.799H18.4432M18.4432 13.799V13.799ZM18.4432 13.799V13.4662M18.4432 13.799H18.8307M18.8307 13.799V13.799ZM18.8307 13.799H19.2183M19.2183 13.799V13.799ZM19.2183 13.799H19.6058M19.6058 13.799V13.799ZM19.6058 13.799V13.4662M19.6058 13.4662V13.4662ZM19.6058 13.4662H19.9933M19.9933 13.4662V13.4662ZM19.9933 13.4662V13.799M19.9933 13.799V13.799ZM19.9933 13.799H20.3808M20.3808 13.799V13.799ZM20.3808 13.799H20.7684M20.7684 13.799V13.799ZM20.7684 13.799H21.1559M21.1559 13.799V13.799ZM21.1559 13.799V13.4662M21.1559 13.4662V13.4662ZM21.1559 13.4662V13.1335M21.1559 13.1335V13.1335ZM21.1559 13.1335H21.5434M21.5434 13.1335V13.1335ZM21.5434 13.1335V12.8008M21.5434 12.8008V12.8008ZM21.5434 12.8008V12.4681M21.5434 12.4681V12.4681ZM21.5434 12.4681V12.1354M21.5434 12.1354V12.1354ZM21.5434 12.1354H21.9309M21.9309 12.1354V12.1354ZM21.9309 12.1354V11.8027M21.9309 11.8027V11.8027ZM21.9309 11.8027V11.4699M21.9309 11.4699V11.4699ZM21.9309 11.4699H22.3185V11.8027M22.3185 11.8027V11.8027ZM22.3185 11.8027H22.706M22.706 11.8027V11.8027ZM22.706 11.8027V12.1354M22.706 12.1354V12.1354ZM22.706 12.1354H23.0935M23.0935 12.1354V12.1354ZM23.0935 12.1354V11.8027H23.481M23.481 11.8027V11.8027ZM23.481 11.8027V11.4699M23.481 11.4699V11.4699ZM23.481 11.4699V11.1372M23.481 11.1372V11.1372ZM23.481 11.1372H23.8686M23.8686 11.1372V11.1372ZM23.8686 11.1372H24.2561M24.2561 11.1372V11.1372ZM24.2561 11.1372V10.8045M24.2561 10.8045V10.8045ZM24.2561 10.8045V10.4718M24.2561 10.4718V10.4718ZM24.2561 10.4718V10.1391M24.2561 10.4718H24.6436M24.2561 10.1391V10.1391ZM24.6436 10.4718V10.4718ZM24.6436 10.4718H25.0311V10.8045M25.0311 10.8045V10.8045ZM25.0311 10.8045V11.1372M25.0311 11.1372V11.1372ZM25.0311 11.1372H25.4187M25.4187 11.1372V11.1372ZM25.4187 11.1372H25.8062V11.4699M25.8062 11.4699V11.4699ZM25.8062 11.4699L26.1937 11.1372M26.1937 11.1372V11.1372ZM26.1937 11.1372V10.8045H26.5812M26.5812 10.8045V10.8045ZM26.5812 10.8045V10.4718M26.5812 10.4718V10.4718ZM26.5812 10.4718H26.9688M26.9688 10.4718V10.4718ZM26.9688 10.4718V10.1391M26.9688 10.1391V10.1391ZM26.9688 10.1391V9.80635M26.9688 9.80635V9.80635ZM26.9688 9.80635H27.3563M27.3563 9.80635V9.80635ZM27.3563 9.80635V9.47363M27.3563 9.47363V9.47363ZM27.3563 9.47363V9.14091M27.3563 9.14091V9.14091ZM27.3563 9.14091H26.9688M26.9688 9.14091V9.14091ZM26.9688 9.14091V8.80819M26.9688 8.80819V8.80819ZM26.9688 8.80819H27.3563M27.3563 8.80819V8.80819ZM27.3563 8.80819H27.7438M27.7438 8.80819V8.80819ZM27.7438 8.80819H28.1314M28.1314 8.80819V8.80819ZM28.1314 8.80819H28.5189M28.5189 8.80819V8.80819ZM28.5189 8.80819H28.9064V8.47547M28.9064 8.47547V8.47547ZM28.9064 8.47547H29.2939M29.2939 8.47547V8.47547ZM29.2939 8.47547V8.14275M29.2939 8.14275V8.14275ZM29.2939 8.14275H29.6815M29.6815 8.14275V8.14275ZM29.6815 8.14275V8.47547M29.6815 8.47547V8.47547ZM29.6815 8.47547H30.069M30.069 8.47547V8.47547ZM30.069 8.47547H30.4565M30.4565 8.47547V8.47547ZM30.4565 8.47547V8.14275M30.4565 8.14275V8.14275ZM30.4565 8.14275H30.844M30.844 8.14275V8.14275ZM30.844 8.14275V8.47547M30.844 8.47547V8.47547ZM30.844 8.47547H31.2316V8.14275M31.2316 8.14275V8.14275ZM31.2316 8.14275H31.6191M31.6191 8.14275V8.14275ZM31.6191 8.14275H32.0066M32.0066 8.14275V8.14275ZM32.0066 8.14275V8.47547M32.0066 8.47547V8.47547ZM32.0066 8.47547H32.3941M32.3941 8.47547V8.47547ZM32.3941 8.47547H32.7817M32.7817 8.47547V8.47547ZM32.7817 8.47547L33.1692 8.14275M33.1692 8.14275V8.14275ZM33.1692 8.14275H33.5567M33.5567 8.14275V8.14275ZM33.5567 8.14275V7.81004M33.5567 7.81004V7.81004ZM33.5567 7.81004H33.9442M33.5567 7.81004V7.47732M33.5567 7.47732V7.47732ZM33.5567 7.47732V7.1446M33.5567 7.1446V7.1446ZM33.5567 7.1446V6.81188M33.5567 6.81188V6.81188ZM33.5567 6.81188H33.9442M33.9442 6.81188V6.81188ZM33.9442 6.81188H34.3318M34.3318 6.81188V6.81188ZM34.3318 6.81188H34.7193M34.7193 6.81188V6.81188ZM34.7193 6.81188V6.47916M34.7193 6.47916V6.47916ZM34.7193 6.47916H35.1068V6.14644M35.1068 6.14644V6.14644ZM35.1068 6.14644H35.4943M35.4943 6.14644V6.14644ZM35.4943 6.14644V6.47916M35.4943 6.47916V6.47916ZM35.4943 6.47916H35.8819M35.8819 6.47916V6.47916ZM35.8819 6.47916H36.2694M36.2694 6.47916V6.47916ZM36.2694 6.47916H36.6569M36.6569 6.47916V6.47916ZM36.6569 6.47916L37.0444 6.14644M37.0444 6.14644V6.14644ZM37.0444 6.14644V5.81373M37.0444 5.81373V5.81373ZM37.0444 5.81373H37.432M37.432 5.81373V5.81373ZM37.432 5.81373H37.8195M37.8195 5.81373V5.81373ZM37.8195 5.81373L38.207 5.48101M38.207 5.48101V5.48101ZM38.207 5.48101H38.5945M38.5945 5.48101V5.48101ZM38.5945 5.48101H38.9821M38.9821 5.48101V5.48101ZM38.9821 5.48101H39.3696V5.14829M39.3696 5.14829V5.14829ZM39.3696 5.14829H39.7571V4.81557M39.7571 4.81557V4.81557ZM39.7571 4.81557V4.48285M39.7571 4.48285V4.48285ZM39.7571 4.48285H40.1446M40.1446 4.48285V4.48285ZM40.1446 4.48285V4.15014M40.1446 4.15014V4.15014ZM40.1446 4.15014H40.5322V4.48285M40.5322 4.48285V4.48285ZM40.5322 4.48285H40.9197M40.9197 4.48285V4.48285ZM40.9197 4.48285H41.3072M41.3072 4.48285V4.48285ZM41.3072 4.48285H41.6947M41.6947 4.48285V4.48285ZM41.6947 4.48285V4.15014M41.6947 4.15014V4.15014ZM41.6947 4.15014H42.0823M42.0823 4.15014V4.15014ZM42.0823 4.15014H42.4698M42.4698 4.15014V4.15014ZM42.4698 4.15014V3.81742M42.4698 3.81742V3.81742ZM42.4698 3.81742V3.4847M42.4698 3.4847H42.8573M42.4698 3.4847V3.15198M42.8573 3.4847V3.4847ZM42.4698 3.15198V3.15198ZM42.4698 3.15198H42.0823M42.0823 3.15198V3.15198ZM42.0823 3.15198H41.6947M41.6947 3.15198V3.15198ZM41.6947 3.15198V2.81926M41.6947 2.81926V2.81926ZM41.6947 2.81926H41.3072M41.3072 2.81926V2.81926ZM41.3072 2.81926H40.9197M41.3072 2.81926L40.9197 2.48654M40.9197 2.81926V2.81926ZM40.9197 2.48654V2.48654ZM40.9197 2.48654H41.3072M41.3072 2.48654V2.48654ZM41.3072 2.48654V2.15383M41.3072 2.15383V2.15383ZM41.3072 2.15383H40.9197M40.9197 2.15383V2.15383ZM40.9197 2.15383H40.5322M40.5322 2.15383V2.15383ZM40.5322 2.15383H40.1446M40.1446 2.15383V2.15383ZM40.1446 2.15383V1.82111M40.1446 1.82111V1.82111ZM40.1446 1.82111V1.48839M40.1446 1.48839V1.48839ZM40.1446 1.48839H40.5322M40.5322 1.48839V1.48839ZM40.5322 1.48839V1.15567M40.5322 1.15567V1.15567ZM40.5322 1.15567V0.822953M40.5322 0.822953V0.822953ZM40.5322 0.822953H40.9197V0.490234M40.9197 0.490234V0.490234ZM40.9197 0.490234H41.3072M41.3072 0.490234V0.490234ZM41.3072 0.490234V0.822953H41.6947M41.6947 0.822953V0.822953ZM41.6947 0.822953H42.0823M42.0823 0.822953V0.490234M42.0823 0.822953V0.822953ZM42.0823 0.822953H42.4698M42.4698 0.822953V0.822953ZM42.4698 0.822953V1.15567M42.4698 1.15567V1.15567ZM42.4698 1.15567H42.8573M42.8573 1.15567V1.15567ZM42.8573 1.15567H43.2448M43.2448 1.15567V1.15567ZM43.2448 1.15567L43.6324 0.822953M43.6324 0.822953V0.822953ZM43.6324 0.822953H44.0199M44.0199 0.822953V0.822953ZM44.0199 0.822953V1.15567M44.0199 1.15567V1.15567ZM44.0199 1.15567H44.4074M44.4074 1.15567V1.15567ZM44.4074 1.15567V0.822953M44.4074 1.15567H44.7949M44.4074 0.822953V0.822953ZM44.4074 0.822953V0.490234M44.4074 0.822953H44.7949M44.4074 0.490234V0.490234ZM44.7949 0.822953V0.822953ZM44.7949 1.15567V1.15567ZM44.7949 1.15567H45.1825V1.48839M45.1825 1.48839V1.48839ZM45.1825 1.48839H45.57M45.57 1.48839V1.48839ZM45.57 1.48839V1.82111H45.9575M45.9575 1.82111V1.82111ZM45.9575 1.82111V2.15383H46.3451M46.3451 2.15383V2.15383ZM46.3451 2.15383V2.48654M46.3451 2.48654V2.48654ZM46.3451 2.48654H45.9575M46.3451 2.48654V2.81926H45.9575M45.9575 2.48654V2.48654ZM45.9575 2.81926V2.81926ZM45.9575 2.81926V3.15198M45.9575 3.15198V3.15198ZM45.9575 3.15198H45.57V3.4847M45.57 3.4847V3.4847ZM45.57 3.4847V3.81742M45.57 3.81742V3.81742ZM45.57 3.81742H45.9575M45.9575 3.81742V3.81742ZM45.9575 3.81742H46.3451M46.3451 3.81742V3.81742ZM46.3451 3.81742V3.4847H46.7326M46.7326 3.4847V3.4847ZM46.7326 3.4847H47.1201M47.1201 3.4847V3.4847ZM47.1201 3.4847V3.81742M47.1201 3.81742V3.81742ZM47.1201 3.81742V4.15014M47.1201 4.15014V4.15014ZM47.1201 4.15014H46.7326V4.48285M46.7326 4.48285V4.48285ZM46.7326 4.48285V4.81557M46.7326 4.81557V4.81557ZM46.7326 4.81557V5.14829M46.7326 5.14829V5.14829ZM46.7326 5.14829L47.1201 5.48101M47.1201 5.48101V5.48101ZM47.1201 5.48101H47.5076M47.5076 5.48101V5.48101ZM47.5076 5.48101H47.8952M47.8952 5.48101V5.48101ZM47.8952 5.48101V5.81373M47.8952 5.48101H48.2827M47.8952 5.81373V5.81373ZM48.2827 5.48101V5.48101ZM48.2827 5.48101V5.81373M48.2827 5.81373V5.81373ZM48.2827 5.81373V6.14644M48.2827 6.14644V6.14644ZM48.2827 6.14644H48.6702M48.6702 6.14644V6.14644ZM48.6702 6.14644V5.81373M48.6702 5.81373V5.81373ZM48.6702 5.81373H49.0577M49.0577 5.81373V5.81373ZM49.0577 5.81373V6.14644M49.0577 6.14644V6.14644ZM49.0577 6.14644H49.4453M49.4453 6.14644V6.14644ZM49.4453 6.14644H49.8328M49.8328 6.14644V6.14644ZM49.8328 6.14644V5.81373M49.8328 5.81373V5.81373ZM49.8328 5.81373V5.48101M49.8328 5.48101V5.48101ZM49.8328 5.48101H50.2203M50.2203 5.48101V5.48101ZM50.2203 5.48101V5.14829M50.2203 5.14829V5.14829ZM50.2203 5.14829V4.81557M50.2203 4.81557V4.81557ZM50.2203 4.81557H50.6078M50.6078 4.81557V4.81557ZM50.6078 4.81557H50.9954M50.9954 4.81557V4.81557ZM50.9954 4.81557H51.3829M51.3829 4.81557V4.81557ZM51.3829 4.81557H51.7704M51.7704 4.81557V4.81557ZM51.7704 4.81557H52.1579M52.1579 4.81557V4.81557ZM52.1579 4.81557H52.5455V5.14829M52.5455 5.14829V5.14829ZM52.5455 5.14829H52.933M52.933 5.14829V5.14829ZM52.933 5.14829V4.81557M52.933 4.81557V4.81557ZM52.933 4.81557H53.3205M53.3205 4.81557V4.81557ZM53.3205 4.81557V4.48285M53.3205 4.48285V4.48285ZM53.3205 4.48285V4.15014M53.3205 4.15014V4.15014ZM53.3205 4.15014H53.708M53.3205 4.15014V3.81742M53.708 4.15014V4.15014ZM53.3205 3.81742V3.81742ZM53.3205 3.81742V3.4847M53.3205 3.4847V3.4847ZM53.3205 3.4847H53.708V3.15198M53.708 3.15198V3.15198ZM53.708 3.15198V2.81926M53.708 2.81926V2.81926ZM53.708 2.81926V2.48654M53.708 2.48654V2.48654ZM53.708 2.48654V2.15383M53.708 2.15383V2.15383ZM53.708 2.15383H53.3205M53.3205 2.15383V2.15383ZM53.3205 2.15383H52.933M52.933 2.15383V2.15383ZM52.933 2.15383V1.82111M52.933 1.82111V1.82111ZM52.933 1.82111L53.3205 1.48839M53.3205 1.48839V1.48839ZM53.3205 1.48839H53.708M53.708 1.48839V1.48839ZM53.708 1.48839V1.15567M53.708 1.15567V1.15567ZM53.708 1.15567H54.0956M54.0956 1.15567V1.15567ZM54.0956 1.15567V1.48839M54.0956 1.48839V1.48839ZM54.0956 1.48839H54.4831M54.4831 1.48839V1.48839ZM54.4831 1.48839V1.15567M54.4831 1.15567V1.15567ZM54.4831 1.15567H54.8706V1.48839M54.8706 1.48839V1.48839ZM54.8706 1.48839H55.2581M55.2581 1.48839V1.48839ZM55.2581 1.48839V1.82111M55.2581 1.82111V1.82111ZM55.2581 1.82111H55.6457M55.6457 1.82111V1.82111ZM55.6457 1.82111H56.0332M56.0332 1.82111V1.82111ZM56.0332 1.82111V1.48839M56.0332 1.48839V1.48839ZM56.0332 1.48839H56.4207M56.4207 1.48839V1.48839ZM56.4207 1.48839V1.15567M56.4207 1.48839V1.82111M56.4207 1.15567V1.15567ZM56.4207 1.82111V1.82111ZM56.4207 1.82111V2.15383M56.4207 2.15383V2.15383ZM56.4207 2.15383H56.8082M56.8082 2.15383V2.15383ZM56.8082 2.15383H57.1958M56.8082 2.15383L57.1958 1.82111M57.1958 1.82111V1.82111ZM57.1958 1.82111H57.5833M57.5833 1.82111V1.82111ZM57.5833 1.82111V2.15383M57.5833 2.15383H57.9708M57.5833 2.15383V2.15383ZM57.9708 2.15383V2.15383ZM57.9708 2.15383H58.3583M58.3583 2.15383V2.15383ZM58.3583 2.15383V2.48654M58.3583 2.48654V2.48654ZM58.3583 2.48654V2.81926M58.3583 2.81926V2.81926ZM58.3583 2.81926H58.7459M58.7459 2.81926V2.81926ZM58.7459 2.81926V3.15198M58.7459 3.15198V3.15198ZM58.7459 3.15198H58.3583M58.3583 3.15198V3.15198ZM58.3583 3.15198V3.4847M58.3583 3.4847V3.4847ZM58.3583 3.4847V3.81742M58.3583 3.81742V3.81742ZM58.3583 3.81742V4.15014M58.3583 4.15014V4.15014ZM58.3583 4.15014V4.48285M58.3583 4.48285V4.48285ZM58.3583 4.48285H58.7459V4.81557L59.1334 5.14829M59.1334 5.14829V5.14829ZM59.1334 5.14829H59.5209M59.5209 5.14829V5.14829ZM59.5209 5.14829V5.48101M59.5209 5.48101V5.48101ZM59.5209 5.48101H59.9084M59.9084 5.48101V5.48101ZM59.9084 5.48101V5.81373M59.9084 5.81373V5.81373ZM59.9084 5.81373V6.14644M59.9084 6.14644V6.14644ZM59.9084 6.14644H60.296M60.296 6.14644V6.14644ZM60.296 6.14644V6.47916M60.296 6.47916H59.9084M60.296 6.47916V6.47916ZM59.9084 6.47916V6.47916ZM59.9084 6.47916V6.81188M59.9084 6.81188V6.81188ZM59.9084 6.81188H60.296M60.296 6.81188V6.81188ZM60.296 6.81188L59.9084 7.1446M59.9084 7.1446V7.1446ZM59.9084 7.1446H60.296M60.296 7.1446V7.1446ZM60.296 7.1446H60.6835M60.6835 7.1446V7.1446ZM60.6835 7.1446V6.81188M60.6835 6.81188V6.81188ZM60.6835 6.81188H61.071V6.47916M61.071 6.47916V6.47916ZM61.071 6.47916H61.4585M61.4585 6.47916V6.47916ZM61.4585 6.47916H61.8461M61.8461 6.47916V6.47916ZM61.8461 6.47916V6.81188M61.8461 6.81188V6.81188ZM61.8461 6.81188H62.2336M62.2336 6.81188V6.81188ZM62.2336 6.81188H62.6211M62.6211 6.81188V6.81188ZM62.6211 6.81188V7.1446H63.0086M63.0086 7.1446V7.1446ZM63.0086 7.1446H63.3962M63.3962 7.1446V7.1446ZM63.3962 7.1446H63.7837M63.7837 7.1446V7.1446ZM63.7837 7.1446H64.1712M64.1712 7.1446V7.1446ZM64.1712 7.1446H64.5587M64.5587 7.1446V7.1446ZM64.5587 7.1446V7.47732M64.5587 7.47732V7.47732ZM64.5587 7.47732H64.9463M64.9463 7.47732V7.47732ZM64.9463 7.47732H65.3338M65.3338 7.47732V7.47732ZM65.3338 7.47732V7.81004M65.3338 7.81004V7.81004ZM65.3338 7.81004H65.7213M65.7213 7.81004V7.81004ZM65.7213 7.81004V8.14275M65.7213 8.14275V8.14275ZM65.7213 8.14275H66.1089M66.1089 8.14275V8.14275ZM66.1089 8.14275H66.4964M66.4964 8.14275V8.14275ZM66.4964 8.14275H66.8839M66.8839 8.14275V8.14275ZM66.8839 8.14275H67.2714M67.2714 8.14275V8.14275ZM67.2714 8.14275L67.659 7.81004M67.659 7.81004V7.81004ZM67.659 7.81004H68.0465M68.0465 7.81004V7.81004ZM68.0465 7.81004L68.434 8.14275M68.434 8.14275V8.14275ZM68.434 8.14275V8.47547M68.434 8.47547V8.47547ZM68.434 8.47547V8.80819M68.434 8.80819V8.80819ZM68.434 8.80819H68.8215M68.8215 8.80819V8.80819ZM68.8215 8.80819V9.14091M68.8215 9.14091V9.14091ZM68.8215 9.14091V9.47363M68.8215 9.47363V9.47363ZM68.8215 9.47363V9.80635M68.8215 9.80635V9.80635ZM68.8215 9.80635H69.2091M69.2091 9.80635V9.80635ZM69.2091 9.80635V9.47363H69.5966M69.5966 9.47363V9.47363ZM69.5966 9.47363H69.9841M69.9841 9.47363V9.47363ZM69.9841 9.47363H70.3716M70.3716 9.47363V9.47363ZM70.3716 9.47363V9.14091M70.3716 9.14091V9.14091ZM70.3716 9.14091H70.7592M70.7592 9.14091V9.14091ZM70.7592 9.14091V9.47363H71.1467M71.1467 9.47363V9.47363ZM71.1467 9.47363V9.80635M71.1467 9.80635V9.80635ZM71.1467 9.80635H71.5342M71.5342 9.80635V9.80635ZM71.5342 9.80635V10.1391M71.5342 10.1391V10.1391ZM71.5342 10.1391V10.4718M71.5342 10.4718V10.4718ZM71.5342 10.4718V10.8045M71.5342 10.8045V10.8045ZM71.5342 10.8045H71.9217M71.5342 10.8045H71.1467M71.1467 10.8045V10.8045ZM71.1467 10.8045V11.1372M71.1467 11.1372V11.1372ZM71.1467 11.1372H71.5342V11.4699M71.5342 11.4699V11.4699ZM71.5342 11.4699H71.9217M71.9217 11.4699V11.4699ZM71.9217 11.4699V11.1372H72.3093M72.3093 11.1372V11.1372ZM72.3093 11.1372V10.8045M72.3093 10.8045V10.8045ZM72.3093 10.8045L72.6968 10.4718M72.6968 10.4718V10.4718ZM72.6968 10.4718L73.0843 10.1391M73.0843 10.1391V10.1391ZM73.0843 10.1391V9.80635M73.0843 9.80635V9.80635ZM73.0843 9.80635L73.4718 10.1391M73.4718 10.1391V10.1391ZM73.4718 10.1391H73.8594M73.8594 10.1391V10.1391ZM73.8594 10.1391H74.2469V10.4718M74.2469 10.4718V10.4718ZM74.2469 10.4718H74.6344M74.6344 10.4718V10.4718ZM74.6344 10.4718V10.8045M74.6344 10.8045V10.8045ZM74.6344 10.8045H75.0219M75.0219 10.8045V10.8045ZM75.0219 10.8045H75.4095V10.4718M75.4095 10.4718V10.4718ZM75.4095 10.4718V10.1391M75.4095 10.1391V10.1391ZM75.4095 10.1391V9.80635M75.4095 9.80635V9.80635ZM75.4095 9.80635H75.797M75.797 9.80635V9.80635ZM75.797 9.80635H76.1845M76.1845 9.80635V9.80635ZM76.1845 9.80635L76.572 10.1391M76.572 10.1391V10.1391ZM76.572 10.1391H76.9596M76.9596 10.1391V10.1391ZM76.9596 10.1391V9.80635M76.9596 9.80635V9.80635ZM76.9596 9.80635H77.3471M77.3471 9.80635V9.80635ZM77.3471 9.80635V10.1391M77.3471 10.1391V10.1391ZM77.3471 10.1391H77.7346M77.7346 10.1391V10.1391ZM77.7346 10.1391V10.4718M77.7346 10.4718V10.4718ZM77.7346 10.4718H78.1221M78.1221 10.4718V10.4718ZM78.1221 10.4718V10.8045M78.1221 10.8045V10.8045ZM78.1221 10.8045H78.5097V11.1372M78.5097 11.1372V11.1372ZM78.5097 11.1372H78.8972M78.8972 11.1372V11.1372ZM78.8972 11.1372V11.4699M78.8972 11.4699V11.4699ZM78.8972 11.4699H79.2847M79.2847 11.4699V11.4699ZM79.2847 11.4699V11.8027M79.2847 11.8027V11.8027ZM79.2847 11.8027V12.1354H78.8972M78.8972 12.1354V12.1354ZM78.8972 12.1354H78.5097M78.5097 12.1354V12.1354ZM78.5097 12.1354V12.4681M78.5097 12.4681V12.4681ZM78.5097 12.4681V12.8008M78.5097 12.8008H78.8972M78.5097 12.8008V12.8008ZM78.5097 12.8008H78.1221M78.1221 12.8008V12.8008ZM78.1221 12.8008L78.5097 13.1335M78.5097 13.1335V13.1335ZM78.5097 13.1335L78.1221 13.4662M78.1221 13.4662V13.4662ZM78.1221 13.4662L77.7346 13.799M77.7346 13.799V13.799ZM77.7346 13.799V14.1317H77.3471M77.3471 14.1317V14.1317ZM77.3471 14.1317V13.799M77.3471 13.799V13.799ZM77.3471 13.799H76.9596M76.9596 13.799V13.799ZM76.9596 13.799V14.1317M76.9596 14.1317V14.1317ZM76.9596 14.1317H76.572M76.572 14.1317V14.1317ZM76.572 14.1317V14.4644M76.572 14.4644V14.4644ZM76.572 14.4644H76.1845M76.1845 14.4644V14.4644ZM76.1845 14.4644V14.1317M76.1845 14.4644H75.797M76.1845 14.1317V14.1317ZM75.797 14.4644V14.4644ZM75.797 14.4644V14.7971M75.797 14.7971V14.7971ZM75.797 14.7971H75.4095M75.4095 14.7971V14.7971ZM75.4095 14.7971V15.1298M75.4095 15.1298V15.1298ZM75.4095 15.1298H75.0219M75.0219 15.1298V15.1298ZM75.0219 15.1298V15.4626M75.0219 15.4626V15.4626ZM75.0219 15.4626V15.7953M75.0219 15.7953V15.7953ZM75.0219 15.7953V16.128M75.0219 16.128V16.128ZM75.0219 16.128H75.4095M75.4095 16.128V16.128ZM75.4095 16.128H75.797M75.797 16.128V16.128ZM75.797 16.128V16.4607M75.797 16.4607V16.4607ZM75.797 16.4607H76.1845M76.1845 16.4607V16.4607ZM76.1845 16.4607V16.7934M76.1845 16.7934V16.7934ZM76.1845 16.7934V17.1261M76.1845 17.1261V17.1261ZM76.1845 17.1261H76.572M76.572 17.1261V17.1261ZM76.572 17.1261V16.7934M76.572 16.7934V16.7934ZM76.572 16.7934H76.9596M76.9596 16.7934V16.7934ZM76.9596 16.7934H77.3471M77.3471 16.7934V16.7934ZM77.3471 16.7934H77.7346M77.7346 16.7934V16.7934ZM77.7346 16.7934V17.1261M77.7346 17.1261V17.1261ZM77.7346 17.1261H78.1221M77.7346 17.1261V17.4589M77.7346 17.4589V17.4589ZM77.7346 17.4589L78.1221 17.7916M78.1221 17.7916V17.7916ZM78.1221 17.7916V18.1243H78.5097M78.5097 18.1243V18.1243ZM78.5097 18.1243H78.8972M78.8972 18.1243V18.1243ZM78.8972 18.1243H79.2847M79.2847 18.1243V18.1243ZM79.2847 18.1243V18.457M79.2847 18.457V18.457ZM79.2847 18.457L79.6723 18.7897M79.6723 18.7897V18.7897ZM79.6723 18.7897V19.1225M79.6723 19.1225V19.1225ZM79.6723 19.1225H80.0598M80.0598 19.1225V19.1225ZM80.0598 19.1225V19.4552M80.0598 19.4552V19.4552ZM80.0598 19.4552V19.7879H80.4473M80.4473 19.7879V19.7879ZM80.4473 19.7879V20.1206M80.4473 20.1206V20.1206ZM80.4473 20.1206H80.8348M80.8348 20.1206V20.1206ZM80.8348 20.1206V20.4533H81.2224M81.2224 20.4533V20.4533ZM81.2224 20.4533V20.786M81.2224 20.786V20.786ZM81.2224 20.786V21.1188M81.2224 21.1188V21.1188ZM81.2224 21.1188V21.4515M81.2224 21.4515V21.4515ZM81.2224 21.4515H81.6099V21.7842M81.6099 21.7842V21.7842ZM81.6099 21.7842H81.2224M81.2224 21.7842V21.7842ZM81.2224 21.7842V22.1169M81.2224 22.1169V22.1169ZM81.2224 22.1169H81.6099M81.6099 22.1169V22.1169ZM81.6099 22.1169H81.9974V22.4496M81.9974 22.4496H81.6099M81.9974 22.4496V22.4496ZM81.9974 22.4496V22.7824M81.6099 22.4496V22.4496ZM81.9974 22.7824V22.7824ZM81.9974 22.7824H82.3849M82.3849 22.7824V22.7824ZM82.3849 22.7824V23.1151M82.3849 23.1151V23.1151ZM82.3849 23.1151H82.7725M82.7725 23.1151V23.1151ZM82.7725 23.1151L83.16 23.4478M83.16 23.4478V23.4478ZM83.16 23.4478H83.5475M83.5475 23.4478V23.4478ZM83.5475 23.4478H83.935M83.935 23.4478V23.4478ZM83.935 23.4478H84.3226M84.3226 23.4478V23.4478ZM84.3226 23.4478V23.1151M84.3226 23.1151V23.1151ZM84.3226 23.1151L84.7101 22.7824M84.7101 22.7824V22.7824ZM84.7101 22.7824H85.0976V22.4496M85.0976 22.4496V22.4496ZM85.0976 22.4496H85.4851M85.4851 22.4496V22.4496ZM85.4851 22.4496V22.1169M85.4851 22.1169V22.1169ZM85.4851 22.1169V21.7842M85.4851 21.7842V21.7842ZM85.4851 21.7842L85.8727 21.4515M85.8727 21.4515V21.4515ZM85.8727 21.4515H86.2602M86.2602 21.4515V21.4515ZM86.2602 21.4515V21.1188M86.2602 21.1188V21.1188ZM86.2602 21.1188L86.6477 20.786M86.6477 20.786V20.786ZM86.6477 20.786V21.1188M86.6477 21.1188V21.1188ZM86.6477 21.1188H87.0352M87.0352 21.1188V21.1188ZM87.0352 21.1188V20.786M87.0352 20.786V20.786ZM87.0352 20.786H87.4228M87.4228 20.786V20.786ZM87.4228 20.786V20.4533M87.4228 20.4533V20.4533ZM87.4228 20.4533H87.8103M87.8103 20.4533V20.4533ZM87.8103 20.4533H88.1978M88.1978 20.4533V20.4533ZM88.1978 20.4533H88.5853M88.5853 20.4533V20.4533ZM88.5853 20.4533V20.1206M88.5853 20.1206V20.1206ZM88.5853 20.1206H88.9729M88.9729 20.1206V20.1206ZM88.9729 20.1206V20.4533M88.9729 20.4533V20.4533ZM88.9729 20.4533V20.786H89.3604M89.3604 20.786V20.786ZM89.3604 20.786L89.7479 20.4533M89.7479 20.4533V20.4533ZM89.7479 20.4533V20.1206M89.7479 20.1206V20.1206ZM89.7479 20.1206H89.3604M89.3604 20.1206V20.1206ZM89.3604 20.1206V19.7879M89.3604 19.7879V19.7879ZM89.3604 19.7879V19.4552M89.3604 19.4552V19.4552ZM89.3604 19.4552H89.7479M89.7479 19.4552V19.4552ZM89.7479 19.4552V19.1225M89.7479 19.1225V19.1225ZM89.7479 19.1225H89.3604M89.3604 19.1225V19.1225ZM89.3604 19.1225V18.7897M89.3604 18.7897V18.7897ZM89.3604 18.7897H88.9729V18.457M88.9729 18.457V18.457ZM88.9729 18.457H88.5853M88.5853 18.457V18.457ZM88.5853 18.457H88.1978M88.1978 18.457V18.457ZM88.1978 18.457V18.1243M88.1978 18.1243V18.1243ZM88.1978 18.1243V17.7916M88.1978 17.7916V17.7916ZM88.1978 17.7916L87.8103 17.4589M87.8103 17.4589V17.4589ZM87.8103 17.4589V17.1261M87.8103 17.1261V17.1261ZM87.8103 17.1261V16.7934M87.8103 16.7934V16.7934ZM87.8103 16.7934V16.4607M87.8103 16.4607V16.4607ZM87.8103 16.4607H87.4228M87.4228 16.4607V16.4607ZM87.4228 16.4607H87.0352M87.0352 16.4607V16.4607ZM87.0352 16.4607V16.128M87.0352 16.128V16.128ZM87.0352 16.128H86.6477M86.6477 16.128V16.128ZM86.6477 16.128L87.0352 15.7953M87.0352 15.7953V15.7953ZM87.0352 15.7953V15.4626M87.0352 15.4626V15.4626ZM87.0352 15.4626V15.1298M87.0352 15.1298V15.1298ZM87.0352 15.1298H87.4228M87.4228 15.1298V15.1298ZM87.4228 15.1298H87.8103M87.8103 15.1298V15.1298ZM87.8103 15.1298V15.4626M87.8103 15.4626V15.4626ZM87.8103 15.4626H88.1978M88.1978 15.4626V15.4626ZM88.1978 15.4626H88.5853V15.7953M88.5853 15.7953V15.7953ZM88.5853 15.7953H88.9729M88.9729 15.7953V15.7953ZM88.9729 15.7953H89.3604M89.3604 15.7953V15.7953ZM89.3604 15.7953H89.7479M89.7479 15.7953V15.7953ZM89.7479 15.7953L90.1354 16.128M90.1354 16.128V16.128ZM90.1354 16.128H90.523M90.523 16.128V16.128ZM90.523 16.128H90.9105M90.9105 16.128V16.128ZM90.9105 16.128H91.298V16.4607M91.298 16.4607V16.4607ZM91.298 16.4607H91.6855M91.6855 16.4607V16.4607ZM91.6855 16.4607V16.7934H92.0731M92.0731 16.7934V16.7934ZM92.0731 16.7934H92.4606V16.4607M92.4606 16.4607V16.4607ZM92.4606 16.4607H92.8481V16.7934M92.8481 16.7934V16.7934ZM92.8481 16.7934V17.1261M92.8481 17.1261V17.1261ZM92.8481 17.1261L93.2356 17.4589M93.2356 17.4589V17.4589ZM93.2356 17.4589V17.7916M93.2356 17.7916V17.7916ZM93.2356 17.7916H93.6232M93.6232 17.7916V17.7916ZM93.6232 17.7916V18.1243H94.0107M94.0107 18.1243V18.1243ZM94.0107 18.1243H94.3982M94.3982 18.1243V18.1243ZM94.3982 18.1243V18.457M94.3982 18.1243H94.7857M94.3982 18.457V18.457ZM94.7857 18.1243V18.1243ZM94.7857 18.1243H95.1733M95.1733 18.1243V18.1243ZM95.1733 18.1243H95.5608M95.1733 18.1243V18.457H95.5608M95.5608 18.1243V18.1243ZM95.5608 18.457V18.457ZM95.5608 18.457V18.7897M95.5608 18.7897V18.7897ZM95.5608 18.7897V19.1225M95.5608 19.1225V19.1225ZM95.5608 19.1225H95.1733M95.5608 19.1225V19.4552M95.5608 19.4552V19.4552ZM95.5608 19.4552H95.9483M95.5608 19.4552L95.9483 19.1225M95.9483 19.1225V19.1225ZM95.9483 19.1225H96.3358M96.3358 19.1225V19.1225ZM96.3358 19.1225L96.7234 19.4552M96.7234 19.4552V19.1225M96.7234 19.4552V19.4552ZM96.7234 19.4552H97.1109M97.1109 19.4552V19.4552ZM97.1109 19.4552V19.7879M97.1109 19.7879H96.7234M97.1109 19.7879V19.7879ZM97.1109 19.7879H97.4984M97.4984 19.7879V19.7879ZM97.4984 19.7879V19.4552M97.4984 19.4552V19.4552ZM97.4984 19.4552H97.8859M97.8859 19.4552V19.4552ZM97.8859 19.4552H98.2735M98.2735 19.4552V19.4552ZM98.2735 19.4552H98.661M98.661 19.4552V19.4552ZM98.661 19.4552H99.0485M99.0485 19.4552V19.4552ZM99.0485 19.4552H99.436M99.436 19.4552V19.4552ZM99.436 19.4552L99.8236 19.1225M99.8236 19.1225V19.1225ZM99.8236 19.1225V19.4552M99.8236 19.4552V19.4552ZM99.8236 19.4552H100.211M100.211 19.4552V19.4552ZM100.211 19.4552H100.599M100.599 19.4552V19.4552ZM100.599 19.4552L100.986 19.1225M100.986 19.1225V19.1225ZM100.986 19.1225H101.374V18.7897M101.374 18.7897V18.7897ZM101.374 18.7897H101.761L101.374 18.457H101.761M101.761 18.457V18.457ZM101.761 18.457V18.1243M101.761 18.1243V18.1243ZM101.761 18.1243H101.374M101.761 18.1243H102.149M102.149 18.1243V18.1243ZM102.149 18.1243V18.457M102.149 18.457V18.457ZM102.149 18.457V18.7897M102.149 18.7897V18.7897ZM102.149 18.7897H102.536M102.536 18.7897V18.7897ZM102.536 18.7897V19.1225M102.536 19.1225V19.1225ZM102.536 19.1225L102.149 19.4552M102.149 19.4552V19.4552ZM102.149 19.4552V19.7879M102.149 19.7879V19.7879ZM102.149 19.7879H102.536M102.536 19.7879V19.7879ZM102.536 19.7879L102.924 20.1206V20.4533M102.924 20.4533V20.4533ZM102.924 20.4533V20.786M102.924 20.786V20.786ZM102.924 20.786V21.1188M102.924 21.1188V21.1188ZM102.924 21.1188H102.536M102.536 21.1188V21.1188ZM102.536 21.1188H102.149M102.149 21.1188V21.1188ZM102.149 21.1188V21.4515M102.149 21.4515V21.4515ZM102.149 21.4515H101.761M101.761 21.4515V21.4515ZM101.761 21.4515H101.374M101.374 21.4515V21.4515ZM101.374 21.4515V21.7842M101.374 21.7842V21.7842ZM101.374 21.7842H100.986M100.986 21.7842V21.7842ZM100.986 21.7842H100.599M100.599 21.7842V21.7842ZM100.599 21.7842H100.211M100.211 21.7842V21.7842ZM100.211 21.7842H99.8236V22.1169M99.8236 22.1169V22.1169ZM99.8236 22.1169H100.211V22.4496M100.211 22.4496V22.4496ZM100.211 22.4496V22.7824M100.211 22.7824V22.7824ZM100.211 22.7824H100.599M100.599 22.7824V22.7824ZM100.599 22.7824H100.986L100.599 23.1151H100.986M100.986 23.1151V23.1151ZM100.986 23.1151V23.4478M100.986 23.4478V23.4478ZM100.986 23.4478H101.374M101.374 23.4478V23.4478ZM101.374 23.4478V23.1151H101.761M101.761 23.1151V23.1151ZM101.761 23.1151L102.149 23.4478M102.149 23.4478V23.4478ZM102.149 23.4478H102.536L102.149 23.7805M102.149 23.7805V23.7805ZM102.149 23.7805H102.536M102.536 23.7805V23.7805ZM102.536 23.7805V24.1132M102.536 24.1132V24.1132ZM102.536 24.1132H102.924M102.924 24.1132V24.1132ZM102.924 24.1132V24.4459M102.924 24.4459V24.4459ZM102.924 24.4459V24.7787M102.924 24.7787V24.7787ZM102.924 24.7787V25.1114M102.924 25.1114V25.1114ZM102.924 25.1114H103.311M103.311 25.1114V25.1114ZM103.311 25.1114L102.924 25.4441M102.924 25.4441V25.4441ZM102.924 25.4441H103.311M103.311 25.4441V25.4441ZM103.311 25.4441H103.699M103.699 25.4441V25.4441ZM103.699 25.4441V25.7768H104.086M104.086 25.7768V25.7768ZM104.086 25.7768V26.1095M104.086 26.1095V26.1095ZM104.086 26.1095H104.474M104.474 26.1095V26.1095ZM104.474 26.1095V26.4423M104.474 26.4423V26.4423ZM104.474 26.4423H104.861M104.861 26.4423V26.4423ZM104.861 26.4423H105.249M105.249 26.4423V26.4423ZM105.249 26.4423H105.636M105.636 26.4423V26.4423ZM105.636 26.4423L106.024 26.1095M106.024 26.1095V26.1095ZM106.024 26.1095L106.412 25.7768M106.412 25.7768V25.7768ZM106.412 25.7768H106.799M106.799 25.7768V25.7768ZM106.799 25.7768L107.187 25.4441M107.187 25.4441V25.4441ZM107.187 25.4441V25.7768M107.187 25.7768V25.7768ZM107.187 25.7768H107.574M107.574 25.7768V25.7768ZM107.574 25.7768H107.962M107.962 25.7768V25.7768ZM107.962 25.7768V25.4441M107.962 25.4441V25.4441ZM107.962 25.4441V25.1114M107.962 25.1114V25.1114ZM107.962 25.1114H107.574M107.574 25.1114V25.1114ZM107.574 25.1114H107.187M107.187 25.1114V25.1114ZM107.187 25.1114V24.7787M107.187 24.7787V24.7787ZM107.187 24.7787L107.574 24.4459M107.574 24.4459V24.4459ZM107.574 24.4459H107.962M107.962 24.4459V24.4459ZM107.962 24.4459H108.349V24.7787M108.349 24.7787V24.7787ZM108.349 24.7787H108.737M108.737 24.7787V24.7787ZM108.737 24.7787V25.1114M108.737 25.1114V25.1114ZM108.737 25.1114V25.4441M108.737 25.4441H109.124M108.737 25.4441V25.4441ZM108.737 25.4441V25.7768M109.124 25.4441V25.4441ZM108.737 25.7768V25.7768ZM108.737 25.7768H109.124M109.124 25.7768V25.7768ZM109.124 25.7768V26.1095M109.124 26.1095V26.1095ZM109.124 26.1095H109.512M109.512 26.1095V26.1095ZM109.512 26.1095H109.899M109.899 26.1095V26.1095ZM109.899 26.1095V26.4423M109.899 26.4423V26.4423ZM109.899 26.4423L110.287 26.1095M110.287 26.1095V26.1095ZM110.287 26.1095V25.7768M110.287 25.7768V25.7768ZM110.287 25.7768H110.674V26.1095M110.674 26.1095V26.1095ZM110.674 26.1095H111.062M111.062 26.1095V26.1095ZM111.062 26.1095V26.4423M111.062 26.4423V26.4423ZM111.062 26.4423V26.775M111.062 26.775V26.775ZM111.062 26.775H111.449M111.449 26.775V26.775ZM111.449 26.775H111.837M111.837 26.775V26.775ZM111.837 26.775H112.224M112.224 26.775V26.775ZM112.224 26.775V27.1077M112.224 27.1077V27.1077ZM112.224 27.1077V27.4404M112.224 27.4404V27.4404ZM112.224 27.4404V27.7731H112.612M112.612 27.7731V27.7731ZM112.612 27.7731H112.999M112.999 27.7731V27.7731ZM112.999 27.7731V27.4404M112.999 27.7731H113.387M112.999 27.4404V27.4404ZM112.999 27.4404H113.387M112.999 27.4404V27.1077M113.387 27.7731V27.7731ZM113.387 27.7731V27.4404M113.387 27.4404V27.4404ZM113.387 27.4404V27.1077M113.387 27.4404H113.774M112.999 27.1077V27.1077ZM112.999 27.1077H113.387M113.387 27.1077V27.1077ZM113.774 27.4404V27.4404ZM113.774 27.4404H114.162M114.162 27.4404V27.4404ZM114.162 27.4404H114.55M114.55 27.4404V27.4404ZM114.55 27.4404H114.937V27.7731M114.937 27.7731V27.7731ZM114.937 27.7731H115.325M115.325 27.7731V27.7731ZM115.325 27.7731H115.712V28.1059M115.712 28.1059V28.1059ZM115.712 28.1059H116.1M116.1 28.1059V28.1059ZM116.1 28.1059H116.487M116.487 28.1059V28.1059ZM116.487 28.1059V28.4386M116.487 28.4386V28.4386ZM116.487 28.4386H116.875M116.875 28.4386V28.4386ZM116.875 28.4386V28.1059M116.875 28.1059V28.1059ZM116.875 28.1059V27.7731M116.875 27.7731V27.7731ZM116.875 27.7731H117.262M117.262 27.7731V27.7731ZM117.262 27.7731H117.65V28.1059M117.65 28.1059V28.1059ZM117.65 28.1059H117.262M117.65 28.1059V28.4386M117.262 28.1059V28.1059ZM117.65 28.4386V28.4386ZM117.65 28.4386H117.262M117.262 28.4386V28.4386ZM117.262 28.4386V28.7713M117.262 28.7713V28.7713ZM117.262 28.7713V29.104M117.262 29.104V29.104ZM117.262 29.104H117.65M117.65 29.104V29.104ZM117.65 29.104H118.037M118.037 29.104V29.104ZM118.037 29.104V29.4367M118.037 29.4367V29.4367ZM118.037 29.4367H117.65M117.65 29.4367V29.4367ZM117.65 29.4367V29.7694M117.65 29.7694V29.7694ZM117.65 29.7694H117.262M117.262 29.7694V29.7694ZM117.262 29.7694V30.1022M117.262 30.1022V30.1022ZM117.262 30.1022H117.65M117.65 30.1022V30.1022ZM117.65 30.1022V30.4349M117.65 30.4349V30.4349ZM117.65 30.4349V30.7676M117.65 30.7676V30.7676ZM117.65 30.7676H118.037V31.1003M118.037 31.1003V31.1003ZM118.037 31.1003V31.433M118.037 31.433V31.433ZM118.037 31.433V31.7657M118.037 31.7657V31.7657ZM118.037 31.7657H118.425M118.425 31.7657V31.7657ZM118.425 31.7657V32.0985M118.425 32.0985V32.0985ZM118.425 32.0985V32.4312M118.425 32.4312V32.4312ZM118.425 32.4312V32.7639M118.425 32.7639V32.7639ZM118.425 32.7639H118.812M118.812 32.7639V32.7639ZM118.812 32.7639H119.2M119.2 32.7639V32.7639ZM119.2 32.7639V33.0966M119.2 33.0966V33.0966ZM119.2 33.0966H119.587V32.7639M119.587 32.7639V32.7639ZM119.587 32.7639L119.975 33.0966M119.975 33.0966V33.0966ZM119.975 33.0966V33.4293M119.975 33.4293V33.4293ZM119.975 33.4293H120.362M120.362 33.4293V33.4293ZM120.362 33.4293V33.7621M120.362 33.7621V33.7621ZM120.362 33.7621H120.75M120.75 33.7621V33.7621ZM120.75 33.7621V33.4293M120.75 33.4293V33.4293ZM120.75 33.4293H121.137M121.137 33.4293V33.4293ZM121.137 33.4293H121.525M121.525 33.4293V33.4293ZM121.525 33.4293V33.7621M121.525 33.7621V33.7621ZM121.525 33.7621V34.0948M121.525 34.0948V34.0948ZM121.525 34.0948V34.4275M121.525 34.4275V34.4275ZM121.525 34.4275H121.913M121.913 34.4275V34.4275ZM121.913 34.4275V34.7602M121.913 34.7602V34.7602ZM121.913 34.7602V35.0929M121.913 35.0929V35.0929ZM121.913 35.0929V35.4257M121.913 35.4257V35.4257ZM121.913 35.4257H122.3V35.7584M122.3 35.7584V35.7584ZM122.3 35.7584H121.913M121.913 35.7584V35.7584ZM121.913 35.7584L122.3 36.0911M122.3 36.0911V36.0911ZM122.3 36.0911H121.913M122.3 36.0911V36.4238M121.913 36.0911V36.0911ZM122.3 36.4238V36.4238ZM122.3 36.4238L122.688 36.7565M122.688 36.7565V36.7565ZM122.688 36.7565V37.0892H122.3M122.3 37.0892V37.0892ZM122.3 37.0892V37.422M122.3 37.422V37.422ZM122.3 37.422H121.913M121.913 37.422V37.422ZM121.913 37.422H121.525M121.525 37.422V37.422ZM121.525 37.422V37.7547M121.525 37.7547V37.7547ZM121.525 37.7547H121.137M121.137 37.7547V37.7547ZM121.137 37.7547H120.75V38.0874M120.75 38.0874V38.0874ZM120.75 38.0874H120.362M120.362 38.0874V38.0874ZM120.362 38.0874L119.975 37.7547M119.975 37.7547V37.7547ZM119.975 37.7547H119.587M119.587 37.7547V37.7547ZM119.587 37.7547H119.2M119.2 37.7547V37.7547ZM119.2 37.7547H118.812M118.812 37.7547V37.7547ZM118.812 37.7547H118.425M118.425 37.7547V37.7547ZM118.425 37.7547V38.0874H118.037V37.7547M118.037 37.7547V37.7547ZM118.037 37.7547V37.422H117.65V37.7547M117.65 37.7547V37.7547ZM117.65 37.7547H117.262M117.262 37.7547V37.7547ZM117.262 37.7547H116.875M116.875 37.7547V37.7547ZM116.875 37.7547V38.0874M116.875 38.0874V38.0874ZM116.875 38.0874V38.4201M116.875 38.4201V38.4201ZM116.875 38.4201V38.7528M116.875 38.7528V38.7528ZM116.875 38.7528H116.487M116.487 38.7528V38.7528ZM116.487 38.7528V39.0856M116.487 39.0856V39.0856ZM116.487 39.0856H116.1M116.1 39.0856V39.0856ZM116.1 39.0856V39.4183M116.1 39.4183V39.4183ZM116.1 39.4183H115.712V39.751M115.712 39.751V39.751ZM115.712 39.751V40.0837M115.712 40.0837V40.0837ZM115.712 40.0837H115.325M115.325 40.0837V40.0837ZM115.325 40.0837V40.4164M115.325 40.4164V40.4164ZM115.325 40.4164H114.937M114.937 40.4164V40.4164ZM114.937 40.4164H114.55M114.55 40.4164V40.0837M114.55 40.4164V40.4164ZM114.55 40.4164V40.7491M114.55 40.0837V40.0837ZM114.55 40.7491V40.7491ZM114.55 40.7491V41.0819M114.55 41.0819V41.0819ZM114.55 41.0819H114.162M114.162 41.0819V41.0819ZM114.162 41.0819V41.4146M114.162 41.4146H114.55M114.162 41.4146V41.4146ZM114.162 41.4146V41.7473H113.774V42.08M114.55 41.4146V41.4146ZM113.774 42.08V42.08ZM113.774 42.08H113.387M113.387 42.08V42.08ZM113.387 42.08H112.999M112.999 42.08V42.08ZM112.999 42.08L112.612 42.4127M112.612 42.4127V42.4127ZM112.612 42.4127H112.224M112.224 42.4127V42.4127ZM112.224 42.4127H111.837V42.7455M111.837 42.7455V42.7455ZM111.837 42.7455H111.449M111.449 42.7455V42.7455ZM111.449 42.7455H111.062M111.062 42.7455V42.7455ZM111.062 42.7455H110.674M110.674 42.7455V42.7455ZM110.674 42.7455H110.287L110.674 43.0782H110.287M110.287 43.0782V43.0782ZM110.287 43.0782V43.4109M110.287 43.4109V43.4109ZM110.287 43.4109H109.899M109.899 43.4109V43.4109ZM109.899 43.4109V43.7436M109.899 43.7436V43.7436ZM109.899 43.7436V44.0763M109.899 44.0763V44.0763ZM109.899 44.0763V44.409M109.899 44.409V44.409ZM109.899 44.409V44.7418M109.899 44.7418V44.7418ZM109.899 44.7418V45.0745H109.512M109.512 45.0745V45.0745ZM109.512 45.0745V45.4072M109.512 45.4072V45.4072ZM109.512 45.4072V45.7399M109.512 45.7399V45.7399ZM109.512 45.7399V46.0726M109.512 46.0726V46.0726ZM109.512 46.0726H109.124M109.124 46.0726V46.0726ZM109.124 46.0726V46.4054M109.124 46.4054V46.4054ZM109.124 46.4054V46.7381M109.124 46.7381V46.7381ZM109.124 46.7381H109.512M109.124 46.7381V47.0708M109.512 46.7381V46.7381ZM109.124 47.0708V47.0708ZM109.124 47.0708V47.4035M109.124 47.4035V47.4035ZM109.124 47.4035V47.7362M109.124 47.7362V47.7362ZM109.124 47.7362L108.737 48.0689M108.737 48.0689V48.0689ZM108.737 48.0689V48.4017M108.737 48.4017V48.4017ZM108.737 48.4017V48.7344M108.737 48.7344V48.7344ZM108.737 48.7344H108.349M108.349 48.7344V48.7344ZM108.349 48.7344H107.962M107.962 48.7344V48.7344ZM107.962 48.7344L108.349 49.0671M107.962 48.7344V49.0671M107.962 49.0671V49.0671ZM107.962 49.0671H107.574M107.574 49.0671V49.0671ZM107.574 49.0671H107.187M107.187 49.0671V49.0671ZM107.187 49.0671H106.799M106.799 49.0671V49.0671ZM106.799 49.0671H106.412M106.412 49.0671V49.0671ZM106.412 49.0671H106.024M106.024 49.0671V49.0671ZM106.024 49.0671H105.636M105.636 49.0671V49.0671ZM105.636 49.0671V49.3998M105.636 49.3998V49.3998ZM105.636 49.3998V49.7325M105.636 49.7325V49.7325ZM105.636 49.7325V50.0653H105.249M105.249 50.0653V50.0653ZM105.249 50.0653V50.398M105.249 50.398V50.398ZM105.249 50.398V50.7307M105.249 50.7307V50.7307ZM105.249 50.7307V51.0634M105.249 51.0634V51.0634ZM105.249 51.0634V51.3961M105.249 51.3961V51.3961ZM105.249 51.3961H104.861M104.861 51.3961V51.3961ZM104.861 51.3961H104.474M104.474 51.3961V51.3961ZM104.474 51.3961H104.086M104.086 51.3961V51.3961ZM104.086 51.3961H103.699M103.699 51.3961V51.3961ZM103.699 51.3961H103.311M103.311 51.3961V51.3961ZM103.311 51.3961V51.7288M103.311 51.7288V51.7288ZM103.311 51.7288H102.924M102.924 51.7288V51.7288ZM102.924 51.7288V52.0616M102.924 52.0616V52.0616ZM102.924 52.0616H102.536M102.536 52.0616V52.0616ZM102.536 52.0616V52.3943M102.536 52.3943V52.3943ZM102.536 52.3943H102.149M102.149 52.3943V52.3943ZM102.149 52.3943V52.727M102.149 52.727V52.727ZM102.149 52.727H101.761M101.761 52.727V52.727ZM101.761 52.727H101.374V53.0597M101.374 53.0597V53.0597ZM101.374 53.0597H100.986M100.986 53.0597V53.0597ZM100.986 53.0597H100.599M100.599 53.0597V53.0597ZM100.599 53.0597H100.211V53.3924M100.211 53.3924V53.3924ZM100.211 53.3924H99.8236V53.7252M99.8236 53.7252V53.7252ZM99.8236 53.7252H99.436M99.436 53.7252V53.7252ZM99.436 53.7252H99.0485M99.0485 53.7252V53.7252ZM99.0485 53.7252V53.3924M99.0485 53.7252V54.0579M99.0485 53.7252L98.661 54.0579M98.661 54.0579V54.0579ZM98.661 54.0579V53.7252M98.661 53.7252V53.7252ZM98.661 53.7252H98.2735M98.2735 53.7252V53.7252ZM98.2735 53.7252L97.8859 53.3924M97.8859 53.3924V53.3924ZM97.8859 53.3924H97.4984M97.4984 53.3924V53.3924ZM97.4984 53.3924V53.0597M97.4984 53.3924H97.1109M97.1109 53.3924V53.3924ZM97.1109 53.3924V53.7252M97.1109 53.7252V53.7252ZM97.1109 53.7252H96.7234M96.7234 53.7252V53.7252ZM96.7234 53.7252H96.3358M96.3358 53.7252V53.7252ZM96.3358 53.7252V54.0579M96.3358 54.0579V54.0579ZM96.3358 54.0579L95.9483 53.7252M95.9483 53.7252V53.7252ZM95.9483 53.7252V54.0579M95.9483 54.0579V54.0579ZM95.9483 54.0579H95.5608M95.5608 54.0579V54.0579ZM95.5608 54.0579V53.7252M95.5608 53.7252V53.7252ZM95.5608 53.7252H95.1733M95.1733 53.7252V53.7252ZM95.1733 53.7252V53.3924M95.1733 53.3924V53.3924ZM95.1733 53.3924L94.7857 53.0597M94.7857 53.0597V53.0597ZM94.7857 53.0597V53.3924M94.7857 53.0597H94.3982M94.7857 53.3924V53.3924ZM94.3982 53.0597V53.0597ZM94.3982 53.0597V52.727H94.0107M94.0107 52.727V52.727ZM94.0107 52.727H93.6232M93.6232 52.727V52.727ZM93.6232 52.727H93.2356M93.2356 52.727V52.727ZM93.2356 52.727L92.8481 52.3943M92.8481 52.3943V52.3943ZM92.8481 52.3943V52.727H92.4606M92.4606 52.727V52.727ZM92.4606 52.727V53.0597M92.4606 53.0597V53.0597ZM92.4606 53.0597H92.0731M92.0731 53.0597V53.0597ZM92.0731 53.0597V53.3924M92.0731 53.3924V53.3924ZM92.0731 53.3924H91.6855M91.6855 53.3924V53.3924ZM91.6855 53.3924H91.298M91.298 53.3924V53.3924ZM91.298 53.3924V53.7252M91.298 53.7252V53.7252ZM91.298 53.7252V54.0579M91.298 54.0579V54.0579ZM91.298 54.0579H90.9105V54.3906M90.9105 54.3906V54.3906ZM90.9105 54.3906V54.7233M90.9105 54.7233V54.7233ZM90.9105 54.7233H90.523M90.523 54.7233V54.7233ZM90.523 54.7233V55.056H90.1354M90.1354 55.056V55.056ZM90.1354 55.056V55.3887M90.1354 55.3887V55.3887ZM90.1354 55.3887H89.7479M89.7479 55.3887V55.3887ZM89.7479 55.3887V55.7215M89.7479 55.7215V55.7215ZM89.7479 55.7215L89.3604 56.0542M89.3604 56.0542V56.0542ZM89.3604 56.0542V56.3869M89.3604 56.3869V56.3869ZM89.3604 56.3869V56.7196M89.3604 56.7196V56.7196ZM89.3604 56.7196H88.9729V57.0523M88.9729 57.0523V57.0523ZM88.9729 57.0523V57.3851H88.5853M88.5853 57.3851V57.3851ZM88.5853 57.3851V57.7178M88.5853 57.7178V57.7178ZM88.5853 57.7178V58.0505M88.5853 58.0505V58.0505ZM88.5853 58.0505V58.3832M88.5853 58.3832V58.3832ZM88.5853 58.3832H88.1978M88.1978 58.3832V58.3832ZM88.1978 58.3832V58.7159M88.1978 58.3832H87.8103M87.8103 58.3832V58.3832ZM87.8103 58.3832V58.0505M87.8103 58.0505V58.0505ZM87.8103 58.0505V57.7178M87.8103 57.7178V57.7178ZM87.8103 57.7178V57.3851M87.8103 57.3851V57.3851ZM87.8103 57.3851V57.0523M87.8103 57.0523V57.0523ZM87.8103 57.0523V56.7196M87.8103 56.7196V56.7196ZM87.8103 56.7196V56.3869M87.8103 56.3869V56.3869ZM87.8103 56.3869H87.4228M87.4228 56.3869V56.3869ZM87.4228 56.3869V56.0542M87.4228 56.3869H87.0352M87.4228 56.0542V56.0542ZM87.0352 56.3869V56.0542M87.0352 56.3869V56.3869ZM87.0352 56.3869H86.6477M87.0352 56.0542V56.0542ZM86.6477 56.3869V56.3869ZM86.6477 56.3869H86.2602M86.2602 56.3869V56.3869ZM86.2602 56.3869H85.8727M85.8727 56.3869V56.3869ZM85.8727 56.3869H85.4851M85.4851 56.3869V56.3869ZM85.4851 56.3869H85.0976M85.0976 56.3869V56.3869ZM85.0976 56.3869V56.0542M85.0976 56.0542V56.0542ZM85.0976 56.0542H84.7101M84.7101 56.0542V56.0542ZM84.7101 56.0542V55.7215M84.7101 56.0542H84.3226L84.7101 55.7215M84.7101 55.7215V55.7215ZM84.7101 55.7215H84.3226M84.3226 55.7215V55.7215ZM84.3226 55.7215H83.935M83.935 55.7215V55.7215ZM83.935 55.7215L83.5475 56.0542M83.5475 56.0542V56.0542ZM83.5475 56.0542V55.7215M83.5475 55.7215V55.7215ZM83.5475 55.7215V55.3887M83.5475 55.3887V55.3887ZM83.5475 55.3887V55.056M83.5475 55.056V55.056ZM83.5475 55.056H83.16V54.7233M83.16 54.7233V54.7233ZM83.16 54.7233H82.7725M82.7725 54.7233V54.7233ZM82.7725 54.7233H82.3849M82.3849 54.7233V54.7233ZM82.3849 54.7233H81.9974M81.9974 54.7233V54.7233ZM81.9974 54.7233V54.3906M81.9974 54.3906V54.3906ZM81.9974 54.3906H81.6099M81.6099 54.3906V54.3906ZM81.6099 54.3906H81.2224M81.2224 54.3906V54.3906ZM81.2224 54.3906V54.0579M81.2224 54.0579V54.0579ZM81.2224 54.0579H80.8348M80.8348 54.0579V54.0579ZM80.8348 54.0579V54.3906M80.8348 54.3906V54.3906ZM80.8348 54.3906H80.4473M80.4473 54.3906V54.0579M80.4473 54.3906V54.3906ZM80.4473 54.3906H80.0598M80.0598 54.3906V54.3906ZM80.0598 54.3906L79.6723 54.0579M79.6723 54.0579V54.0579ZM79.6723 54.0579L79.2847 54.3906M79.2847 54.3906V54.3906ZM79.2847 54.3906V54.7233M79.2847 54.7233V54.7233ZM79.2847 54.7233V55.056M79.2847 55.056V55.056ZM79.2847 55.056H78.8972M78.8972 55.056V55.056ZM78.8972 55.056V55.3887M78.8972 55.3887V55.3887ZM78.8972 55.3887L78.5097 55.7215M78.5097 55.7215V55.7215ZM78.5097 55.7215H78.1221M78.1221 55.7215V55.7215ZM78.1221 55.7215V56.0542M78.1221 56.0542V56.0542ZM78.1221 56.0542H77.7346M77.7346 56.0542V56.0542ZM77.7346 56.0542V55.7215M77.7346 55.7215V55.7215ZM77.7346 55.7215H77.3471M77.3471 55.7215V55.7215ZM77.3471 55.7215V55.3887M77.3471 55.7215H76.9596M76.9596 55.7215V55.7215ZM76.9596 55.7215H76.572M76.572 55.7215V55.7215ZM76.572 55.7215H76.1845M76.1845 55.7215V55.7215ZM76.1845 55.7215H75.797M75.797 55.7215V55.7215ZM75.797 55.7215H75.4095M75.4095 55.7215V55.7215ZM75.4095 55.7215H75.0219H74.6344M74.6344 55.7215V55.7215ZM74.6344 55.7215L74.2469 55.3887M74.2469 55.3887V55.3887ZM74.2469 55.3887V55.7215M74.2469 55.7215V55.7215ZM74.2469 55.7215H73.8594M73.8594 55.7215V55.7215ZM73.8594 55.7215L73.4718 55.3887M73.4718 55.3887V55.3887ZM73.4718 55.3887L73.0843 55.7215M73.0843 55.7215V55.7215ZM73.0843 55.7215V55.3887M73.0843 55.3887V55.3887ZM73.0843 55.3887H72.6968M72.6968 55.3887V55.3887ZM72.6968 55.3887L72.3093 55.056M72.3093 55.056V55.056ZM72.3093 55.056H71.9217M71.9217 55.056V55.056ZM71.9217 55.056H71.5342M71.5342 55.056V55.056ZM71.5342 55.056V54.7233M71.5342 54.7233V54.7233ZM71.5342 54.7233H71.1467M71.1467 54.7233V54.7233ZM71.1467 54.7233V54.3906H70.7592M70.7592 54.3906V54.3906ZM70.7592 54.3906H70.3716V54.0579M70.3716 54.0579V54.0579ZM70.3716 54.0579V53.7252M70.3716 53.7252H70.7592M70.3716 53.7252V53.7252ZM70.3716 53.7252H69.9841M70.7592 53.7252V53.7252ZM69.9841 53.7252V53.7252ZM69.9841 53.7252V53.3924M69.9841 53.3924V53.3924ZM69.9841 53.3924H69.5966M69.5966 53.3924V53.3924ZM69.5966 53.3924H69.2091M69.5966 53.3924V53.0597M69.2091 53.3924V53.3924ZM69.2091 53.3924L69.5966 53.0597M69.2091 53.3924V53.0597M69.5966 53.0597V53.0597ZM69.2091 53.0597V53.0597ZM69.2091 53.0597V52.727M69.2091 53.0597H68.8215M69.2091 52.727V52.727ZM68.8215 53.0597V53.0597ZM68.8215 53.0597H68.434V52.727M68.434 52.727V52.727ZM68.434 52.727H68.8215M68.434 52.727V52.3943M68.434 52.727H68.0465M68.8215 52.727V52.727ZM68.434 52.3943V52.3943ZM68.0465 52.727V52.727ZM68.0465 52.727H67.659M67.659 52.727V52.727ZM67.659 52.727V52.3943M67.659 52.3943V52.3943ZM67.659 52.3943H67.2714M67.2714 52.3943V52.3943ZM67.2714 52.3943V52.727M67.2714 52.727V52.727ZM67.2714 52.727V53.0597H66.8839M66.8839 53.0597V53.0597ZM66.8839 53.0597H66.4964M66.4964 53.0597V53.0597ZM66.4964 53.0597H66.1089M66.1089 53.0597V52.727M66.1089 53.0597H65.7213M66.1089 52.727V52.727ZM65.7213 53.0597V53.0597ZM65.7213 53.0597V52.727M65.7213 52.727V52.727ZM65.7213 52.727H65.3338M65.3338 52.727V52.727ZM65.3338 52.727V52.3943M65.3338 52.3943V52.3943ZM65.3338 52.3943H64.9463M64.9463 52.3943V52.3943ZM64.9463 52.3943H64.5587V52.0616M64.5587 52.0616V52.0616ZM64.5587 52.0616H64.1712M64.1712 52.0616V52.0616ZM64.1712 52.0616H63.7837M63.7837 52.0616V52.0616ZM63.7837 52.0616L63.3962 51.7288M63.3962 51.7288V51.7288ZM63.3962 51.7288H63.0086M63.0086 51.7288V51.7288ZM63.0086 51.7288H62.6211M62.6211 51.7288V51.7288ZM62.6211 51.7288V51.3961M62.6211 51.3961V51.3961ZM62.6211 51.3961V51.0634H62.2336M62.2336 51.0634V51.0634ZM62.2336 51.0634H61.8461M61.8461 51.0634V51.0634ZM61.8461 51.0634V50.7307M61.8461 50.7307V50.7307ZM61.8461 50.7307H61.4585M61.4585 50.7307V50.7307ZM61.4585 50.7307H61.071M61.071 50.7307V50.7307ZM61.071 50.7307H60.6835M60.6835 50.7307V50.7307ZM60.6835 50.7307V50.398M60.6835 50.398V50.398ZM60.6835 50.398H60.296M60.296 50.398V50.398ZM60.296 50.398V50.0653M60.296 50.0653V50.0653ZM60.296 50.0653H59.9084M59.9084 50.0653V50.0653ZM59.9084 50.0653H59.5209M59.5209 50.0653V50.0653ZM59.5209 50.0653H59.1334M59.1334 50.0653V50.0653ZM59.1334 50.0653H58.7459M58.7459 50.0653V50.0653ZM58.7459 50.0653V49.7325M58.7459 49.7325V49.7325ZM58.7459 49.7325H58.3583M58.3583 49.7325V49.7325ZM58.3583 49.7325V50.0653M58.3583 50.0653V50.0653ZM58.3583 50.0653V50.398M58.3583 50.398V50.398ZM58.3583 50.398V50.7307M58.3583 50.7307V50.7307ZM58.3583 50.7307H57.9708M57.9708 50.7307V50.7307ZM57.9708 50.7307V50.398H57.5833M57.5833 50.398V50.7307H57.1958M57.5833 50.398V50.398ZM57.1958 50.7307V50.7307ZM57.1958 50.7307H56.8082M56.8082 50.7307V50.7307ZM56.8082 50.7307V51.0634M56.8082 50.7307H56.4207M56.8082 51.0634V51.0634ZM56.4207 50.7307V50.7307ZM56.4207 50.7307V51.0634M56.4207 50.7307H56.0332M56.4207 50.7307V50.398M56.4207 51.0634V51.0634ZM56.4207 50.398V50.398ZM56.4207 50.398V50.0653M56.4207 50.0653V50.0653ZM56.4207 50.0653H56.0332M56.4207 50.0653V49.7325M56.0332 50.0653V50.0653ZM56.4207 49.7325V49.7325ZM56.4207 49.7325H56.0332M56.0332 49.7325V49.7325ZM56.0332 49.7325H55.6457M55.6457 49.7325V49.7325ZM55.6457 49.7325H55.2581M55.2581 49.7325V49.7325ZM55.2581 49.7325H54.8706M54.8706 49.7325V49.7325ZM54.8706 49.7325H54.4831M54.4831 49.7325V49.7325ZM54.4831 49.7325V49.3998M54.4831 49.3998V49.3998ZM54.4831 49.3998H54.0956M54.0956 49.3998V49.3998ZM54.0956 49.3998L53.708 49.0671M53.708 49.0671V49.0671ZM53.708 49.0671V49.3998M53.708 49.3998V49.3998ZM53.708 49.3998H53.3205M53.3205 49.3998V49.3998ZM53.3205 49.3998V49.7325M53.3205 49.7325V49.7325ZM53.3205 49.7325V50.0653M53.3205 50.0653V50.0653ZM53.3205 50.0653H52.933M52.933 50.0653V50.0653ZM52.933 50.0653V50.398M52.933 50.398V50.398ZM52.933 50.398V50.7307M52.933 50.7307V50.7307ZM52.933 50.7307V51.0634M52.933 51.0634H53.3205M52.933 51.0634V51.3961H53.3205M53.3205 51.0634V51.0634ZM53.3205 51.3961V51.3961ZM53.3205 51.3961V51.7288M53.3205 51.7288V51.7288ZM53.3205 51.7288V52.0616M53.3205 52.0616V52.0616ZM53.3205 52.0616V52.3943H52.933V52.727M52.933 52.727V52.727ZM52.933 52.727V53.0597M52.933 53.0597V53.0597ZM52.933 53.0597H53.3205V53.3924H52.933M52.933 53.3924V53.3924ZM52.933 53.3924V53.7252M52.933 53.7252V53.7252ZM52.933 53.7252H52.5455V54.0579M52.5455 54.0579V54.0579ZM52.5455 54.0579V54.3906M52.5455 54.3906V54.3906ZM52.5455 54.3906V54.7233H52.933M52.933 54.7233V54.7233ZM52.933 54.7233V55.056M52.933 55.056V55.056ZM52.933 55.056H52.5455M52.5455 55.056V55.056ZM52.5455 55.056V55.3887M52.5455 55.056H52.1579M52.1579 55.056V55.056ZM52.1579 55.056H51.7704M51.7704 55.056V55.056ZM51.7704 55.056H51.3829M51.3829 55.056V55.056ZM51.3829 55.056V54.7233M51.3829 54.7233V54.7233ZM51.3829 54.7233H50.9954M50.9954 54.7233V54.7233ZM50.9954 54.7233H50.6078M50.6078 54.7233V54.7233ZM50.6078 54.7233H50.2203M50.2203 54.7233V54.7233ZM50.2203 54.7233H49.8328M49.8328 54.7233V54.7233ZM49.8328 54.7233V55.056M49.8328 55.056V55.056ZM49.8328 55.056H50.2203M50.2203 55.056V55.056ZM50.2203 55.056L49.8328 55.3887M49.8328 55.3887V55.3887ZM49.8328 55.3887V55.7215M49.8328 55.7215V55.7215ZM49.8328 55.7215V56.0542M49.8328 56.0542V56.0542ZM49.8328 56.0542H49.4453M49.4453 56.0542V56.0542ZM49.4453 56.0542V56.3869M49.4453 56.3869V56.3869ZM49.4453 56.3869H49.0577M49.0577 56.3869V56.3869ZM49.0577 56.3869L48.6702 56.7196M48.6702 56.7196V56.7196ZM48.6702 56.7196V57.0523M48.6702 57.0523V57.0523ZM48.6702 57.0523H48.2827V57.3851M48.2827 57.3851V57.3851ZM48.2827 57.3851V57.7178M48.2827 57.7178V57.7178ZM48.2827 57.7178V58.0505M48.2827 58.0505V58.0505ZM48.2827 58.0505V58.3832V59.0486M48.2827 59.0486V59.0486ZM48.2827 59.0486V59.3814M48.2827 59.3814V59.3814ZM48.2827 59.3814H47.8952M47.8952 59.3814V59.3814ZM47.8952 59.3814H47.5076M47.5076 59.3814V59.3814ZM47.5076 59.3814V59.0486H47.1201M47.1201 59.0486V59.0486ZM47.1201 59.0486V58.7159M47.1201 58.7159V58.7159ZM47.1201 58.7159H46.7326M46.7326 58.7159V58.7159ZM46.7326 58.7159V58.3832M46.7326 58.3832V58.3832ZM46.7326 58.3832H46.3451M46.3451 58.3832V58.3832ZM46.3451 58.3832H45.9575M45.9575 58.3832V58.3832ZM45.9575 58.3832V58.7159M45.9575 58.7159V58.7159ZM45.9575 58.7159H45.57M45.57 58.7159V58.7159ZM45.57 58.7159H45.1825M45.1825 58.7159V58.7159ZM45.1825 58.7159H44.7949M44.7949 58.7159V58.7159ZM44.7949 58.7159V58.3832M44.7949 58.3832V58.3832ZM44.7949 58.3832H44.4074M44.4074 58.3832V58.3832ZM44.4074 58.3832V58.0505M44.4074 58.0505V58.0505ZM44.4074 58.0505H44.0199M44.0199 58.0505V58.0505ZM44.0199 58.0505V57.7178M44.0199 57.7178V57.7178ZM44.0199 57.7178L43.6324 58.0505M43.6324 58.0505V58.0505ZM43.6324 58.0505V58.3832M43.6324 58.3832V58.3832ZM43.6324 58.3832V58.7159M43.6324 58.7159V58.7159ZM43.6324 58.7159L43.2448 59.0486M43.2448 59.0486V59.0486ZM43.2448 59.0486H42.8573M42.8573 59.0486V59.0486ZM42.8573 59.0486H42.4698M42.4698 59.0486V59.0486ZM42.4698 59.0486V59.3814M42.4698 59.3814V59.3814ZM42.4698 59.3814V59.7141M42.4698 59.7141V59.7141ZM42.4698 59.7141H42.0823M42.0823 59.7141V59.7141ZM42.0823 59.7141V59.3814M42.0823 59.7141H41.6947M42.0823 59.3814V59.3814ZM41.6947 59.7141V59.7141ZM41.6947 59.7141V60.0468M41.6947 60.0468V60.0468ZM41.6947 60.0468H41.3072M41.3072 60.0468V60.0468ZM41.3072 60.0468V59.7141M41.3072 59.7141V59.7141ZM41.3072 59.7141H40.9197M40.9197 59.7141V59.7141ZM40.9197 59.7141H40.5322M40.5322 59.7141V59.7141ZM40.5322 59.7141V59.3814M40.5322 59.3814V59.3814ZM40.5322 59.3814H40.1446M40.1446 59.3814V59.3814ZM40.1446 59.3814H39.7571M39.7571 59.3814V59.3814ZM39.7571 59.3814H39.3696M39.3696 59.3814V59.3814ZM39.3696 59.3814L38.9821 59.0486M38.9821 59.0486V59.0486ZM38.9821 59.0486H38.5945M38.5945 59.0486V59.0486ZM38.5945 59.0486H38.207M38.207 59.0486V59.0486ZM38.207 59.0486H37.8195M37.8195 59.0486V59.0486ZM37.8195 59.0486H37.432M37.432 59.0486V59.0486ZM37.432 59.0486H37.0444M37.0444 59.0486V59.0486ZM37.0444 59.0486H36.6569M36.6569 59.0486V59.0486ZM36.6569 59.0486V58.7159M36.6569 58.7159V58.7159ZM36.6569 58.7159H36.2694M36.2694 58.7159V58.7159ZM36.2694 58.7159V58.3832M36.2694 58.3832V58.3832ZM36.2694 58.3832H35.8819M35.8819 58.3832V58.3832ZM35.8819 58.3832V58.0505M35.8819 58.0505V58.0505ZM35.8819 58.0505V57.7178M35.8819 57.7178V57.7178ZM35.8819 57.7178H36.2694M36.2694 57.7178V57.7178ZM36.2694 57.7178H36.6569M36.6569 57.7178V57.7178ZM36.6569 57.7178V57.3851M36.6569 57.3851V57.3851ZM36.6569 57.3851V57.0523H36.2694M36.2694 57.0523V57.0523ZM36.2694 57.0523H35.8819M35.8819 57.0523V57.0523ZM35.8819 57.0523V56.7196M35.8819 56.7196V56.7196ZM35.8819 56.7196H35.4943V56.3869M35.4943 56.3869H35.8819M35.4943 56.3869V56.3869ZM35.4943 56.3869H35.1068M35.1068 56.3869V56.3869ZM35.1068 56.3869H34.7193M34.7193 56.3869V56.3869ZM34.7193 56.3869V56.0542M34.7193 56.0542V56.0542ZM34.7193 56.0542H34.3318M34.3318 56.0542V56.0542ZM34.3318 56.0542V55.7215M34.3318 55.7215V55.7215ZM34.3318 55.7215H33.9442M33.9442 55.7215V55.7215ZM33.9442 55.7215V55.3887M33.9442 55.3887V55.3887ZM33.9442 55.3887H33.5567M33.5567 55.3887V55.3887ZM33.5567 55.3887V55.056H33.1692M33.1692 55.056V55.056ZM33.1692 55.056H32.7817M32.7817 55.056V55.056ZM32.7817 55.056H32.3941M32.3941 55.056V55.056ZM32.3941 55.056L32.0066 54.7233M32.0066 54.7233V54.7233ZM32.0066 54.7233V54.3906M32.0066 54.3906V54.3906ZM32.0066 54.3906H32.3941M32.0066 54.3906V54.0579M32.0066 54.0579V54.0579ZM32.0066 54.0579V53.7252M32.0066 53.7252V53.7252ZM32.0066 53.7252H31.6191M31.6191 53.7252V53.7252ZM31.6191 53.7252V53.3924M31.6191 53.7252L31.2316 53.3924M31.6191 53.3924V53.3924ZM31.2316 53.3924V53.3924ZM31.2316 53.3924V53.0597M31.2316 53.0597V53.0597ZM31.2316 53.0597L30.844 52.727M30.844 52.727V52.727ZM30.844 52.727H31.2316M30.844 52.727V52.3943M31.2316 52.727V52.727ZM30.844 52.3943V52.3943ZM30.844 52.3943H30.4565M30.4565 52.3943V52.3943ZM30.4565 52.3943H30.069M30.069 52.3943V52.3943ZM30.069 52.3943H29.6815M29.6815 52.3943V52.3943ZM29.6815 52.3943V52.0616M29.6815 52.0616V52.0616ZM29.6815 52.0616H29.2939M29.2939 52.0616V52.0616ZM29.2939 52.0616V51.7288M29.2939 51.7288V51.7288ZM29.2939 51.7288L28.9064 51.3961M28.9064 51.3961V51.3961ZM28.9064 51.3961V51.0634M28.9064 51.0634V51.0634ZM28.9064 51.0634V50.7307M28.9064 50.7307V50.7307ZM28.9064 50.7307H28.5189M28.5189 50.7307V50.7307ZM28.5189 50.7307V51.0634M28.5189 50.7307H28.1314M28.5189 51.0634V51.0634ZM28.1314 50.7307V50.7307ZM28.1314 50.7307V50.398M28.1314 50.398V50.398ZM28.1314 50.398H27.7438M27.7438 50.398V50.398ZM27.7438 50.398H27.3563M27.3563 50.398V50.398ZM27.3563 50.398V50.0653H26.9688M26.9688 50.0653V50.0653ZM26.9688 50.0653V50.398M26.9688 50.398V50.398ZM26.9688 50.398H26.5812M26.5812 50.398V50.398ZM26.5812 50.398V50.7307M26.5812 50.7307V50.7307ZM26.5812 50.7307V51.0634M26.5812 51.0634V51.0634ZM26.5812 51.0634H26.1937V50.7307M26.1937 50.7307V50.7307ZM26.1937 50.7307H25.8062M25.8062 50.7307V50.7307ZM25.8062 50.7307V50.398M25.8062 50.398V50.398ZM25.8062 50.398H25.4187M25.4187 50.398V50.398ZM25.4187 50.398L25.0311 50.0653M25.0311 50.0653V50.0653ZM25.0311 50.0653H24.6436V49.7325L25.0311 49.3998M25.0311 49.3998V49.3998ZM25.0311 49.3998H24.6436M24.6436 49.3998V49.3998ZM24.6436 49.3998V49.0671M24.6436 49.0671V49.0671ZM24.6436 49.0671H25.0311M24.6436 49.0671V48.7344M25.0311 49.0671V49.0671ZM24.6436 48.7344V48.7344ZM24.6436 48.7344V48.4017M24.6436 48.4017V48.4017ZM24.6436 48.4017H24.2561M24.2561 48.4017V48.4017ZM24.2561 48.4017V48.0689M24.2561 48.0689V48.0689ZM24.2561 48.0689L23.8686 47.7362M23.8686 47.7362V47.7362ZM23.8686 47.7362V47.4035M23.8686 47.4035V47.4035ZM23.8686 47.4035H23.481M23.481 47.4035V47.4035ZM23.481 47.4035V47.0708M23.481 47.0708V47.0708ZM23.481 47.0708H23.0935M23.0935 47.0708V47.0708ZM23.0935 47.0708L22.706 46.7381M22.706 46.7381V46.7381ZM22.706 46.7381H22.3185M22.3185 46.7381V46.7381ZM22.3185 46.7381H21.9309V47.0708L21.5434 46.7381H21.1559M21.1559 46.7381V46.7381ZM21.1559 46.7381V46.4054H20.7684M20.7684 46.4054V46.4054ZM20.7684 46.4054V46.0726M20.7684 46.0726V46.0726ZM20.7684 46.0726V45.7399M20.7684 45.7399V45.7399ZM20.7684 45.7399V45.4072M20.7684 45.4072V45.4072ZM20.7684 45.4072H20.3808M20.3808 45.4072V45.4072ZM20.3808 45.4072L19.9933 45.0745M19.9933 45.0745V45.0745ZM19.9933 45.0745H19.6058M19.6058 45.0745V45.0745ZM19.6058 45.0745V44.7418M19.6058 44.7418V44.7418ZM19.6058 44.7418V44.409M19.6058 44.409V44.409ZM19.6058 44.409H19.2183M19.2183 44.409V44.409ZM19.2183 44.409V44.0763M19.2183 44.0763V44.0763ZM19.2183 44.0763V43.7436M19.2183 43.7436V43.7436ZM19.2183 43.7436H18.8307M18.8307 43.7436V43.7436ZM18.8307 43.7436H18.4432M18.4432 43.7436V43.7436ZM18.4432 43.7436V43.4109M18.4432 43.4109H18.8307M18.4432 43.4109V43.4109ZM18.4432 43.4109H18.0557M18.0557 43.4109V43.4109ZM18.0557 43.4109V43.0782M18.0557 43.0782V43.0782ZM18.0557 43.0782V42.7455M18.0557 42.7455V42.7455ZM18.0557 42.7455V42.4127M18.0557 42.4127V42.4127ZM18.0557 42.4127H17.6682M17.6682 42.4127V42.4127ZM17.6682 42.4127V42.08M17.6682 42.08V42.08ZM17.6682 42.08H17.2806M17.2806 42.08V42.08ZM17.2806 42.08V41.7473M17.2806 41.7473V41.7473ZM17.2806 41.7473H16.8931M16.8931 41.7473V41.7473ZM16.8931 41.7473V41.4146H16.5056M16.5056 41.4146V41.4146ZM16.5056 41.4146H16.1181M16.1181 41.4146V41.4146ZM16.1181 41.4146H15.7305M15.7305 41.4146V41.4146ZM15.7305 41.4146H15.343M15.343 41.4146V41.4146ZM15.343 41.4146V41.7473M15.343 41.7473H15.7305M15.343 41.7473V41.7473ZM15.343 41.7473H14.9555M15.7305 41.7473V41.7473ZM14.9555 41.7473V41.7473ZM14.9555 41.7473V41.4146M14.9555 41.4146V41.4146ZM14.9555 41.4146H14.568V41.7473M14.568 41.7473V41.7473ZM14.568 41.7473L14.1804 41.4146M14.1804 41.4146V41.4146ZM14.1804 41.4146H13.7929M13.7929 41.4146V41.4146ZM13.7929 41.4146V41.0819M13.7929 41.0819V41.0819ZM13.7929 41.0819H13.4054V40.7491M13.4054 40.7491V40.7491ZM13.4054 40.7491V40.4164L12.6303 40.0837M12.6303 40.0837V40.0837ZM12.6303 40.0837V39.751M12.6303 39.751V39.751ZM12.6303 39.751H12.2428V39.4183H11.8553M11.8553 39.4183V39.4183ZM11.8553 39.4183H11.4678M11.4678 39.4183V39.4183ZM11.4678 39.4183V39.0856M11.4678 39.0856V39.0856ZM11.4678 39.0856V38.7528V38.4201H11.0802M11.0802 38.4201V38.4201ZM11.0802 38.4201V38.0874M11.0802 38.0874V38.0874ZM11.0802 38.0874V37.7547M11.0802 37.7547V37.7547ZM11.0802 37.7547V37.422M11.0802 37.422V37.422ZM11.0802 37.422V37.0892M11.0802 37.0892V37.0892ZM11.0802 37.0892H10.6927M10.6927 37.0892V37.0892ZM10.6927 37.0892H10.3052M10.3052 37.0892V37.0892ZM10.3052 37.0892V36.7565M10.3052 36.7565V36.7565ZM10.3052 36.7565L9.91765 36.4238M9.91765 36.4238V36.4238ZM9.91765 36.4238V36.0911M9.91765 36.0911V36.0911ZM9.91765 36.0911V35.7584M9.91765 35.7584V35.7584ZM9.91765 35.7584V35.4257M9.91765 35.4257V35.4257ZM9.91765 35.4257V35.0929H9.53013M9.53013 35.0929V35.0929ZM9.53013 35.0929H9.1426M9.1426 35.0929V35.0929ZM9.1426 35.0929V34.7602M9.1426 34.7602V34.7602ZM9.1426 34.7602V34.4275M9.1426 34.4275V34.4275ZM9.1426 34.4275V34.0948M9.1426 34.0948V34.0948ZM9.1426 34.0948V33.7621M9.1426 33.7621V33.7621ZM9.1426 33.7621V33.4293M9.1426 33.4293V33.4293ZM9.1426 33.4293H8.75507M8.75507 33.4293V33.4293ZM8.75507 33.4293H8.36755M8.36755 33.4293V33.4293ZM8.36755 33.4293V33.0966M8.36755 33.0966V33.0966ZM8.36755 33.0966H7.98002M7.98002 33.0966V33.0966ZM7.98002 33.0966H7.5925M7.5925 33.0966V33.0966ZM7.5925 33.0966V32.7639M7.5925 32.7639V32.7639ZM7.5925 32.7639L7.20497 32.4312M7.20497 32.4312V32.4312ZM7.20497 32.4312V32.0985M7.20497 32.0985V32.0985ZM7.20497 32.0985H6.81745M6.81745 32.0985V32.0985ZM6.81745 32.0985V31.7657M6.81745 31.7657V31.7657ZM6.81745 31.7657V31.433M6.81745 31.433V31.433ZM6.81745 31.433H7.20497M7.20497 31.433V31.433ZM7.20497 31.433L7.98002 31.1003M7.98002 31.1003V31.1003ZM7.98002 31.1003H8.36755V30.7676M8.36755 30.7676V30.7676ZM8.36755 30.7676H7.98002M7.98002 30.7676V30.7676ZM7.98002 30.7676V30.4349M7.98002 30.4349V30.4349ZM7.98002 30.4349L8.36755 30.1022M8.36755 30.1022V30.1022ZM8.36755 30.1022L7.98002 29.7694M7.98002 29.7694V29.7694ZM7.98002 29.7694H8.36755M8.36755 29.7694V29.7694ZM8.36755 29.7694H8.75507M8.75507 29.7694V29.7694ZM8.75507 29.7694V29.4367M8.75507 29.4367V29.4367ZM8.75507 29.4367V29.104M8.75507 29.104V29.104ZM8.75507 29.104H9.1426M9.1426 29.104V29.104ZM9.1426 29.104V28.7713M9.1426 28.7713V28.7713ZM9.1426 28.7713V28.4386M9.1426 28.4386V28.4386ZM9.1426 28.4386H9.53013M9.53013 28.4386V28.4386ZM9.53013 28.4386V28.1059M9.53013 28.1059V28.1059ZM9.53013 28.1059V27.7731M9.53013 27.7731V27.7731ZM9.53013 27.7731H9.1426M9.1426 27.7731V27.7731ZM9.1426 27.7731H8.75507M8.75507 27.7731V27.7731ZM8.75507 27.7731V27.4404M8.75507 27.4404V27.4404ZM8.75507 27.4404H8.36755M8.36755 27.4404V27.4404ZM8.36755 27.4404H7.98002V27.1077M7.98002 27.1077V27.1077ZM7.98002 27.1077H8.36755M8.36755 27.1077V27.1077ZM8.36755 27.1077V26.775M8.36755 26.775V26.775ZM8.36755 26.775L8.75507 26.4423M8.75507 26.4423V26.4423ZM8.75507 26.4423H8.36755M8.36755 26.4423V26.4423ZM8.36755 26.4423L7.98002 26.1095M7.98002 26.1095V26.1095ZM7.98002 26.1095H7.5925M7.5925 26.1095V26.1095ZM7.5925 26.1095V26.4423M7.5925 26.1095H7.20497M7.5925 26.1095V25.7768M7.20497 26.1095V26.1095ZM7.5925 25.7768V25.7768ZM7.5925 25.7768H7.20497M7.20497 25.7768V25.7768ZM7.20497 25.7768H6.81745M6.81745 25.7768V25.7768ZM6.81745 25.7768V25.4441M6.81745 25.7768H6.42992V25.4441M6.81745 25.4441V25.4441ZM6.42992 25.4441V25.4441ZM6.42992 25.4441H6.0424M6.0424 25.4441V25.4441ZM6.0424 25.4441V25.1114M6.0424 25.1114V25.1114ZM6.0424 25.1114H5.65487M5.65487 25.1114V25.1114ZM5.65487 25.1114L5.26735 24.7787M5.26735 24.7787V24.7787ZM5.26735 24.7787V24.4459M5.26735 24.4459V24.4459ZM5.26735 24.4459H4.87982M4.87982 24.4459V24.4459ZM4.87982 24.4459H4.49229M4.49229 24.4459V24.4459ZM4.49229 24.4459V24.1132M4.49229 24.1132V24.1132ZM4.49229 24.1132V23.7805M4.49229 23.7805V23.7805ZM4.49229 23.7805H4.10477M4.10477 23.7805V23.7805ZM4.10477 23.7805V23.4478M4.10477 23.7805H3.71724M4.10477 23.4478V23.4478ZM3.71724 23.7805V23.7805ZM3.71724 23.7805V23.4478M3.71724 23.4478V23.4478ZM3.71724 23.4478H3.32972M3.32972 23.4478V23.4478ZM3.32972 23.4478V23.1151M3.32972 23.1151V23.1151ZM3.32972 23.1151V22.7824M3.32972 22.7824V22.7824ZM3.32972 22.7824V22.4496M3.32972 22.4496V22.4496ZM3.32972 22.4496V22.1169M3.32972 22.1169V22.1169ZM3.32972 22.1169H3.71724V21.7842H3.32972M3.32972 21.7842V21.7842ZM3.32972 21.7842V21.4515M3.32972 21.4515V21.4515ZM3.32972 21.4515L2.94219 21.1188M2.94219 21.1188V21.1188ZM2.94219 21.1188H3.32972M2.94219 21.1188V20.786M3.32972 21.1188V21.1188ZM2.94219 20.786V20.786ZM2.94219 20.786H2.55467M2.55467 20.786V20.786ZM2.55467 20.786V20.4533M2.55467 20.4533V20.4533ZM2.55467 20.4533H2.16714M2.55467 20.4533V20.1206M2.16714 20.4533V20.4533ZM2.16714 20.4533V20.1206M2.16714 20.4533H1.77962M2.55467 20.1206V20.1206ZM2.55467 20.1206H2.16714M2.16714 20.1206V20.1206ZM1.77962 20.4533V20.4533ZM1.77962 20.4533V20.1206M1.77962 20.1206V20.1206ZM1.77962 20.1206H1.39209M1.39209 20.1206V20.1206ZM1.39209 20.1206V19.7879M1.39209 19.7879V19.7879Z" stroke="#13263A"/>
</svg>
