<svg width="107" height="71" viewBox="0 0 107 71" fill="none" xmlns="http://www.w3.org/2000/svg">
<path d="M1.27759 33.0215H1.66511V32.6888M1.27759 33.0215V33.0215ZM1.27759 33.0215V32.6888M1.27759 32.6888V32.6888ZM1.27759 32.6888V32.3561M1.27759 32.3561V32.3561ZM1.27759 32.3561L1.66511 32.0234M1.66511 32.0234V32.0234ZM1.66511 32.0234V31.6906M1.66511 31.6906V31.6906ZM1.66511 31.6906L2.05264 31.3579M2.05264 31.3579V31.3579ZM2.05264 31.3579V31.0252M2.05264 31.0252V31.0252ZM2.05264 31.0252V30.6925H2.44016V30.3598M2.44016 30.3598V30.3598ZM2.44016 30.3598V30.027M2.44016 30.027V30.027ZM2.44016 30.027V29.6943H2.82769M2.82769 29.6943V29.6943ZM2.82769 29.6943V29.3616M2.82769 29.3616V29.3616ZM2.82769 29.3616V29.0289V28.6962H3.21522V28.3635M3.21522 28.3635V28.3635ZM3.21522 28.3635V28.0307M3.21522 28.0307V28.0307ZM3.21522 28.0307V27.698M3.21522 27.698V27.698ZM3.21522 27.698V27.3653L3.60274 27.0326M3.60274 27.0326V27.0326ZM3.60274 27.0326V26.6999V26.3671M3.60274 26.3671V26.3671ZM3.60274 26.3671V26.0344V25.7017M3.60274 25.7017V25.7017ZM3.60274 25.7017V25.369V25.0363V24.7036M3.60274 24.7036V24.7036ZM3.60274 24.7036V24.3708L3.99027 24.0381V23.7054V23.3727V23.04M3.99027 23.04V23.04ZM3.99027 23.04L3.60274 22.7072M3.60274 22.7072V22.7072ZM3.60274 22.7072V22.3745M3.60274 22.3745V22.3745ZM3.60274 22.3745V22.0418V21.7091V21.3764V21.0437M3.60274 21.0437V21.0437ZM3.60274 21.0437V20.7109M3.60274 21.0437H3.99027V21.3764M3.60274 20.7109V20.7109ZM3.60274 20.7109H3.21522M3.21522 20.7109V20.7109ZM3.99027 21.3764V21.3764ZM3.99027 21.3764V21.7091M3.99027 21.7091V21.7091ZM3.99027 21.7091H4.37779V22.0418M4.37779 22.0418V22.0418ZM4.37779 22.0418V22.3745M4.37779 22.3745V22.3745ZM4.37779 22.3745V22.7072M4.37779 22.7072V22.7072ZM4.37779 22.7072V23.04M4.37779 23.04V23.04ZM4.37779 23.04V23.3727M4.37779 23.3727V23.3727ZM4.37779 23.3727V23.7054M4.37779 23.7054V23.7054ZM4.37779 23.7054V24.0381M4.37779 24.0381V24.0381ZM4.37779 24.0381V24.3708M4.37779 24.3708V24.3708ZM4.37779 24.3708V24.7036M4.37779 24.7036V24.7036ZM4.37779 24.7036V25.0363M4.37779 25.0363V25.0363ZM4.37779 25.0363V25.369M4.37779 25.369V25.369ZM4.37779 25.369H3.99027M4.37779 25.369V25.7017H3.99027M3.99027 25.369V25.369ZM3.99027 25.7017V25.7017ZM3.99027 25.7017V26.0344M3.99027 26.0344V26.0344ZM3.99027 26.0344V26.3671M3.99027 26.3671V26.3671ZM3.99027 26.3671V26.6999M3.99027 26.6999V26.6999ZM3.99027 26.6999V27.0326M3.99027 27.0326V27.0326ZM3.99027 27.0326V27.3653M3.99027 27.3653V27.3653ZM3.99027 27.3653V27.698M3.99027 27.698V27.698ZM3.99027 27.698H3.60274M3.60274 27.698V27.698ZM3.60274 27.698V28.0307M3.60274 28.0307V28.0307ZM3.60274 28.0307V28.3635M3.60274 28.3635V28.3635ZM3.60274 28.3635V28.6962M3.60274 28.6962V28.6962ZM3.60274 28.6962L3.99027 29.0289M3.99027 29.0289V29.0289ZM3.99027 29.0289H3.60274M3.60274 29.0289V29.0289ZM3.60274 29.0289V29.3616M3.60274 29.3616V29.3616ZM3.60274 29.3616V29.6943M3.60274 29.6943V29.6943ZM3.60274 29.6943H3.21522M3.21522 29.6943V29.6943ZM3.21522 29.6943V30.027M3.21522 30.027V30.027ZM3.21522 30.027V30.3598M3.21522 30.3598V30.3598ZM3.21522 30.3598H2.82769V30.6925M2.82769 30.6925V30.6925ZM2.82769 30.6925V31.0252M2.82769 31.0252V31.0252ZM2.82769 31.0252V31.3579M2.82769 31.3579V31.3579ZM2.82769 31.3579V31.6906M2.82769 31.6906V31.6906ZM2.82769 31.6906H2.44016M2.44016 31.6906V31.6906ZM2.44016 31.6906V32.0234H2.05264M2.05264 32.0234V32.0234ZM2.05264 32.0234V32.3561M2.05264 32.3561V32.3561ZM2.05264 32.3561V32.6888M2.05264 32.6888V32.6888ZM2.05264 32.6888H1.66511M1.66511 32.6888V32.6888Z" stroke="#13263A"/>
<path d="M3.21492 11.395V11.395ZM3.21492 11.395L3.60244 11.0623M3.21492 11.395V11.7277V12.0605V12.3932M3.60244 11.0623V11.0623ZM3.60244 11.0623H4.37749M4.37749 11.0623V11.0623ZM4.37749 11.0623H4.76502M4.76502 11.0623V11.0623ZM4.76502 11.0623V10.7296M4.76502 11.0623H5.15255M4.76502 10.7296V10.7296ZM5.15255 11.0623V11.0623ZM5.15255 11.0623H5.54007M5.54007 11.0623V11.0623ZM5.54007 11.0623V10.7296M5.54007 10.7296V10.7296ZM5.54007 10.7296H5.9276V10.3969M5.9276 10.3969V10.3969ZM5.9276 10.3969V10.0642M5.9276 10.0642V10.0642ZM5.9276 10.0642H6.31512V9.73144M6.31512 9.73144V9.73144ZM6.31512 9.73144V9.39872H5.9276M5.9276 9.39872V9.39872ZM5.9276 9.39872V9.066M5.9276 9.066V9.066ZM5.9276 9.066V8.73329M5.9276 8.73329V8.73329ZM5.9276 8.73329H6.31512M6.31512 8.73329V8.73329ZM6.31512 8.73329H6.70265M6.70265 8.73329V8.73329ZM6.70265 8.73329V8.40057M6.70265 8.40057V8.40057ZM6.70265 8.40057H7.09017M7.09017 8.40057V8.40057ZM7.09017 8.40057V8.06785M7.09017 8.06785V8.06785ZM7.09017 8.06785H7.4777L7.09017 7.73513H7.4777M7.4777 7.73513V7.73513ZM7.4777 7.73513V7.40241M7.4777 7.40241V7.40241ZM7.4777 7.40241H7.86522M7.86522 7.40241V7.40241ZM7.86522 7.40241V7.06969M7.86522 7.06969V7.06969ZM7.86522 7.06969H8.25275M8.25275 7.06969V7.06969ZM8.25275 7.06969H8.64028M8.64028 7.06969V7.06969ZM8.64028 7.06969L9.0278 6.73698H9.41533M9.41533 6.73698V6.73698ZM9.41533 6.73698H9.80285V6.40426M9.80285 6.40426V6.40426ZM9.80285 6.40426H10.1904M10.1904 6.40426V6.40426ZM10.1904 6.40426V6.07154M10.1904 6.07154V6.07154ZM10.1904 6.07154V5.73882M10.1904 5.73882V5.73882ZM10.1904 5.73882H10.5779V5.4061M10.5779 5.4061V5.4061ZM10.5779 5.4061V5.07338H10.9654M10.9654 5.07338V5.07338ZM10.9654 5.07338V5.4061M10.9654 5.07338H11.353M10.9654 5.4061V5.4061ZM11.353 5.07338V5.07338ZM11.353 5.07338H11.7405M11.7405 5.07338V5.07338ZM11.7405 5.07338V4.74067M11.7405 4.74067V4.74067ZM11.7405 4.74067H12.128M12.128 4.74067V4.74067ZM12.128 4.74067V4.40795M12.128 4.40795V4.40795ZM12.128 4.40795H12.5155M12.5155 4.40795V4.40795ZM12.5155 4.40795H12.9031M12.9031 4.40795V4.40795ZM12.9031 4.40795H13.2906M13.2906 4.40795V4.40795ZM13.2906 4.40795H13.6781M13.6781 4.40795V4.40795ZM13.6781 4.40795V4.74067H14.0656M14.0656 4.74067V4.74067ZM14.0656 4.74067H14.4532M14.4532 4.74067V4.74067ZM14.4532 4.74067H14.8407M14.8407 4.74067V4.40795M14.8407 4.74067V4.74067ZM14.8407 4.40795V4.40795ZM14.8407 4.40795H15.2282M15.2282 4.40795V4.40795ZM15.2282 4.40795V4.07523M15.2282 4.07523V4.07523ZM15.2282 4.07523H15.6157M15.6157 4.07523V4.07523ZM15.6157 4.07523V3.74251M15.6157 3.74251V3.74251ZM15.6157 3.74251H16.0033M16.0033 3.74251V3.74251ZM16.0033 3.74251L16.3908 3.40979M16.3908 3.40979V3.40979ZM16.3908 3.40979V3.07707H16.7783M16.7783 3.07707V3.07707ZM16.7783 3.07707H17.1658M17.1658 3.07707V3.07707ZM17.1658 3.07707H17.5534M17.5534 3.07707V3.07707ZM17.5534 3.07707V3.40979M17.5534 3.07707H17.9409M17.5534 3.40979V3.40979ZM17.9409 3.07707V3.07707ZM17.9409 3.07707H18.3284M18.3284 3.07707V3.07707ZM18.3284 3.07707H18.7159V2.74436M18.7159 2.74436V2.74436ZM18.7159 2.74436H19.1035M19.1035 2.74436V2.74436ZM19.1035 2.74436H19.491M19.491 2.74436V2.74436ZM19.491 2.74436V2.41164M19.491 2.41164V2.41164ZM19.491 2.41164V2.07892M19.491 2.07892V2.07892ZM19.491 2.07892H19.8785M19.8785 2.07892V2.07892ZM19.8785 2.07892V1.7462M19.8785 1.7462V1.7462ZM19.8785 1.7462H19.491M19.8785 1.7462H20.266M20.266 1.7462V1.7462ZM20.266 1.7462V1.41348M20.266 1.41348V1.41348ZM20.266 1.41348H20.6536M20.6536 1.41348V1.41348ZM20.6536 1.41348V1.7462M20.6536 1.7462V1.7462ZM20.6536 1.7462H21.0411M21.0411 1.7462V1.7462ZM21.0411 1.7462V1.41348M21.0411 1.41348V1.41348ZM21.0411 1.41348H21.4286M21.4286 1.41348V1.41348ZM21.4286 1.41348H21.8161M21.8161 1.41348V1.41348ZM21.8161 1.41348H22.2037M22.2037 1.41348V1.41348ZM22.2037 1.41348H22.5912L22.9787 1.7462M22.9787 1.7462V1.7462ZM22.9787 1.7462H23.3662V1.41348H23.7538V1.7462M23.7538 1.7462V1.7462ZM23.7538 1.7462V2.07892M23.7538 2.07892V2.07892ZM23.7538 2.07892H24.1413M24.1413 2.07892V2.07892ZM24.1413 2.07892H24.5288M24.5288 2.07892V2.07892ZM24.5288 2.07892H24.9163M24.9163 2.07892V2.07892ZM24.9163 2.07892H25.3039M25.3039 2.07892V2.07892ZM25.3039 2.07892H25.6914M25.6914 2.07892V2.07892ZM25.6914 2.07892L26.0789 2.41164M26.0789 2.41164V2.41164ZM26.0789 2.41164V2.07892M26.0789 2.07892V2.07892ZM26.0789 2.07892H26.4664M26.4664 2.07892V2.07892ZM26.4664 2.07892H26.854M26.854 2.07892V2.07892ZM26.854 2.07892H27.2415M27.2415 2.07892V2.07892ZM27.2415 2.07892H27.629M27.629 2.07892V2.07892ZM27.629 2.07892H28.0166M28.0166 2.07892V2.07892ZM28.0166 2.07892H28.4041M28.4041 2.07892V2.07892ZM28.4041 2.07892L28.7916 2.41164M28.7916 2.41164V2.41164ZM28.7916 2.41164H29.1791M29.1791 2.41164V2.41164ZM29.1791 2.41164H29.5667M29.5667 2.41164V2.41164ZM29.5667 2.41164H29.9542M29.9542 2.41164V2.41164ZM29.9542 2.41164H30.3417M30.3417 2.41164V2.41164ZM30.3417 2.41164V2.74436M30.3417 2.74436V2.74436ZM30.3417 2.74436H30.7292M30.7292 2.74436V2.74436ZM30.7292 2.74436H31.1168M31.1168 2.74436V2.74436ZM31.1168 2.74436V3.07707M31.1168 3.07707V3.07707ZM31.1168 3.07707H31.5043M31.5043 3.07707V3.07707ZM31.5043 3.07707V3.40979M31.5043 3.40979V3.40979ZM31.5043 3.40979H31.8918M31.8918 3.40979V3.40979ZM31.8918 3.40979H32.2793M32.2793 3.40979V3.40979ZM32.2793 3.40979H32.6669M32.6669 3.40979V3.40979ZM32.6669 3.40979V3.07707M32.6669 3.07707V3.07707ZM32.6669 3.07707H33.0544M33.0544 3.07707V3.07707ZM33.0544 3.07707H33.4419M33.4419 3.07707V3.07707ZM33.4419 3.07707H33.8294M33.8294 3.07707V3.07707ZM33.8294 3.07707H34.217M34.217 3.07707V3.07707ZM34.217 3.07707H34.6045M34.6045 3.07707V3.07707ZM34.6045 3.07707H34.992M34.992 3.07707V3.07707ZM34.992 3.07707H35.3795M35.3795 3.07707V3.07707ZM35.3795 3.07707H35.7671M35.7671 3.07707V3.07707ZM35.7671 3.07707L36.1546 2.74436M36.1546 2.74436V2.74436ZM36.1546 2.74436L36.5421 2.41164M36.5421 2.41164V2.41164ZM36.5421 2.41164L36.1546 2.07892M36.1546 2.07892V2.07892ZM36.1546 2.07892H36.5421M36.5421 2.07892V2.07892ZM36.5421 2.07892V1.7462M36.5421 1.7462V1.7462ZM36.5421 1.7462H37.3172V2.07892H37.7047L38.0922 3.07707H37.7047V3.40979H38.0922M38.0922 3.40979V3.40979ZM38.0922 3.40979V3.74251M38.0922 3.74251V3.74251ZM38.0922 3.74251V4.07523M38.0922 4.07523V4.07523ZM38.0922 4.07523H38.4797V4.40795M38.4797 4.40795V4.40795ZM38.4797 4.40795H38.8673M38.8673 4.40795V4.40795ZM38.8673 4.40795H39.2548V4.74067M39.2548 4.74067V4.74067ZM39.2548 4.74067H39.6423M39.6423 4.74067V4.74067ZM39.6423 4.74067L40.0298 4.40795L40.4174 4.07523H40.8049M40.8049 4.07523V4.07523ZM40.8049 4.07523H41.1924V3.74251H40.8049V3.40979M40.8049 3.40979V3.40979ZM40.8049 3.40979V3.07707M40.8049 3.07707V3.07707ZM40.8049 3.07707H41.1924H41.5799M41.5799 3.07707V3.07707ZM41.5799 3.07707H41.9675H42.355H42.7425M42.7425 3.07707V3.07707ZM42.7425 3.07707L43.13 2.74436M43.13 2.74436V2.74436ZM43.13 2.74436H43.5176H43.9051H44.6801L45.0677 3.07707M45.0677 3.07707V3.07707ZM45.0677 3.07707H45.4552V3.40979M45.4552 3.40979V3.40979ZM45.4552 3.40979L46.2302 3.74251M46.2302 3.74251V3.74251ZM46.2302 3.74251H46.6178L47.0053 4.07523M47.0053 4.07523V4.07523ZM47.0053 4.07523H47.3928M47.3928 4.07523V4.07523ZM47.3928 4.07523H47.7804M47.7804 4.07523V4.07523ZM47.7804 4.07523L48.1679 3.74251M48.1679 3.74251V3.74251ZM48.1679 3.74251H48.5554L48.9429 3.40979M48.9429 3.40979V3.40979ZM48.9429 3.40979H49.3305V3.07707M49.3305 3.07707V3.07707ZM49.3305 3.07707H49.718H50.493M50.493 3.07707V3.07707ZM50.493 3.07707H50.8806M50.8806 3.07707V3.07707ZM50.8806 3.07707H51.2681M51.2681 3.07707V3.07707ZM51.2681 3.07707H51.6556V3.40979M51.6556 3.40979V3.40979ZM51.6556 3.40979L51.2681 3.74251M51.2681 3.74251V3.74251ZM51.2681 3.74251V4.07523M51.2681 4.07523V4.07523ZM51.2681 4.07523H51.6556M51.6556 4.07523V4.40795M51.6556 4.07523H52.0431V3.74251M51.6556 4.40795V4.40795ZM52.0431 3.74251V3.74251ZM52.0431 3.74251H52.4307V4.07523L53.2057 3.74251H53.9808M53.9808 3.74251V3.74251ZM53.9808 3.74251V4.07523M53.9808 4.07523V4.07523ZM53.9808 4.07523H54.7558H55.1433M55.1433 4.07523V4.07523ZM55.1433 4.07523H55.5309M55.5309 4.07523V4.07523ZM55.5309 4.07523H55.9184V4.74067H56.3059L56.6934 5.07338L56.3059 5.4061L57.4685 5.73882M57.4685 5.73882V5.73882ZM57.4685 5.73882L57.856 6.07154M57.856 6.07154V6.07154ZM57.856 6.07154V6.40426M57.856 6.40426V6.40426ZM57.856 6.40426H58.2435M58.2435 6.40426V6.40426ZM58.2435 6.40426H58.6311L59.0186 6.07154L59.4061 5.73882H59.7936M59.7936 5.73882V5.73882ZM59.7936 5.73882H60.1812L60.5687 5.4061M60.5687 5.4061V5.4061ZM60.5687 5.4061H60.9562L60.5687 5.07338H60.9562M60.9562 5.07338V5.07338ZM60.9562 5.07338H61.3437M61.3437 5.07338V5.07338ZM61.3437 5.07338H61.7313M61.7313 5.07338V5.07338ZM61.7313 5.07338V5.4061M61.7313 5.4061V5.4061ZM61.7313 5.4061H62.1188V5.73882M62.1188 5.73882V5.73882ZM62.1188 5.73882L62.5063 5.4061M62.5063 5.4061V5.4061ZM62.5063 5.4061L62.8938 5.73882L63.2814 6.07154H63.6689H64.0564M64.0564 6.07154V6.07154ZM64.0564 6.07154V5.73882H64.4439L64.8315 5.4061H65.219H65.6065M65.6065 5.4061V5.4061ZM65.6065 5.4061H65.994V4.74067V4.40795M65.994 4.40795V4.40795ZM65.994 4.40795V4.07523M65.994 4.07523V4.07523ZM65.994 4.07523H66.3816M66.3816 4.07523V4.07523ZM66.3816 4.07523V3.74251M66.3816 3.74251V3.74251ZM66.3816 3.74251H66.7691M66.7691 3.74251V3.74251ZM66.7691 3.74251V3.40979M66.7691 3.40979V3.40979ZM66.7691 3.40979V3.07707M66.7691 3.07707V3.07707ZM66.7691 3.07707V2.74436M66.7691 2.74436V2.74436ZM66.7691 2.74436H67.1566M67.1566 2.74436V2.74436ZM67.1566 2.74436H67.5442M67.5442 2.74436V2.74436ZM67.5442 2.74436H67.9317M67.9317 2.74436V2.74436ZM67.9317 2.74436H68.3192M68.3192 2.74436V2.74436ZM68.3192 2.74436V2.41164M68.3192 2.41164V2.41164ZM68.3192 2.41164V2.07892M68.3192 2.07892V2.07892ZM68.3192 2.07892H68.7067M68.7067 2.07892V2.07892ZM68.7067 2.07892H69.0943M69.0943 2.07892V2.07892ZM69.0943 2.07892H69.4818M69.4818 2.07892V2.07892ZM69.4818 2.07892H69.8693M69.8693 2.07892V2.07892ZM69.8693 2.07892V1.7462M69.8693 1.7462V1.7462ZM69.8693 1.7462H70.2568M70.2568 1.7462V1.7462ZM70.2568 1.7462H70.6444M70.6444 1.7462V1.7462ZM70.6444 1.7462H71.0319M71.0319 1.7462V1.7462ZM71.0319 1.7462V1.41348M71.0319 1.41348V1.41348ZM71.0319 1.41348V1.08077M71.0319 1.08077V1.08077ZM71.0319 1.08077L71.4194 0.748047M71.4194 0.748047V0.748047ZM71.4194 0.748047H71.8069M71.8069 0.748047V0.748047ZM71.8069 0.748047V1.08077M71.8069 1.08077V1.08077ZM71.8069 1.08077H72.1945M72.1945 1.08077V1.08077ZM72.1945 1.08077V1.41348M72.1945 1.41348V1.41348ZM72.1945 1.41348H71.8069M71.8069 1.41348V1.41348ZM71.8069 1.41348V1.7462M71.8069 1.7462V1.7462ZM71.8069 1.7462V2.07892M71.8069 2.07892V2.07892ZM71.8069 2.07892H72.1945M72.1945 2.07892V2.07892ZM72.1945 2.07892V2.41164M72.1945 2.41164V2.41164ZM72.1945 2.41164H72.582M72.582 2.41164V2.41164ZM72.582 2.41164V2.74436M72.582 2.74436V2.74436ZM72.582 2.74436V3.07707M72.582 3.07707V3.07707ZM72.582 3.07707H72.9695M72.9695 3.07707V3.07707ZM72.9695 3.07707V3.40979M72.9695 3.40979V3.40979ZM72.9695 3.40979V3.74251M72.9695 3.74251V3.74251ZM72.9695 3.74251V4.07523M72.9695 4.07523V4.07523ZM72.9695 4.07523V4.40795M72.9695 4.40795V4.40795ZM72.9695 4.40795V4.74067M72.9695 4.74067V4.74067ZM72.9695 4.74067H73.357M73.357 4.74067V4.74067ZM73.357 4.74067V5.07338M73.357 5.07338V5.07338ZM73.357 5.07338H73.7446M73.7446 5.07338V5.07338ZM73.7446 5.07338V5.4061M73.7446 5.4061V5.4061ZM73.7446 5.4061V5.73882M73.7446 5.73882V5.73882ZM73.7446 5.73882H74.1321M74.1321 5.73882V5.73882ZM74.1321 5.73882H74.5196M74.5196 5.73882V5.73882ZM74.5196 5.73882V6.07154M74.5196 6.07154V6.07154ZM74.5196 6.07154V6.40426M74.5196 6.40426V6.40426ZM74.5196 6.40426V6.73698H74.9071M74.9071 6.73698V6.73698ZM74.9071 6.73698L74.5196 7.06969M74.5196 7.06969V7.06969ZM74.5196 7.06969H74.9071M74.9071 7.06969V7.06969ZM74.9071 7.06969V7.40241M74.9071 7.40241V7.40241ZM74.9071 7.40241V7.73513M74.9071 7.73513V7.73513ZM74.9071 7.73513H75.2947V8.06785M75.2947 8.06785V8.06785ZM75.2947 8.06785H75.6822M75.6822 8.06785V8.06785ZM75.6822 8.06785L76.0697 8.40057M76.0697 8.40057V8.06785M76.0697 8.40057V8.40057ZM76.0697 8.40057H76.4572M76.4572 8.40057V8.40057ZM76.4572 8.40057H76.8448M76.8448 8.40057V8.40057ZM76.8448 8.40057H77.2323M77.2323 8.40057V8.40057ZM77.2323 8.40057V8.06785M77.2323 8.06785V8.06785ZM77.2323 8.06785H77.6198M77.6198 8.06785V8.06785ZM77.6198 8.06785H78.0073M78.0073 8.06785V8.06785ZM78.0073 8.06785V8.40057M78.0073 8.40057V8.40057ZM78.0073 8.40057H78.3949M78.3949 8.40057V8.40057ZM78.3949 8.40057V8.73329M78.3949 8.73329V8.73329ZM78.3949 8.73329L78.7824 9.066M78.7824 9.066V9.066ZM78.7824 9.066H79.1699M79.1699 9.066V9.066ZM79.1699 9.066V9.39872L79.5574 9.066M79.5574 9.066V9.066ZM79.5574 9.066H79.945H80.3325L80.72 8.73329V9.066L81.1075 9.39872M81.1075 9.39872V9.39872ZM81.1075 9.39872V9.066H81.8826M81.8826 9.066V9.066ZM81.8826 9.066L82.2701 9.39872M82.2701 9.39872V9.39872ZM82.2701 9.39872H82.6576V9.066M82.6576 9.066V9.066ZM82.6576 9.066V8.73329H83.0452M83.0452 8.73329V8.73329ZM83.0452 8.73329H83.4327L83.8202 9.39872H84.2077M84.2077 9.39872V9.39872ZM84.2077 9.39872H84.5953H84.9828H85.3703M85.3703 9.39872V9.39872ZM85.3703 9.39872L85.7579 9.066V9.39872M85.7579 9.39872V9.39872ZM85.7579 9.39872V9.73144M85.7579 9.73144V9.73144ZM85.7579 9.73144L86.1454 10.0642M86.1454 10.0642V10.0642ZM86.1454 10.0642V10.3969M86.1454 10.3969V10.3969ZM86.1454 10.3969V10.7296H85.7579M85.7579 10.7296V10.7296ZM85.7579 10.7296L86.1454 11.0623M86.1454 11.0623V11.0623ZM86.1454 11.0623H86.5329M86.5329 11.0623V11.0623ZM86.5329 11.0623H86.9204V11.395H87.308M87.308 11.395V11.395ZM87.308 11.395L88.083 11.7277M88.083 11.7277V11.7277ZM88.083 11.7277H88.4705V12.0605M88.4705 12.0605V12.0605ZM88.4705 12.0605V12.3932M88.4705 12.3932V12.3932ZM88.4705 12.3932H88.8581M88.8581 12.3932V12.3932ZM88.8581 12.3932V12.7259M88.8581 12.7259V12.7259ZM88.8581 12.7259V13.0586V13.3913H89.6331M89.6331 13.3913V13.3913ZM89.6331 13.3913L90.4082 13.7241M90.4082 13.7241V13.7241ZM90.4082 13.7241H90.7957M90.7957 13.7241V13.7241ZM90.7957 13.7241H91.1832M91.1832 13.7241V13.7241ZM91.1832 13.7241V14.0568M91.1832 14.0568V14.0568ZM91.1832 14.0568H91.5707M91.5707 14.0568V14.0568ZM91.5707 14.0568V14.3895M91.5707 14.0568L92.3458 14.3895V14.7222M91.5707 14.3895V14.3895ZM92.3458 14.7222V14.7222ZM92.3458 14.7222V15.0549H92.7333L93.1208 15.7204V16.0531H93.5084V16.3858V16.7185H94.2834L94.6709 17.0512V16.7185L95.0585 17.0512L95.446 17.7167L95.8335 18.0494L95.446 18.3821M95.446 18.3821V18.3821ZM95.446 18.3821L95.8335 19.0476H96.221V19.3803M96.221 19.3803V19.3803ZM96.221 19.3803V19.713H96.6086L96.9961 20.0457V20.3784M96.9961 20.3784V20.3784ZM96.9961 20.3784H97.3836M97.3836 20.3784V20.3784ZM97.3836 20.3784H97.7711L98.1587 20.7111M98.1587 20.7111V20.7111ZM98.1587 20.7111V21.3766H98.5462M98.5462 21.3766V21.3766ZM98.5462 21.3766V21.0439M98.5462 21.0439V21.0439ZM98.5462 21.0439H98.9337M98.9337 21.0439V21.0439ZM98.9337 21.0439V21.3766M98.9337 21.0439H99.3212M98.9337 21.3766V21.3766ZM99.3212 21.0439V21.0439ZM99.3212 21.0439V21.3766M99.3212 21.3766V21.3766ZM99.3212 21.3766H99.7088M99.7088 21.3766V21.3766ZM99.7088 21.3766H100.096M100.096 21.3766V21.3766ZM100.096 21.3766V21.7093M100.096 21.7093V21.7093ZM100.096 21.7093H100.484M100.484 21.7093V21.7093ZM100.484 21.7093V22.042H100.871M100.871 22.042V22.042ZM100.871 22.042H101.259M101.259 22.042V22.042ZM101.259 22.042H101.646M101.646 22.042V22.042ZM101.646 22.042H102.034M102.034 22.042V22.042ZM102.034 22.042H102.421M102.421 22.042V22.042ZM102.421 22.042H102.809M102.809 22.042V22.042ZM102.809 22.042V22.3747V22.7075M102.809 22.7075V22.7075ZM102.809 22.7075V24.0383V24.371V25.0365M102.809 25.0365V25.0365ZM102.809 25.0365H102.421M102.809 25.0365L102.421 25.3692M102.421 25.0365V25.3692M102.421 25.0365V25.0365ZM102.421 25.3692V25.3692ZM102.421 25.3692H102.034M102.034 25.3692V25.3692ZM102.034 25.3692V25.7019M102.034 25.7019V25.7019ZM102.034 25.7019V26.0346M102.034 26.0346V26.0346ZM102.034 26.0346H101.646M101.646 26.0346V26.0346ZM101.646 26.0346H101.259M101.259 26.0346V26.3674M101.259 26.0346V26.0346ZM101.259 26.0346L100.871 26.3674V26.7001V27.0328H101.259M101.259 26.3674V26.3674ZM101.259 27.0328V27.0328ZM101.259 27.0328V27.3655V27.6982L101.646 28.0309M101.646 28.0309V28.0309ZM101.646 28.0309H101.259M101.259 28.0309V28.0309ZM101.259 28.0309V28.3637M101.259 28.3637V28.3637ZM101.259 28.3637L101.646 28.6964M101.259 28.3637V28.6964M101.646 28.6964V28.6964ZM101.646 28.6964H101.259M101.259 28.6964V28.6964ZM101.259 28.6964V29.0291L101.646 29.3618H101.259M101.259 29.3618V29.3618ZM101.259 29.3618V29.6945M101.259 29.6945V29.6945ZM101.259 29.6945V30.0273M101.259 30.0273V30.0273ZM101.259 30.0273H100.871M100.871 30.0273V30.0273ZM100.871 30.0273H100.484V30.36M100.484 30.36V30.36ZM100.484 30.36H100.096M100.096 30.36V30.36ZM100.096 30.36V30.6927M100.096 30.6927V30.6927ZM100.096 30.6927L99.7088 31.0254M99.7088 31.0254V31.0254ZM99.7088 31.0254H99.3212M99.3212 31.0254V31.0254ZM99.3212 31.0254V31.3581H99.7088M99.7088 31.3581V31.3581ZM99.7088 31.3581H100.096M100.096 31.3581V31.3581ZM100.096 31.3581H100.484M100.484 31.3581V31.3581ZM100.484 31.3581H100.871M100.871 31.3581V31.3581ZM100.871 31.3581V31.6908H101.259M101.259 31.6908V31.6908ZM101.259 31.6908H101.646M101.646 31.6908V31.6908ZM101.646 31.6908H102.034M102.034 31.6908V31.6908ZM102.034 31.6908H102.421M102.421 31.6908V31.6908ZM102.421 31.6908V31.3581M102.421 31.3581V31.3581ZM102.421 31.3581H102.809M102.809 31.3581V31.3581ZM102.809 31.3581V31.6908M102.809 31.3581H103.196M102.809 31.6908V31.6908ZM103.196 31.3581V31.3581ZM103.196 31.3581H103.584M103.584 31.3581V31.3581ZM103.584 31.3581H103.972M103.972 31.3581V31.3581ZM103.972 31.3581V31.6908H104.359M104.359 31.6908V31.6908ZM104.359 31.6908H104.747M104.747 31.6908V31.6908ZM104.747 31.6908H105.134M105.134 31.6908V31.6908ZM105.134 31.6908H105.522M105.522 31.6908V31.6908ZM105.522 31.6908L105.909 32.0236M105.909 32.0236V31.6908M105.909 32.0236V32.0236ZM105.909 32.0236H106.297M105.909 31.6908V31.6908ZM106.297 32.0236V32.0236ZM106.297 32.0236V32.3563M106.297 32.3563V32.3563ZM106.297 32.3563V32.689V33.0217M106.297 33.0217V33.0217ZM106.297 33.0217H105.909M105.909 33.0217V33.0217ZM105.909 33.0217V33.3544M105.909 33.3544V33.3544ZM105.909 33.3544H105.522M105.522 33.3544V33.3544ZM105.522 33.3544H105.134M105.134 33.3544V33.3544ZM105.134 33.3544V33.6872M105.134 33.6872V33.6872ZM105.134 33.6872H104.747M104.747 33.6872V33.6872ZM104.747 33.6872V34.0199M104.747 34.0199V34.0199ZM104.747 34.0199H104.359M104.359 34.0199V34.0199ZM104.359 34.0199L104.747 34.6853H104.359M104.359 34.6853V34.6853ZM104.359 34.6853V35.018H103.972M103.972 35.018V35.018ZM103.972 35.018H103.584M103.584 35.018V35.018ZM103.584 35.018V35.3507M103.584 35.3507V35.3507ZM103.584 35.3507L103.972 35.6835M103.972 35.6835V35.6835ZM103.972 35.6835V36.0162M103.972 36.0162V36.0162ZM103.972 36.0162L103.584 35.6835V36.0162M103.584 36.0162V36.0162ZM103.584 36.0162V36.3489H103.196M103.196 36.3489V36.0162M103.196 36.3489H102.809M103.196 36.0162V36.0162ZM102.809 36.3489V36.3489ZM102.809 36.3489H102.421M102.421 36.3489V36.3489ZM102.421 36.3489H102.034M102.034 36.3489V36.3489ZM102.034 36.3489H101.646M101.646 36.3489V36.3489ZM101.646 36.3489H101.259M101.259 36.3489V36.3489ZM101.259 36.3489V36.6816M101.259 36.6816V36.6816ZM101.259 36.6816L100.871 36.3489V36.0162L100.484 36.3489M100.484 36.3489V36.3489ZM100.484 36.3489H100.096M100.096 36.3489V36.3489ZM100.096 36.3489V36.6816M100.096 36.6816V36.6816ZM100.096 36.6816L99.7088 37.0143M99.7088 37.0143V37.0143ZM99.7088 37.0143V36.6816M99.7088 36.6816V36.6816ZM99.7088 36.6816H99.3212M99.3212 36.6816V36.6816ZM99.3212 36.6816H98.9337M98.9337 36.6816V36.6816ZM98.9337 36.6816H98.5462M98.5462 36.6816V36.6816ZM98.5462 36.6816H98.1587V36.3489M98.1587 36.3489V36.3489ZM98.1587 36.3489H97.7711M97.7711 36.3489V36.3489ZM97.7711 36.3489H97.3836V36.6816M97.3836 36.6816V36.6816ZM97.3836 36.6816H96.9961M96.9961 36.6816V36.6816ZM96.9961 36.6816V37.0143M96.9961 37.0143V37.0143ZM96.9961 37.0143H96.6086H96.221M96.221 37.0143V37.0143ZM96.221 37.0143V37.3471H95.8335L95.446 37.6798M95.446 37.6798V37.6798ZM95.446 37.6798H95.8335M95.8335 37.6798V37.6798ZM95.8335 37.6798V38.0125M95.8335 38.0125V38.0125ZM95.8335 38.0125H96.221M96.221 38.0125V38.0125ZM96.221 38.0125V38.3452M96.221 38.3452V38.3452ZM96.221 38.3452V38.6779M96.221 38.6779V38.6779ZM96.221 38.6779H95.8335M95.8335 38.6779V38.6779ZM95.8335 38.6779V39.0106M95.8335 39.0106V39.0106ZM95.8335 39.0106V39.3434M95.8335 39.3434V39.3434ZM95.8335 39.3434L95.446 39.6761M95.446 39.6761V39.6761ZM95.446 39.6761V40.0088M95.446 40.0088V40.0088ZM95.446 40.0088H95.0585V40.3415M95.0585 40.3415V40.3415ZM95.0585 40.3415V40.6742M95.0585 40.6742V40.6742ZM95.0585 40.6742H94.6709M94.6709 40.6742V40.6742ZM94.6709 40.6742H94.2834M94.2834 40.6742V40.6742ZM94.2834 40.6742H93.8959M93.8959 40.6742V40.6742ZM93.8959 40.6742H93.5084M93.5084 40.6742V40.6742ZM93.5084 40.6742V41.007M93.5084 41.007V41.007ZM93.5084 41.007L93.1208 41.3397H92.7333M92.7333 41.3397V41.3397ZM92.7333 41.3397V41.6724M92.7333 41.6724H93.1208M92.7333 41.6724V41.6724ZM92.7333 41.6724H92.3458M92.3458 41.6724V41.6724ZM92.3458 41.6724L92.7333 42.0051M92.7333 42.0051V42.0051ZM92.7333 42.0051H92.3458M92.3458 42.0051V42.0051ZM92.3458 42.0051H91.9583M91.9583 42.0051V42.0051ZM91.9583 42.0051L91.5707 41.6724H91.1832M91.1832 41.6724V41.6724ZM91.1832 41.6724H90.7957M90.7957 41.6724V41.6724ZM90.7957 41.6724H90.4082V42.0051M90.4082 42.0051V42.0051ZM90.4082 42.0051H90.0206M90.0206 42.0051V42.0051ZM90.0206 42.0051V42.3378M90.0206 42.3378V42.3378ZM90.0206 42.3378L89.6331 42.0051M89.6331 42.0051V42.0051ZM89.6331 42.0051H89.2456M89.2456 42.0051V42.0051ZM89.2456 42.0051V42.3378M89.2456 42.3378V42.3378ZM89.2456 42.3378H88.8581V42.6706M88.8581 42.6706V42.6706ZM88.8581 42.6706V43.0033M88.8581 43.0033V43.0033ZM88.8581 43.0033V43.336M88.8581 43.336V43.336ZM88.8581 43.336H88.4705M88.4705 43.336V43.336ZM88.4705 43.336V43.6687M88.4705 43.6687V43.6687ZM88.4705 43.6687H88.083M88.083 43.6687V43.6687ZM88.083 43.6687V44.0014M88.083 44.0014V44.0014ZM88.083 44.0014H87.6955M87.6955 44.0014V44.0014ZM87.6955 44.0014V44.3341M87.6955 44.3341V44.3341ZM87.6955 44.3341V44.6669M87.6955 44.6669V44.6669ZM87.6955 44.6669V44.9996M87.6955 44.9996V44.9996ZM87.6955 44.9996H87.308M87.308 44.9996V44.9996ZM87.308 44.9996V45.3323H86.9204M86.9204 45.3323V44.9996M86.9204 45.3323V45.3323ZM86.9204 45.3323V45.665M86.9204 45.665H86.5329M86.9204 45.665L86.5329 45.9977H86.9204M86.5329 45.665V45.665ZM86.9204 45.9977V45.9977ZM86.9204 45.9977V46.3305M86.9204 46.3305V46.3305ZM86.9204 46.3305V46.6632M86.9204 46.6632V46.6632ZM86.9204 46.6632V46.9959M86.9204 46.9959V46.9959ZM86.9204 46.9959V47.3286V47.6613M86.9204 47.6613V47.6613ZM86.9204 47.6613V47.994M86.9204 47.994V47.994ZM86.9204 47.994V48.3268M86.9204 48.3268V48.3268ZM86.9204 48.3268V48.6595M86.9204 48.6595V48.6595ZM86.9204 48.6595V48.9922M86.9204 48.9922L86.5329 48.6595M86.9204 48.9922H86.5329M86.5329 48.6595V48.6595ZM86.5329 48.6595V48.9922M86.5329 48.9922L86.9204 49.3249V49.6576M86.9204 49.6576V49.6576ZM86.9204 49.6576V49.9904M86.9204 49.9904V49.9904ZM86.9204 49.9904V50.3231M86.9204 50.3231V50.3231ZM86.9204 50.3231L87.308 50.6558H86.9204M86.9204 50.6558V50.6558ZM86.9204 50.6558V50.9885M86.9204 50.9885V50.9885ZM86.9204 50.9885H87.308M86.9204 50.9885V51.3212M87.308 50.9885V50.9885ZM86.9204 51.3212V51.3212ZM86.9204 51.3212H87.308M87.308 51.3212V51.3212ZM87.308 51.3212V51.6539M87.308 51.6539V51.6539ZM87.308 51.6539L86.9204 51.9867M86.9204 51.9867V51.9867ZM86.9204 51.9867V52.3194H86.5329M86.5329 52.3194V52.3194ZM86.5329 52.3194H86.1454V52.6521M86.1454 52.6521V52.6521ZM86.1454 52.6521H85.7579M85.7579 52.6521V52.6521ZM85.7579 52.6521V52.9848L85.3703 53.3175V53.6503M85.3703 53.6503V53.6503ZM85.3703 53.6503V53.983M85.3703 53.983V53.983ZM85.3703 53.983L84.9828 54.3157M84.9828 54.3157V54.3157ZM84.9828 54.3157V54.6484M84.9828 54.6484V54.6484ZM84.9828 54.6484H84.5953M84.5953 54.6484V54.6484ZM84.5953 54.6484H84.2077L84.5953 54.9811M84.5953 54.9811V54.9811ZM84.5953 54.9811H84.9828M84.5953 54.9811V55.3138M84.9828 54.9811V54.9811ZM84.5953 55.3138V55.3138ZM84.5953 55.3138V55.6466H84.9828M84.9828 55.6466V55.6466ZM84.9828 55.6466V55.9793M84.9828 55.9793V55.9793ZM84.9828 55.9793H84.5953M84.5953 55.9793V55.9793ZM84.5953 55.9793V56.312M84.5953 56.312V56.312ZM84.5953 56.312H84.2077M84.2077 56.312V56.312ZM84.2077 56.312V56.6447M84.2077 56.6447V56.6447ZM84.2077 56.6447V56.9774M84.2077 56.9774V56.9774ZM84.2077 56.9774L83.8202 57.3102M83.8202 57.3102V57.3102ZM83.8202 57.3102L83.4327 57.6429M83.4327 57.6429V57.6429ZM83.4327 57.6429V57.9756H83.0452M83.0452 57.9756V57.9756ZM83.0452 57.9756V58.3083H83.4327M83.4327 58.3083V58.3083ZM83.4327 58.3083V58.641H83.8202L84.2077 58.3083V58.641M84.2077 58.641V58.641ZM84.2077 58.641H84.5953M84.5953 58.641V58.641ZM84.5953 58.641H84.9828M84.9828 58.641V58.641ZM84.9828 58.641L85.3703 58.3083H85.7579V58.641H86.1454V58.9737M86.1454 58.9737V58.9737ZM86.1454 58.9737V59.3065M86.1454 59.3065V59.3065ZM86.1454 59.3065V59.6392M86.1454 59.6392V59.6392ZM86.1454 59.6392H86.5329M86.5329 59.6392V59.6392ZM86.5329 59.6392H86.9204M86.9204 59.6392V59.6392ZM86.9204 59.6392V59.9719M86.9204 59.9719V59.9719ZM86.9204 59.9719V60.3046H87.308M87.308 60.3046V60.3046ZM87.308 60.3046V60.6373M87.308 60.6373V60.6373ZM87.308 60.6373H87.6955M87.6955 60.6373V60.6373ZM87.6955 60.6373V60.9701H87.308M87.308 60.9701V60.9701ZM87.308 60.9701H86.9204M86.9204 60.9701V60.9701ZM86.9204 60.9701V61.3028M86.9204 61.3028V61.3028ZM86.9204 61.3028H87.308M87.308 61.3028V61.3028ZM87.308 61.3028V61.6355M87.308 61.6355V61.6355ZM87.308 61.6355H87.6955M87.6955 61.6355V61.6355ZM87.6955 61.6355V61.9682M87.6955 61.9682V61.9682ZM87.6955 61.9682H87.308M87.308 61.9682V61.9682ZM87.308 61.9682V62.3009H87.6955M87.6955 62.3009V62.3009ZM87.6955 62.3009V62.6336M87.6955 62.6336V62.6336ZM87.6955 62.6336V62.9664M87.6955 62.6336H87.308M87.6955 62.9664V62.9664ZM87.308 62.6336V62.6336ZM87.308 62.6336H86.9204M86.9204 62.6336V62.6336ZM86.9204 62.6336V62.9664M86.9204 62.6336H86.5329M86.5329 62.6336V62.6336ZM86.5329 62.6336L86.1454 62.3009V62.6336M86.1454 62.6336V62.6336ZM86.1454 62.6336L85.7579 62.9664M85.7579 62.9664V62.9664ZM85.7579 62.9664V63.2991M85.7579 63.2991V63.2991ZM85.7579 63.2991H85.3703M85.3703 63.2991V63.2991ZM85.3703 63.2991V63.6318M85.3703 63.6318V63.6318ZM85.3703 63.6318H84.9828M84.9828 63.6318V63.6318ZM84.9828 63.6318V63.2991M84.9828 63.2991V63.2991ZM84.9828 63.2991H84.5953M84.5953 63.2991V63.2991ZM84.5953 63.2991H84.2077V62.9664M84.2077 62.9664V62.9664ZM84.2077 62.9664H83.8202M83.8202 62.9664V62.9664ZM83.8202 62.9664H83.4327M83.4327 62.9664V62.9664ZM83.4327 62.9664H83.0452V62.6336M83.0452 62.6336V62.6336ZM83.0452 62.6336L82.6576 62.3009M82.6576 62.3009V62.3009ZM82.6576 62.3009V61.9682H83.0452M83.0452 61.9682V61.9682ZM83.0452 61.9682H83.4327M83.4327 61.9682V61.9682ZM83.4327 61.9682V61.6355M83.4327 61.6355V61.6355ZM83.4327 61.6355H83.8202M83.8202 61.6355V61.6355ZM83.8202 61.6355V61.3028M83.8202 61.3028V61.3028ZM83.8202 61.3028H83.4327M83.4327 61.3028V61.3028ZM83.4327 61.3028V60.9701M83.4327 60.9701V60.9701ZM83.4327 60.9701L83.8202 60.6373M83.8202 60.6373V60.9701M83.8202 60.6373H84.2077M83.8202 60.6373V60.3046M83.8202 60.9701V60.9701ZM83.8202 60.9701H84.2077M84.2077 60.9701V60.9701ZM84.2077 60.9701V60.6373M84.2077 60.6373V60.6373ZM83.8202 60.3046V60.3046ZM83.8202 60.3046V59.9719M83.8202 59.9719V59.9719ZM83.8202 59.9719H83.4327M83.8202 59.9719V59.6392M83.4327 59.9719V59.9719ZM83.8202 59.6392V59.6392ZM83.8202 59.6392H83.4327M83.4327 59.6392V59.6392ZM83.4327 59.6392H83.0452M83.0452 59.6392V59.6392ZM83.0452 59.6392L82.6576 59.3065M82.6576 59.3065V59.3065ZM82.6576 59.3065V58.9737M82.6576 58.9737V58.9737ZM82.6576 58.9737V58.641M82.6576 58.9737H82.2701M82.6576 58.641V58.641ZM82.6576 58.641H82.2701V58.9737M82.2701 58.9737V58.9737ZM82.2701 58.9737V59.3065M82.2701 59.3065V59.3065ZM82.2701 59.3065H81.8826M81.8826 59.3065V59.3065ZM81.8826 59.3065V58.9737H81.4951M81.4951 58.9737V58.9737ZM81.4951 58.9737L81.1075 59.3065M81.1075 59.3065V59.3065ZM81.1075 59.3065H80.72M80.72 59.3065V59.3065ZM80.72 59.3065V59.6392M80.72 59.6392V59.6392ZM80.72 59.6392H80.3325M80.3325 59.6392V59.6392ZM80.3325 59.6392H79.945V59.9719M79.945 59.9719V59.9719ZM79.945 59.9719H79.5574M79.5574 59.9719V59.9719ZM79.5574 59.9719H79.1699M79.1699 59.9719V59.9719ZM79.1699 59.9719H78.7824M78.7824 59.9719V59.9719ZM78.7824 59.9719H78.3949M78.3949 59.9719V59.6392M78.3949 59.9719H78.0073M78.3949 59.6392V59.6392ZM78.0073 59.9719V60.3046M78.0073 59.9719H77.6198M78.0073 60.3046V60.3046ZM77.6198 59.9719V59.9719ZM77.6198 59.9719V60.3046M77.6198 60.3046H77.2323M77.6198 60.3046V60.3046ZM77.2323 60.3046V60.3046ZM77.2323 60.3046V60.6373M77.2323 60.6373V60.6373ZM77.2323 60.6373V60.9701M77.2323 60.9701V60.9701ZM77.2323 60.9701V61.3028M77.2323 61.3028V61.3028ZM77.2323 61.3028H76.8448M76.8448 61.3028V61.3028ZM76.8448 61.3028V61.6355M76.8448 61.6355V61.6355ZM76.8448 61.6355H76.4572M76.4572 61.6355V61.6355ZM76.4572 61.6355V61.9682M76.4572 61.9682V61.9682ZM76.4572 61.9682H76.0697M76.0697 61.9682V61.9682ZM76.0697 61.9682V62.3009H75.6822V62.6336M75.6822 62.6336V62.6336ZM75.6822 62.6336L75.2947 62.9664M75.2947 62.9664V62.9664ZM75.2947 62.9664L74.9071 63.2991M74.9071 63.2991V63.2991ZM74.9071 63.2991H74.5196M74.5196 63.2991V63.2991ZM74.5196 63.2991H74.1321H73.7446M73.7446 63.2991V63.2991ZM73.7446 63.2991L73.357 62.9664M73.357 62.9664V62.9664ZM73.357 62.9664L72.9695 62.6336M72.9695 62.6336H73.357M72.9695 62.6336V62.3009M72.9695 62.6336V62.6336ZM73.357 62.6336V62.6336ZM72.9695 62.3009V62.3009ZM72.9695 62.3009H72.582M72.582 62.3009V62.3009ZM72.582 62.3009V62.6336M72.582 62.6336V62.6336ZM72.582 62.6336H72.1945M72.1945 62.6336V62.6336ZM72.1945 62.6336H71.8069V62.9664M71.8069 62.9664V62.9664ZM71.8069 62.9664H71.4194M71.4194 62.9664V62.9664ZM71.4194 62.9664H71.0319M71.0319 62.9664V62.9664ZM71.0319 62.9664H70.6444M70.6444 62.9664V62.9664ZM70.6444 62.9664H70.2568M70.2568 62.9664V62.9664ZM70.2568 62.9664V63.2991M70.2568 63.2991V63.2991ZM70.2568 63.2991H70.6444M70.6444 63.2991V63.2991ZM70.6444 63.2991L70.2568 63.6318M70.2568 63.6318V63.6318ZM70.2568 63.6318L69.8693 63.9645M69.8693 63.9645V63.9645ZM69.8693 63.9645L69.4818 63.6318V63.9645M69.4818 63.9645V63.9645ZM69.4818 63.9645V64.2972M69.4818 64.2972V64.2972ZM69.4818 64.2972H69.8693M69.8693 64.2972V64.2972ZM69.8693 64.2972V64.63M69.8693 64.63V64.63ZM69.8693 64.63H70.2568V64.9627M70.2568 64.9627V64.9627ZM70.2568 64.9627V65.2954M70.2568 65.2954V65.2954ZM70.2568 65.2954V65.6281M70.2568 65.6281V65.6281ZM70.2568 65.6281H70.6444V65.9608M70.6444 65.9608V65.9608ZM70.6444 65.9608H71.0319M71.0319 65.9608V65.9608ZM71.0319 65.9608H71.4194M71.0319 65.9608V66.2935M71.0319 65.9608L70.6444 66.2935M71.4194 65.9608V65.9608ZM71.4194 65.9608L71.0319 66.2935M71.0319 66.2935V66.2935ZM70.6444 66.2935V66.2935ZM70.6444 66.2935V66.6263M70.6444 66.6263V66.6263ZM70.6444 66.6263H70.2568M70.2568 66.6263V66.6263ZM70.2568 66.6263V66.959M70.2568 66.959V66.959ZM70.2568 66.959H69.8693M69.8693 66.959V66.959ZM69.8693 66.959H69.4818M69.4818 66.959V66.959ZM69.4818 66.959V67.2917M69.4818 66.959H69.0943M69.4818 67.2917V67.2917ZM69.0943 66.959V66.959ZM69.0943 66.959V67.2917M69.0943 67.2917V67.2917ZM69.0943 67.2917L68.7067 67.6244M68.7067 67.6244V67.6244ZM68.7067 67.6244H69.0943M68.7067 67.6244L68.3192 67.9571M68.3192 67.9571V67.9571ZM68.3192 67.9571H67.9317V67.6244M67.9317 67.6244V67.6244ZM67.9317 67.6244V67.2917M67.9317 67.2917V67.2917ZM67.9317 67.2917L68.3192 66.959M68.3192 66.959V66.959ZM68.3192 66.959V66.6263M68.3192 66.6263V66.6263ZM68.3192 66.6263V66.2935H67.9317M67.9317 66.2935V66.2935ZM67.9317 66.2935V66.6263M67.9317 66.6263V66.6263ZM67.9317 66.6263L67.5442 66.2935V66.6263M67.5442 66.6263V66.6263ZM67.5442 66.6263H67.1566M67.1566 66.6263V66.6263ZM67.1566 66.6263H66.7691M66.7691 66.6263V66.6263ZM66.7691 66.6263V66.959M66.7691 66.959V66.959ZM66.7691 66.959H66.3816M66.3816 66.959V66.959ZM66.3816 66.959V67.2917M66.3816 67.2917V67.2917ZM66.3816 67.2917H65.994M65.994 67.2917V67.2917ZM65.994 67.2917H65.6065M65.6065 67.2917V67.2917ZM65.6065 67.2917V67.6244M65.6065 67.6244V67.6244ZM65.6065 67.6244H65.219M65.219 67.6244V67.6244ZM65.219 67.6244H64.8315V67.9571M64.8315 67.9571V67.9571ZM64.8315 67.9571V68.2899M64.8315 68.2899V68.2899ZM64.8315 68.2899H64.4439M64.4439 68.2899V68.2899ZM64.4439 68.2899V68.6226M64.4439 68.6226V68.6226ZM64.4439 68.6226H64.0564M64.0564 68.6226V68.6226ZM64.0564 68.6226V68.9553M64.0564 68.9553V68.9553ZM64.0564 68.9553H63.6689L64.0564 69.288H63.6689M63.6689 69.288V69.288ZM63.6689 69.288V69.6207M63.6689 69.6207V69.6207ZM63.6689 69.6207H63.2814V69.288H62.5063M62.5063 69.288V69.288ZM62.5063 69.288V69.6207H62.1188L61.7313 69.288H61.3437M61.3437 69.288V69.288ZM61.3437 69.288H60.9562V68.9553M60.9562 68.9553V68.9553ZM60.9562 68.9553H61.3437M60.9562 68.9553L60.5687 68.6226H60.1812M61.3437 68.9553V68.9553ZM60.1812 68.6226V68.6226ZM60.1812 68.6226V68.2899M60.1812 68.2899V68.2899ZM60.1812 68.2899H59.7936M59.7936 68.2899V68.2899ZM59.7936 68.2899H59.4061M59.4061 68.2899V68.2899ZM59.4061 68.2899V67.9571M59.4061 67.9571V67.9571ZM59.4061 67.9571V67.6244H59.0186M59.0186 67.6244V67.6244ZM59.0186 67.6244L58.6311 67.9571M58.6311 67.9571V67.9571ZM58.6311 67.9571H58.2435M58.2435 67.9571V67.9571ZM58.2435 67.9571H57.856M57.856 67.9571V67.9571ZM57.856 67.9571H57.4685M57.4685 67.9571V67.9571ZM57.4685 67.9571V68.2899M57.4685 68.2899V68.2899ZM57.4685 68.2899V68.6226H57.081H56.3059L55.5309 68.9553H55.1433M55.1433 68.9553V68.9553ZM55.1433 68.9553V68.6226M55.1433 68.6226V68.6226ZM55.1433 68.6226V68.2899M55.1433 68.2899V68.2899ZM55.1433 68.2899V67.9571H54.7558M54.7558 67.9571V67.9571ZM54.7558 67.9571H54.3683M54.3683 67.9571V67.9571ZM54.3683 67.9571V67.6244H53.9808M53.9808 67.6244V67.6244ZM53.9808 67.6244V67.9571M53.9808 67.9571V67.9571ZM53.9808 67.9571V68.2899M53.9808 68.2899V68.2899ZM53.9808 68.2899H53.5932M53.5932 68.2899V68.2899ZM53.5932 68.2899H53.2057M53.2057 68.2899V68.2899ZM53.2057 68.2899V67.9571M53.2057 67.9571V67.9571ZM53.2057 67.9571H52.8182M52.8182 67.9571V67.9571ZM52.8182 67.9571L52.4307 68.2899M52.4307 68.2899V68.2899ZM52.4307 68.2899V68.6226H52.0431M52.0431 68.6226V68.6226ZM52.0431 68.6226V68.9553H52.4307M52.4307 68.9553V68.9553ZM52.4307 68.9553V69.288M52.4307 69.288V69.288ZM52.4307 69.288H52.0431M52.0431 69.288V69.288ZM52.0431 69.288V69.6207M52.0431 69.6207V69.6207ZM52.0431 69.6207H51.6556M51.6556 69.6207V69.6207ZM51.6556 69.6207V69.288M51.6556 69.288V69.288ZM51.6556 69.288V68.9553M51.6556 68.9553V68.9553ZM51.6556 68.9553H51.2681M51.2681 68.9553V68.9553ZM51.2681 68.9553V68.6226M51.2681 68.9553H50.8806V68.6226M50.8806 68.6226V68.6226ZM50.8806 68.6226H50.493M50.493 68.6226V68.6226ZM50.493 68.6226H50.1055M50.1055 68.6226V68.6226ZM50.1055 68.6226H49.718M49.718 68.6226V68.6226ZM49.718 68.6226H49.3305M49.3305 68.6226V68.6226ZM49.3305 68.6226H48.9429M48.9429 68.6226V68.6226ZM48.9429 68.6226V68.9553H48.5554M48.5554 68.9553V68.9553ZM48.5554 68.9553V68.6226M48.5554 68.6226V68.6226ZM48.5554 68.6226H48.1679M48.1679 68.6226V68.6226ZM48.1679 68.6226V68.2899M48.1679 68.2899V68.2899ZM48.1679 68.2899H47.7804M47.7804 68.2899V68.2899ZM47.7804 68.2899V68.6226M47.7804 68.2899H47.3928M47.7804 68.6226V68.6226ZM47.3928 68.2899V68.2899ZM47.3928 68.2899H47.0053L47.3928 67.9571M47.3928 67.9571V67.9571ZM47.3928 67.9571H47.0053M47.0053 67.9571V67.9571ZM47.0053 67.9571H46.6178V67.6244M46.6178 67.6244V67.6244ZM46.6178 67.6244V67.2917M46.6178 67.2917V67.2917ZM46.6178 67.2917H46.2302M46.2302 67.2917V67.2917ZM46.2302 67.2917V66.959M46.2302 66.959V66.959ZM46.2302 66.959H46.6178M46.6178 66.959V66.959ZM46.6178 66.959V66.6263M46.6178 66.6263V66.6263ZM46.6178 66.6263H47.0053M47.0053 66.6263V66.6263ZM47.0053 66.6263V66.2935M47.0053 66.2935V66.2935ZM47.0053 66.2935V65.9608M47.0053 65.9608V65.9608ZM47.0053 65.9608V65.6281M47.0053 65.6281V65.6281ZM47.0053 65.6281V65.2954M47.0053 65.2954V65.2954ZM47.0053 65.2954H47.3928L47.0053 64.9627M47.0053 64.9627V64.9627ZM47.0053 64.9627V64.63M47.0053 64.63V64.63ZM47.0053 64.63V64.2972L46.6178 63.9645M46.6178 63.9645V63.9645ZM46.6178 63.9645V63.6318V63.2991M46.6178 63.2991V63.2991ZM46.6178 63.2991V62.9664M46.6178 62.9664V62.9664ZM46.6178 62.9664H46.2302M46.2302 62.9664V62.9664ZM46.2302 62.9664V62.6336M46.2302 62.6336V62.6336ZM46.2302 62.6336H45.8427V62.3009M45.8427 62.3009V62.3009ZM45.8427 62.3009H45.4552M45.4552 62.3009V62.3009ZM45.4552 62.3009V61.9682H45.0677M45.0677 61.9682V61.9682ZM45.0677 61.9682V61.6355M45.0677 61.6355V61.6355ZM45.0677 61.6355L44.6801 61.3028M44.6801 61.3028V61.3028ZM44.6801 61.3028V60.9701M44.6801 60.9701V60.9701ZM44.6801 60.9701H44.2926M44.2926 60.9701V60.9701ZM44.2926 60.9701V60.6373M44.2926 60.6373V60.6373ZM44.2926 60.6373H43.9051V60.3046M43.9051 60.3046V60.3046ZM43.9051 60.3046H43.5176M43.5176 60.3046V60.3046ZM43.5176 60.3046H43.13M43.13 60.3046V60.3046ZM43.13 60.3046H42.7425V59.9719M42.7425 59.9719V59.9719ZM42.7425 59.9719H42.355V60.3046M42.355 60.3046V60.3046ZM42.355 60.3046H41.9675V59.9719M41.9675 59.9719V59.9719ZM41.9675 59.9719L41.5799 59.6392M41.5799 59.6392V59.6392ZM41.5799 59.6392V59.3065H41.1924M41.1924 59.3065V59.3065ZM41.1924 59.3065H40.8049M40.8049 59.3065V59.3065ZM40.8049 59.3065V58.9737H40.4174M40.4174 58.9737V58.9737ZM40.4174 58.9737V58.641M40.4174 58.641V58.641ZM40.4174 58.641H40.0298V58.9737H39.6423M39.6423 58.9737V58.9737ZM39.6423 58.9737H39.2548M39.2548 58.9737V58.9737ZM39.2548 58.9737L38.8673 58.641H38.4797M38.4797 58.641V58.641ZM38.4797 58.641V58.3083V57.9756H38.8673M38.8673 57.9756V57.9756ZM38.8673 57.9756L38.4797 57.6429H38.0922M38.0922 57.6429V57.6429ZM38.0922 57.6429L37.7047 57.3102M37.7047 57.3102V57.3102ZM37.7047 57.3102V56.9774M37.7047 56.9774V56.9774ZM37.7047 56.9774H38.0922L37.7047 56.6447H37.3172M37.3172 56.6447V56.6447ZM37.3172 56.6447H36.9296M36.9296 56.6447V56.6447ZM36.9296 56.6447H36.5421V56.312H36.1546H35.7671M35.7671 56.312V56.312ZM35.7671 56.312V55.9793M35.7671 55.9793V55.9793ZM35.7671 55.9793L35.3795 56.312L34.992 55.9793V56.312M34.992 56.312V56.312ZM34.992 56.312H34.6045V56.6447V56.9774L34.217 57.3102M34.217 57.3102V57.3102ZM34.217 57.3102H33.8294M33.8294 57.3102V57.3102ZM33.8294 57.3102V56.9774M33.8294 56.9774V56.9774ZM33.8294 56.9774L33.4419 56.6447M33.4419 56.6447V56.6447ZM33.4419 56.6447L33.0544 55.3138L32.2793 54.9811M32.2793 54.9811V54.9811ZM32.2793 54.9811V54.6484M32.2793 54.6484V54.6484ZM32.2793 54.6484V54.3157M32.2793 54.3157V54.3157ZM32.2793 54.3157V53.983M32.2793 53.983V53.983ZM32.2793 53.983V53.6503M32.2793 53.6503V53.6503ZM32.2793 53.6503V53.3175M32.2793 53.3175V53.3175ZM32.2793 53.3175H31.8918V52.9848M31.8918 52.9848V52.9848ZM31.8918 52.9848V52.6521M31.8918 52.6521V52.6521ZM31.8918 52.6521H32.2793M32.2793 52.6521V52.6521ZM32.2793 52.6521V52.3194M32.2793 52.3194V52.3194ZM32.2793 52.3194H32.6669V51.9867M32.6669 51.9867V51.9867ZM32.6669 51.9867H32.2793M32.2793 51.9867V51.9867ZM32.2793 51.9867V51.6539M32.2793 51.6539V51.6539ZM32.2793 51.6539H31.8918V51.3212H32.2793M32.2793 51.3212V51.3212ZM32.2793 51.3212V50.9885M32.2793 50.9885V50.9885ZM32.2793 50.9885H32.6669M32.6669 50.9885V50.9885ZM32.6669 50.9885V50.6558M32.6669 50.6558V50.6558ZM32.6669 50.6558V50.3231H33.0544M33.0544 50.3231V50.3231ZM33.0544 50.3231V49.9904M33.0544 49.9904H33.4419M33.0544 49.9904V49.9904ZM33.4419 49.9904V49.9904ZM33.4419 49.9904V49.6576M33.4419 49.6576V49.6576ZM33.4419 49.6576H33.0544M33.0544 49.6576V49.6576ZM33.0544 49.6576V49.3249M33.0544 49.3249V49.3249ZM33.0544 49.3249V48.9922M33.0544 48.9922V48.9922ZM33.0544 48.9922H32.6669M32.6669 48.9922V48.9922ZM32.6669 48.9922V48.6595M32.6669 48.6595V48.6595ZM32.6669 48.6595H33.0544M33.0544 48.6595V48.6595ZM33.0544 48.6595V48.3268M33.0544 48.3268V48.3268ZM33.0544 48.3268V47.994M33.0544 47.994V47.994ZM33.0544 47.994V47.6613M33.0544 47.6613V47.6613ZM33.0544 47.6613H33.4419M33.4419 47.6613V47.6613ZM33.4419 47.6613V47.3286M33.4419 47.3286V47.3286ZM33.4419 47.3286H33.8294M33.8294 47.3286V47.3286ZM33.8294 47.3286V46.9959M33.8294 46.9959V46.9959ZM33.8294 46.9959H34.217M34.217 46.9959V46.9959ZM34.217 46.9959V47.3286M34.217 46.9959H34.6045M34.217 46.9959V46.6632M34.6045 46.9959V46.9959ZM34.217 46.6632V46.6632ZM34.217 46.6632H34.6045M34.6045 46.6632V46.6632ZM34.6045 46.6632H34.992M34.992 46.6632V46.6632ZM34.992 46.6632V46.3305M34.992 46.3305V46.3305ZM34.992 46.3305H35.3795M34.992 46.3305V45.9977M35.3795 46.3305V46.3305ZM34.992 45.9977V45.9977ZM34.992 45.9977H35.3795M35.3795 45.9977V45.9977ZM35.3795 45.9977V45.665M35.3795 45.665V45.665ZM35.3795 45.665V45.3323M35.3795 45.3323H35.7671M35.3795 45.3323V45.3323ZM35.3795 45.3323V44.9996M35.7671 45.3323V45.3323ZM35.3795 44.9996V44.9996ZM35.3795 44.9996H35.7671M35.3795 44.9996V44.6669M35.7671 44.9996V44.9996ZM35.3795 44.6669V44.6669ZM35.3795 44.6669V44.3341M35.3795 44.3341V44.3341ZM35.3795 44.3341H34.992V44.0014M34.992 44.0014V44.0014ZM34.992 44.0014V43.6687M34.992 43.6687V43.6687ZM34.992 43.6687V43.336M34.992 43.336V43.336ZM34.992 43.336V43.0033M34.992 43.0033V43.0033ZM34.992 43.0033H34.6045M34.6045 43.0033V43.0033ZM34.6045 43.0033V42.6706M34.6045 42.6706V42.6706ZM34.6045 42.6706H34.217M34.217 42.6706V42.6706ZM34.217 42.6706V43.0033M34.217 43.0033V43.0033ZM34.217 43.0033H33.8294M33.8294 43.0033V43.0033ZM33.8294 43.0033V42.6706M33.8294 42.6706V42.6706ZM33.8294 42.6706V42.3378M33.8294 42.3378V42.3378ZM33.8294 42.3378H33.4419M33.4419 42.3378V42.3378ZM33.4419 42.3378V42.6706M33.4419 42.3378H33.0544M33.4419 42.3378V42.0051M33.4419 42.6706V42.6706ZM33.4419 42.0051V42.0051ZM33.4419 42.0051H33.0544M33.0544 42.0051V42.0051ZM33.0544 42.0051V41.6724M33.0544 41.6724V41.6724ZM33.0544 41.6724V41.3397H32.6669M32.6669 41.3397V41.3397ZM32.6669 41.3397V41.007M32.6669 41.007V41.007ZM32.6669 41.007H32.2793M32.2793 41.007V41.007ZM32.2793 41.007V41.3397M32.2793 41.007L31.8918 40.6742M32.2793 41.3397V41.3397ZM31.8918 40.6742V40.6742ZM31.8918 40.6742L31.5043 41.007M31.5043 41.007V41.007ZM31.5043 41.007H31.8918M31.5043 41.007V41.3397M31.5043 41.007V40.6742M31.8918 41.007V41.007ZM31.8918 41.007V41.3397M31.8918 41.3397V41.3397ZM31.8918 41.3397H31.5043M31.5043 41.3397V41.3397ZM31.5043 40.6742V40.6742ZM31.5043 40.6742H31.1168M31.1168 40.6742V40.6742ZM31.1168 40.6742V40.3415M31.1168 40.3415V40.3415ZM31.1168 40.3415L30.7292 40.0088M30.7292 40.0088V40.0088ZM30.7292 40.0088L30.3417 39.6761M30.3417 39.6761V39.6761ZM30.3417 39.6761V39.3434M30.3417 39.3434V39.3434ZM30.3417 39.3434V39.0106M30.3417 39.0106V39.0106ZM30.3417 39.0106V38.6779M30.3417 38.6779V38.6779ZM30.3417 38.6779H29.9542M29.9542 38.6779V38.6779ZM29.9542 38.6779H29.5667M29.5667 38.6779V38.6779ZM29.5667 38.6779L29.1791 39.0106M29.1791 39.0106V39.0106ZM29.1791 39.0106H28.7916M28.7916 39.0106V39.0106ZM28.7916 39.0106L28.4041 39.3434M28.4041 39.3434V39.3434ZM28.4041 39.3434H28.0166M28.0166 39.3434V39.3434ZM28.0166 39.3434V39.0106H27.629M27.629 39.0106V39.0106ZM27.629 39.0106H27.2415M27.2415 39.0106V39.0106ZM27.2415 39.0106H26.854M26.854 39.0106V39.0106ZM26.854 39.0106L26.0789 38.6779M26.0789 38.6779V38.6779ZM26.0789 38.6779H25.6914H25.3039M25.3039 38.6779V38.6779ZM25.3039 38.6779H24.9163M24.9163 38.6779V38.6779ZM24.9163 38.6779H24.5288M24.5288 38.6779V38.6779ZM24.5288 38.6779H24.1413M24.1413 38.6779V38.6779ZM24.1413 38.6779H23.7538M23.7538 38.6779V38.6779ZM23.7538 38.6779L23.3662 39.0106M23.3662 39.0106V39.0106ZM23.3662 39.0106H22.9787M22.9787 39.0106V39.0106ZM22.9787 39.0106H22.5912M22.5912 39.0106V39.0106ZM22.5912 39.0106H22.2037M22.2037 39.0106V39.0106ZM22.2037 39.0106V39.3434M22.2037 39.3434V39.3434ZM22.2037 39.3434V39.6761M22.2037 39.6761V39.6761ZM22.2037 39.6761H21.8161M21.8161 39.6761V39.6761ZM21.8161 39.6761H21.4286M21.4286 39.6761V39.6761ZM21.4286 39.6761H21.0411M21.0411 39.6761V39.6761ZM21.0411 39.6761H20.6536V39.3434M20.6536 39.3434V39.3434ZM20.6536 39.3434L20.266 39.0106M20.266 39.0106V39.0106ZM20.266 39.0106V38.6779H20.6536M20.6536 38.6779V38.6779ZM20.6536 38.6779V38.3452M20.6536 38.3452V38.3452ZM20.6536 38.3452L20.266 38.0125M20.266 38.0125V38.0125ZM20.266 38.0125H19.8785M19.8785 38.0125V38.0125ZM19.8785 38.0125H19.491V38.3452M19.491 38.3452V38.3452ZM19.491 38.3452H19.1035M19.1035 38.3452V38.3452ZM19.1035 38.3452H18.7159M18.7159 38.3452V38.3452ZM18.7159 38.3452H18.3284M18.3284 38.3452V38.3452ZM18.3284 38.3452L17.9409 38.0125M17.9409 38.0125V38.0125ZM17.9409 38.0125H17.5534M17.5534 38.0125V38.0125ZM17.5534 38.0125H17.1658V37.6798M17.1658 37.6798V37.6798ZM17.1658 37.6798H16.7783M16.7783 37.6798V37.6798ZM16.7783 37.6798V37.3471M16.7783 37.3471V37.3471ZM16.7783 37.3471H16.3908M16.3908 37.3471V37.3471ZM16.3908 37.3471H16.0033M16.0033 37.3471V37.3471ZM16.0033 37.3471H15.6157V37.0143M15.6157 37.0143V37.0143ZM15.6157 37.0143H15.2282M15.2282 37.0143V37.0143ZM15.2282 37.0143H14.8407V36.6816M14.8407 36.6816V36.6816ZM14.8407 36.6816V36.3489M14.8407 36.3489V36.3489ZM14.8407 36.3489H14.4532M14.4532 36.3489V36.3489ZM14.4532 36.3489V36.0162M14.4532 36.0162V36.0162ZM14.4532 36.0162H14.0656M14.0656 36.0162V36.0162ZM14.0656 36.0162L13.6781 35.6835M13.6781 35.6835V35.6835ZM13.6781 35.6835L13.2906 35.3507M13.2906 35.3507V35.3507ZM13.2906 35.3507H12.9031M12.9031 35.3507V35.3507ZM12.9031 35.3507H12.5155M12.5155 35.3507V35.3507ZM12.5155 35.3507L12.128 35.018M12.128 35.018V35.018ZM12.128 35.018H11.7405M11.7405 35.018V35.018ZM11.7405 35.018L11.353 35.3507M11.353 35.3507V35.3507ZM11.353 35.3507H10.9654M10.9654 35.3507V35.3507ZM10.9654 35.3507H10.5779V35.018M10.5779 35.018V35.018ZM10.5779 35.018V34.6853H10.1904M10.1904 34.6853V34.6853ZM10.1904 34.6853V34.3526H9.80285M9.80285 34.3526V34.3526ZM9.80285 34.3526V34.0199M9.80285 34.0199V34.0199ZM9.80285 34.0199V33.6872M9.80285 33.6872V33.6872ZM9.80285 33.6872L9.41533 33.3544M9.41533 33.3544V33.3544ZM9.41533 33.3544V33.0217H9.0278M9.0278 33.0217V33.0217ZM9.0278 33.0217V32.689M9.0278 32.689V32.689ZM9.0278 32.689L8.64028 32.3563M8.64028 32.3563V32.3563ZM8.64028 32.3563V32.689M8.64028 32.689V32.689ZM8.64028 32.689H8.25275M8.25275 32.689V32.689ZM8.25275 32.689V33.0217H7.86522M7.86522 33.0217V33.0217ZM7.86522 33.0217V33.3544H7.4777M7.4777 33.3544V33.3544ZM7.4777 33.3544V33.6872M7.4777 33.6872V33.6872ZM7.4777 33.6872H7.09017M7.09017 33.6872V33.6872ZM7.09017 33.6872H6.70265M6.70265 33.6872V33.6872ZM6.70265 33.6872V33.3544M6.70265 33.3544V33.3544ZM6.70265 33.3544V33.0217M6.70265 33.0217V33.0217ZM6.70265 33.0217V32.689M6.70265 32.689V32.689ZM6.70265 32.689H7.09017M7.09017 32.689V32.689ZM7.09017 32.689V32.3563M7.09017 32.3563V32.3563ZM7.09017 32.3563V32.0236M7.09017 32.0236V32.0236ZM7.09017 32.0236V31.6908M7.09017 31.6908V31.6908ZM7.09017 31.6908H6.70265M6.70265 31.6908V31.6908ZM6.70265 31.6908V31.3581M6.70265 31.3581V31.3581ZM6.70265 31.3581H6.31512M6.31512 31.3581V31.3581ZM6.31512 31.3581V31.0254M6.31512 31.0254V31.0254ZM6.31512 31.0254H6.70265M6.31512 31.0254V30.6927M6.31512 31.0254H5.9276M6.31512 30.6927V30.6927ZM6.31512 30.6927H6.70265M6.70265 30.6927V30.6927ZM5.9276 31.0254V31.0254ZM5.9276 31.0254V31.3581H5.54007M5.54007 31.3581V31.0254M5.54007 31.3581V31.3581ZM5.54007 31.3581H5.15255V31.0254H5.54007M5.54007 31.0254V31.0254ZM5.54007 31.0254V30.6927M5.54007 30.6927V30.6927ZM5.54007 30.6927L5.9276 30.36M5.9276 30.36V30.36ZM5.9276 30.36V30.0273M5.9276 30.0273V30.0273ZM5.9276 30.0273V29.6945M5.9276 29.6945V29.6945ZM5.9276 29.6945H6.31512M6.31512 29.6945V29.6945ZM6.31512 29.6945V29.3618M6.31512 29.3618V29.3618ZM6.31512 29.3618V29.0291M6.31512 29.0291V29.0291ZM6.31512 29.0291V28.6964M6.31512 28.6964V28.6964ZM6.31512 28.6964V28.3637M6.31512 28.3637V28.3637ZM6.31512 28.3637V28.0309M6.31512 28.0309V28.0309ZM6.31512 28.0309V27.6982M6.31512 27.6982V27.6982ZM6.31512 27.6982V27.3655M6.31512 27.3655V27.3655ZM6.31512 27.3655V27.0328M6.31512 27.0328V27.0328ZM6.31512 27.0328V26.7001H5.9276M5.9276 26.7001V26.7001ZM5.9276 26.7001V26.3674M5.9276 26.3674V26.3674ZM5.9276 26.3674L5.54007 26.0346M5.54007 26.0346V26.0346ZM5.54007 26.0346V25.7019M5.54007 25.7019V25.7019ZM5.54007 25.7019V25.3692M5.54007 25.3692V25.3692ZM5.54007 25.3692V25.0365M5.54007 25.0365V25.0365ZM5.54007 25.0365V24.7038M5.54007 24.7038V24.7038ZM5.54007 24.7038H5.15255M5.15255 24.7038V24.7038ZM5.15255 24.7038V24.371M5.15255 24.371V24.371ZM5.15255 24.371V24.0383M5.15255 24.0383V24.0383ZM5.15255 24.0383H4.76502M4.76502 24.0383V24.0383ZM4.76502 24.0383V23.7056M4.76502 23.7056V23.7056ZM4.76502 23.7056V23.3729M4.76502 23.3729V23.3729ZM4.76502 23.3729V23.0402M4.76502 23.0402V23.0402ZM4.76502 23.0402H4.37749M4.76502 23.0402V22.7075M4.37749 23.0402V23.0402ZM4.37749 23.0402V22.7075M4.37749 22.7075V22.7075ZM4.37749 22.7075V22.3747M4.37749 22.7075H4.76502M4.37749 22.3747V22.3747ZM4.37749 22.3747H4.76502M4.37749 22.3747V22.042M4.76502 22.7075V22.7075ZM4.76502 22.7075V22.3747M4.76502 22.3747V22.3747ZM4.37749 22.042V22.042ZM4.37749 22.042V21.7093M4.37749 21.7093V21.7093ZM4.37749 21.7093V21.3766M4.37749 21.3766V21.3766ZM4.37749 21.3766H3.98997M3.98997 21.3766V21.3766ZM3.98997 21.3766V21.0439M3.98997 21.0439V21.0439ZM3.98997 21.0439L3.60244 20.7111M3.60244 20.7111V20.7111ZM3.60244 20.7111H3.21492M3.60244 20.7111V20.3784M3.21492 20.7111V20.7111ZM3.60244 20.3784V20.3784ZM3.60244 20.3784L3.21492 20.0457M3.21492 20.0457V20.0457ZM3.21492 20.0457V19.713M3.21492 19.713V19.713ZM3.21492 19.713V19.3803M3.21492 19.3803V19.3803ZM3.21492 19.3803V19.0476M3.21492 19.0476V19.0476ZM3.21492 19.0476V18.7148M3.21492 18.7148V18.7148ZM3.21492 18.7148V18.3821M3.21492 18.3821V18.3821ZM3.21492 18.3821V18.0494M3.21492 18.0494V18.0494ZM3.21492 18.0494H2.82739V17.7167M2.82739 17.7167V17.7167ZM2.82739 17.7167V17.384M2.82739 17.384V17.384ZM2.82739 17.384V17.0512M2.82739 17.0512V17.0512ZM2.82739 17.0512V16.7185M2.82739 16.7185V16.7185ZM2.82739 16.7185V16.3858M2.82739 16.3858V16.3858ZM2.82739 16.3858V16.0531M2.82739 16.0531V16.0531ZM2.82739 16.0531V15.7204M2.82739 15.7204V15.7204ZM2.82739 15.7204V15.3877M2.82739 15.3877V15.3877ZM2.82739 15.3877V15.0549M2.82739 15.0549V15.0549ZM2.82739 15.0549L3.21492 14.7222M3.21492 14.7222V14.7222ZM3.21492 14.7222V14.3895M3.21492 14.3895V14.3895ZM3.21492 14.3895V14.0568V13.7241M3.21492 13.7241V13.7241ZM3.21492 13.7241V13.3913M3.21492 13.3913V13.3913ZM3.21492 13.3913V13.0586V12.7259M3.21492 12.7259V12.7259ZM3.21492 12.7259V12.3932M3.21492 12.3932V12.3932Z" stroke="#13263A"/>
</svg>
