<svg width="89" height="66" viewBox="0 0 89 66" fill="none" xmlns="http://www.w3.org/2000/svg">
<path d="M85.0634 7.33333V7.33333ZM85.0634 7.33333L85.4569 7.66667H85.8504M85.0634 7.33333V7.66667H84.67V8M85.8504 7.66667V7.66667ZM85.8504 7.66667L86.6374 8.33333V8.66667M86.6374 8.66667V8.66667ZM86.6374 8.66667H87.0309M87.0309 8.66667V8.66667ZM87.0309 8.66667V9M87.0309 9V9ZM87.0309 9H87.4244V9.33333M87.4244 9.33333V9.33333ZM87.4244 9.33333H87.8179M87.8179 9.33333V9.33333ZM87.8179 9.33333V9.66667H88.2114V10M88.2114 10V10ZM88.2114 10V10.3333M88.2114 10.3333V10.3333ZM88.2114 10.3333V10.6667H87.8179M87.8179 10.6667V10.6667ZM87.8179 10.6667V11M87.8179 11V11ZM87.8179 11L87.4244 11.3333M87.4244 11.3333V11.3333ZM87.4244 11.3333V11.6667L87.0309 12M87.0309 12V12ZM87.0309 12V12.3333M87.0309 12.3333V12.3333ZM87.0309 12.3333V12.6667H86.6374M86.6374 12.6667V12.6667ZM86.6374 12.6667H86.2439M86.2439 12.6667V12.6667ZM86.2439 12.6667H85.8504M85.8504 12.6667V12.6667ZM85.8504 12.6667H85.4569M85.4569 12.6667V12.6667ZM85.4569 12.6667H85.0634M85.0634 12.6667V12.6667ZM85.0634 12.6667H84.67V13M84.67 13V13ZM84.67 13H84.2765V13.3333H83.883M83.883 13.3333V13.3333ZM83.883 13.3333H83.4895M83.4895 13.3333V13.3333ZM83.4895 13.3333V13.6667H83.096M83.096 13.6667V13.6667ZM83.096 13.6667V14H82.7025M82.7025 14V14ZM82.7025 14V14.3333M82.7025 14.3333V14.3333ZM82.7025 14.3333V14.6667M82.7025 14.6667V14.6667ZM82.7025 14.6667L82.309 15H82.7025V15.3333M82.7025 15.3333V15.3333ZM82.7025 15.3333H82.309V15.6667V16M82.309 16V16ZM82.309 16V16.3333H81.9155V16.6667M81.9155 16.6667V16.6667ZM81.9155 16.6667H81.5221V17M81.5221 17V17ZM81.5221 17H81.1286V17.3333M81.1286 17.3333V17.3333ZM81.1286 17.3333V17.6667H80.7351M80.7351 17.6667V17.6667ZM80.7351 17.6667V18M80.7351 18V18ZM80.7351 18V18.3333M80.7351 18.3333V18.3333ZM80.7351 18.3333V18.6667H80.3416V19M80.3416 19V19ZM80.3416 19H80.7351M80.7351 19V19ZM80.7351 19V19.3333M80.7351 19.3333V19.3333ZM80.7351 19.3333H80.3416M80.3416 19.3333V19.3333ZM80.3416 19.3333V19.6667V20M80.3416 20V20ZM80.3416 20V20.3333M80.3416 20.3333V20.3333ZM80.3416 20.3333H79.9481V20.6667H79.5546M79.5546 20.6667V20.6667ZM79.5546 20.6667V21M79.5546 21V21ZM79.5546 21V21.3333M79.5546 21.3333V21.3333ZM79.5546 21.3333L79.9481 21.6667H79.5546M79.5546 21.6667V21.6667ZM79.5546 21.6667V22M79.5546 22V22ZM79.5546 22V22.3333M79.5546 22.3333V22.3333ZM79.5546 22.3333L77.9807 23.6667L72.8653 27.6667L73.2588 30.3333L73.6523 31.6667L74.4393 34.3333L74.8327 35.6667L75.2262 37.3333L75.6197 38L76.0132 39L76.4067 40.3333L75.6197 41.3333L75.2262 42V43.6667V44.3333L75.6197 45L77.1937 47.6667L77.5872 48L77.1937 49.3333L77.5872 50.6667L77.9807 51M77.9807 51V51ZM77.9807 51V50.6667M77.9807 50.6667V50.6667ZM77.9807 50.6667V50.3333H78.3741V50.6667M78.3741 50.6667V50.6667ZM78.3741 50.6667H78.7676M78.7676 50.6667V50.6667ZM78.7676 50.6667V51M78.7676 51V51ZM78.7676 51V51.3333M78.7676 51.3333V51.3333ZM78.7676 51.3333V51.6667M78.7676 51.6667H78.3741M78.7676 51.6667V52M78.3741 51.6667V51.6667ZM78.7676 52V52ZM78.7676 52H78.3741M78.3741 52V52ZM78.3741 52V52.3333M78.3741 52.3333H77.9807M78.3741 52.3333V52.3333ZM78.3741 52.3333V52.6667M77.9807 52.3333V52.3333ZM78.3741 52.6667V52.6667ZM78.3741 52.6667V53M78.3741 52.6667L78.7676 53M78.3741 53H78.7676M78.3741 53V53ZM78.3741 53L79.1611 53.3333M78.7676 53V53ZM79.1611 53.3333V53.3333ZM79.1611 53.3333V53.6667M79.1611 53.6667H78.7676M79.1611 53.6667V53.6667ZM79.1611 53.6667H79.5546M79.5546 53.6667V53.6667ZM79.5546 53.6667H79.9481M79.9481 53.6667V53.6667ZM79.9481 53.6667V54M79.9481 54V54ZM79.9481 54H80.3416M80.3416 54V54ZM80.3416 54H80.7351M80.7351 54V54ZM80.7351 54H81.1286M81.1286 54V54ZM81.1286 54L80.7351 54.3333M80.7351 54.3333V54.3333ZM80.7351 54.3333H81.1286M81.1286 54.3333V54.3333ZM81.1286 54.3333V54.6667M81.1286 54.6667V54.6667ZM81.1286 54.6667H80.7351M81.1286 54.6667V55M80.7351 54.6667V54.6667ZM81.1286 55V55ZM81.1286 55H80.7351M80.7351 55V55ZM80.7351 55V55.3333M80.7351 55.3333V55.3333ZM80.7351 55.3333V55.6667L80.3416 55.3333V55.6667M80.3416 55.6667V55.6667ZM80.3416 55.6667H79.9481M79.9481 55.6667V55.6667ZM79.9481 55.6667L79.5546 56M79.5546 56V56ZM79.5546 56V55.6667M79.5546 55.6667V55.6667ZM79.5546 55.6667H79.1611M79.1611 55.6667V55.6667ZM79.1611 55.6667V55.3333M79.1611 55.6667H78.7676M79.1611 55.3333V55.3333ZM78.7676 55.6667V55.6667ZM78.7676 55.6667H78.3741M78.3741 55.6667V55.6667ZM78.3741 55.6667H77.9807M77.9807 55.6667V55.6667ZM77.9807 55.6667H77.5872M77.5872 55.6667V55.6667ZM77.5872 55.6667H77.1937M77.1937 55.6667V55.6667ZM77.1937 55.6667H76.8002M76.8002 55.6667V55.6667ZM76.8002 55.6667H76.4067M76.4067 55.6667V55.6667ZM76.4067 55.6667V56M76.4067 55.6667H76.0132M76.4067 56V56ZM76.4067 56H76.0132M76.0132 55.6667V55.6667ZM76.0132 56V56ZM76.0132 56V56.3333M76.0132 56.3333V56.3333ZM76.0132 56.3333H76.4067M76.0132 56.3333V56.6667M76.4067 56.3333V56.3333ZM76.0132 56.6667V56.6667ZM76.0132 56.6667V57M76.0132 57V57ZM76.0132 57H75.6197M75.6197 57V57ZM75.6197 57H75.2262M75.2262 57V57ZM75.2262 57V57.3333M75.2262 57.3333V57.3333ZM75.2262 57.3333H75.6197M75.6197 57.3333V57.3333ZM75.6197 57.3333L75.2262 57.6667M75.2262 57.6667V57.6667ZM75.2262 57.6667H75.6197M75.6197 57.6667V57.6667ZM75.6197 57.6667V58M75.6197 58V58ZM75.6197 58V58.3333M75.6197 58.3333V58.3333ZM75.6197 58.3333H76.0132V58.6667M76.0132 58.6667V58.6667ZM76.0132 58.6667H75.6197M75.6197 58.6667V58.6667ZM75.6197 58.6667V59M75.6197 59V59ZM75.6197 59V59.3333M75.6197 59.3333V59.3333ZM75.6197 59.3333H75.2262M75.2262 59.3333V59.3333ZM75.2262 59.3333V59M75.2262 59V59ZM75.2262 59H74.8327M74.8327 59V59ZM74.8327 59V59.3333M74.8327 59.3333V59.3333ZM74.8327 59.3333H74.4393M74.4393 59.3333V59.3333ZM74.4393 59.3333V59M74.4393 59.3333H74.0458M74.4393 59V59ZM74.0458 59.3333V59.3333ZM74.0458 59.3333V59.6667M74.0458 59.6667V59.6667ZM74.0458 59.6667H73.6523M73.6523 59.6667V59.6667ZM73.6523 59.6667V60M73.6523 60V60ZM73.6523 60H73.2588M73.2588 60V60ZM73.2588 60V60.3333M73.2588 60.3333V60.3333ZM73.2588 60.3333H72.8653V60.6667M72.8653 60.6667V60.6667ZM72.8653 60.6667H73.2588M72.8653 60.6667L73.2588 61M73.2588 61V61ZM73.2588 61H72.8653M73.2588 61V61.3333M73.2588 61.3333V61.3333ZM73.2588 61.3333H72.8653M73.2588 61.3333L73.6523 61.6667M73.6523 61.6667H73.2588M73.6523 61.6667V61.6667ZM73.6523 61.6667L73.2588 62M73.2588 62V62ZM73.2588 62H73.6523M73.6523 62V62ZM73.6523 62L73.2588 62.3333M73.2588 62.3333V62.3333ZM73.2588 62.3333V62.6667M73.2588 62.6667V62.6667ZM73.2588 62.6667H72.8653M72.8653 62.6667V62.6667ZM72.8653 62.6667H72.4718M72.4718 62.6667V62.6667ZM72.4718 62.6667V63M72.4718 63V63ZM72.4718 63H72.0783M72.0783 63V63ZM72.0783 63V63.3333M72.0783 63.3333V63.3333ZM72.0783 63.3333V63.6667M72.0783 63.6667V63.6667ZM72.0783 63.6667H72.4718M72.4718 63.6667V63.6667ZM72.4718 63.6667V64M72.4718 64V64ZM72.4718 64V64.3333M72.4718 64.3333V64.3333ZM72.4718 64.3333V64.6667M72.4718 64.6667V64.6667ZM72.4718 64.6667V65M72.4718 64.6667H72.0783L71.6848 64.3333M72.4718 65V65ZM71.6848 64.3333V64.3333ZM71.6848 64.3333H71.2914V64H70.8979M70.8979 64V64ZM70.8979 64H70.5044M70.5044 64V64ZM70.5044 64L70.1109 63.6667L69.7174 64L68.9304 63.6667H68.1434M68.1434 63.6667V63.6667ZM68.1434 63.6667V63.3333M68.1434 63.3333V63.3333ZM68.1434 63.3333H67.75M67.75 63.3333V63.3333ZM67.75 63.3333V63M67.75 63V63ZM67.75 63H67.3565M67.3565 63V63ZM67.3565 63H66.963M66.963 63V63ZM66.963 63V62.6667M66.963 62.6667V62.6667ZM66.963 62.6667L66.5695 62.3333M66.5695 62.3333V62.3333ZM66.5695 62.3333H66.176M66.176 62.3333V62.3333ZM66.176 62.3333H65.7825M65.7825 62.3333V62.3333ZM65.7825 62.3333V62M65.7825 62.3333H65.389M65.7825 62V62ZM65.389 62.3333V62.3333ZM65.389 62.3333H64.9955M64.9955 62.3333V62.3333ZM64.9955 62.3333L65.389 62M65.389 62V62ZM65.389 62H64.9955V61.6667M64.9955 61.6667V61.6667ZM64.9955 61.6667H64.6021H64.2086M64.2086 61.6667V61.6667ZM64.2086 61.6667V62M64.2086 62V62ZM64.2086 62H63.8151M63.8151 62V62ZM63.8151 62V62.3333M63.8151 62.3333H63.4216M63.8151 62.3333V62.3333ZM63.4216 62.3333V62.3333ZM63.4216 62.3333V62.6667M63.4216 62.6667H63.8151M63.4216 62.6667V63M63.8151 62.6667V62.6667ZM63.4216 63V63ZM63.4216 63H63.0281M63.0281 63V63ZM63.0281 63H62.6346M62.6346 63V63ZM62.6346 63V63.3333H62.2411M62.2411 63.3333V63M62.2411 63.3333V63.3333ZM62.2411 63.3333V63.6667M62.2411 63.3333H61.8476M62.2411 63.3333L61.8476 63M62.2411 63V63ZM62.2411 63.6667V63.6667ZM62.2411 63.6667H61.8476M61.8476 63.6667V63.6667ZM61.8476 63.6667V63.3333M61.8476 63.3333V63.3333ZM61.8476 63V63ZM61.8476 63H61.4541M61.4541 63V63ZM61.4541 63H61.0607L61.4541 63.3333M61.4541 63.3333V63.3333ZM61.4541 63.3333H61.0607M61.0607 63.3333V63.3333ZM61.0607 63.3333H60.6672M60.6672 63.3333V63.3333ZM60.6672 63.3333H60.2737V63.6667M60.2737 63.6667V63.6667ZM60.2737 63.6667V64L59.8802 63.6667M59.8802 63.6667V63.6667ZM59.8802 63.6667L59.4867 64M59.4867 64V64ZM59.4867 64L59.0932 64.6667V65M59.0932 65V65ZM59.0932 65H58.6997M58.6997 65V65ZM58.6997 65V64.6667M58.6997 64.6667V64.6667ZM58.6997 64.6667V64.3333M58.6997 64.3333V64.3333ZM58.6997 64.3333H58.3062M58.3062 64.3333V64.3333ZM58.3062 64.3333V64.6667M58.3062 64.6667V64.6667ZM58.3062 64.6667V65M58.3062 65V65ZM58.3062 65H57.9127H57.5193L57.1258 64.6667L56.7323 64L56.3388 63.3333H55.1583L54.3714 63H53.9779M53.9779 63V63ZM53.9779 63H53.5844M53.5844 63V63ZM53.5844 63V62.6667M53.5844 62.6667V62.6667ZM53.5844 62.6667H53.1909M53.1909 62.6667V62.6667ZM53.1909 62.6667H52.7974M52.7974 62.6667V62.6667ZM52.7974 62.6667V62.3333M52.7974 62.3333V62.3333ZM52.7974 62.3333V62M52.7974 62V62ZM52.7974 62H52.4039M52.4039 62V62ZM52.4039 62V61.6667M52.4039 61.6667V61.6667ZM52.4039 61.6667H52.7974M52.4039 61.6667V61.3333M52.4039 61.3333V61.3333ZM52.4039 61.3333V61M52.4039 61V61ZM52.4039 61H52.0104M52.4039 61V60.6667M52.0104 61V61ZM52.4039 60.6667V60.6667ZM52.4039 60.6667H52.0104M52.0104 60.6667V60.6667ZM52.0104 60.6667V60.3333M52.0104 60.3333V60.3333ZM52.0104 60.3333H51.6169V60M51.6169 60V60ZM51.6169 60H51.2234M51.2234 60V60ZM51.2234 60V59.6667L51.6169 59.3333M51.6169 59.3333V59.3333ZM51.6169 59.3333V59M51.6169 59V59ZM51.6169 59H51.2234M51.2234 59V59ZM51.2234 59V58.6667M51.2234 58.6667V58.6667ZM51.2234 58.6667H50.4365M50.4365 58.6667V58.6667ZM50.4365 58.6667V58.3333M50.4365 58.3333V58.3333ZM50.4365 58.3333V58H50.043M50.043 58V58ZM50.043 58H49.6495M49.6495 58V58ZM49.6495 58V57.6667M49.6495 57.6667V57.6667ZM49.6495 57.6667H49.256M49.256 57.6667V57.6667ZM49.256 57.6667V58L48.8625 57.6667M48.8625 57.6667V57.6667ZM48.8625 57.6667H48.469M48.469 57.6667V57.6667ZM48.469 57.6667V57.3333M48.469 57.3333V57.3333ZM48.469 57.3333V57M48.469 57V57ZM48.469 57V56.6667M48.469 56.6667V56.6667ZM48.469 56.6667H48.8625V56.3333M48.8625 56.3333V56.3333ZM48.8625 56.3333V56M48.8625 56V56ZM48.8625 56V55.6667M48.8625 55.6667V55.6667ZM48.8625 55.6667V55.3333M48.8625 55.3333V55.3333ZM48.8625 55.3333H48.469M48.469 55.3333V55.3333ZM48.469 55.3333L48.0755 55M48.0755 55V55ZM48.0755 55L47.682 55.3333H47.2886H46.8951M46.8951 55.3333V55.3333ZM46.8951 55.3333H46.5016H46.1081M46.1081 55.3333V55.3333ZM46.1081 55.3333H45.7146M46.1081 55.3333V55H45.7146M45.7146 55.3333V55.3333ZM45.7146 55V55ZM45.7146 55H45.3211M45.3211 55V55ZM45.3211 55H44.5341V54.6667L44.1407 54V53.6667L43.7472 53.3333H43.3537V53L42.9602 53.3333M42.9602 53.3333V53.3333ZM42.9602 53.3333L42.5667 53.6667H42.1732M42.1732 53.6667V53.6667ZM42.1732 53.6667V53.3333M42.1732 53.3333V53.3333ZM42.1732 53.3333H41.7797M41.7797 53.3333V53.3333ZM41.7797 53.3333H41.3862V53L40.2058 52.6667L40.5993 52.3333M40.5993 52.3333V52.3333ZM40.5993 52.3333V52M40.5993 52V52ZM40.5993 52H40.2058M40.2058 52V51.6667M40.2058 52V52ZM40.2058 52H39.8123M40.2058 51.6667V51.6667ZM39.8123 52V52ZM39.8123 52V51.6667H39.4188M39.4188 51.6667V51.6667ZM39.4188 51.6667V52H39.0253V51.6667H39.4188ZM39.4188 51.6667H38.6318M38.6318 51.6667V51.6667ZM38.6318 51.6667V51.3333H38.2383M38.2383 51.3333V51.3333ZM38.2383 51.3333L37.8448 51M37.8448 51V51ZM37.8448 51H38.2383M38.2383 51V51ZM38.2383 51V50.6667M38.2383 50.6667V50.6667ZM38.2383 50.6667L37.8448 50.3333M37.8448 50.3333V50.3333ZM37.8448 50.3333H37.4514M37.4514 50.3333V50.3333ZM37.4514 50.3333V50H37.0579H36.6644M36.6644 50V50ZM36.6644 50H36.2709V49.6667M36.2709 49.6667V49.6667ZM36.2709 49.6667H35.8774V49.3333M35.8774 49.3333V49.3333ZM35.8774 49.3333V49H35.4839M35.4839 49V49ZM35.4839 49V48.6667H35.0904M35.0904 48.6667V48.6667ZM35.0904 48.6667V49H34.6969V49.3333M34.6969 49.3333V49.3333ZM34.6969 49.3333L35.0904 49.6667M35.0904 49.6667V49.6667ZM35.0904 49.6667L35.4839 50M35.4839 50V50ZM35.4839 50L35.0904 50.3333V50.6667V51M35.0904 51H35.4839M35.0904 51V51ZM35.0904 51V51.3333L34.6969 51M34.6969 51V51ZM34.6969 51H34.3034M34.3034 51V51ZM34.3034 51V50.6667M34.3034 50.6667V50.6667ZM34.3034 50.6667H33.91M33.91 50.6667V50.6667ZM33.91 50.6667V50.3333M33.91 50.3333V50.3333ZM33.91 50.3333H34.3034M33.91 50.3333V50M34.3034 50.3333V50.3333ZM33.91 50V50ZM33.91 50V49.6667M33.91 49.6667V49.6667ZM33.91 49.6667V49.3333M33.91 49.3333V49.3333ZM33.91 49.3333L33.5165 49M33.5165 49V49ZM33.5165 49L33.91 48.6667H33.5165M33.5165 48.6667V48.6667ZM33.5165 48.6667V48.3333M33.5165 48.3333V48.3333ZM33.5165 48.3333L33.123 48.6667M33.123 48.6667V48.6667ZM33.123 48.6667H32.7295M32.7295 48.6667V48.6667ZM32.7295 48.6667H32.336H31.9425H31.549V49M31.549 49V49ZM31.549 49H31.1555L30.7621 49.6667L29.9751 50.3333L29.5816 50.6667H28.7946L27.2207 51.3333L26.8272 51.6667M26.8272 51.6667V51.6667ZM26.8272 51.6667L26.4337 51.3333H25.6467M25.6467 51.3333V51.3333ZM25.6467 51.3333H25.2532V52H24.8597H24.4662L24.0727 52.3333M24.0727 52.3333V52.3333ZM24.0727 52.3333V52H23.2858V52.3333M23.2858 52.3333V52.3333ZM23.2858 52.3333L22.8923 52.6667M22.8923 52.6667V52.6667ZM22.8923 52.6667V52.3333M22.8923 52.3333V52.3333ZM22.8923 52.3333L22.1053 52V52.3333H21.7118L21.3183 52.6667V52.3333L20.9248 52.6667M20.9248 52.6667V52.6667ZM20.9248 52.6667V53H20.5314H20.1379L19.7444 53.6667H20.1379L19.7444 54M19.7444 54V54ZM19.7444 54L20.1379 54.3333L19.7444 54.6667L18.9574 55M18.9574 55V55ZM18.9574 55V54.6667M18.9574 54.6667V54.6667ZM18.9574 54.6667H18.1704M18.1704 54.6667V54.6667ZM18.1704 54.6667V54.3333M18.1704 54.3333V54.3333ZM18.1704 54.3333V54M18.1704 54V54ZM18.1704 54V53.6667H18.5639M18.5639 53.6667V53.6667ZM18.5639 53.6667V53.3333M18.5639 53.3333V53.3333ZM18.5639 53.3333V53M18.5639 53V53ZM18.5639 53V52.6667M18.5639 52.6667V52.6667ZM18.5639 52.6667V52.3333M18.5639 52.3333V52.3333ZM18.5639 52.3333H18.9574M18.9574 52.3333V52.3333ZM18.9574 52.3333V52M18.9574 52V52ZM18.9574 52V51.6667M18.9574 51.6667V51.6667ZM18.9574 51.6667V51.3333M18.9574 51.3333V51.3333ZM18.9574 51.3333H19.3509V51M19.3509 51V51ZM19.3509 51L19.7444 50.6667M19.7444 50.6667V50.6667ZM19.7444 50.6667V50.3333M19.7444 50.3333V50.3333ZM19.7444 50.3333V50M19.7444 50V50ZM19.7444 50H20.1379V49.6667M20.1379 49.6667V49.6667ZM20.1379 49.6667V49.3333M20.1379 49.3333V49.3333ZM20.1379 49.3333V49M20.1379 49V49ZM20.1379 49L20.5314 48.6667M20.5314 48.6667H20.1379M20.5314 48.6667V48.6667ZM20.5314 48.6667L20.1379 48.3333M20.1379 48.6667V48.6667ZM20.1379 48.3333H20.5314M20.1379 48.3333V48.3333ZM20.1379 48.3333V48M20.5314 48.3333V48.3333ZM20.1379 48V48ZM20.1379 48H19.7444M20.1379 48V47.6667M20.1379 47.6667V47.6667ZM20.1379 47.6667V47.3333M20.1379 47.3333V47.3333ZM20.1379 47.3333H20.5314M20.1379 47.3333V47M20.1379 47V47ZM20.1379 47H20.5314M20.1379 47V46.6667M20.5314 47V47ZM20.1379 46.6667V46.6667ZM20.1379 46.6667V46.3333M20.1379 46.3333V46.3333ZM20.1379 46.3333V46M20.1379 46V46ZM20.1379 46V45.6667M20.1379 45.6667V45.6667ZM20.1379 45.6667L19.7444 46M20.1379 45.6667H19.7444M20.1379 45.6667V45.3333M19.7444 46V46ZM19.7444 46V45.6667M19.7444 45.6667V45.6667ZM20.1379 45.3333V45.3333ZM20.1379 45.3333V45M20.1379 45V45ZM20.1379 45H19.7444M20.1379 45V44.6667M19.7444 45V45ZM20.1379 44.6667V44.6667ZM20.1379 44.6667V44.3333M20.1379 44.3333V44.3333ZM20.1379 44.3333V44M20.1379 44H20.5314M20.1379 44V44ZM20.1379 44V43.6667M20.5314 44V44ZM20.1379 43.6667V43.6667ZM20.1379 43.6667H20.5314M20.5314 43.6667V43.6667ZM20.5314 43.6667V43.3333M20.5314 43.3333V43.3333ZM20.5314 43.3333H20.9248M20.9248 43.3333V43.3333ZM20.9248 43.3333V43M20.9248 43V43ZM20.9248 43H21.3183M21.3183 43V43ZM21.3183 43H21.7118V42.6667M21.7118 42.6667V42.6667ZM21.7118 42.6667V42.3333M21.7118 42.3333V42.3333ZM21.7118 42.3333H22.1053M22.1053 42.3333V42.3333ZM22.1053 42.3333V42M22.1053 42V42ZM22.1053 42V41.6667M22.1053 41.6667V41.6667ZM22.1053 41.6667V41.3333M22.1053 41.3333V41.3333ZM22.1053 41.3333V41H21.7118M21.7118 41V41ZM21.7118 41V40.6667M21.7118 40.6667V40.6667ZM21.7118 40.6667V40.3333H21.3183M21.3183 40.3333V40.3333ZM21.3183 40.3333H20.9248V40M20.9248 40V40ZM20.9248 40H20.5314M20.5314 40V40ZM20.5314 40H20.1379M20.1379 40V40ZM20.1379 40V39.6667M20.1379 39.6667V39.6667ZM20.1379 39.6667H19.7444M19.7444 39.6667V39.6667ZM19.7444 39.6667H19.3509M19.3509 39.6667V39.6667ZM19.3509 39.6667H18.9574M18.9574 39.6667V39.6667ZM18.9574 39.6667H18.5639M18.5639 39.6667V39.6667ZM18.5639 39.6667H18.1704M18.1704 39.6667V39.6667ZM18.1704 39.6667H17.7769M17.7769 39.6667V39.6667ZM17.7769 39.6667H17.3834M17.3834 39.6667V39.6667ZM17.3834 39.6667L16.99 40M16.99 40V40ZM16.99 40V40.3333M16.99 40.3333V40.3333ZM16.99 40.3333V40.6667M16.99 40.6667V40.6667ZM16.99 40.6667V41M16.99 41V41ZM16.99 41V41.3333M16.99 41.3333V41.3333ZM16.99 41.3333V41.6667M16.99 41.6667V41.6667ZM16.99 41.6667H16.5965M16.5965 41.6667V41.6667ZM16.5965 41.6667V42M16.5965 42V42ZM16.5965 42V42.3333M16.5965 42.3333V42.3333ZM16.5965 42.3333V42.6667M16.5965 42.6667V42.6667ZM16.5965 42.6667V43M16.5965 43V43ZM16.5965 43H16.203M16.203 43V43ZM16.203 43H15.8095M15.8095 43V43ZM15.8095 43H15.416M15.416 43V43ZM15.416 43V43.3333M15.416 43H15.0225M15.416 43.3333V43.3333ZM15.0225 43V43ZM15.0225 43V43.3333M15.0225 43.3333V43.3333ZM15.0225 43.3333L14.629 43M14.629 43V43ZM14.629 43V43.3333M14.629 43.3333V43.3333ZM14.629 43.3333H14.2355V43.6667M14.2355 43.6667V43.6667ZM14.2355 43.6667H13.8421M13.8421 43.6667V43.6667ZM13.8421 43.6667V44M13.8421 44V44ZM13.8421 44V44.3333M13.8421 44H13.4486M13.8421 44.3333V44.3333ZM13.4486 44V44ZM13.4486 44V43.6667M13.4486 43.6667V43.6667ZM13.4486 43.6667H13.0551M13.0551 43.6667V43.6667ZM13.0551 43.6667V43.3333M13.0551 43.3333V43.3333ZM13.0551 43.3333H12.6616M12.6616 43.3333V43.3333ZM12.6616 43.3333V43M12.6616 43V43ZM12.6616 43V42.6667M12.6616 42.6667V42.6667ZM12.6616 42.6667H12.2681M12.2681 42.6667V42.6667ZM12.2681 42.6667V42.3333M12.2681 42.3333V42.3333ZM12.2681 42.3333V42M12.2681 42V42ZM12.2681 42H11.8746M11.8746 42V42ZM11.8746 42V41.6667M11.8746 42H11.4811M11.8746 41.6667V41.6667ZM11.8746 41.6667H11.4811M11.4811 41.6667V41.6667ZM11.4811 41.6667V42M11.4811 41.6667H11.0876M11.4811 42V42ZM11.4811 42V42.3333M11.4811 42.3333V42.3333ZM11.0876 41.6667V41.6667ZM11.0876 41.6667V42M11.0876 41.6667V41.3333H10.6941M11.0876 42V42ZM10.6941 41.3333V41.3333ZM10.6941 41.3333L10.3007 41.6667M10.3007 41.6667V41.6667ZM10.3007 41.6667V41.3333M10.3007 41.3333V41.3333ZM10.3007 41.3333H9.90717M9.90717 41.3333V41.3333ZM9.90717 41.3333V41.6667M9.90717 41.6667V41.6667ZM9.90717 41.6667H9.51368M9.51368 41.6667V41.6667ZM9.51368 41.6667V41.3333M9.51368 41.3333V41.3333ZM9.51368 41.3333H9.12019M9.12019 41.3333V41.3333ZM9.12019 41.3333V41M9.12019 41V41ZM9.12019 41V40.6667M9.12019 40.6667V40.6667ZM9.12019 40.6667H8.7267M8.7267 40.6667V40.6667ZM8.7267 40.6667V40.3333M8.7267 40.3333V40.3333ZM8.7267 40.3333H8.33321M8.33321 40.3333V40.3333ZM8.33321 40.3333V40.6667M8.33321 40.6667V40.6667ZM8.33321 40.6667V41M8.33321 41V41ZM8.33321 41H7.93972M7.93972 41V41ZM7.93972 41V40.6667M7.93972 41H7.54624M7.93972 40.6667V40.6667ZM7.93972 40.6667L7.54624 41M7.93972 40.6667H7.54624M7.54624 41V40.6667M7.54624 41V41ZM7.54624 41H7.15275M7.54624 40.6667V40.6667ZM7.54624 40.6667H7.15275M7.15275 40.6667V40.6667ZM7.15275 40.6667V41M7.15275 40.6667H6.75926M7.15275 40.6667V40.3333M7.15275 41V41ZM7.15275 41V41.3333M7.15275 41H6.75926V40.6667M7.15275 41.3333V41.3333ZM6.75926 40.6667V40.6667ZM7.15275 40.3333V40.3333ZM7.15275 40.3333H6.75926M6.75926 40.3333V40.3333ZM6.75926 40.3333V40M6.75926 40V40ZM6.75926 40V39.6667H6.36577M6.36577 39.6667V39.6667ZM6.36577 39.6667V39.3333M6.36577 39.3333V39.3333ZM6.36577 39.3333V39M6.36577 39V39ZM6.36577 39V38.6667H5.97228M5.97228 38.6667V38.6667ZM5.97228 38.6667V38.3333M5.97228 38.3333V38.3333ZM5.97228 38.3333H5.57879M5.97228 38.3333V38M5.57879 38.3333V38.3333ZM5.97228 38V38ZM5.97228 38H5.57879M5.97228 38V37.6667M5.57879 38V38ZM5.97228 37.6667V37.6667ZM5.97228 37.6667H5.57879M5.97228 37.6667V37.3333M5.97228 37.3333V37.3333ZM5.97228 37.3333V37M5.97228 37V37ZM5.97228 37V36.6667M5.97228 36.6667V36.6667ZM5.97228 36.6667V36.3333M5.97228 36.3333V36.3333ZM5.97228 36.3333V36M5.97228 36V36ZM5.97228 36V35.6667M5.97228 35.6667V35.6667ZM5.97228 35.6667H5.57879M5.57879 35.6667V35.6667ZM5.57879 35.6667V35.3333M5.57879 35.6667V36M5.57879 35.3333V35.3333ZM5.57879 36V36ZM5.57879 36H5.18531M5.18531 36V36ZM5.18531 36V35.6667M5.18531 35.6667V35.6667ZM5.18531 35.6667H4.79182M4.79182 35.6667V35.6667ZM4.79182 35.6667V35.3333M4.79182 35.3333V35.3333ZM4.79182 35.3333H4.39833M4.39833 35.3333V35.3333ZM4.39833 35.3333V35M4.39833 35V35ZM4.39833 35H4.00484M4.00484 35V35ZM4.00484 35V34.6667M4.00484 34.6667V34.6667ZM4.00484 34.6667V34.3333M4.00484 34.6667H3.61135M4.00484 34.3333V34.3333ZM4.00484 34.3333H3.61135M4.00484 34.3333V34M3.61135 34.6667V34.6667ZM3.61135 34.6667V34.3333M3.61135 34.6667H3.21786M3.61135 34.3333V34.3333ZM3.61135 34.3333V34M3.61135 34.3333H3.21786M4.00484 34V34ZM4.00484 34H3.61135M3.61135 34V34ZM3.21786 34.3333V34.3333ZM3.21786 34.3333V34.6667M3.21786 34.3333H2.82438M3.21786 34.6667V34.6667ZM2.82438 34.3333V34.3333ZM2.82438 34.3333V34.6667M2.82438 34.3333H2.43089M2.43089 34.3333V34.3333ZM2.43089 34.3333V34M2.43089 34H2.82438M2.43089 34V34ZM2.82438 34V34ZM2.82438 34V33.6667M2.82438 33.6667V33.6667ZM2.82438 33.6667H3.21786M3.21786 33.6667V33.6667ZM3.21786 33.6667V33.3333M3.21786 33.3333V33.3333ZM3.21786 33.3333H2.82438M2.82438 33.3333V33.3333ZM2.82438 33.3333V33M2.82438 33H3.21786M2.82438 33V33ZM2.82438 33V32.6667M3.21786 33V33ZM2.82438 32.6667V32.6667ZM2.82438 32.6667V32.3333M2.82438 32.3333V32.3333ZM2.82438 32.3333L2.43089 32M2.43089 32H2.82438M2.43089 32V31.6667M2.82438 32V32ZM2.43089 31.6667V31.6667ZM2.43089 31.6667V31.3333M2.43089 31.3333V31.3333ZM2.43089 31.3333H2.82438M2.82438 31.3333V31.3333ZM2.82438 31.3333V31H2.43089M2.43089 31V31ZM2.43089 31V30.6667M2.43089 30.6667V30.6667ZM2.43089 30.6667H2.82438M2.82438 30.6667V30.6667ZM2.82438 30.6667V30.3333M2.82438 30.3333V30.3333ZM2.82438 30.3333V30M2.82438 30.3333H3.21786M2.82438 30V30ZM3.21786 30.3333V30.3333ZM3.21786 30.3333H3.61135M3.61135 30.3333V30.3333ZM3.61135 30.3333H4.00484M4.00484 30.3333V30.3333ZM4.00484 30.3333V30M4.00484 30V30ZM4.00484 30H3.61135M3.61135 30V30ZM3.61135 30V29.6667M3.61135 29.6667V29.6667ZM3.61135 29.6667H3.21786M3.21786 29.6667V29.6667ZM3.21786 29.6667V29.3333M3.21786 29.3333V29.3333ZM3.21786 29.3333H2.82438M3.21786 29.3333H3.61135M2.82438 29.3333V29.3333ZM3.61135 29.3333V29.3333ZM3.61135 29.3333H4.00484V29.6667M4.00484 29.6667V29.6667ZM4.00484 29.6667H4.39833M4.39833 29.6667V29.6667ZM4.39833 29.6667V29.3333M4.39833 29.3333V29.3333ZM4.39833 29.3333H4.79182M4.79182 29.3333V29.3333ZM4.79182 29.3333H5.18531M5.18531 29.3333V29.3333ZM5.18531 29.3333H5.57879M5.18531 29.3333V29M5.57879 29.3333V29.3333ZM5.18531 29V29ZM5.18531 29H5.57879M5.57879 29V29ZM5.57879 29H5.97228M5.97228 29V29ZM5.97228 29H6.36577M6.36577 29V29ZM6.36577 29H6.75926M6.36577 29H7.15275M6.75926 29V29ZM6.75926 29V29.3333M6.75926 29L7.54624 29.3333M6.75926 29.3333V29.3333ZM6.75926 29.3333H7.15275M7.15275 29.3333V29.3333ZM7.15275 29.3333V29M7.15275 29V29ZM7.54624 29.3333V29.3333ZM7.54624 29.3333H7.93972M7.93972 29.3333V29.3333ZM7.93972 29.3333V29M7.93972 29V29ZM7.93972 29V28.6667M7.93972 28.6667V28.6667ZM7.93972 28.6667H7.54624M7.54624 28.6667V28.6667ZM7.54624 28.6667V29M7.54624 28.6667V28.3333M7.54624 28.6667H7.15275M7.54624 29V29ZM7.15275 28.6667V28.6667ZM7.15275 28.6667V28.3333M7.15275 28.3333V28.3333ZM7.15275 28.3333V28M7.15275 28V28ZM7.15275 28H6.75926M6.75926 28V28ZM6.75926 28H6.36577M6.75926 28V27.6667M6.36577 28V28ZM6.36577 28V27.6667M6.36577 28H5.97228M6.75926 27.6667V27.6667ZM6.75926 27.6667H6.36577M6.36577 27.6667V27.6667ZM5.97228 28V28ZM5.97228 28H5.57879M5.57879 28V28ZM5.57879 28H5.18531M5.18531 28V28ZM5.18531 28V27.6667M5.18531 28H4.79182M5.18531 27.6667V27.6667ZM4.79182 28V28ZM4.79182 28V27.6667M4.79182 27.6667V27.6667ZM4.79182 27.6667H4.39833M4.39833 27.6667V27.6667ZM4.39833 27.6667V28M4.39833 28V28ZM4.39833 28H4.00484M4.00484 28V28ZM4.00484 28V28.3333H3.61135M3.61135 28.3333V28.3333ZM3.61135 28.3333H3.21786M3.21786 28.3333V28.3333ZM3.21786 28.3333V28H2.82438M2.82438 28V28ZM2.82438 28H2.43089M2.43089 28V28ZM2.43089 28V28.3333M2.43089 28.3333V28.3333ZM2.43089 28.3333H2.0374M2.0374 28.3333V28.3333ZM2.0374 28.3333H1.64391M1.64391 28.3333V28.3333ZM1.64391 28.3333H1.25042M1.64391 28.3333V28M1.64391 28V28ZM1.64391 28V27.6667M1.64391 27.6667V27.6667ZM1.64391 27.6667H2.0374M2.0374 27.6667V27.6667ZM2.0374 27.6667V27.3333M2.0374 27.3333V27.3333ZM2.0374 27.3333H2.43089M2.0374 27.3333V27M2.43089 27.3333V27.3333ZM2.43089 27.3333V27M2.43089 27.3333H2.82438M2.0374 27V27ZM2.0374 27V26.6667M2.0374 26.6667V26.6667ZM2.0374 26.6667H2.43089V27M2.43089 27V27ZM2.82438 27.3333V27.3333ZM2.82438 27.3333H3.21786V27M3.21786 27V27ZM3.21786 27H2.82438M2.82438 27V27ZM2.82438 27V26.6667M2.82438 26.6667V26.6667ZM2.82438 26.6667H3.21786M2.82438 26.6667V26.3333M2.82438 26.3333V26.3333ZM2.82438 26.3333V26M2.82438 26V26ZM2.82438 26H2.43089M2.43089 26V26ZM2.43089 26V25.6667M2.43089 25.6667V25.6667ZM2.43089 25.6667H2.0374M2.0374 25.6667V25.6667ZM2.0374 25.6667V25.3333M2.0374 25.3333V25.3333ZM2.0374 25.3333V25M2.0374 25V25ZM2.0374 25H1.64391M1.64391 25V25ZM1.64391 25V24.6667M1.64391 24.6667V24.6667ZM1.64391 24.6667H1.25042M1.64391 24.6667V24.3333M1.64391 24.3333V24.3333ZM1.64391 24.3333H1.25042M1.25042 24.3333V24.3333ZM1.25042 24.3333V24M1.25042 24V24ZM1.25042 24V23.6667M1.25042 23.6667V23.6667ZM1.25042 23.6667V23.3333M1.25042 23.3333V23.3333ZM1.25042 23.3333V23M1.25042 23.3333H1.64391M1.64391 23.3333V23.3333ZM1.64391 23.3333V23M1.64391 23.3333H2.0374M1.64391 23V23ZM2.0374 23.3333V23.3333ZM2.0374 23.3333H2.43089M2.43089 23.3333V23.3333ZM2.43089 23.3333V23M2.43089 23V23ZM2.43089 23H2.82438M2.82438 23V23ZM2.82438 23V23.3333M2.82438 23L3.21786 23.3333H2.82438M2.82438 23H3.21786M2.82438 23V22.6667M2.82438 23.3333V23.3333ZM3.21786 23V22.6667M3.21786 23V23ZM3.21786 23H3.61135M2.82438 22.6667V22.6667ZM2.82438 22.6667H3.21786M3.21786 22.6667V22.6667ZM3.21786 22.6667H3.61135V22.3333M3.21786 22.6667V22.3333M3.61135 23V23ZM3.61135 23H4.00484M4.00484 23V23ZM4.00484 23V22.6667M4.00484 22.6667V22.6667ZM4.00484 22.6667H4.39833M4.39833 22.6667V22.6667ZM4.39833 22.6667V22.3333M4.39833 22.3333V22.3333ZM4.39833 22.3333H4.00484M4.39833 22.3333V22M4.39833 22.3333H4.79182M4.00484 22.3333V22.3333ZM4.00484 22.3333V22M4.00484 22.3333H3.61135M4.00484 22H3.61135M4.00484 22V22ZM4.39833 22V22ZM4.39833 22H4.79182M4.39833 22V21.6667M4.79182 22.3333V22.3333ZM4.79182 22.3333V22M4.79182 22.3333H5.18531M4.79182 22V21.6667M4.79182 22V22ZM5.18531 22.3333V22.3333ZM5.18531 22.3333V22.6667M5.18531 22.3333L5.57879 22.6667H5.18531M5.18531 22.3333H5.57879M5.18531 22.6667V22.6667ZM5.57879 22.3333V22.3333ZM5.57879 22.3333V22M5.57879 22V22ZM5.57879 22H5.18531M5.18531 22V22ZM5.18531 22V21.6667M5.18531 21.6667V21.6667ZM5.18531 21.6667H4.79182M4.79182 21.6667V21.3333M4.79182 21.6667H4.39833M4.79182 21.6667V21.6667ZM4.79182 21.3333V21.3333ZM4.79182 21.3333H4.39833M4.39833 21.3333V21.3333ZM4.39833 21.3333V21.6667M4.39833 21.3333H4.00484M4.39833 21.6667V21.6667ZM4.00484 21.3333V21.3333ZM4.00484 21.3333V21.6667M4.00484 21.3333H3.61135M4.00484 21.6667V21.6667ZM4.00484 21.6667H3.61135M3.61135 21.3333V21.3333ZM3.61135 21.6667V21.6667ZM3.61135 21.6667V22M3.61135 22V22ZM3.61135 22.3333V22.3333ZM3.21786 22.3333V22.3333ZM3.21786 22.3333H2.82438M2.82438 22.3333V22.3333ZM2.82438 22.3333V22M2.82438 22V22ZM2.82438 22H2.43089M2.43089 22V22ZM2.43089 22H2.0374M2.0374 22V22ZM2.0374 22H1.64391M1.64391 22V22ZM1.64391 22V21.6667M1.64391 21.6667V21.6667ZM1.64391 21.6667H1.25042M1.25042 21.6667V21.6667ZM1.25042 21.6667V21.3333M1.25042 21.3333V21.3333ZM1.25042 21.3333L0.856934 21M0.856934 21V21ZM0.856934 21V20.6667M0.856934 20.6667V20.6667ZM0.856934 20.6667H1.25042M1.25042 20.6667V20.6667ZM1.25042 20.6667H1.64391M1.64391 20.6667V20.6667ZM1.64391 20.6667V20.3333M1.64391 20.3333V20.3333ZM1.64391 20.3333H1.25042M1.25042 20.3333V20.3333ZM1.25042 20.3333V20M1.25042 20V20ZM1.25042 20V19.6667M1.25042 19.6667V19.6667ZM1.25042 19.6667V19.3333M1.25042 19.3333V19.3333ZM1.25042 19.3333V19M1.25042 19V19ZM1.25042 19L1.64391 19.3333M1.64391 19.3333V19M1.64391 19.3333V19.3333ZM1.64391 19.3333H2.0374M2.0374 19.3333V19.3333ZM2.0374 19.3333V19M2.0374 19V19ZM2.0374 19H2.43089M2.43089 19V19ZM2.43089 19V18.6667M2.43089 18.6667V18.6667ZM2.43089 18.6667H2.82438M2.82438 18.6667V18.6667ZM2.82438 18.6667H3.21786M3.21786 18.6667V18.6667ZM3.21786 18.6667V18.3333M3.21786 18.3333V18.3333ZM3.21786 18.3333V18M3.21786 18V18ZM3.21786 18H2.82438M2.82438 18V18ZM2.82438 18V17.6667M2.82438 17.6667V17.6667ZM2.82438 17.6667H3.21786M3.21786 17.6667V17.6667ZM3.21786 17.6667V17.3333M3.21786 17.3333V17.3333ZM3.21786 17.3333H2.82438M2.82438 17.3333V17.3333ZM2.82438 17.3333V17M2.82438 17V17ZM2.82438 17V16.6667M2.82438 16.6667V16.6667ZM2.82438 16.6667V16.3333M2.82438 16.3333V16.3333ZM2.82438 16.3333H2.43089M2.43089 16.3333V16.3333ZM2.43089 16.3333V16M2.43089 16V16ZM2.43089 16V15.6667M2.43089 15.6667V15.6667ZM2.43089 15.6667V15.3333M2.43089 15.3333V15.3333ZM2.43089 15.3333V15M2.43089 15V15ZM2.43089 15H2.82438M2.82438 15V15ZM2.82438 15V14.6667M2.82438 14.6667V14.6667ZM2.82438 14.6667H3.21786M3.21786 14.6667V14.6667ZM3.21786 14.6667V15M3.21786 15V15ZM3.21786 15H3.61135M3.61135 15V15ZM3.61135 15H4.00484M4.00484 15V15ZM4.00484 15L4.39833 14.6667M4.39833 14.6667V14.6667ZM4.39833 14.6667H4.79182V14.3333M4.79182 14.3333V14.3333ZM4.79182 14.3333H5.18531M5.18531 14.3333V14.3333ZM5.18531 14.3333V14M5.18531 14V14ZM5.18531 14H5.57879M5.57879 14V14ZM5.57879 14V14.3333M5.57879 14.3333V14.3333ZM5.57879 14.3333H5.97228M5.97228 14.3333V14.3333ZM5.97228 14.3333V14.6667M5.97228 14.6667V14.6667ZM5.97228 14.6667H6.36577V14.3333M6.36577 14.3333V14.3333ZM6.36577 14.3333H6.75926M6.75926 14.3333V14.3333ZM6.75926 14.3333V14M6.75926 14V14ZM6.75926 14H7.15275M7.15275 14V14ZM7.15275 14L6.75926 13.6667M6.75926 13.6667V13.6667ZM6.75926 13.6667V13.3333M6.75926 13.3333V13.3333ZM6.75926 13.3333H7.15275M7.15275 13.3333V13.3333ZM7.15275 13.3333H7.54624M7.54624 13.3333V13.3333ZM7.54624 13.3333V13M7.54624 13V13ZM7.54624 13H7.93972M7.93972 13V13ZM7.93972 13H8.33321V12.6667M8.33321 12.6667V12.6667ZM8.33321 12.6667L8.7267 13M8.7267 13V13ZM8.7267 13H9.12019M9.12019 13V13ZM9.12019 13H9.51368M9.51368 13V13ZM9.51368 13V13.3333M9.51368 13.3333V13.3333ZM9.51368 13.3333L9.90717 13M9.90717 13V13ZM9.90717 13L10.3007 13.3333M10.3007 13.3333V13.3333ZM10.3007 13.3333H10.6941M10.6941 13.3333V13.3333ZM10.6941 13.3333H11.0876M11.0876 13.3333V13.3333ZM11.0876 13.3333V13M11.0876 13V13ZM11.0876 13H11.4811M11.4811 13V13ZM11.4811 13H11.8746M11.8746 13V13ZM11.8746 13V12.6667M11.8746 12.6667V12.6667ZM11.8746 12.6667H12.2681M12.2681 12.6667V12.6667ZM12.2681 12.6667V13M12.2681 13V13ZM12.2681 13H12.6616M12.6616 13V13ZM12.6616 13V12.6667M12.6616 13H13.0551M13.0551 13V13ZM13.0551 13V13.3333M13.0551 13.3333V13.3333ZM13.0551 13.3333H13.4486M13.4486 13.3333V13.3333ZM13.4486 13.3333V13M13.4486 13V13ZM13.4486 13V12.6667M13.4486 12.6667V12.6667ZM13.4486 12.6667H13.8421M13.4486 12.6667V12.3333M13.8421 12.6667V12.6667ZM13.8421 12.6667V12.3333M13.8421 12.3333V12.3333ZM13.8421 12.3333H13.4486M13.8421 12.3333V12M13.4486 12.3333V12.3333ZM13.8421 12V12ZM13.8421 12H13.4486M13.4486 12V12ZM13.4486 12V11.6667M13.4486 11.6667V11.6667ZM13.4486 11.6667V11.3333H13.0551M13.0551 11.3333V11.3333ZM13.0551 11.3333H12.6616M12.6616 11.3333V11.3333ZM12.6616 11.3333V11M12.6616 11V11ZM12.6616 11H12.2681M12.2681 11V11ZM12.2681 11V10.6667M12.2681 10.6667V10.6667ZM12.2681 10.6667V10.3333M12.2681 10.3333V10.3333ZM12.2681 10.3333V10M12.2681 10V10ZM12.2681 10V9.66667M12.2681 9.66667V9.66667ZM12.2681 9.66667H12.6616M12.6616 9.66667V9.66667ZM12.6616 9.66667V10M12.6616 10V10ZM12.6616 10H13.0551M13.0551 10V10ZM13.0551 10H13.4486M13.4486 10V10ZM13.4486 10H13.8421V10.3333M13.8421 10.3333V10.3333ZM13.8421 10.3333H14.2355M14.2355 10.3333V10.3333ZM14.2355 10.3333L14.629 10.6667M14.629 10.6667H14.2355M14.629 10.6667V10.6667ZM14.629 10.6667V11M14.2355 10.6667V10.6667ZM14.629 11V11ZM14.629 11H15.0225M15.0225 11V11ZM15.0225 11H15.416V11.3333M15.416 11.3333V11.3333ZM15.416 11.3333H15.8095V11M15.8095 11V11ZM15.8095 11H16.203M16.203 11V11ZM16.203 11V10.6667M16.203 10.6667V10.6667ZM16.203 10.6667L15.8095 10.3333M15.8095 10.3333V10.3333ZM15.8095 10.3333V10M15.8095 10V10ZM15.8095 10H15.416M15.416 10V10ZM15.416 10V9.66667M15.416 9.66667V9.66667ZM15.416 9.66667H15.0225M15.416 9.66667V9.33333M15.416 9.66667H15.8095M15.0225 9.66667V9.66667ZM15.0225 9.66667V9.33333M15.0225 9.33333V9.33333ZM15.0225 9.33333H15.416M15.416 9.33333V9.33333ZM15.8095 9.66667V9.66667ZM15.8095 9.66667V9.33333H16.203M16.203 9.33333V9.33333ZM16.203 9.33333H16.5965M16.5965 9.33333V9.33333ZM16.5965 9.33333H16.99V9M16.99 9V9ZM16.99 9H17.3834M17.3834 9V9ZM17.3834 9V8.66667M17.3834 8.66667V8.66667ZM17.3834 8.66667H17.7769M17.7769 8.66667V8.66667ZM17.7769 8.66667V8.33333H18.1704M18.1704 8.33333V8.33333ZM18.1704 8.33333V8H17.7769M17.7769 8V8ZM17.7769 8V7.66667M17.7769 7.66667V7.66667ZM17.7769 7.66667H18.1704L17.7769 7.33333H18.1704M18.1704 7.33333V7.33333ZM18.1704 7.33333L18.5639 7M18.5639 7V7ZM18.5639 7V7.33333M18.5639 7.33333V7.33333ZM18.5639 7.33333H18.9574M18.9574 7.33333V7.33333ZM18.9574 7.33333H19.3509M19.3509 7.33333V7.33333ZM19.3509 7.33333H19.7444M19.7444 7.33333V7.33333ZM19.7444 7.33333H20.1379M20.1379 7.33333V7.33333ZM20.1379 7.33333V7.66667M20.1379 7.66667V7.66667ZM20.1379 7.66667H20.5314M20.5314 7.66667V7.66667ZM20.5314 7.66667V8M20.5314 8V8ZM20.5314 8H20.9248M20.9248 8V8ZM20.9248 8H21.3183M21.3183 8V8ZM21.3183 8V8.33333M21.3183 8.33333V8.33333ZM21.3183 8.33333H21.7118M21.7118 8.33333V8.33333ZM21.7118 8.33333V8M21.7118 8V8ZM21.7118 8H22.1053M22.1053 8V8ZM22.1053 8V7.66667M22.1053 7.66667V7.66667ZM22.1053 7.66667H22.4988M22.4988 7.66667V7.66667ZM22.4988 7.66667V8M22.4988 8V8ZM22.4988 8H22.8923M22.8923 8V8ZM22.8923 8L23.2858 8.33333M23.2858 8.33333V8.33333ZM23.2858 8.33333H23.6793M23.6793 8.33333V8.66667M23.6793 8.33333V8.33333ZM23.6793 8.33333H24.0727M23.6793 8.66667V8.66667ZM24.0727 8.33333V8.33333ZM24.0727 8.33333V8M24.0727 8V8ZM24.0727 8H23.6793M23.6793 8V7.66667M23.6793 8V8ZM23.6793 7.66667V7.66667ZM23.6793 7.66667H23.2858M23.2858 7.66667V7.66667ZM23.2858 7.66667V7.33333M23.2858 7.33333V7.33333ZM23.2858 7.33333H23.6793M23.6793 7.33333V7.33333ZM23.6793 7.33333H24.0727M24.0727 7.33333V7.33333ZM24.0727 7.33333H24.4662M24.4662 7.33333V7M24.4662 7.33333H24.8597M24.4662 7.33333V7.33333ZM24.4662 7.33333V7.66667M24.4662 7H24.0727M24.4662 7V7ZM24.4662 7V6.66667M24.4662 7H24.8597M24.0727 7V7ZM24.0727 7V6.66667M24.0727 6.66667V6.66667ZM24.4662 6.66667V6.66667ZM24.8597 7V7ZM24.8597 7V7.33333M24.8597 7.33333V7.33333ZM24.4662 7.66667V7.66667ZM24.4662 7.66667H24.8597M24.8597 7.66667V7.66667ZM24.8597 7.66667H25.2532V8M25.2532 8V8ZM25.2532 8H25.6467M25.6467 8V8ZM25.6467 8H26.0402M26.0402 8V8ZM26.0402 8H26.4337V7.66667M26.4337 7.66667V7.66667ZM26.4337 7.66667V7.33333M26.4337 7.33333V7.33333ZM26.4337 7.33333H26.8272M26.8272 7.33333V7.33333ZM26.8272 7.33333V7M26.8272 7V7ZM26.8272 7V6.66667M26.8272 6.66667V6.66667ZM26.8272 6.66667L26.4337 6.33333M26.4337 6.33333V6.33333ZM26.4337 6.33333V6M26.4337 6V6ZM26.4337 6V5.66667M26.4337 5.66667V5.66667ZM26.4337 5.66667H26.0402M26.0402 5.66667V5.66667ZM26.0402 5.66667V5.33333M26.0402 5.33333V5.33333ZM26.0402 5.33333V5M26.0402 5V5ZM26.0402 5V4.66667M26.0402 4.66667V4.66667ZM26.0402 4.66667V4.33333M26.0402 4.33333V4.33333ZM26.0402 4.33333H26.4337M26.4337 4.33333V4.33333ZM26.4337 4.33333V4.66667M26.4337 4.66667V4.66667ZM26.4337 4.66667H26.8272M26.8272 4.66667V4.66667ZM26.8272 4.66667H27.2207M27.2207 4.66667V4.66667ZM27.2207 4.66667V5M27.2207 5V5ZM27.2207 5H27.6141M27.6141 5V5ZM27.6141 5V4.66667M27.6141 5H28.0076M28.0076 5V5ZM28.0076 5V5.33333M28.0076 5.33333V5.33333ZM28.0076 5.33333H27.6141M28.0076 5.33333V5.66667M27.6141 5.33333V5.33333ZM28.0076 5.66667V5.66667ZM28.0076 5.66667H28.4011M28.4011 5.66667V5.66667ZM28.4011 5.66667L28.0076 6M28.0076 6V6ZM28.0076 6V6.33333M28.0076 6.33333V6.33333ZM28.0076 6.33333H28.4011M28.4011 6.33333V6.33333ZM28.4011 6.33333V6.66667M28.4011 6.33333H28.7946M28.4011 6.66667V6.66667ZM28.7946 6.33333V6.33333ZM28.7946 6.33333V6.66667M28.7946 6.33333L29.1881 6.66667M28.7946 6.66667V6.66667ZM29.1881 6.66667V6.33333M29.1881 6.66667V6.66667ZM29.1881 6.66667H29.5816M29.5816 6.66667V6.66667ZM29.5816 6.66667L29.9751 6.33333M29.9751 6.33333V6.33333ZM29.9751 6.33333H29.5816V6M29.9751 6.33333V6H29.5816M29.9751 6.33333H30.3686M29.5816 6V6ZM30.3686 6.33333V6.33333ZM30.3686 6.33333H30.7621M30.7621 6.33333V6.33333ZM30.7621 6.33333H31.1555M31.1555 6.33333V6.33333ZM31.1555 6.33333H31.549M31.549 6.33333V6.33333ZM31.549 6.33333V6.66667M31.549 6.66667V6.66667ZM31.549 6.66667H31.9425M31.9425 6.66667V6.66667ZM31.9425 6.66667V7M31.9425 7V7ZM31.9425 7H32.336M32.336 7V7ZM32.336 7H32.7295M32.7295 7V7ZM32.7295 7V6.66667M32.7295 6.66667V6.66667ZM32.7295 6.66667H33.123V6.33333M33.123 6.33333V6.33333ZM33.123 6.33333L32.7295 6M32.7295 6V6ZM32.7295 6L32.336 5.66667M32.336 5.66667V5.66667ZM32.336 5.66667V5.33333M32.336 5.33333V5.33333ZM32.336 5.33333V5M32.336 5.33333H32.7295M32.336 5V5ZM32.7295 5.33333V5.33333ZM32.7295 5.33333V5.66667M32.7295 5.66667V5.66667ZM32.7295 5.66667H33.123M33.123 5.66667V5.66667ZM33.123 5.66667H33.5165V6M33.5165 6V6ZM33.5165 6V6.33333M33.5165 6.33333V6.33333ZM33.5165 6.33333H33.91M33.91 6.33333V6.33333ZM33.91 6.33333L34.3034 6M34.3034 6V6ZM34.3034 6H34.6969M34.6969 6V5.66667M34.6969 6V6ZM34.6969 6H35.0904V6.33333M34.6969 5.66667V5.66667ZM34.6969 5.66667V5.33333M35.0904 6.33333V6.33333ZM35.0904 6.33333H35.4839M35.4839 6.33333V6.33333ZM35.4839 6.33333L35.8774 6.66667M35.8774 6.66667V6.66667ZM35.8774 6.66667H36.2709M36.2709 6.66667V6.66667ZM36.2709 6.66667L36.6644 6.33333M36.6644 6.33333V6.33333ZM36.6644 6.33333V6.66667M36.6644 6.66667V6.66667ZM36.6644 6.66667H37.0579M37.0579 6.66667V6.66667ZM37.0579 6.66667H37.4514M37.4514 6.66667V6.66667ZM37.4514 6.66667H37.8448M37.8448 6.66667V6.66667ZM37.8448 6.66667V6.33333H38.2383M38.2383 6.33333V6.33333ZM38.2383 6.33333V6M38.2383 6V6ZM38.2383 6V5.66667M38.2383 5.66667V5.66667ZM38.2383 5.66667H38.6318M38.6318 5.66667V5.66667ZM38.6318 5.66667H39.0253M39.0253 5.66667V5.66667ZM39.0253 5.66667H39.4188M39.4188 5.66667V5.66667ZM39.4188 5.66667H39.8123M39.8123 5.66667V5.66667ZM39.8123 5.66667V5.33333M39.8123 5.33333V5.33333ZM39.8123 5.33333V5M39.8123 5V5ZM39.8123 5V4.66667H39.4188M39.4188 4.66667V4.66667ZM39.4188 4.66667V4.33333M39.4188 4.33333V4.33333ZM39.4188 4.33333V4M39.4188 4V4ZM39.4188 4H39.0253M39.0253 4V4ZM39.0253 4V3.66667M39.0253 3.66667V3.66667ZM39.0253 3.66667V3.33333M39.0253 3.33333V3.33333ZM39.0253 3.33333H38.6318M38.6318 3.33333V3.33333ZM38.6318 3.33333V3M38.6318 3V3ZM38.6318 3V2.66667M38.6318 2.66667V2.66667ZM38.6318 2.66667V2.33333M38.6318 2.33333V2.33333ZM38.6318 2.33333H39.0253M39.0253 2.33333V2.33333ZM39.0253 2.33333V2M39.0253 2.33333H39.4188M39.0253 2V2ZM39.0253 2H39.4188M39.4188 2V2ZM39.4188 2.33333V2.33333ZM39.4188 2.33333V2.66667M39.4188 2.66667V2.66667ZM39.4188 2.66667H39.0253M39.4188 2.66667V3M39.0253 2.66667V2.66667ZM39.4188 3V3ZM39.4188 3H39.8123M39.8123 3V3ZM39.8123 3H40.2058M40.2058 3V3ZM40.2058 3V3.33333M40.2058 3.33333V3.33333ZM40.2058 3.33333H40.5993M40.5993 3.33333V3.33333ZM40.5993 3.33333H40.9927V3.66667M40.9927 3.66667V3.66667ZM40.9927 3.66667V4M40.9927 4V4ZM40.9927 4H41.3862M41.3862 4V4ZM41.3862 4V4.33333M41.3862 4.33333V4.33333ZM41.3862 4.33333H41.7797M41.7797 4.33333V4.33333ZM41.7797 4.33333H42.1732M42.1732 4.33333V4.33333ZM42.1732 4.33333H42.5667M42.5667 4.33333V4.33333ZM42.5667 4.33333V4M42.5667 4V4ZM42.5667 4V3.66667M42.5667 3.66667V3.66667ZM42.5667 3.66667V3.33333M42.5667 3.33333V3.33333ZM42.5667 3.33333H42.9602M42.5667 3.33333V3M42.5667 3V3ZM42.5667 3H42.1732M42.1732 3V3ZM42.1732 3V2.66667M42.1732 2.66667V2.66667ZM42.1732 2.66667V2.33333M42.1732 2.33333V2.33333ZM42.1732 2.33333V2M42.1732 2V2ZM42.1732 2H42.5667M42.1732 2V1.66667M42.1732 1.66667V1.66667ZM42.1732 1.66667V1.33333M42.1732 1.33333V1.33333ZM42.1732 1.33333H42.5667M42.5667 1.33333V1.33333ZM42.5667 1.33333V1M42.5667 1.33333V1.66667M42.5667 1V1ZM42.5667 1.66667V1.66667ZM42.5667 1.66667H42.9602M42.9602 1.66667V1.66667ZM42.9602 1.66667H43.3537M43.3537 1.66667V1.66667ZM43.3537 1.66667V2M43.3537 2V2ZM43.3537 2H43.7472M43.7472 2V2ZM43.7472 2V2.33333M43.7472 2.33333V2.33333ZM43.7472 2.33333V2.66667M43.7472 2.66667V2.66667ZM43.7472 2.66667H44.1407M44.1407 2.66667V2.66667ZM44.1407 2.66667V3M44.1407 3V3ZM44.1407 3H43.7472M43.7472 3V3ZM43.7472 3V3.33333M43.7472 3.33333V3.33333ZM43.7472 3.33333H44.1407M44.1407 3.33333V3.33333ZM44.1407 3.33333V3.66667M44.1407 3.66667V3.66667ZM44.1407 3.66667V4M44.1407 4V4ZM44.1407 4H43.7472M43.7472 4V4ZM43.7472 4L44.1407 4.33333M44.1407 4.33333V4.33333ZM44.1407 4.33333H44.5341M44.5341 4.33333V4.33333ZM44.5341 4.33333H44.9276M44.9276 4.33333V4.33333ZM44.9276 4.33333H45.3211M45.3211 4.33333V4.33333ZM45.3211 4.33333H45.7146V4M45.7146 4V4ZM45.7146 4V3.66667M45.7146 3.66667V3.66667ZM45.7146 3.66667V3.33333M45.7146 3.33333V3.33333ZM45.7146 3.33333V3M45.7146 3V3ZM45.7146 3V2.66667M45.7146 3H46.1081M45.7146 2.66667V2.66667ZM46.1081 3V3ZM46.1081 3H46.5016M46.5016 3V3ZM46.5016 3V2.66667M46.5016 3V3.33333M46.5016 3.33333V3.33333ZM46.5016 3.33333V3.66667M46.5016 3.66667V3.66667ZM46.5016 3.66667V4M46.5016 4V4ZM46.5016 4H46.8951M46.8951 4V4ZM46.8951 4H47.2886M47.2886 4V4ZM47.2886 4V3.66667H47.682M47.682 3.66667V3.66667ZM47.682 3.66667V3.33333M47.682 3.33333V3.33333ZM47.682 3.33333H47.2886M47.682 3.33333V3M47.682 3V3ZM47.682 3H47.2886M47.682 3V2.66667M47.682 3H48.0755M47.2886 3V3ZM47.2886 3V2.66667M47.2886 2.66667V2.66667ZM47.2886 2.66667V2.33333M47.2886 2.33333V2.33333ZM47.2886 2.33333H47.682M47.682 2.33333V2.33333ZM47.682 2.33333V2.66667M47.682 2.66667V2.66667ZM48.0755 3V3ZM48.0755 3V2.66667M48.0755 2.66667V2.66667ZM48.0755 2.66667H48.469M48.469 2.66667V2.66667ZM48.469 2.66667V2.33333M48.469 2.66667H48.8625M48.469 2.33333V2.33333ZM48.8625 2.66667V2.66667ZM48.8625 2.66667V2.33333M48.8625 2.66667V3M48.8625 2.33333V2.33333ZM48.8625 3V3ZM48.8625 3H49.256M49.256 3V3ZM49.256 3V3.33333M49.256 3.33333V3.33333ZM49.256 3.33333H49.6495M49.6495 3.33333V3.33333ZM49.6495 3.33333V3.66667M49.6495 3.66667V3.66667ZM49.6495 3.66667H50.043M50.043 3.66667V3.66667ZM50.043 3.66667H50.4365M50.4365 3.66667V3.66667ZM50.4365 3.66667H50.83M50.83 3.66667V3.66667ZM50.83 3.66667H51.2234M51.2234 3.66667V3.66667ZM51.2234 3.66667H51.6169M51.6169 3.66667V3.66667ZM51.6169 3.66667H52.0104M52.0104 3.66667V3.66667ZM52.0104 3.66667H52.4039M52.4039 3.66667V3.66667ZM52.4039 3.66667H52.7974M52.7974 3.66667V3.66667ZM52.7974 3.66667V4M52.7974 4V4ZM52.7974 4H53.1909M53.1909 4V4ZM53.1909 4V4.33333M53.1909 4.33333V4.33333ZM53.1909 4.33333H53.5844M53.5844 4.33333V4.33333ZM53.5844 4.33333H53.9779V4.66667M53.9779 4.66667V4.66667ZM53.9779 4.66667H54.3714M54.3714 4.66667V4.66667ZM54.3714 4.66667H54.7648M54.7648 4.66667V4.66667ZM54.7648 4.66667V5H55.1583M55.1583 5V5ZM55.1583 5H55.5518M55.5518 5V5ZM55.5518 5H55.9453M55.9453 5V5ZM55.9453 5V5.33333M55.9453 5.33333V5.33333ZM55.9453 5.33333H56.3388M56.3388 5.33333V5.33333ZM56.3388 5.33333H56.7323V5.66667M56.7323 5.66667V5.66667ZM56.7323 5.66667L57.1258 6M57.1258 6V6ZM57.1258 6V5.66667M57.1258 5.66667V5.66667ZM57.1258 5.66667H57.5193M57.5193 5.66667V5.66667ZM57.5193 5.66667H57.9127M57.9127 5.66667V5.66667ZM57.9127 5.66667H58.3062M58.3062 5.66667V5.66667ZM58.3062 5.66667H58.6997V5.33333M58.6997 5.33333V5.33333ZM58.6997 5.33333V5M58.6997 5V5ZM58.6997 5H58.3062M58.6997 5V4.66667M58.6997 5H59.0932M58.3062 5V4.66667M58.3062 5V5ZM58.3062 4.66667V4.66667ZM58.6997 4.66667V4.66667ZM59.0932 5V4.66667M59.0932 5L59.4867 4.66667H59.0932M59.0932 5H59.4867M59.0932 4.66667V4.66667ZM59.4867 5V5ZM59.4867 5H59.8802M59.8802 5V5ZM59.8802 5V5.33333H60.2737M60.2737 5.33333V5.33333ZM60.2737 5.33333H60.6672M60.6672 5.33333V5.33333ZM60.6672 5.33333H61.0607V5.66667M61.0607 5.66667V5.66667ZM61.0607 5.66667H61.4541M61.4541 5.66667V5.66667ZM61.4541 5.66667V6M61.4541 6V6ZM61.4541 6V6.33333M61.4541 6.33333V6.33333ZM61.4541 6.33333H61.8476M61.8476 6.33333V6.33333ZM61.8476 6.33333H62.2411M62.2411 6.33333V6.33333ZM62.2411 6.33333V6.66667M62.2411 6.66667V6.66667ZM62.2411 6.66667H62.6346M62.6346 6.66667V6.66667ZM62.6346 6.66667V7M62.6346 7V7ZM62.6346 7H63.0281M63.0281 7V7ZM63.0281 7H63.4216V7.33333M63.4216 7.33333V7.33333ZM63.4216 7.33333H63.8151M63.8151 7.33333V7.33333ZM63.8151 7.33333V7.66667M63.8151 7.66667V7.66667ZM63.8151 7.66667H64.2086M64.2086 7.66667V7.66667ZM64.2086 7.66667V8M64.2086 8V8ZM64.2086 8H64.6021M64.6021 8V8ZM64.6021 8L64.9955 8.33333M64.9955 8.33333V8.33333ZM64.9955 8.33333H65.389M65.389 8.33333V8.33333ZM65.389 8.33333H65.7825M65.7825 8.33333V8.33333ZM65.7825 8.33333H66.176M66.176 8.33333V8.33333ZM66.176 8.33333H66.5695M66.5695 8.33333V8.33333ZM66.5695 8.33333H66.963M66.963 8.33333V8.33333ZM66.963 8.33333H67.3565M67.3565 8.33333V8.33333ZM67.3565 8.33333H67.75H68.1434M68.1434 8.33333V8.33333ZM68.1434 8.33333H68.5369M68.5369 8.33333V8.33333ZM68.5369 8.33333H68.9304H69.3239M69.3239 8.33333V8.33333ZM69.3239 8.33333H69.7174V8M69.7174 8V8ZM69.7174 8H70.1109M70.1109 8V8ZM70.1109 8H70.5044M70.5044 8V8ZM70.5044 8H70.8979M70.8979 8V8ZM70.8979 8H71.2914M71.2914 8V8ZM71.2914 8H71.6848M71.6848 8V8ZM71.6848 8H72.0783M72.0783 8V8ZM72.0783 8H72.4718M72.4718 8V8ZM72.4718 8H72.8653M72.8653 8V8ZM72.8653 8H73.2588M73.2588 8V8ZM73.2588 8H73.6523M73.6523 8V8ZM73.6523 8H74.0458M74.0458 8V8ZM74.0458 8L74.4393 8.33333M74.4393 8.33333V8.33333ZM74.4393 8.33333H74.8327M74.8327 8.33333V8.33333ZM74.8327 8.33333H75.2262V8.66667M75.2262 8.66667V8.66667ZM75.2262 8.66667H75.6197M75.6197 8.66667V8.66667ZM75.6197 8.66667H76.0132M76.0132 8.66667V8.66667ZM76.0132 8.66667H76.4067M76.4067 8.66667V8.66667ZM76.4067 8.66667L76.8002 9M76.8002 9V9ZM76.8002 9H77.1937M77.1937 9V9ZM77.1937 9H77.5872M77.5872 9V9ZM77.5872 9H77.9807M77.9807 9V9ZM77.9807 9H78.3741M78.3741 9V9ZM78.3741 9H78.7676M78.7676 9V9ZM78.7676 9H79.1611M79.1611 9V9ZM79.1611 9V8.66667M79.1611 8.66667H79.5546M79.1611 8.66667V8.66667ZM79.1611 8.66667L79.5546 9M79.5546 8.66667V8.66667ZM79.5546 8.66667V9M79.5546 9V9ZM79.5546 9H79.9481V9.33333M79.9481 9.33333V9.33333ZM79.9481 9.33333H80.3416M80.3416 9.33333V9.33333ZM80.3416 9.33333H80.7351M80.7351 9.33333V9.33333ZM80.7351 9.33333V9.66667H81.1286M81.1286 9.66667V9.66667ZM81.1286 9.66667V9.33333M81.1286 9.33333V9.33333ZM81.1286 9.33333H81.5221M81.5221 9.33333V9.33333ZM81.5221 9.33333H81.9155M81.9155 9.33333V9.33333ZM81.9155 9.33333H82.309M82.309 9.33333V9.33333ZM82.309 9.33333H82.7025M82.7025 9.33333V9.33333ZM82.7025 9.33333H83.096M83.096 9.33333V9.33333ZM83.096 9.33333L83.4895 9M83.4895 9V9ZM83.4895 9L83.883 8.66667M83.883 8.66667V8.66667ZM83.883 8.66667H84.2765V8.33333M84.2765 8.33333V8.33333ZM84.2765 8.33333L84.67 8M84.67 8V8Z" stroke="#13263A"/>
</svg>
