<svg width="83" height="47" viewBox="0 0 83 47" fill="none" xmlns="http://www.w3.org/2000/svg">
<path d="M3.43565 34.9522V34.9522ZM3.43565 34.9522V34.6195M3.43565 34.9522V35.2849M3.43565 34.6195V34.6195ZM3.43565 34.6195H3.82318M3.82318 34.6195V34.6195ZM3.82318 34.6195V34.2868M3.82318 34.2868V34.2868ZM3.82318 34.2868H4.2107V33.954M4.2107 33.954V33.954ZM4.2107 33.954V33.6213M4.2107 33.6213V33.6213ZM4.2107 33.6213H3.82318M3.82318 33.6213V33.6213ZM3.82318 33.6213L3.43565 33.2886M3.43565 33.2886V33.2886ZM3.43565 33.2886L3.04813 32.9559M3.04813 32.9559V32.9559ZM3.04813 32.9559H3.43565M3.04813 32.9559L2.6606 32.6232H2.27308M2.27308 32.6232V32.6232ZM2.27308 32.6232L2.6606 32.2905M2.6606 32.2905V32.2905ZM2.6606 32.2905V31.9577M2.6606 31.9577V31.9577ZM2.6606 31.9577V31.625M2.6606 31.625V31.625ZM2.6606 31.625V31.2923H3.04813M3.04813 31.2923V31.2923ZM3.04813 31.2923V30.9596V30.6269M3.04813 30.6269V30.6269ZM3.04813 30.6269L3.43565 30.2941M3.43565 30.2941V30.2941ZM3.43565 30.2941L3.82318 29.9614M3.82318 29.9614V30.2941M3.82318 29.9614V29.9614ZM3.82318 29.9614V29.6287M3.82318 29.6287V29.6287ZM3.82318 29.6287L3.43565 29.296L3.04813 28.9633H3.43565M3.43565 28.9633V28.9633ZM3.43565 28.9633V28.6306M3.43565 28.6306V28.6306ZM3.43565 28.6306H3.82318M3.82318 28.6306V28.6306ZM3.82318 28.6306L4.2107 28.2978M4.2107 28.2978V28.2978ZM4.2107 28.2978L4.59823 27.9651M4.59823 27.9651V27.9651ZM4.59823 27.9651H4.98576M4.59823 27.9651L4.98576 27.6324M4.98576 27.6324V27.6324ZM4.98576 27.6324H5.37328M5.37328 27.6324V27.6324ZM5.37328 27.6324V27.2997M5.37328 27.2997V27.2997ZM5.37328 27.2997L5.76081 26.967H6.14833M6.14833 26.967V26.967ZM6.14833 26.967V26.6342M6.14833 26.6342V26.6342ZM6.14833 26.6342H6.53586V26.3015M6.53586 26.3015V26.3015ZM6.53586 26.3015H6.92338M6.92338 26.3015V26.3015ZM6.92338 26.3015H7.31091V25.9688M7.31091 25.9688V25.9688ZM7.31091 25.9688H7.69843M7.69843 25.9688V25.9688ZM7.69843 25.9688V25.6361M7.69843 25.6361V25.6361ZM7.69843 25.6361H8.08596M8.08596 25.6361V25.6361ZM8.08596 25.6361V25.3034M8.08596 25.3034V25.3034ZM8.08596 25.3034H8.47348M8.47348 25.3034V25.3034ZM8.47348 25.3034L8.86101 24.9707M8.86101 24.9707V24.9707ZM8.86101 24.9707H9.24854V24.6379M9.24854 24.6379V24.6379ZM9.24854 24.6379V24.3052M9.24854 24.3052V24.3052ZM9.24854 24.3052L8.86101 23.9725M8.86101 23.9725V23.9725ZM8.86101 23.9725L9.24854 23.6398M9.24854 23.6398V23.6398ZM9.24854 23.6398V23.3071V22.9743H9.63606V22.6416V22.3089M9.63606 22.3089V22.3089ZM9.63606 22.3089V21.9762H9.24854V21.3108M9.24854 21.3108V21.3108ZM9.24854 21.3108H8.86101M8.86101 21.3108V21.3108ZM8.86101 21.3108L9.24854 20.978M9.24854 20.978V20.978ZM9.24854 20.978H9.63606V20.6453M9.63606 20.6453V20.6453ZM9.63606 20.6453V20.3126H10.0236M10.0236 20.3126V20.3126ZM10.0236 20.3126H10.4111M10.4111 20.3126V20.3126ZM10.4111 20.3126H10.7986M10.7986 20.3126V20.3126ZM10.7986 20.3126L11.1862 19.9799M11.1862 19.9799V19.9799ZM11.1862 19.9799H11.5737M11.5737 19.9799V19.9799ZM11.5737 19.9799L11.9612 19.6472M11.9612 19.6472V19.6472ZM11.9612 19.6472H12.3487M12.3487 19.6472V19.6472ZM12.3487 19.6472H12.7363M12.7363 19.6472V19.6472ZM12.7363 19.6472V19.3144M12.7363 19.3144V19.3144ZM12.7363 19.3144V18.9817H13.1238M13.1238 18.9817V18.9817ZM13.1238 18.9817V18.649H13.5113M13.5113 18.649V18.649ZM13.5113 18.649H13.8988M13.8988 18.649V18.649ZM13.8988 18.649V18.3163M13.8988 18.3163V18.3163ZM13.8988 18.3163H13.5113M13.5113 18.3163V18.3163ZM13.5113 18.3163V17.9836M13.5113 17.9836V17.9836ZM13.5113 17.9836H13.8988M13.8988 17.9836V17.9836ZM13.8988 17.9836V17.6509M13.8988 17.6509V17.6509ZM13.8988 17.6509H14.2864M14.2864 17.6509V17.6509ZM14.2864 17.6509H14.6739V17.3181M14.6739 17.3181V17.3181ZM14.6739 17.3181L14.2864 16.9854M14.2864 16.9854V16.9854ZM14.2864 16.9854H14.6739M14.6739 16.9854V16.9854ZM14.6739 16.9854H15.0614M15.0614 16.9854V16.9854ZM15.0614 16.9854V16.6527M15.0614 16.6527V16.6527ZM15.0614 16.6527H15.4489M15.4489 16.6527V16.6527ZM15.4489 16.6527H15.8365M15.8365 16.6527V16.6527ZM15.8365 16.6527V16.32M15.8365 16.32V16.32ZM15.8365 16.32H16.224M16.224 16.32V16.32ZM16.224 16.32V15.9873M16.224 15.9873V15.9873ZM16.224 15.9873H16.6115M16.224 15.9873V15.6545M16.6115 15.9873V15.9873ZM16.6115 15.9873V15.6545M16.6115 15.6545H16.224M16.6115 15.6545V15.6545ZM16.6115 15.6545V15.3218M16.224 15.6545V15.6545ZM16.6115 15.3218V15.3218ZM16.6115 15.3218H16.999M16.999 15.3218V15.3218ZM16.999 15.3218V14.9891M16.999 14.9891V14.9891ZM16.999 14.9891H17.3866M17.3866 14.9891V14.9891ZM17.3866 14.9891V14.6564M17.3866 14.6564V14.6564ZM17.3866 14.6564H17.7741M17.7741 14.6564V14.6564ZM17.7741 14.6564V14.3237M17.7741 14.3237V14.3237ZM17.7741 14.3237H18.1616M18.1616 14.3237V14.3237ZM18.1616 14.3237V13.991M18.1616 13.991V13.991ZM18.1616 13.991V13.6582M18.1616 13.6582V13.6582ZM18.1616 13.6582V13.3255M18.1616 13.3255V13.3255ZM18.1616 13.3255V12.9928M18.1616 12.9928V12.9928ZM18.1616 12.9928H18.5491M18.5491 12.9928V12.9928ZM18.5491 12.9928H18.9367M18.9367 12.9928V12.9928ZM18.9367 12.9928V12.6601H19.3242M19.3242 12.6601V12.6601ZM19.3242 12.6601V12.3274M19.3242 12.3274V12.3274ZM19.3242 12.3274H19.7117M19.7117 12.3274V12.3274ZM19.7117 12.3274V11.9946M19.7117 12.3274H20.0992V11.9946M20.0992 11.9946V11.9946ZM20.0992 11.9946V11.6619M20.0992 11.6619V11.6619ZM20.0992 11.6619V11.3292M20.0992 11.3292V11.3292ZM20.0992 11.3292H19.7117M19.7117 11.3292V11.3292ZM19.7117 11.3292H19.3242M19.3242 11.3292V11.3292ZM19.3242 11.3292V10.9965M19.3242 11.3292H18.9367M19.3242 10.9965V10.9965ZM18.9367 11.3292V11.3292ZM18.9367 11.3292H18.5491M18.5491 11.3292V11.3292ZM18.5491 11.3292H18.1616M18.1616 11.3292V11.3292ZM18.1616 11.3292H17.7741M17.7741 11.3292V11.3292ZM17.7741 11.3292V11.6619M17.7741 11.3292H17.3866M17.7741 11.6619V11.6619ZM17.3866 11.3292V11.3292ZM17.3866 11.3292V11.6619H16.999M16.999 11.6619V11.6619ZM16.999 11.6619V11.3292M16.999 11.3292V11.3292ZM16.999 11.3292V10.9965M16.999 10.9965V10.9965ZM16.999 10.9965H17.3866M17.3866 10.9965V10.9965ZM17.3866 10.9965V10.6638M17.3866 10.6638V10.6638ZM17.3866 10.6638H17.7741M17.7741 10.6638V10.6638ZM17.7741 10.6638V10.331M17.7741 10.331V10.331ZM17.7741 10.331H17.3866M17.7741 10.331H18.1616M18.1616 10.331V10.331ZM18.1616 10.331V9.99833V9.66561M18.1616 9.66561V9.66561ZM18.1616 9.66561H18.5491M18.5491 9.66561V9.66561ZM18.5491 9.66561V9.3329M18.5491 9.3329V9.3329ZM18.5491 9.3329H18.9367M18.9367 9.3329V9.3329ZM18.9367 9.3329H19.3242M18.9367 9.3329V9.00018M19.3242 9.3329V9.3329ZM18.9367 9.00018H19.3242M18.9367 9.00018V9.00018ZM18.9367 9.00018V8.66746M18.9367 8.66746V8.66746ZM18.9367 8.66746V8.33474M18.9367 8.33474V8.33474ZM18.9367 8.33474H19.3242V8.00202M19.3242 8.00202V8.00202ZM19.3242 8.00202H19.7117V8.33474M19.7117 8.33474V8.33474ZM19.7117 8.33474H20.0992M20.0992 8.33474V8.33474ZM20.0992 8.33474H20.4868M20.4868 8.33474V8.33474ZM20.4868 8.33474V8.66746M20.4868 8.33474H20.8743M20.4868 8.66746V8.66746ZM20.8743 8.33474V8.33474ZM20.8743 8.33474H21.2618M21.2618 8.33474V8.33474ZM21.2618 8.33474V8.00202M21.2618 8.33474H21.6494M21.6494 8.33474V8.33474ZM21.6494 8.33474H22.0369M22.0369 8.33474V8.33474ZM22.0369 8.33474H22.4244M22.4244 8.33474V8.33474ZM22.4244 8.33474H22.8119M22.8119 8.33474V8.33474ZM22.8119 8.33474L22.4244 8.66746M22.4244 8.66746V8.66746ZM22.4244 8.66746V9.00018M22.4244 9.00018V9.00018ZM22.4244 9.00018V9.3329M22.4244 9.3329V9.3329ZM22.4244 9.3329H22.0369M22.0369 9.3329V9.3329ZM22.0369 9.3329V9.66561M22.0369 9.66561V9.66561ZM22.0369 9.66561H22.4244M22.4244 9.66561V9.66561ZM22.4244 9.66561H22.8119M22.8119 9.66561V9.66561ZM22.8119 9.66561H23.1995M23.1995 9.66561V9.66561ZM23.1995 9.66561L23.587 9.99833M23.587 9.99833V9.99833ZM23.587 9.99833H23.9745M23.9745 9.99833V9.99833ZM23.9745 9.99833V9.66561M23.9745 9.66561V9.66561ZM23.9745 9.66561H24.362M24.362 9.66561V9.66561ZM24.362 9.66561H24.7496M24.7496 9.66561V9.66561ZM24.7496 9.66561H25.1371M25.1371 9.66561V9.66561ZM25.1371 9.66561H25.5246M25.5246 9.66561V9.66561ZM25.5246 9.66561H25.9121M25.9121 9.66561V9.66561ZM25.9121 9.66561H26.2997M26.2997 9.66561V9.66561ZM26.2997 9.66561H26.6872V9.3329M26.6872 9.3329V9.3329ZM26.6872 9.3329L27.0747 9.00018M27.0747 9.00018V9.00018ZM27.0747 9.00018H27.4622M27.0747 9.00018V8.66746M27.4622 9.00018V9.00018ZM27.4622 9.00018L27.0747 8.66746M27.0747 8.66746V8.66746ZM27.0747 8.66746H26.6872M26.6872 8.66746V8.66746ZM26.6872 8.66746V8.33474M26.6872 8.33474V8.33474ZM26.6872 8.33474H27.0747M27.0747 8.33474V8.33474ZM27.0747 8.33474L27.4622 8.66746M27.4622 8.66746V8.66746ZM27.4622 8.66746V8.33474M27.4622 8.66746H27.8498M27.8498 8.66746V8.66746ZM27.8498 8.66746V8.33474H28.2373M28.2373 8.33474V8.33474ZM28.2373 8.33474V8.00202M28.2373 8.00202V8.00202ZM28.2373 8.00202L27.8498 7.6693H28.2373M28.2373 8.00202V7.6693M28.2373 8.00202H28.6248M28.2373 7.6693V7.33659M28.2373 7.6693V7.6693ZM28.6248 8.00202V8.00202ZM28.6248 8.00202V7.6693M28.6248 7.6693V7.6693ZM28.6248 7.6693L28.2373 7.33659M28.2373 7.33659V7.33659ZM28.2373 7.33659H27.8498M28.2373 7.33659L28.6248 7.00387M28.6248 7.00387V7.00387ZM28.6248 7.00387H29.0123V6.67115M29.0123 6.67115V6.67115ZM29.0123 6.67115H29.3999M29.3999 6.67115V6.33843M29.3999 6.67115V6.67115ZM29.3999 6.33843V6.33843ZM29.3999 6.33843H29.7874M29.7874 6.33843V6.33843ZM29.7874 6.33843H30.1749M30.1749 6.33843V6.33843ZM30.1749 6.33843H30.5624M30.5624 6.33843V6.33843ZM30.5624 6.33843V6.00571M30.5624 6.00571V6.00571ZM30.5624 6.00571H30.95M30.95 6.00571V6.00571ZM30.95 6.00571H31.3375M31.3375 6.00571V6.00571ZM31.3375 6.00571H31.725M31.3375 6.00571V6.33843M31.3375 6.33843V6.33843ZM31.3375 6.33843V6.67115M31.3375 6.67115V6.67115ZM31.3375 6.67115H30.95M30.95 6.67115V6.67115ZM30.95 6.67115V7.00387H30.5624M30.5624 7.00387V7.00387ZM30.5624 7.00387V6.67115M30.5624 7.00387L30.95 7.33659M30.5624 6.67115V6.67115ZM30.95 7.33659V7.33659ZM30.95 7.33659H31.3375V7.6693M31.3375 7.6693V7.6693ZM31.3375 7.6693H31.725M31.725 7.6693V7.6693ZM31.725 7.6693V7.33659M31.725 7.33659V7.33659ZM31.725 7.33659H32.1125M32.1125 7.33659V7.33659ZM32.1125 7.33659H32.5001M32.5001 7.33659V7.33659ZM32.5001 7.33659V7.00387H32.8876M32.8876 7.00387V7.00387ZM32.8876 7.00387H33.2751M33.2751 7.00387V7.00387ZM33.2751 7.00387L33.6626 6.67115M33.6626 6.67115V6.67115ZM33.6626 6.67115V6.33843M33.6626 6.33843V6.33843ZM33.6626 6.33843H34.0502M34.0502 6.33843V6.33843ZM34.0502 6.33843H34.4377M34.4377 6.33843V6.33843ZM34.4377 6.33843H34.8252M34.8252 6.33843V6.33843ZM34.8252 6.33843H35.2127M35.2127 6.33843V6.33843ZM35.2127 6.33843V6.67115H35.6003M35.6003 6.67115V6.67115ZM35.6003 6.67115L35.2127 7.00387M35.2127 7.00387V7.00387ZM35.2127 7.00387H35.6003M35.6003 7.00387V7.00387ZM35.6003 7.00387V7.33659M35.6003 7.33659V7.33659ZM35.6003 7.33659H35.9878M35.9878 7.33659V7.33659ZM35.9878 7.33659V7.00387M35.9878 7.00387V7.00387ZM35.9878 7.00387H36.3753M36.3753 7.00387V7.00387ZM36.3753 7.00387H36.7628M36.7628 7.00387V7.00387ZM36.7628 7.00387H37.1504M37.1504 7.00387V7.00387ZM37.1504 7.00387H37.5379M37.5379 7.00387V7.00387ZM37.5379 7.00387H37.9254M37.9254 7.00387V7.00387ZM37.9254 7.00387V6.67115H38.313M38.313 6.67115V6.67115ZM38.313 6.67115V7.00387M38.313 7.00387V7.00387ZM38.313 7.00387H38.7005M38.7005 7.00387V7.00387ZM38.7005 7.00387V6.67115M38.7005 6.67115V6.67115ZM38.7005 6.67115V6.33843H39.088M39.088 6.33843V6.33843ZM39.088 6.33843H39.4755M39.4755 6.33843V6.33843ZM39.4755 6.33843V6.00571M39.4755 6.00571V6.00571ZM39.4755 6.00571H39.8631M39.8631 6.00571V6.00571ZM39.8631 6.00571H40.2506M40.2506 6.00571V6.00571ZM40.2506 6.00571V5.67299M40.2506 5.67299V5.67299ZM40.2506 5.67299H40.6381M40.6381 5.67299V5.67299ZM40.6381 5.67299V5.34028M40.6381 5.34028V5.34028ZM40.6381 5.34028L41.0256 5.67299M41.0256 5.67299V5.67299ZM41.0256 5.67299V6.00571M41.0256 6.00571V6.00571ZM41.0256 6.00571L41.4132 5.67299M41.4132 5.67299V5.67299ZM41.4132 5.67299H41.8007M41.8007 5.67299V5.67299ZM41.8007 5.67299H42.1882M42.1882 5.67299V5.67299ZM42.1882 5.67299V6.00571M42.1882 6.00571V6.00571ZM42.1882 6.00571V6.33843M42.1882 6.33843V6.33843ZM42.1882 6.33843H42.5757M42.5757 6.33843V6.33843ZM42.5757 6.33843V6.67115H42.9633M42.9633 6.67115V6.67115ZM42.9633 6.67115H43.3508M43.3508 6.67115V6.67115ZM43.3508 6.67115H43.7383M43.7383 6.67115V6.67115ZM43.7383 6.67115H44.1258M44.1258 6.67115V6.67115ZM44.1258 6.67115V6.33843M44.1258 6.67115H44.5134M44.1258 6.33843V6.33843ZM44.5134 6.67115V6.67115ZM44.5134 6.67115H44.9009M44.9009 6.67115V6.67115ZM44.9009 6.67115H45.2884M45.2884 6.67115V6.67115ZM45.2884 6.67115L45.6759 6.33843M45.6759 6.33843V6.33843ZM45.6759 6.33843H46.0635M45.6759 6.33843H45.2884M46.0635 6.33843V6.33843ZM45.2884 6.33843V6.33843ZM45.2884 6.33843V6.00571M45.2884 6.00571V6.00571ZM45.2884 6.00571V5.67299M45.2884 5.67299V5.67299ZM45.2884 5.67299H45.6759M45.6759 5.67299V5.67299ZM45.6759 5.67299H46.0635M46.0635 5.67299V5.67299ZM46.0635 5.67299V5.34028M46.0635 5.34028V5.34028ZM46.0635 5.34028H46.451M46.451 5.34028V5.34028ZM46.451 5.34028H46.8385M46.8385 5.34028V5.34028ZM46.8385 5.34028H47.226M47.226 5.34028V5.34028ZM47.226 5.34028V5.67299M47.226 5.67299V5.67299ZM47.226 5.67299V6.00571M47.226 6.00571V6.00571ZM47.226 6.00571H47.6136M47.6136 6.00571V6.00571ZM47.6136 6.00571V5.67299M47.6136 5.67299V5.67299ZM47.6136 5.67299H48.0011M48.0011 5.67299V5.67299ZM48.0011 5.67299L47.6136 5.34028M47.6136 5.34028V5.34028ZM47.6136 5.34028V5.00756M47.6136 5.00756V5.00756ZM47.6136 5.00756H48.0011M48.0011 5.00756V4.67484M48.0011 5.00756V5.00756ZM48.0011 5.00756H48.3886M48.0011 4.67484V4.67484ZM48.0011 4.67484H48.3886M48.0011 4.67484V4.34212M48.3886 5.00756V5.00756ZM48.3886 5.00756V4.67484M48.3886 4.67484V4.67484ZM48.0011 4.34212V4.34212ZM48.0011 4.34212H47.6136M47.6136 4.34212V4.34212ZM47.6136 4.34212L47.226 4.67484M47.226 4.67484V4.67484ZM47.226 4.67484V4.34212M47.226 4.34212V4.34212ZM47.226 4.34212H46.8385M46.8385 4.34212V4.34212ZM46.8385 4.34212V4.67484M46.8385 4.67484V4.67484ZM46.8385 4.67484H46.451M46.451 4.67484V4.67484ZM46.451 4.67484V5.00756M46.451 5.00756V5.00756ZM46.451 5.00756H46.0635M46.0635 5.00756V5.00756ZM46.0635 5.00756H45.6759M45.6759 5.00756V5.00756ZM45.6759 5.00756V4.67484M45.6759 5.00756H45.2884M45.6759 4.67484V4.67484ZM45.2884 5.00756V5.00756ZM45.2884 5.00756V4.67484M45.2884 4.67484V4.67484ZM45.2884 4.67484H44.9009M44.9009 4.67484V4.67484ZM44.9009 4.67484L44.5134 4.34212M44.5134 4.34212V4.34212ZM44.5134 4.34212H44.1258M44.5134 4.34212V4.0094M44.1258 4.34212V4.34212ZM44.5134 4.0094V4.0094ZM44.5134 4.0094V3.67668M44.5134 3.67668V3.67668ZM44.5134 3.67668H44.1258M44.5134 3.67668V3.34397M44.1258 3.67668V3.67668ZM44.5134 3.34397V3.34397ZM44.5134 3.34397H44.9009M44.9009 3.34397V3.34397ZM44.9009 3.34397V3.01125M44.9009 3.01125V3.01125ZM44.9009 3.01125H45.2884M45.2884 3.01125V3.01125ZM45.2884 3.01125L44.9009 2.67853H45.2884M45.2884 2.67853V2.67853ZM45.2884 2.67853V2.34581M45.2884 2.34581V2.34581ZM45.2884 2.34581H45.6759M45.6759 2.34581V2.34581ZM45.6759 2.34581V2.01309M45.6759 2.01309V2.01309ZM45.6759 2.01309H46.0635M46.0635 2.01309V2.01309ZM46.0635 2.01309H46.451M46.451 2.01309V2.01309ZM46.451 2.01309L46.8385 1.68037M46.8385 1.68037V1.68037ZM46.8385 1.68037H47.226M47.226 1.68037V1.68037ZM47.226 1.68037V2.01309M47.226 1.68037V1.34766M47.226 2.01309V2.01309ZM47.226 1.34766V1.34766ZM47.226 1.34766H47.6136M47.6136 1.34766V1.34766ZM47.6136 1.34766H48.0011M48.0011 1.34766V1.34766ZM48.0011 1.34766V1.68037M48.0011 1.68037V1.68037ZM48.0011 1.68037V2.01309M48.0011 2.01309V2.01309ZM48.0011 2.01309L48.3886 2.34581M48.3886 2.34581V2.34581ZM48.3886 2.34581L48.7761 2.01309M48.7761 2.01309V2.01309ZM48.7761 2.01309V1.68037M48.7761 1.68037V1.68037ZM48.7761 1.68037V1.34766M48.7761 1.68037H49.1637M48.7761 1.34766V1.34766ZM49.1637 1.68037V1.68037ZM49.1637 1.68037V2.01309M49.1637 2.01309V2.01309ZM49.1637 2.01309H49.5512M49.1637 2.01309V2.34581M49.1637 2.34581V2.34581ZM49.1637 2.34581H49.5512M49.5512 2.34581V2.34581ZM49.5512 2.34581H49.9387M49.9387 2.34581V2.34581ZM49.9387 2.34581H50.3262M50.3262 2.34581V2.34581ZM50.3262 2.34581V2.67853M50.3262 2.67853V2.67853ZM50.3262 2.67853H49.9387M49.9387 2.67853V2.67853ZM49.9387 2.67853V3.01125M49.9387 3.01125V3.01125ZM49.9387 3.01125V3.34397M49.9387 3.34397V3.34397ZM49.9387 3.34397H50.3262M49.9387 3.34397V3.67668M50.3262 3.34397V3.34397ZM49.9387 3.67668V3.67668ZM49.9387 3.67668V4.0094M49.9387 3.67668H49.5512M49.9387 4.0094H50.3262M49.9387 4.0094H49.5512M49.9387 4.0094V4.0094ZM50.3262 4.0094V4.0094ZM50.3262 4.0094H50.7138M50.7138 4.0094V4.0094ZM50.7138 4.0094L51.1013 4.34212M51.1013 4.34212V4.34212ZM51.1013 4.34212V4.0094M51.1013 4.0094V4.0094ZM51.1013 4.0094H51.4888M51.4888 4.0094V4.0094ZM51.4888 4.0094V3.67668M51.4888 3.67668V3.67668ZM51.4888 3.67668H51.1013M51.1013 3.67668V3.67668ZM51.1013 3.67668H50.7138M50.7138 3.67668V3.67668ZM50.7138 3.67668V3.34397M50.7138 3.34397V3.34397ZM50.7138 3.34397H51.1013M51.1013 3.34397V3.34397ZM51.1013 3.34397V3.01125M51.1013 3.01125V3.01125ZM51.1013 3.01125H51.4888M51.4888 3.01125V3.01125ZM51.4888 3.01125V2.67853M51.4888 3.01125V3.34397H51.8763M51.4888 2.67853V2.67853ZM51.8763 3.34397V3.34397ZM51.8763 3.34397H52.2639M52.2639 3.34397V3.34397ZM52.2639 3.34397V3.67668M52.2639 3.67668V3.67668ZM52.2639 3.67668H52.6514M52.2639 3.67668V4.0094M52.6514 3.67668V3.67668ZM52.6514 3.67668V4.0094M52.6514 4.0094V4.0094ZM52.2639 4.0094V4.0094ZM52.2639 4.0094L52.6514 4.34212M52.6514 4.34212V4.34212ZM52.6514 4.34212V4.67484M52.6514 4.67484V4.67484ZM52.6514 4.67484H52.2639M52.6514 4.67484H53.0389M52.2639 4.67484V4.67484ZM53.0389 4.67484V4.67484ZM53.0389 4.67484V5.00756M53.0389 5.00756V5.00756ZM53.0389 5.00756H53.4264M53.4264 5.00756V5.00756ZM53.4264 5.00756H53.814V4.67484M53.814 4.67484V4.67484ZM53.814 4.67484H54.2015M54.2015 4.67484V4.67484ZM54.2015 4.67484H54.589M54.589 4.67484V4.67484ZM54.589 4.67484V4.34212M54.589 4.34212V4.34212ZM54.589 4.34212H54.9765M54.9765 4.34212V4.34212ZM54.9765 4.34212H55.3641M55.3641 4.34212V4.34212ZM55.3641 4.34212H55.7516M55.7516 4.34212V4.34212ZM55.7516 4.34212H56.1391M56.1391 4.34212V4.34212ZM56.1391 4.34212H56.5266M56.5266 4.34212V4.34212ZM56.5266 4.34212H56.9142M56.9142 4.34212V4.34212ZM56.9142 4.34212H57.3017M57.3017 4.34212V4.34212ZM57.3017 4.34212V4.67484M57.3017 4.67484V4.67484ZM57.3017 4.67484L57.6892 4.34212M57.6892 4.34212V4.34212ZM57.6892 4.34212V4.67484M57.6892 4.67484V4.67484ZM57.6892 4.67484H58.0767M58.0767 4.67484V4.67484ZM58.0767 4.67484H58.4643V5.00756M58.4643 5.00756V5.00756ZM58.4643 5.00756H58.8518M58.8518 5.00756V5.00756ZM58.8518 5.00756L59.2393 5.34028M59.2393 5.34028V5.34028ZM59.2393 5.34028V5.00756M59.2393 5.34028H59.6269M59.6269 5.34028V5.34028ZM59.6269 5.34028H60.0144V5.67299M60.0144 5.67299V5.67299ZM60.0144 5.67299H60.4019M60.4019 5.67299V5.67299ZM60.4019 5.67299V6.00571M60.4019 6.00571V6.00571ZM60.4019 6.00571H60.7894M60.7894 6.00571V6.00571ZM60.7894 6.00571V6.33843M60.7894 6.33843V6.33843ZM60.7894 6.33843H61.177M61.177 6.33843V6.33843ZM61.177 6.33843H61.5645M61.5645 6.33843V6.33843ZM61.5645 6.33843V6.67115M61.5645 6.67115V6.67115ZM61.5645 6.67115H61.952M61.952 6.67115V6.67115ZM61.952 6.67115V7.00387M61.952 7.00387V7.00387ZM61.952 7.00387H61.5645M61.952 7.00387V7.33659M61.952 7.33659V7.33659ZM61.952 7.33659H62.3395M62.3395 7.33659V7.33659ZM62.3395 7.33659V7.6693M62.3395 7.6693V7.6693ZM62.3395 7.6693H62.7271M62.7271 7.6693V7.6693ZM62.7271 7.6693V8.00202M62.7271 8.00202V8.00202ZM62.7271 8.00202H63.1146M63.1146 8.00202V8.00202ZM63.1146 8.00202V8.33474M63.1146 8.33474V8.33474ZM63.1146 8.33474H63.5021M63.5021 8.33474V8.33474ZM63.5021 8.33474V8.66746M63.5021 8.66746V8.66746ZM63.5021 8.66746H63.8896M63.8896 8.66746V8.66746ZM63.8896 8.66746H64.2772M64.2772 8.66746V8.66746ZM64.2772 8.66746H64.6647M64.6647 8.66746V8.66746ZM64.6647 8.66746V8.33474M64.6647 8.33474V8.33474ZM64.6647 8.33474H65.0522M65.0522 8.33474V8.33474ZM65.0522 8.33474L65.4397 8.66746M65.4397 8.66746V8.66746ZM65.4397 8.66746V9.00018M65.4397 9.00018V9.00018ZM65.4397 9.00018H65.8273M65.8273 9.00018V9.00018ZM65.8273 9.00018L66.2148 9.3329M66.2148 9.3329V9.3329ZM66.2148 9.3329H66.6023M66.6023 9.3329V9.3329ZM66.6023 9.3329V9.66561M66.6023 9.66561V9.66561ZM66.6023 9.66561V9.99833M66.6023 9.99833V9.99833ZM66.6023 9.99833V10.331M66.6023 10.331V10.331ZM66.6023 10.331V10.6638M66.6023 10.6638V10.6638ZM66.6023 10.6638H66.9898M66.9898 10.6638V10.6638ZM66.9898 10.6638V10.9965M66.9898 10.9965V10.9965ZM66.9898 10.9965V11.3292H66.6023M66.6023 11.3292V11.3292ZM66.6023 11.3292H66.2148M66.2148 11.3292V11.3292ZM66.2148 11.3292L65.8273 11.6619M65.8273 11.6619V11.6619ZM65.8273 11.6619L65.4397 11.9946V12.3274M65.4397 12.3274V12.3274ZM65.4397 12.3274V12.6601M65.4397 12.6601V12.6601ZM65.4397 12.6601H65.0522M65.0522 12.6601V12.6601ZM65.0522 12.6601V12.9928M65.0522 12.9928V12.9928ZM65.0522 12.9928H64.6647M64.6647 12.9928V12.9928ZM64.6647 12.9928V13.3255M64.6647 13.3255V13.3255ZM64.6647 13.3255H64.2772M64.2772 13.3255V13.3255ZM64.2772 13.3255V13.6582M64.2772 13.6582V13.6582ZM64.2772 13.6582V13.991M64.2772 13.991V13.991ZM64.2772 13.991L63.8896 14.6564M63.8896 14.6564V14.6564ZM63.8896 14.6564V14.9891M63.8896 14.9891V14.9891ZM63.8896 14.9891L63.5021 15.3218M63.5021 15.3218V15.3218ZM63.5021 15.3218V15.6545L63.8896 15.9873M63.8896 15.9873V15.9873ZM63.8896 15.9873V16.32M63.8896 16.32V16.32ZM63.8896 16.32L64.2772 16.6527M64.2772 16.6527V16.6527ZM64.2772 16.6527V16.9854M64.2772 16.9854V16.9854ZM64.2772 16.9854V17.3181M64.2772 17.3181V17.3181ZM64.2772 17.3181V17.6509M64.2772 17.6509V17.6509ZM64.2772 17.6509L63.8896 17.9836M63.8896 17.9836V17.9836ZM63.8896 17.9836H63.5021M63.5021 17.9836V17.9836ZM63.5021 17.9836V18.3163M63.5021 18.3163V18.3163ZM63.5021 18.3163H63.8896M63.8896 18.3163V18.3163ZM63.8896 18.3163H64.2772M64.2772 18.3163V18.3163ZM64.2772 18.3163H64.6647M64.6647 18.3163V17.9836M64.6647 18.3163V18.3163ZM64.6647 18.3163H65.0522M64.6647 17.9836V17.9836ZM65.0522 18.3163V18.3163ZM65.0522 18.3163V18.649M65.0522 18.3163H65.4397M65.0522 18.649V18.649ZM65.4397 18.3163V18.3163ZM65.4397 18.3163H65.8273M65.8273 18.3163V18.3163ZM65.8273 18.3163H66.2148M66.2148 18.3163V18.3163ZM66.2148 18.3163H66.6023M66.6023 18.3163V18.3163ZM66.6023 18.3163H66.9898M66.9898 18.3163V18.3163ZM66.9898 18.3163H67.3774M67.3774 18.3163V18.3163ZM67.3774 18.3163H67.7649M67.7649 18.3163V18.3163ZM67.7649 18.3163V18.649M67.7649 18.649V18.649ZM67.7649 18.649H68.1524M68.1524 18.649V18.649ZM68.1524 18.649H68.5399M68.5399 18.649V18.649ZM68.5399 18.649H68.9275M68.9275 18.649V18.649ZM68.9275 18.649V18.9817H69.315M69.315 18.9817V18.9817ZM69.315 18.9817H69.7025M69.7025 18.9817V18.9817ZM69.7025 18.9817V19.3144M69.7025 19.3144V19.3144ZM69.7025 19.3144H70.09M70.09 19.3144V19.3144ZM70.09 19.3144H70.4776M70.4776 19.3144V18.9817M70.4776 19.3144H70.8651M70.4776 19.3144V19.3144ZM70.4776 19.3144L70.8651 19.6472M70.4776 18.9817V18.9817ZM70.4776 18.9817H70.8651V19.3144M70.8651 19.3144V19.3144ZM70.8651 19.6472V19.6472ZM70.8651 19.6472V19.9799M70.8651 19.9799V19.9799ZM70.8651 19.9799L70.4776 20.3126M70.4776 20.3126V20.3126ZM70.4776 20.3126V20.6453M70.4776 20.6453H70.8651M70.4776 20.6453V20.6453ZM70.4776 20.6453V20.978M70.4776 20.978V20.978ZM70.4776 20.978H70.8651M70.8651 20.978V20.978ZM70.8651 20.978V21.3108M70.8651 21.3108V21.3108ZM70.8651 21.3108H71.2526M71.2526 21.3108V21.3108ZM71.2526 21.3108H71.6401M71.6401 21.3108V21.3108ZM71.6401 21.3108V21.6435M71.6401 21.6435V21.6435ZM71.6401 21.6435H72.0277M72.0277 21.6435V21.6435ZM72.0277 21.6435V21.3108M72.0277 21.6435H72.4152M72.4152 21.6435V21.6435ZM72.4152 21.6435V21.3108M72.4152 21.6435H72.8027M72.8027 21.6435V21.6435ZM72.8027 21.6435V21.9762M72.8027 21.9762V21.9762ZM72.8027 21.9762H73.1902M73.1902 21.9762V21.9762ZM73.1902 21.9762V21.6435M73.1902 21.9762H73.5778M73.5778 21.9762V21.9762ZM73.5778 21.9762V22.3089M73.5778 22.3089V22.3089ZM73.5778 22.3089H73.9653M73.9653 22.3089V22.3089ZM73.9653 22.3089L73.5778 22.6416M73.5778 22.6416V22.6416ZM73.5778 22.6416H73.9653M73.9653 22.6416V22.6416ZM73.9653 22.6416H74.3528M74.3528 22.6416V22.6416ZM74.3528 22.6416V22.9743M74.3528 22.9743V22.9743ZM74.3528 22.9743H74.7404M74.7404 22.9743V22.9743ZM74.7404 22.9743V23.3071M74.7404 22.9743H75.1279M74.7404 23.3071V23.3071ZM75.1279 22.9743V22.9743ZM75.1279 22.9743H75.5154M75.5154 22.9743V22.9743ZM75.5154 22.9743H75.9029M75.9029 22.9743V22.9743ZM75.9029 22.9743H76.2905M76.2905 22.9743V22.9743ZM76.2905 22.9743V22.6416M76.2905 22.6416V22.6416ZM76.2905 22.6416H76.678M76.678 22.6416V22.6416ZM76.678 22.6416H77.0655M77.0655 22.6416V22.6416ZM77.0655 22.6416V22.3089M77.0655 22.3089V22.3089ZM77.0655 22.3089V21.9762M77.0655 21.9762V21.9762ZM77.0655 21.9762V21.6435M77.0655 21.6435V21.6435ZM77.0655 21.6435V21.3108M77.0655 21.3108V21.3108ZM77.0655 21.3108V20.978M77.0655 20.978V20.978ZM77.0655 20.978H77.453V21.3108M77.453 21.3108V21.3108ZM77.453 21.3108H78.2281M78.2281 21.3108V21.3108ZM78.2281 21.3108H78.6156M78.6156 21.3108V21.3108ZM78.6156 21.3108V20.978M78.6156 20.978V20.978ZM78.6156 20.978H78.2281M78.2281 20.978V20.978ZM78.2281 20.978V20.6453M78.2281 20.6453V20.6453ZM78.2281 20.6453H78.6156M78.6156 20.6453V20.6453ZM78.6156 20.6453V20.3126M78.6156 20.3126V20.3126ZM78.6156 20.3126H79.0031M79.0031 20.3126V20.3126ZM79.0031 20.3126V19.9799M79.0031 19.9799V19.9799ZM79.0031 19.9799V19.6472M79.0031 19.6472V19.6472ZM79.0031 19.6472H79.3907M79.3907 19.6472V19.6472ZM79.3907 19.6472H79.7782M79.7782 19.6472V19.6472ZM79.7782 19.6472H80.1657M80.1657 19.6472V19.6472ZM80.1657 19.6472V19.9799M80.1657 19.9799V19.9799ZM80.1657 19.9799H80.5532M80.5532 19.9799V19.9799ZM80.5532 19.9799V20.3126M80.5532 20.3126V20.3126ZM80.5532 20.3126V20.6453M80.5532 20.6453V20.6453ZM80.5532 20.6453H80.9408M80.9408 20.6453V20.6453ZM80.9408 20.6453H81.3283M81.3283 20.6453V20.6453ZM81.3283 20.6453V20.978M81.3283 20.978V20.978ZM81.3283 20.978H81.7158M81.7158 20.978V20.978ZM81.7158 20.978V21.3108M81.7158 21.3108V21.3108ZM81.7158 21.3108V21.6435H81.3283M81.3283 21.6435V21.6435ZM81.3283 21.6435V21.9762M81.3283 21.9762V21.9762ZM81.3283 21.9762V22.3089M81.3283 22.3089V22.3089ZM81.3283 22.3089V22.6416M81.3283 22.6416V22.6416ZM81.3283 22.6416V22.9743M81.3283 22.9743V22.9743ZM81.3283 22.9743V23.3071M81.3283 23.3071V23.3071ZM81.3283 23.3071H80.9408M80.9408 23.3071V23.3071ZM80.9408 23.3071V23.6398M80.9408 23.6398V23.6398ZM80.9408 23.6398V23.9725M80.9408 23.9725V23.9725ZM80.9408 23.9725H80.5532V24.3052M80.5532 24.3052V24.3052ZM80.5532 24.3052V24.6379M80.5532 24.6379V24.6379ZM80.5532 24.6379H80.9408V24.9707M80.9408 24.9707V24.9707ZM80.9408 24.9707V25.3034H80.5532M80.5532 25.3034V25.3034ZM80.5532 25.3034H80.1657M80.1657 25.3034V25.3034ZM80.1657 25.3034V25.6361M80.1657 25.6361V25.6361ZM80.1657 25.6361V25.9688M80.1657 25.9688V25.9688ZM80.1657 25.9688V26.3015M80.1657 26.3015V26.3015ZM80.1657 26.3015H79.7782M79.7782 26.3015V26.3015ZM79.7782 26.3015V26.6342M79.7782 26.6342V26.6342ZM79.7782 26.6342V26.967M79.7782 26.967V26.967ZM79.7782 26.967V27.2997M79.7782 27.2997V27.2997ZM79.7782 27.2997L80.1657 27.6324M80.1657 27.6324V27.6324ZM80.1657 27.6324H80.5532M80.5532 27.6324V27.6324ZM80.5532 27.6324H80.9408M80.9408 27.6324V27.6324ZM80.9408 27.6324L81.3283 27.9651M81.3283 27.9651V27.9651ZM81.3283 27.9651L81.7158 28.2978M81.7158 28.2978V28.2978ZM81.7158 28.2978V28.6306M81.7158 28.6306V28.6306ZM81.7158 28.6306V28.9633M81.7158 28.9633V28.9633ZM81.7158 28.9633H81.3283V29.296M81.3283 29.296V29.296ZM81.3283 29.296V29.6287M81.3283 29.6287V29.6287ZM81.3283 29.6287V29.9614M81.3283 29.9614V29.9614ZM81.3283 29.9614H80.9408M80.9408 29.9614V29.9614ZM80.9408 29.9614H80.5532M80.5532 29.9614V29.9614ZM80.5532 29.9614V29.6287M80.5532 29.6287V29.6287ZM80.5532 29.6287H80.1657M80.1657 29.6287V29.6287ZM80.1657 29.6287V29.9614H79.7782M79.7782 29.9614V29.9614ZM79.7782 29.9614V29.6287M79.7782 29.6287V29.6287ZM79.7782 29.6287H79.3907M79.3907 29.6287V29.6287ZM79.3907 29.6287H79.0031M79.0031 29.6287V29.6287ZM79.0031 29.6287V29.9614M79.0031 29.6287H78.6156M79.0031 29.9614V29.9614ZM78.6156 29.6287V29.6287ZM78.6156 29.6287H78.2281M78.2281 29.6287V29.6287ZM78.2281 29.6287V29.296M78.2281 29.296V29.296ZM78.2281 29.296H77.8406M77.8406 29.296V29.296ZM77.8406 29.296V28.9633M77.8406 28.9633V28.9633ZM77.8406 28.9633H77.453M77.453 28.9633V28.9633ZM77.453 28.9633V29.296M77.453 29.296V29.296ZM77.453 29.296L77.0655 28.9633M77.0655 28.9633V28.9633ZM77.0655 28.9633V28.6306M77.0655 28.6306V28.6306ZM77.0655 28.6306H77.453M77.453 28.6306V28.6306ZM77.453 28.6306V28.2978M77.453 28.2978V28.2978ZM77.453 28.2978L77.0655 27.9651M77.0655 27.9651V27.9651ZM77.0655 27.9651V27.6324M77.0655 27.9651H76.678M77.0655 27.6324V27.6324ZM76.678 27.9651V27.9651ZM76.678 27.9651V28.2978M76.678 27.9651H76.2905M76.2905 27.9651V27.9651ZM76.2905 27.9651H75.9029V28.2978M75.9029 28.2978V28.2978ZM75.9029 28.2978H75.5154M75.5154 28.2978V28.2978ZM75.5154 28.2978H75.1279M75.1279 28.2978V28.2978ZM75.1279 28.2978H74.7404M74.7404 28.2978V28.2978ZM74.7404 28.2978V28.6306M74.7404 28.6306V28.6306ZM74.7404 28.6306V28.9633M74.7404 28.9633V28.9633ZM74.7404 28.9633H74.3528M74.3528 28.9633V28.9633ZM74.3528 28.9633V29.296M74.3528 29.296V29.296ZM74.3528 29.296L73.9653 29.6287M73.9653 29.6287V29.6287ZM73.9653 29.6287V29.9614M73.9653 29.9614V29.9614ZM73.9653 29.9614H73.5778M73.9653 29.9614L73.5778 30.2941H73.9653M73.5778 29.9614V29.9614ZM73.9653 30.2941V30.2941ZM73.9653 30.2941V30.6269H73.5778M73.5778 30.6269V30.6269ZM73.5778 30.6269V30.9596M73.5778 30.9596V30.9596ZM73.5778 30.9596V31.2923M73.5778 31.2923V31.2923ZM73.5778 31.2923H73.9653V31.625M73.9653 31.625V31.625ZM73.9653 31.625H73.5778M73.5778 31.625V31.625ZM73.5778 31.625V31.9577M73.5778 31.9577V31.9577ZM73.5778 31.9577L73.9653 32.2905M73.9653 32.2905V32.2905ZM73.9653 32.2905V32.6232M73.9653 32.2905H74.3528M74.3528 32.2905V32.2905ZM74.3528 32.2905V32.6232M74.3528 32.6232V32.6232ZM74.3528 32.6232H74.7404M74.7404 32.6232V32.6232ZM74.7404 32.6232V32.2905M74.7404 32.2905V32.2905ZM74.7404 32.2905L75.1279 32.6232V32.2905M75.1279 32.2905V32.2905ZM75.1279 32.2905H75.5154M75.5154 32.2905V32.2905ZM75.5154 32.2905V32.6232M75.5154 32.6232V32.6232ZM75.5154 32.6232H75.9029M75.9029 32.6232V32.6232ZM75.9029 32.6232V32.9559M75.9029 32.9559V32.9559ZM75.9029 32.9559V33.2886M75.9029 33.2886V33.2886ZM75.9029 33.2886H75.5154M75.5154 33.2886V33.2886ZM75.5154 33.2886H75.1279V33.6213M75.1279 33.6213V33.6213ZM75.1279 33.6213V33.954M75.1279 33.954V33.954ZM75.1279 33.954H74.7404M74.7404 33.954V33.954ZM74.7404 33.954V34.2868M74.7404 34.2868V34.2868ZM74.7404 34.2868V34.6195M74.7404 34.6195V34.6195ZM74.7404 34.6195V34.9522M74.7404 34.9522V34.9522ZM74.7404 34.9522H75.1279M75.1279 34.9522V34.9522ZM75.1279 34.9522V35.2849M75.1279 35.2849V35.2849ZM75.1279 35.2849H75.5154M75.5154 35.2849V35.2849ZM75.5154 35.2849V35.6176M75.5154 35.6176V35.6176ZM75.5154 35.6176H75.9029M75.9029 35.6176V35.6176ZM75.9029 35.6176V35.9504M75.9029 35.9504V35.9504ZM75.9029 35.9504V36.2831M75.9029 36.2831V36.2831ZM75.9029 36.2831L75.5154 36.6158V36.9485H75.1279M75.1279 36.9485V36.9485ZM75.1279 36.9485H74.7404M74.7404 36.9485V36.9485ZM74.7404 36.9485H74.3528M74.3528 36.9485V36.9485ZM74.3528 36.9485H73.9653M73.9653 36.9485V36.9485ZM73.9653 36.9485H73.5778M73.5778 36.9485V36.9485ZM73.5778 36.9485V36.6158M73.5778 36.6158V36.6158ZM73.5778 36.6158H73.9653M73.9653 36.6158V36.6158ZM73.9653 36.6158V36.2831M73.9653 36.2831V36.2831ZM73.9653 36.2831V35.9504M73.9653 35.9504V35.9504ZM73.9653 35.9504H73.5778M73.5778 35.9504V35.9504ZM73.5778 35.9504V35.6176M73.5778 35.6176V35.6176ZM73.5778 35.6176H73.1902M73.1902 35.6176V35.6176ZM73.1902 35.6176H72.8027M72.8027 35.6176V35.6176ZM72.8027 35.6176V35.2849M72.8027 35.2849V35.2849ZM72.8027 35.2849V34.9522M72.8027 34.9522V34.9522ZM72.8027 34.9522H72.4152V34.6195M72.4152 34.6195V34.6195ZM72.4152 34.6195H72.8027M72.8027 34.6195V34.6195ZM72.8027 34.6195V34.2868M72.8027 34.2868V34.2868ZM72.8027 34.2868V33.954M72.8027 33.954V33.954ZM72.8027 33.954H72.4152M72.4152 33.954V33.954ZM72.4152 33.954H72.0277M72.0277 33.954V33.954ZM72.0277 33.954V33.6213M72.0277 33.6213V33.6213ZM72.0277 33.6213H71.6401M71.6401 33.6213V33.6213ZM71.6401 33.6213V33.954M71.6401 33.6213H71.2526M71.2526 33.6213V33.6213ZM71.2526 33.6213H70.8651M70.8651 33.6213V33.6213ZM70.8651 33.6213L70.4776 33.954M70.4776 33.954V33.954ZM70.4776 33.954H70.09M70.09 33.954V33.954ZM70.09 33.954H69.7025M69.7025 33.954V33.954ZM69.7025 33.954V34.2868M69.7025 34.2868V34.2868ZM69.7025 34.2868H69.315M69.315 34.2868V34.2868ZM69.315 34.2868H68.9275M68.9275 34.2868V34.2868ZM68.9275 34.2868V34.6195M68.9275 34.6195V34.6195ZM68.9275 34.6195H68.5399V34.2868M68.5399 34.2868V34.2868ZM68.5399 34.2868H68.1524M68.1524 34.2868V34.2868ZM68.1524 34.2868V33.954M68.1524 34.2868H67.7649M67.7649 34.2868V34.2868ZM67.7649 34.2868V34.6195M67.7649 34.6195H68.1524M67.7649 34.6195V34.6195ZM67.7649 34.6195V34.9522M67.7649 34.9522V34.9522ZM67.7649 34.9522V35.2849M67.7649 35.2849V35.2849ZM67.7649 35.2849L67.3774 35.6176M67.3774 35.6176V35.6176ZM67.3774 35.6176V35.2849M67.3774 35.2849V35.2849ZM67.3774 35.2849H66.9898M66.9898 35.2849V35.2849ZM66.9898 35.2849H66.6023M66.6023 35.2849V35.2849ZM66.6023 35.2849V35.6176M66.6023 35.6176V35.6176ZM66.6023 35.6176H66.2148M66.2148 35.6176V35.6176ZM66.2148 35.6176H65.8273M65.8273 35.6176V35.6176ZM65.8273 35.6176V35.2849M65.8273 35.2849V35.2849ZM65.8273 35.2849H65.4397M65.4397 35.2849V35.2849ZM65.4397 35.2849H65.0522M65.0522 35.2849V35.2849ZM65.0522 35.2849H64.6647M64.6647 35.2849V35.2849ZM64.6647 35.2849V34.9522M64.6647 34.9522V34.9522ZM64.6647 34.9522H64.2772M64.2772 34.9522V34.9522ZM64.2772 34.9522V34.6195M64.2772 34.6195V34.6195ZM64.2772 34.6195V34.2868M64.2772 34.2868V34.2868ZM64.2772 34.2868H63.8896M63.8896 34.2868V34.2868ZM63.8896 34.2868V33.954M63.8896 33.954V33.954ZM63.8896 33.954H63.5021V33.6213M63.5021 33.6213V33.6213ZM63.5021 33.6213H63.1146M63.1146 33.6213V33.6213ZM63.1146 33.6213V33.2886M63.1146 33.2886V33.2886ZM63.1146 33.2886H63.5021M63.1146 33.2886V32.9559M63.5021 33.2886V33.2886ZM63.1146 32.9559V32.9559ZM63.1146 32.9559V32.6232M63.1146 32.6232V32.6232ZM63.1146 32.6232V32.2905M63.1146 32.2905V32.2905ZM63.1146 32.2905V31.9577M63.1146 31.9577V31.9577ZM63.1146 31.9577V31.625M63.1146 31.625V31.625ZM63.1146 31.625V31.2923M63.1146 31.2923V31.2923ZM63.1146 31.2923V30.9596M63.1146 30.9596V30.9596ZM63.1146 30.9596V30.6269M63.1146 30.6269V30.6269ZM63.1146 30.6269L62.7271 30.9596M62.7271 30.9596V30.9596ZM62.7271 30.9596V31.2923M62.7271 31.2923V31.2923ZM62.7271 31.2923H62.3395M62.3395 31.2923V31.2923ZM62.3395 31.2923V31.625M62.3395 31.625V31.625ZM62.3395 31.625H61.952M61.952 31.625V31.625ZM61.952 31.625V31.2923M61.952 31.2923V31.2923ZM61.952 31.2923H61.5645M61.5645 31.2923V31.2923ZM61.5645 31.2923V30.9596M61.5645 30.9596V30.9596ZM61.5645 30.9596V30.6269M61.5645 30.6269V30.6269ZM61.5645 30.6269H61.177M61.177 30.6269V30.6269ZM61.177 30.6269H60.7894M60.7894 30.6269V30.6269ZM60.7894 30.6269H60.4019M60.4019 30.6269V30.6269ZM60.4019 30.6269V30.9596H60.0144M60.0144 30.9596V30.9596ZM60.0144 30.9596V31.2923M60.0144 31.2923V31.2923ZM60.0144 31.2923V31.625M60.0144 31.625V31.625ZM60.0144 31.625L59.6269 31.9577M59.6269 31.9577V31.9577ZM59.6269 31.9577H59.2393M59.2393 31.9577V31.9577ZM59.2393 31.9577V32.2905M59.2393 32.2905V32.2905ZM59.2393 32.2905H59.6269M59.6269 32.2905V32.2905ZM59.6269 32.2905V32.6232M59.6269 32.6232V32.6232ZM59.6269 32.6232H60.0144M60.0144 32.6232V32.6232ZM60.0144 32.6232V32.9559M60.0144 32.9559V32.9559ZM60.0144 32.9559V33.2886M60.0144 33.2886V33.2886ZM60.0144 33.2886V33.6213M60.0144 33.6213V33.6213ZM60.0144 33.6213V33.954M60.0144 33.954V33.954ZM60.0144 33.954H60.4019M60.4019 33.954V33.954ZM60.4019 33.954V34.2868M60.4019 34.2868V34.2868ZM60.4019 34.2868H60.0144V34.6195M60.0144 34.6195V34.6195ZM60.0144 34.6195H60.4019M60.4019 34.6195V34.6195ZM60.4019 34.6195V34.9522M60.4019 34.9522V34.9522ZM60.4019 34.9522H60.0144M60.0144 34.9522V34.9522ZM60.0144 34.9522V35.2849M60.0144 35.2849V35.2849ZM60.0144 35.2849L59.6269 35.6176M59.6269 35.6176V35.6176ZM59.6269 35.6176V35.9504M59.6269 35.9504V35.9504ZM59.6269 35.9504V36.2831M59.6269 36.2831H59.2393M59.6269 36.2831V36.2831ZM59.2393 36.2831V36.2831ZM59.2393 36.2831V36.6158M59.2393 36.6158V36.6158ZM59.2393 36.6158L58.8518 36.9485M58.8518 36.9485V36.9485ZM58.8518 36.9485V37.2812M58.8518 37.2812V37.2812ZM58.8518 37.2812H58.4643M58.4643 37.2812V37.2812ZM58.4643 37.2812V37.6139M58.4643 37.6139V37.6139ZM58.4643 37.6139V37.9467M58.4643 37.9467V37.9467ZM58.4643 37.9467L58.0767 38.2794M58.0767 38.2794V38.2794ZM58.0767 38.2794H57.6892M57.6892 38.2794V38.2794ZM57.6892 38.2794L57.3017 38.6121M57.3017 38.6121V38.6121ZM57.3017 38.6121V38.9448M57.3017 38.9448V38.9448ZM57.3017 38.9448H56.9142M56.9142 38.9448V38.9448ZM56.9142 38.9448L56.5266 39.2775M56.5266 39.2775V39.2775ZM56.5266 39.2775H56.1391M56.1391 39.2775V39.2775ZM56.1391 39.2775V39.6103M56.1391 39.6103V39.6103ZM56.1391 39.6103H56.5266M56.5266 39.6103V39.6103ZM56.5266 39.6103V39.943M56.5266 39.943V39.943ZM56.5266 39.943V40.2757M56.5266 40.2757V40.2757ZM56.5266 40.2757V40.6084H56.1391M56.1391 40.6084V40.6084ZM56.1391 40.6084H55.7516M55.7516 40.6084V40.6084ZM55.7516 40.6084H55.3641M55.3641 40.6084V40.6084ZM55.3641 40.6084V40.9411M55.3641 40.9411V40.9411ZM55.3641 40.9411H54.9765V41.2738M54.9765 41.2738V41.2738ZM54.9765 41.2738H55.3641M55.3641 41.2738V41.2738ZM55.3641 41.2738V41.6066M55.3641 41.6066V41.6066ZM55.3641 41.6066V41.9393M55.3641 41.9393V41.9393ZM55.3641 41.9393V42.272M55.3641 42.272V42.272ZM55.3641 42.272H54.9765M54.9765 42.272V42.272ZM54.9765 42.272V42.6047M54.9765 42.6047V42.6047ZM54.9765 42.6047H54.589M54.9765 42.6047L55.3641 42.9374M54.589 42.6047V42.6047ZM54.589 42.6047V42.9374L54.2015 42.6047M54.589 42.6047V42.272M55.3641 42.9374V42.9374ZM55.3641 42.9374V43.2702M55.3641 43.2702H54.9765M55.3641 43.2702V43.2702ZM55.3641 43.2702V43.6029M55.3641 43.6029V43.6029ZM55.3641 43.6029H55.7516M55.7516 43.6029V43.6029ZM55.7516 43.6029H56.1391M56.1391 43.6029V43.6029ZM56.1391 43.6029V43.9356M56.1391 43.9356V43.9356ZM56.1391 43.9356V44.2683M56.1391 44.2683L56.5266 43.9356V44.2683M56.1391 44.2683H56.5266M56.5266 44.2683V44.2683ZM56.5266 44.2683L56.1391 44.601M56.1391 44.601H56.5266M56.1391 44.601V44.601ZM56.1391 44.601H55.7516M55.7516 44.601V44.601ZM55.7516 44.601V44.9338M55.7516 44.9338V44.9338ZM55.7516 44.9338V45.2665M55.7516 45.2665V45.2665ZM55.7516 45.2665V45.5992M55.7516 45.5992V45.5992ZM55.7516 45.5992H55.3641V45.9319M55.3641 45.9319V45.9319ZM55.3641 45.9319H55.7516M55.3641 45.9319H54.9765M54.9765 45.9319V45.9319ZM54.9765 45.9319V45.5992M54.9765 45.5992V45.5992ZM54.9765 45.5992H54.589M54.589 45.5992V45.5992ZM54.589 45.5992H54.2015M54.2015 45.5992V45.5992ZM54.2015 45.5992V45.2665M54.2015 45.2665V45.2665ZM54.2015 45.2665H53.814M53.814 45.2665V45.2665ZM53.814 45.2665V45.5992M53.814 45.5992V45.5992ZM53.814 45.5992H53.4264M53.4264 45.5992V45.5992ZM53.4264 45.5992V45.2665M53.4264 45.2665V45.2665ZM53.4264 45.2665L53.814 44.9338M53.814 44.9338V44.9338ZM53.814 44.9338V44.601M53.814 44.601V44.601ZM53.814 44.601V44.2683M53.814 44.2683V44.2683ZM53.814 44.2683H53.4264M53.4264 44.2683V44.2683ZM53.4264 44.2683V43.9356M53.4264 43.9356V43.9356ZM53.4264 43.9356V43.6029M53.4264 43.6029V43.6029ZM53.4264 43.6029H53.0389M53.0389 43.6029V43.6029ZM53.0389 43.6029V43.2702M53.0389 43.2702V43.2702ZM53.0389 43.2702V42.9374M53.0389 42.9374V42.9374ZM53.0389 42.9374H52.6514M52.6514 42.9374V42.9374ZM52.6514 42.9374V42.6047H52.2639M52.2639 42.6047V42.6047ZM52.2639 42.6047V42.272M52.2639 42.272V42.272ZM52.2639 42.272H51.8763M51.8763 42.272V42.272ZM51.8763 42.272H51.4888M51.4888 42.272V42.272ZM51.4888 42.272L51.1013 41.9393M51.1013 41.9393V42.272M51.1013 41.9393V41.6066H51.4888M51.1013 42.272V42.272ZM51.4888 41.6066V41.6066ZM51.4888 41.6066V41.2738H51.8763M51.8763 41.2738V41.2738ZM51.8763 41.2738V40.9411M51.8763 40.9411V40.9411ZM51.8763 40.9411H52.2639M52.2639 40.9411V40.9411ZM52.2639 40.9411V40.6084V40.2757M52.2639 40.2757V40.2757ZM52.2639 40.2757H51.8763M51.8763 40.2757V40.2757ZM51.8763 40.2757V39.943M51.8763 39.943V39.943ZM51.8763 39.943H51.4888M51.4888 39.943V39.943ZM51.4888 39.943V39.6103M51.4888 39.943H51.1013M51.4888 39.6103V39.6103ZM51.1013 39.943V39.943ZM51.1013 39.943L50.7138 39.6103M50.7138 39.6103V39.6103ZM50.7138 39.6103L50.3262 39.2775L49.9387 39.6103M49.9387 39.6103V39.6103ZM49.9387 39.6103H49.5512M49.5512 39.6103V39.6103ZM49.5512 39.6103H49.1637M49.1637 39.6103V39.6103ZM49.1637 39.6103H48.7761M48.7761 39.6103V39.6103ZM48.7761 39.6103V39.2775M48.7761 39.2775V39.2775ZM48.7761 39.2775H48.3886M48.3886 39.2775V39.2775ZM48.3886 39.2775H48.0011M48.0011 39.2775V39.2775ZM48.0011 39.2775V38.9448M48.0011 38.9448V38.9448ZM48.0011 38.9448H47.6136V38.6121M47.6136 38.6121V38.6121ZM47.6136 38.6121H48.0011M47.6136 38.6121V38.2794M48.0011 38.6121V38.6121ZM47.6136 38.2794V38.2794ZM47.6136 38.2794H47.226M47.226 38.2794V38.2794ZM47.226 38.2794V37.9467M47.226 37.9467V37.9467ZM47.226 37.9467H46.8385M46.8385 37.9467V37.9467ZM46.8385 37.9467V37.6139M46.8385 37.6139V37.6139ZM46.8385 37.6139V37.2812H46.451M46.451 37.2812V37.2812ZM46.451 37.2812V36.9485M46.451 36.9485V36.9485ZM46.451 36.9485H46.0635M46.0635 36.9485V36.9485ZM46.0635 36.9485H45.6759M45.6759 36.9485V36.9485ZM45.6759 36.9485L45.2884 36.6158M45.2884 36.6158V36.6158ZM45.2884 36.6158L44.9009 36.2831M44.9009 36.2831V36.2831ZM44.9009 36.2831L45.2884 35.9504H44.9009V35.6176M44.9009 35.6176V35.6176ZM44.9009 35.6176V35.2849M44.9009 35.2849V35.2849ZM44.9009 35.2849H44.5134M44.9009 35.2849V34.9522M44.9009 34.9522V34.9522ZM44.9009 34.9522H45.2884V34.6195M45.2884 34.6195V34.6195ZM45.2884 34.6195V34.2868M45.2884 34.2868V34.2868ZM45.2884 34.2868V33.954M45.2884 33.954V33.954ZM45.2884 33.954V33.6213M45.2884 33.6213V33.6213ZM45.2884 33.6213V33.2886M45.2884 33.2886V33.2886ZM45.2884 33.2886V32.9559M45.2884 32.9559V32.9559ZM45.2884 32.9559V32.6232M45.2884 32.6232V32.6232ZM45.2884 32.6232V32.2905M45.2884 32.2905V32.2905ZM45.2884 32.2905V31.9577M45.2884 31.9577V31.9577ZM45.2884 31.9577V31.625M45.2884 31.625V31.625ZM45.2884 31.625H44.9009M44.9009 31.625V31.625ZM44.9009 31.625H44.5134M44.5134 31.625V31.625ZM44.5134 31.625H44.1258M44.1258 31.625V31.625ZM44.1258 31.625V31.9577M44.1258 31.9577V31.9577ZM44.1258 31.9577H43.7383M43.7383 31.9577V31.9577ZM43.7383 31.9577H43.3508M43.3508 31.9577V31.9577ZM43.3508 31.9577V32.2905M43.3508 32.2905V32.2905ZM43.3508 32.2905H42.9633M42.9633 32.2905V32.2905ZM42.9633 32.2905V32.6232M42.9633 32.6232V32.6232ZM42.9633 32.6232H42.5757M42.5757 32.6232V32.6232ZM42.5757 32.6232L42.1882 32.9559M42.1882 32.9559V32.9559ZM42.1882 32.9559H42.5757M42.5757 32.9559V32.9559ZM42.5757 32.9559V33.2886M42.5757 33.2886V33.2886ZM42.5757 33.2886V33.6213M42.5757 33.6213V33.6213ZM42.5757 33.6213H42.1882M42.1882 33.6213V33.6213ZM42.1882 33.6213V33.954M42.1882 33.954V33.954ZM42.1882 33.954H41.8007M41.8007 33.954V33.6213M41.8007 33.954V33.954ZM41.8007 33.954V34.2868M41.8007 34.2868V34.2868ZM41.8007 34.2868H41.4132M41.4132 34.2868V34.2868ZM41.4132 34.2868H41.0256M41.0256 34.2868V34.2868ZM41.0256 34.2868V34.6195M41.0256 34.6195V34.6195ZM41.0256 34.6195V34.9522M41.0256 34.9522V34.9522ZM41.0256 34.9522H40.6381M40.6381 34.9522V34.9522ZM40.6381 34.9522V35.2849M40.6381 35.2849V35.2849ZM40.6381 35.2849H40.2506M40.2506 35.2849V35.2849ZM40.2506 35.2849H39.8631M39.8631 35.2849V35.2849ZM39.8631 35.2849H39.4755M39.4755 35.2849V35.2849ZM39.4755 35.2849H39.088M39.088 35.2849V35.2849ZM39.088 35.2849V35.6176M39.088 35.6176V35.6176ZM39.088 35.6176H38.7005V35.9504M38.7005 35.9504V35.9504ZM38.7005 35.9504V36.2831M38.7005 36.2831H38.313M38.7005 36.2831V36.2831ZM38.7005 36.2831H39.088M38.313 36.2831V36.2831ZM39.088 36.2831V36.2831ZM39.088 36.2831V36.6158M39.088 36.6158V36.6158ZM39.088 36.6158V36.9485M39.088 36.9485V36.9485ZM39.088 36.9485H39.4755M39.4755 36.9485V36.9485ZM39.4755 36.9485V37.2812M39.4755 37.2812V37.2812ZM39.4755 37.2812H39.8631M39.8631 37.2812V37.2812ZM39.8631 37.2812V37.6139M39.8631 37.6139V37.6139ZM39.8631 37.6139V37.9467M39.8631 37.9467V37.9467ZM39.8631 37.9467V38.2794M39.8631 38.2794V38.2794ZM39.8631 38.2794V38.6121M39.8631 38.6121V38.6121ZM39.8631 38.6121V38.9448M39.8631 38.9448V38.9448ZM39.8631 38.9448H39.4755M39.4755 38.9448V38.9448ZM39.4755 38.9448H39.088M39.088 38.9448V38.9448ZM39.088 38.9448V39.2775M39.088 39.2775V39.2775ZM39.088 39.2775V39.6103M39.088 39.6103V39.6103ZM39.088 39.6103H38.7005M38.7005 39.6103V39.6103ZM38.7005 39.6103H38.313M38.313 39.6103V39.6103ZM38.313 39.6103H37.9254M37.9254 39.6103V39.6103ZM37.9254 39.6103H37.5379M37.5379 39.6103V39.6103ZM37.5379 39.6103V39.943M37.5379 39.943V39.943ZM37.5379 39.943V40.2757M37.5379 40.2757V40.2757ZM37.5379 40.2757V40.6084M37.5379 40.6084V40.6084ZM37.5379 40.6084V40.9411M37.5379 40.9411V40.9411ZM37.5379 40.9411L37.1504 41.2738M37.1504 41.2738V41.2738ZM37.1504 41.2738V41.6066M37.1504 41.6066V41.6066ZM37.1504 41.6066V41.9393M37.1504 41.9393V41.9393ZM37.1504 41.9393H36.7628M36.7628 41.9393V41.9393ZM36.7628 41.9393H36.3753M36.3753 41.9393V41.9393ZM36.3753 41.9393H35.9878M35.9878 41.9393V41.9393ZM35.9878 41.9393H35.6003M35.6003 41.9393V41.9393ZM35.6003 41.9393H35.2127M35.2127 41.9393V41.9393ZM35.2127 41.9393V42.272M35.2127 42.272V42.272ZM35.2127 42.272L34.8252 42.6047M34.8252 42.6047V42.6047ZM34.8252 42.6047V42.9374M34.8252 42.9374V42.9374ZM34.8252 42.9374V43.2702M34.8252 43.2702V43.2702ZM34.8252 43.2702V43.6029M34.8252 43.6029V43.6029ZM34.8252 43.6029H34.4377M34.4377 43.6029V43.9356M34.4377 43.6029V43.6029ZM34.4377 43.6029H34.0502M34.0502 43.6029V43.6029ZM34.0502 43.6029H33.6626M33.6626 43.6029V43.6029ZM33.6626 43.6029H33.2751M33.2751 43.6029V43.6029ZM33.2751 43.6029H32.8876M32.8876 43.6029V43.6029ZM32.8876 43.6029V43.2702M32.8876 43.2702V43.2702ZM32.8876 43.2702H32.5001M32.5001 43.2702V43.2702ZM32.5001 43.2702V43.6029M32.5001 43.6029V43.6029ZM32.5001 43.6029H32.1125M32.1125 43.6029V43.6029ZM32.1125 43.6029H31.725V43.2702M31.725 43.2702V43.2702ZM31.725 43.2702V42.9374M31.725 42.9374V42.9374ZM31.725 42.9374H31.3375M31.3375 42.9374V42.9374ZM31.3375 42.9374V42.6047M31.3375 42.6047V42.6047ZM31.3375 42.6047H30.95M30.95 42.6047V42.6047ZM30.95 42.6047H30.5624M30.5624 42.6047V42.6047ZM30.5624 42.6047H30.1749M30.1749 42.6047V42.6047ZM30.1749 42.6047H29.7874M29.7874 42.6047V42.6047ZM29.7874 42.6047H29.3999M29.3999 42.6047V42.6047ZM29.3999 42.6047V42.272M29.3999 42.272V42.272ZM29.3999 42.272H29.0123M29.0123 42.272V42.272ZM29.0123 42.272L28.6248 42.6047H29.0123M29.0123 42.6047V42.6047ZM29.0123 42.6047V42.9374M29.0123 42.9374V42.9374ZM29.0123 42.9374H28.6248M28.6248 42.9374V42.9374ZM28.6248 42.9374L28.2373 42.6047M28.2373 42.6047V42.6047ZM28.2373 42.6047V42.9374M28.2373 42.6047L27.8498 42.9374M28.2373 42.9374V42.9374ZM27.8498 42.9374V42.9374ZM27.8498 42.9374H27.4622M27.4622 42.9374V42.9374ZM27.4622 42.9374V43.2702M27.4622 43.2702V43.2702ZM27.4622 43.2702H27.0747M27.0747 43.2702V43.2702ZM27.0747 43.2702V43.6029M27.0747 43.6029V43.6029ZM27.0747 43.6029L26.6872 43.9356M26.6872 43.9356V43.9356ZM26.6872 43.9356H26.2997M26.2997 43.9356V43.9356ZM26.2997 43.9356V44.2683H25.9121M25.9121 44.2683V44.2683ZM25.9121 44.2683V43.9356M25.9121 43.9356V43.9356ZM25.9121 43.9356H25.5246M25.5246 43.9356V43.9356ZM25.5246 43.9356H25.1371M25.1371 43.9356V43.9356ZM25.1371 43.9356H24.7496M24.7496 43.9356V43.9356ZM24.7496 43.9356V43.6029H24.362M24.362 43.6029V43.6029ZM24.362 43.6029V43.9356M24.362 43.9356V43.9356ZM24.362 43.9356H23.9745M23.9745 43.9356V43.9356ZM23.9745 43.9356V44.2683M23.9745 44.2683V44.2683ZM23.9745 44.2683H23.587M23.587 44.2683V44.2683ZM23.587 44.2683H23.1995M23.1995 44.2683V44.2683ZM23.1995 44.2683H22.8119V44.601M22.8119 44.601V44.601ZM22.8119 44.601V44.9338M22.8119 44.9338V44.9338ZM22.8119 44.9338H22.4244M22.4244 44.9338V44.9338ZM22.4244 44.9338H22.0369V44.601M22.0369 44.601V44.601ZM22.0369 44.601H21.6494M21.6494 44.601V44.601ZM21.6494 44.601V44.9338M21.6494 44.9338V44.9338ZM21.6494 44.9338H21.2618M21.2618 44.9338V44.9338ZM21.2618 44.9338H20.8743M20.8743 44.9338V44.9338ZM20.8743 44.9338V44.601M20.8743 44.601V44.601ZM20.8743 44.601H20.4868M20.4868 44.601V44.601ZM20.4868 44.601V44.2683M20.4868 44.2683V44.2683ZM20.4868 44.2683H20.0992V43.9356M20.0992 43.9356V43.9356ZM20.0992 43.9356V43.6029M20.0992 43.6029V43.6029ZM20.0992 43.6029H19.7117M19.7117 43.6029V43.6029ZM19.7117 43.6029V43.2702M19.7117 43.2702V43.2702ZM19.7117 43.2702V42.9374M19.7117 42.9374V42.9374ZM19.7117 42.9374H19.3242M19.3242 42.9374V42.9374ZM19.3242 42.9374V42.6047M19.3242 42.6047V42.6047ZM19.3242 42.6047V42.272M19.3242 42.272H19.7117M19.3242 42.272V42.272ZM19.3242 42.272V41.9393M19.3242 41.9393V41.9393ZM19.3242 41.9393H18.9367M18.9367 41.9393V41.9393ZM18.9367 41.9393V41.6066M18.9367 41.6066V41.6066ZM18.9367 41.6066H18.5491V41.2738M18.5491 41.2738V41.2738ZM18.5491 41.2738L18.1616 40.9411M18.1616 40.9411V40.9411ZM18.1616 40.9411V40.6084M18.1616 40.6084V40.6084ZM18.1616 40.6084H17.7741M17.7741 40.6084V40.6084ZM17.7741 40.6084H17.3866M17.3866 40.6084V40.6084ZM17.3866 40.6084V40.9411M17.3866 40.9411V40.9411ZM17.3866 40.9411H16.999M16.999 40.9411V40.9411ZM16.999 40.9411V40.6084M16.999 40.6084V40.6084ZM16.999 40.6084V40.2757M16.999 40.2757V40.2757ZM16.999 40.2757V39.943M16.999 39.943V39.943ZM16.999 39.943V39.6103M16.999 39.6103V39.6103ZM16.999 39.6103H17.3866M17.3866 39.6103V39.6103ZM17.3866 39.6103V39.2775M17.3866 39.2775V39.2775ZM17.3866 39.2775H16.999M16.999 39.2775V39.2775ZM16.999 39.2775H16.6115M16.6115 39.2775V39.2775ZM16.6115 39.2775L16.224 38.9448M16.224 38.9448V38.9448ZM16.224 38.9448H15.8365M15.8365 38.9448V38.9448ZM15.8365 38.9448H15.4489M15.4489 38.9448V38.9448ZM15.4489 38.9448V38.6121M15.4489 38.6121V38.6121ZM15.4489 38.6121V38.2794M15.4489 38.2794V38.2794ZM15.4489 38.2794V37.9467M15.4489 37.9467V37.9467ZM15.4489 37.9467H15.8365M15.8365 37.9467V37.9467ZM15.8365 37.9467V37.6139M15.8365 37.6139V37.6139ZM15.8365 37.6139L15.4489 37.2812M15.4489 37.2812V37.2812ZM15.4489 37.2812H15.8365M15.8365 37.2812V37.2812ZM15.8365 37.2812V36.9485M15.8365 36.9485V36.9485ZM15.8365 36.9485V36.6158M15.8365 36.6158V36.6158ZM15.8365 36.6158H16.224M16.224 36.6158V36.6158ZM16.224 36.6158V36.2831M16.224 36.2831V36.2831ZM16.224 36.2831H16.6115M16.6115 36.2831V36.2831ZM16.6115 36.2831V35.9504M16.6115 35.9504V35.9504ZM16.6115 35.9504V35.6176M16.6115 35.6176V35.6176ZM16.6115 35.6176V35.2849M16.6115 35.6176H16.224M16.6115 35.2849V35.2849ZM16.224 35.6176V35.6176ZM16.224 35.6176V35.2849M16.224 35.2849V35.2849ZM16.224 35.2849L15.8365 34.9522M15.8365 34.9522V34.9522ZM15.8365 34.9522H15.4489M15.4489 34.9522V34.9522ZM15.4489 34.9522V34.6195M15.4489 34.6195V34.6195ZM15.4489 34.6195H15.0614V34.2868M15.0614 34.2868V34.2868ZM15.0614 34.2868V33.954M15.0614 33.954V33.954ZM15.0614 33.954V33.6213M15.0614 33.6213V33.6213ZM15.0614 33.6213L15.4489 33.954V33.6213M15.4489 33.6213V33.6213ZM15.4489 33.6213V33.2886M15.4489 33.2886H15.8365M15.4489 33.2886V33.2886ZM15.8365 33.2886V33.2886ZM15.8365 33.2886H16.224M16.224 33.2886V33.2886ZM16.224 33.2886H16.6115M16.6115 33.2886V33.2886ZM16.6115 33.2886H16.999M16.999 33.2886V33.2886ZM16.999 33.2886V32.9559M16.999 33.2886H17.3866M17.3866 33.2886V33.2886ZM17.3866 33.2886V32.9559M17.3866 33.2886H17.7741M17.3866 32.9559V32.9559ZM17.7741 33.2886V33.2886ZM17.7741 33.2886V32.9559M17.7741 32.9559V32.9559ZM17.7741 32.9559V32.6232M17.7741 32.6232V32.6232ZM17.7741 32.6232V32.2905M17.7741 32.2905V32.2905ZM17.7741 32.2905H17.3866M17.3866 32.2905V32.2905ZM17.3866 32.2905H16.999M16.999 32.2905V32.2905ZM16.999 32.2905V31.9577M16.999 31.9577V31.9577ZM16.999 31.9577H16.6115M16.6115 31.9577V31.9577ZM16.6115 31.9577V31.625M16.6115 31.625V31.625ZM16.6115 31.625H16.224M16.224 31.625V31.625ZM16.224 31.625H15.8365M15.8365 31.625V31.625ZM15.8365 31.625L15.4489 31.2923M15.4489 31.2923V31.2923ZM15.4489 31.2923H15.0614M15.0614 31.2923V31.2923ZM15.0614 31.2923H14.6739M14.6739 31.2923V31.2923ZM14.6739 31.2923V30.9596M14.6739 30.9596V30.9596ZM14.6739 30.9596H14.2864M14.2864 30.9596V30.9596ZM14.2864 30.9596H13.8988M13.8988 30.9596V30.9596ZM13.8988 30.9596H13.5113M13.5113 30.9596V30.9596ZM13.5113 30.9596V30.6269M13.5113 30.6269V30.6269ZM13.5113 30.6269H13.1238M13.1238 30.6269V30.6269ZM13.1238 30.6269H12.7363M12.7363 30.6269V30.6269ZM12.7363 30.6269H12.3487M12.3487 30.6269V30.6269ZM12.3487 30.6269H11.9612M11.9612 30.6269V30.6269ZM11.9612 30.6269V30.2941M11.9612 30.2941V30.2941ZM11.9612 30.2941H11.5737M11.5737 30.2941V30.2941ZM11.5737 30.2941V30.6269M11.5737 30.6269V30.6269ZM11.5737 30.6269H11.1862M11.1862 30.6269V30.6269ZM11.1862 30.6269H10.7986M10.7986 30.6269V30.6269ZM10.7986 30.6269H10.4111M10.4111 30.6269V30.2941M10.4111 30.6269V30.6269ZM10.4111 30.2941V30.2941ZM10.4111 30.2941L10.0236 30.6269M10.0236 30.6269V30.6269ZM10.0236 30.6269V30.9596M10.0236 30.9596V30.9596ZM10.0236 30.9596H9.63606M9.63606 30.9596V30.9596ZM9.63606 30.9596V31.2923M9.63606 31.2923V31.2923ZM9.63606 31.2923H9.24854M9.24854 31.2923V31.2923ZM9.24854 31.2923L8.86101 31.625M8.86101 31.625V31.625ZM8.86101 31.625H8.47348M8.47348 31.625V31.625ZM8.47348 31.625H8.08596M8.08596 31.625V31.625ZM8.08596 31.625H7.69843M7.69843 31.625V31.625ZM7.69843 31.625H7.31091M7.31091 31.625V31.625ZM7.31091 31.625V31.9577M7.31091 31.9577V31.9577ZM7.31091 31.9577H6.92338M6.92338 31.9577V31.9577ZM6.92338 31.9577V32.2905M6.92338 32.2905V32.2905ZM6.92338 32.2905H6.53586M6.53586 32.2905V32.2905ZM6.53586 32.2905V32.6232M6.53586 32.6232V32.6232ZM6.53586 32.6232L6.14833 32.9559M6.14833 32.9559V32.9559ZM6.14833 32.9559V33.2886M6.14833 33.2886V33.2886ZM6.14833 33.2886H5.76081M5.76081 33.2886V33.2886ZM5.76081 33.2886L5.37328 33.6213M5.37328 33.6213V33.6213ZM5.37328 33.6213V33.954M5.37328 33.954V33.954ZM5.37328 33.954H4.98576M4.98576 33.954V33.954ZM4.98576 33.954V34.2868M4.98576 34.2868V34.2868ZM4.98576 34.2868V34.6195M4.98576 34.6195V34.6195ZM4.98576 34.6195H4.59823M4.59823 34.6195V34.6195ZM4.59823 34.6195V34.9522M4.59823 34.9522V34.9522ZM4.59823 34.9522V35.2849M4.59823 35.2849V35.2849ZM4.59823 35.2849H4.2107M4.2107 35.2849V35.2849ZM4.2107 35.2849V35.6176M4.2107 35.6176V35.6176ZM4.2107 35.6176V35.9504M4.2107 35.9504V35.9504ZM4.2107 35.9504V36.2831M4.2107 36.2831V36.2831ZM4.2107 36.2831H3.82318M3.82318 36.2831V36.2831ZM3.82318 36.2831V36.6158M3.82318 36.6158V36.6158ZM3.82318 36.6158V36.9485M3.82318 36.9485V36.9485ZM3.82318 36.9485V37.2812M3.82318 37.2812V37.2812ZM3.82318 37.2812H4.2107M4.2107 37.2812V37.2812ZM4.2107 37.2812V36.9485H4.59823M4.59823 36.9485V36.9485ZM4.59823 36.9485V36.6158M4.59823 36.6158V36.6158ZM4.59823 36.6158V36.2831M4.59823 36.2831V36.2831ZM4.59823 36.2831V35.9504M4.59823 35.9504V35.9504ZM4.59823 35.9504H4.98576M4.98576 35.9504V35.9504ZM4.98576 35.9504V35.6176H5.37328M5.37328 35.6176V35.6176ZM5.37328 35.6176V35.2849M5.37328 35.6176H5.76081M5.37328 35.6176V35.9504M5.37328 35.2849V35.2849ZM5.37328 35.2849H5.76081M5.76081 35.2849V35.2849ZM5.76081 35.2849V35.6176M5.76081 35.6176V35.6176ZM5.37328 35.9504V35.9504ZM5.37328 35.9504H5.76081M5.76081 35.9504V35.9504ZM5.76081 35.9504V36.2831M5.76081 36.2831V36.2831ZM5.76081 36.2831H6.14833M6.14833 36.2831V36.2831ZM6.14833 36.2831H6.53586M6.53586 36.2831V35.9504M6.53586 36.2831V36.2831ZM6.53586 36.2831H6.92338M6.53586 35.9504V35.9504ZM6.92338 36.2831V36.2831ZM6.92338 36.2831V36.6158H6.53586M6.53586 36.6158V36.6158ZM6.53586 36.6158V36.9485M6.53586 36.9485V36.9485ZM6.53586 36.9485H6.14833V37.2812M6.14833 37.2812V37.2812ZM6.14833 37.2812H5.76081M5.76081 37.2812V37.2812ZM5.76081 37.2812H5.37328M5.37328 37.2812V37.2812ZM5.37328 37.2812L4.98576 37.6139M4.98576 37.6139H5.37328M4.98576 37.6139V37.6139ZM4.98576 37.6139V37.9467H4.59823M4.59823 37.9467V37.9467ZM4.59823 37.9467V38.2794M4.59823 38.2794V38.2794ZM4.59823 38.2794H4.2107M4.2107 38.2794V38.2794ZM4.2107 38.2794V38.6121M4.2107 38.6121V38.6121ZM4.2107 38.6121H3.82318M3.82318 38.6121V38.6121ZM3.82318 38.6121V38.9448H3.43565M3.43565 38.9448V38.9448ZM3.43565 38.9448V38.6121M3.43565 38.6121V38.6121ZM3.43565 38.6121H3.04813M3.04813 38.6121V38.6121ZM3.04813 38.6121H2.6606M2.6606 38.6121V38.6121ZM2.6606 38.6121H2.27308M2.27308 38.6121V38.6121ZM2.27308 38.6121H1.88555M1.88555 38.6121V38.6121ZM1.88555 38.6121V38.9448M1.88555 38.9448V38.9448ZM1.88555 38.9448H1.49803M1.49803 38.9448V38.9448ZM1.49803 38.9448V38.6121M1.49803 38.6121V38.6121ZM1.49803 38.6121H1.1105M1.1105 38.6121V38.9448M1.1105 38.6121V38.6121ZM1.1105 38.6121H0.722975M0.722975 38.6121V38.6121ZM0.722975 38.6121V38.9448M0.722975 38.6121V38.2794M0.722975 38.9448V38.9448ZM0.722975 38.9448H0.335449M0.335449 38.9448V38.9448ZM0.722975 38.2794V38.2794ZM0.722975 38.2794V37.9467M0.722975 37.9467V37.9467ZM0.722975 37.9467H1.1105M1.1105 37.9467V38.2794M1.1105 37.9467V37.9467ZM1.1105 37.9467V37.6139M1.1105 38.2794V38.2794ZM1.1105 37.6139V37.6139ZM1.1105 37.6139H0.722975M0.722975 37.6139V37.6139ZM0.722975 37.6139V37.2812M0.722975 37.2812V37.2812ZM0.722975 37.2812V36.9485L1.1105 37.2812M1.1105 37.2812V37.2812ZM1.1105 37.2812V36.9485M1.1105 36.9485V36.9485ZM1.1105 36.9485H1.49803M1.49803 36.9485V36.9485ZM1.49803 36.9485V36.6158M1.49803 36.6158V36.6158ZM1.49803 36.6158H1.88555M1.88555 36.6158V36.6158ZM1.88555 36.6158V36.9485M1.88555 36.6158H2.27308M2.27308 36.6158V36.6158ZM2.27308 36.6158H2.6606M2.6606 36.6158V36.6158ZM2.6606 36.6158V36.2831M2.6606 36.6158H3.04813M3.04813 36.6158V36.6158ZM3.04813 36.6158L3.43565 36.2831M3.43565 36.2831V36.2831ZM3.43565 36.2831V35.9504M3.43565 35.9504V35.9504ZM3.43565 35.9504H3.04813M3.04813 35.9504V35.9504ZM3.04813 35.9504V35.6176M3.04813 35.6176V35.6176ZM3.04813 35.6176L3.43565 35.2849M3.43565 35.2849V35.2849ZM54.2015 42.6047V42.6047ZM54.2015 42.6047V42.272M54.589 42.272V42.272ZM54.589 42.272H54.2015M54.2015 42.272V42.272ZM48.7761 4.0094H49.1637M48.7761 4.0094V4.0094ZM49.1637 4.0094V4.0094ZM49.1637 4.0094V3.67668M49.1637 3.67668H49.5512M49.1637 3.67668H48.7761V3.34397H49.1637M49.1637 3.67668V3.67668ZM49.5512 3.67668V3.67668ZM49.5512 3.67668V4.0094M49.5512 3.67668V3.34397M49.5512 4.0094V4.0094ZM49.5512 3.34397V3.34397ZM49.5512 3.34397H49.1637M49.1637 3.34397V3.34397Z" stroke="#13263A"/>
</svg>
