<svg width="70" height="51" viewBox="0 0 70 51" fill="none" xmlns="http://www.w3.org/2000/svg">
<path d="M14.8316 4.83568H15.2191V5.1684M14.8316 4.83568H14.4441M14.8316 4.83568V4.83568ZM15.2191 5.1684V5.1684ZM15.2191 5.1684V5.50112M15.2191 5.50112V5.50112ZM15.2191 5.50112L14.8316 6.16656H15.2191M15.2191 6.16656V6.16656ZM15.2191 6.16656V6.49927M15.2191 6.49927V6.49927ZM15.2191 6.49927H14.8316M15.2191 6.49927V6.83199M15.2191 6.83199V6.83199ZM15.2191 6.83199V7.16471M15.2191 7.16471V7.16471ZM15.2191 7.16471H15.6067M15.6067 7.16471V7.16471ZM15.6067 7.16471V7.49743M15.6067 7.49743V7.49743ZM15.6067 7.49743H15.9942M15.9942 7.49743V7.49743ZM15.9942 7.49743V7.83015M15.9942 7.83015V7.83015ZM15.9942 7.83015H16.3817M16.3817 7.83015V7.83015ZM16.3817 7.83015H16.7692M16.7692 7.83015V7.83015ZM16.7692 7.83015H17.5443M17.5443 7.83015V7.83015ZM17.5443 7.83015H17.9318M17.9318 7.83015V7.83015ZM17.9318 7.83015V7.49743V7.16471L17.5443 6.83199M17.5443 6.83199V6.83199ZM17.5443 6.83199L17.9318 6.49927V6.83199M17.9318 6.83199V6.83199ZM17.9318 6.83199H18.3193M18.3193 6.83199V6.83199ZM18.3193 6.83199V6.49927M18.3193 6.49927V6.49927ZM18.3193 6.49927H18.7069M18.7069 6.49927V6.49927ZM18.7069 6.49927V6.83199M18.7069 6.49927H19.0944M18.7069 6.83199V6.83199ZM18.7069 6.83199L19.0944 6.49927M19.0944 6.49927V6.49927ZM19.0944 6.49927V6.16656M19.0944 6.16656V6.16656ZM19.0944 6.16656L19.4819 6.49927M19.4819 6.49927V6.49927ZM19.4819 6.49927L19.8694 6.83199M19.8694 6.83199V6.83199ZM19.8694 6.83199V6.49927M19.8694 6.49927V6.49927ZM19.8694 6.49927H20.257M20.257 6.49927V6.49927ZM20.257 6.49927L20.6445 6.83199M20.6445 6.83199V6.83199ZM20.6445 6.83199H21.032M21.032 6.83199V6.83199ZM21.032 6.83199V7.16471M21.032 7.16471V7.16471ZM21.032 7.16471H21.4195M21.4195 7.16471V7.16471ZM21.4195 7.16471H21.8071M21.8071 7.16471V7.16471ZM21.8071 7.16471H22.1946M22.1946 7.16471V7.49743M22.1946 7.16471V7.16471ZM22.1946 7.16471H22.5821M22.5821 7.16471V7.16471ZM22.5821 7.16471V7.49743M22.5821 7.49743V7.49743ZM22.5821 7.49743V7.83015V8.16286V8.49558M22.5821 8.49558V8.49558ZM22.5821 8.49558H22.9696M22.9696 8.49558V8.49558ZM22.9696 8.49558H23.3572M23.3572 8.49558V8.49558ZM23.3572 8.49558H23.7447M23.7447 8.49558V8.49558ZM23.7447 8.49558H24.1322M24.1322 8.49558V8.49558ZM24.1322 8.49558V8.16286H24.5197V8.49558M24.1322 8.49558H24.5197M24.1322 8.49558V8.8283M24.5197 8.49558V8.49558ZM24.1322 8.8283V8.8283ZM24.1322 8.8283H24.5197M24.5197 8.8283V8.8283ZM24.5197 8.8283H24.9073V8.49558M24.9073 8.49558V8.49558ZM24.9073 8.49558H25.2948M25.2948 8.49558V8.49558ZM25.2948 8.49558H25.6823M25.6823 8.49558V8.49558ZM25.6823 8.49558V8.16286M25.6823 8.16286V8.16286ZM25.6823 8.16286H26.0698M26.0698 8.16286V8.16286ZM26.0698 8.16286V7.83015H26.4574M26.4574 7.83015V7.83015ZM26.4574 7.83015H26.8449M26.8449 7.83015V7.83015ZM26.8449 7.83015H27.2324M27.2324 7.83015V7.83015ZM27.2324 7.83015H27.6199M27.6199 7.83015V7.83015ZM27.6199 7.83015V7.49743M27.6199 7.49743V7.49743ZM27.6199 7.49743H28.0075M28.0075 7.49743V7.49743ZM28.0075 7.49743L29.1701 6.83199V6.49927M29.1701 6.49927V6.49927ZM29.1701 6.49927L29.9451 5.83384L30.7202 5.1684L30.3326 4.83568M30.3326 4.83568V4.83568ZM30.3326 4.83568V4.50296H31.4952M31.4952 4.50296V4.50296ZM31.4952 4.50296H31.8827M31.8827 4.50296V4.50296ZM31.8827 4.50296H32.2703V4.83568H32.6578M32.6578 4.83568V4.83568ZM32.6578 4.83568H33.0453M33.0453 4.83568V4.83568ZM33.0453 4.83568V5.1684M33.0453 5.1684V5.1684ZM33.0453 5.1684H33.4328M33.4328 5.1684V5.1684ZM33.4328 5.1684V4.83568M33.4328 4.83568V4.83568ZM33.4328 4.83568H33.8204M33.8204 4.83568V4.83568ZM33.8204 4.83568H34.2079M34.2079 4.83568V4.83568ZM34.2079 4.83568V4.50296M34.2079 4.50296H33.8204M34.2079 4.50296L33.8204 4.17025M33.8204 4.17025V4.17025ZM33.8204 4.17025L33.4328 3.83753V3.50481V3.17209M33.4328 3.17209V3.17209ZM33.4328 3.17209V2.83937M33.4328 2.83937V2.83937ZM33.4328 2.83937H33.0453M33.4328 2.83937V2.50665H33.8204M33.0453 2.83937V2.83937ZM33.8204 2.50665V2.50665ZM33.8204 2.50665L34.2079 2.17394H34.5954M34.5954 2.17394V2.17394ZM34.5954 2.17394H34.9829M34.9829 2.17394V2.17394ZM34.9829 2.17394V1.84122M34.9829 2.17394L35.3705 1.84122M34.9829 1.84122V1.84122ZM35.3705 1.84122V1.84122ZM35.3705 1.84122H36.1455V2.17394V2.50665M36.1455 2.50665V2.50665ZM36.1455 2.50665H35.758M35.758 2.50665V2.50665ZM35.758 2.50665V2.83937M35.758 2.83937V2.83937ZM35.758 2.83937V3.17209M35.758 3.17209V3.17209ZM35.758 3.17209L36.1455 3.50481L36.533 3.17209M36.533 3.17209V3.17209ZM36.533 3.17209H36.9206M36.9206 3.17209V3.17209ZM36.9206 3.17209H37.3081M37.3081 3.17209V3.17209ZM37.3081 3.17209H37.6956M37.6956 3.17209V3.17209ZM37.6956 3.17209V3.50481M37.6956 3.50481V3.50481ZM37.6956 3.50481H38.0831M38.0831 3.50481V3.50481ZM38.0831 3.50481V3.17209M38.0831 3.17209V3.17209ZM38.0831 3.17209H38.4707V2.83937M38.4707 2.83937V2.83937ZM38.4707 2.83937L38.8582 2.50665M38.8582 2.50665V2.50665ZM38.8582 2.50665V2.17394M38.8582 2.17394V2.17394ZM38.8582 2.17394H39.2457M39.2457 2.17394V2.17394ZM39.2457 2.17394V1.84122H39.6332M39.6332 1.84122V1.84122ZM39.6332 1.84122V1.5085M39.6332 1.5085V1.5085ZM39.6332 1.5085H40.0208M40.0208 1.5085V1.5085ZM40.0208 1.5085L40.4083 1.17578V1.5085M40.4083 1.5085V1.5085ZM40.4083 1.5085H40.7958M40.7958 1.5085V1.5085ZM40.7958 1.5085H41.1833M41.1833 1.5085V1.5085ZM41.1833 1.5085V1.84122M41.1833 1.84122V1.84122ZM41.1833 1.84122H41.5709M41.5709 1.84122V1.84122ZM41.5709 1.84122V2.17394M41.5709 2.17394V2.17394ZM41.5709 2.17394H41.1833V2.50665M41.1833 2.50665H41.5709M41.1833 2.50665V2.50665ZM41.1833 2.50665V2.83937V3.17209M41.5709 2.50665V2.50665ZM41.1833 3.17209V3.17209ZM41.1833 3.17209V3.50481M41.1833 3.17209H40.7958M41.1833 3.50481V3.50481ZM41.1833 3.50481H41.5709M41.1833 3.50481H40.7958M41.5709 3.50481V3.50481ZM41.5709 3.50481H41.9584M40.7958 3.17209V3.17209ZM40.7958 3.17209H40.4083M40.4083 3.17209V3.17209ZM40.4083 3.17209H40.0208M40.0208 3.17209V3.17209ZM40.0208 3.17209V3.50481M40.0208 3.50481V3.50481ZM40.0208 3.50481H40.4083M40.4083 3.50481V3.50481ZM40.4083 3.50481V3.83753M40.4083 3.83753V3.83753ZM40.4083 3.83753L40.7958 3.50481M40.7958 3.50481V3.50481ZM41.9584 3.50481V3.50481ZM41.9584 3.50481V3.83753M41.9584 3.50481H42.3459M42.3459 3.50481V3.50481ZM42.3459 3.50481H42.7334M42.7334 3.50481V3.50481ZM42.7334 3.50481V3.83753M42.7334 3.83753V3.83753ZM42.7334 3.83753H43.121M42.7334 3.83753V4.17025M43.121 3.83753V4.17025M43.121 3.83753V3.83753ZM43.121 3.83753L43.5085 3.50481M42.7334 4.17025V4.17025ZM42.7334 4.17025H43.121M43.121 4.17025V4.17025ZM43.5085 3.50481V3.50481ZM43.5085 3.50481L43.896 3.17209M43.896 3.17209V3.17209ZM43.896 3.17209L44.2835 2.83937M44.2835 2.83937V2.83937ZM44.2835 2.83937V2.50665M44.2835 2.50665V2.50665ZM44.2835 2.50665H44.6711M44.2835 2.50665V2.17394M44.2835 2.17394V2.17394ZM44.2835 2.17394H44.6711M44.6711 2.17394V2.17394ZM44.6711 2.17394V1.84122M44.6711 1.84122V1.84122ZM44.6711 1.84122H45.0586M45.0586 1.84122V1.84122ZM45.0586 1.84122V2.17394M45.0586 2.17394V2.17394ZM45.0586 2.17394H45.4461H45.8336M45.8336 2.17394V2.17394ZM45.8336 2.17394V2.83937L46.2212 3.17209L45.8336 3.50481M45.8336 3.50481V3.50481ZM45.8336 3.50481L45.4461 4.17025L46.2212 4.50296M46.2212 4.50296V4.50296ZM46.2212 4.50296V4.83568L46.6087 5.1684M46.6087 5.1684V5.1684ZM46.6087 5.1684V5.50112V5.83384L46.9962 6.16656H47.3838V5.83384M47.3838 5.83384V5.83384ZM47.3838 5.83384H47.7713M47.7713 5.83384V5.83384ZM47.7713 5.83384H48.1588M48.1588 5.83384V5.83384ZM48.1588 5.83384L48.5463 6.16656V6.49927V6.83199L48.1588 7.16471H48.5463H48.9339H49.7089H50.0964M50.0964 7.16471V7.16471ZM50.0964 7.16471H50.484M50.484 7.16471V7.16471ZM50.484 7.16471V6.83199M50.484 6.83199V6.83199ZM50.484 6.83199L51.259 7.16471H51.6465H52.0341V6.83199M52.0341 6.83199V6.83199ZM52.0341 6.83199H52.4216H52.8091V6.49927M52.8091 6.49927V6.49927ZM52.8091 6.49927H53.1966M53.1966 6.49927V6.49927ZM53.1966 6.49927H53.5842M53.5842 6.49927V6.49927ZM53.5842 6.49927V6.83199L53.9717 7.16471M53.9717 7.16471V7.16471ZM53.9717 7.16471H54.3592M54.3592 7.16471V7.16471ZM54.3592 7.16471V7.49743M54.3592 7.49743V7.49743ZM54.3592 7.49743V7.83015M54.3592 7.83015V7.83015ZM54.3592 7.83015V8.16286M54.3592 8.16286V8.16286ZM54.3592 8.16286L54.7467 8.49558L55.5218 8.8283H55.9093M55.9093 8.8283V8.8283ZM55.9093 8.8283V9.16102H56.2968M56.2968 9.16102V9.16102ZM56.2968 9.16102H56.6844M56.6844 9.16102V9.16102ZM56.6844 9.16102H57.0719M57.0719 9.16102V9.16102ZM57.0719 9.16102H57.4594M57.4594 9.16102V9.16102ZM57.4594 9.16102H57.8469M57.8469 9.16102V9.16102ZM57.8469 9.16102L58.2345 9.49374M58.2345 9.49374V9.49374ZM58.2345 9.49374V9.82646M58.2345 9.82646V9.82646ZM58.2345 9.82646V10.1592M58.2345 9.82646H58.622M58.2345 10.1592V10.1592ZM58.622 9.82646V9.82646ZM58.622 9.82646H59.0095M59.0095 9.82646V9.82646ZM59.0095 9.82646V9.49374M59.0095 9.82646H59.397M59.397 9.82646V9.82646ZM59.397 9.82646V10.1592M59.397 10.1592V10.1592ZM59.397 10.1592H59.7846M59.397 10.1592V10.4919M59.397 10.4919V10.4919ZM59.397 10.4919H59.0095M59.0095 10.4919V10.4919ZM59.0095 10.4919V10.8246M59.0095 10.8246V10.8246ZM59.0095 10.8246H58.622M58.622 10.8246V10.8246ZM58.622 10.8246V11.1573M58.622 11.1573V11.1573ZM58.622 11.1573H59.0095M59.0095 11.1573V11.1573ZM59.0095 11.1573H59.397M59.397 11.1573V11.1573ZM59.397 11.1573L59.0095 11.49M59.0095 11.49V11.49ZM59.0095 11.49H58.622M58.622 11.49V11.49ZM58.622 11.49V11.8228M58.622 11.8228V11.8228ZM58.622 11.8228V12.1555M58.622 12.1555V12.1555ZM58.622 12.1555H58.2345M58.2345 12.1555V12.1555ZM58.2345 12.1555V12.4882M58.2345 12.4882V12.4882ZM58.2345 12.4882L57.8469 12.8209M57.8469 12.8209V12.8209ZM57.8469 12.8209V13.1536M57.8469 13.1536V13.1536ZM57.8469 13.1536H58.2345M58.2345 13.1536V13.1536ZM58.2345 13.1536V13.4864H57.8469M57.8469 13.4864V13.4864ZM57.8469 13.4864V13.8191M57.8469 13.8191V13.8191ZM57.8469 13.8191V14.1518M57.8469 14.1518V14.1518ZM57.8469 14.1518H57.4594M57.4594 14.1518V14.1518ZM57.4594 14.1518V14.4845M57.4594 14.4845V14.4845ZM57.4594 14.4845H57.0719V14.8172M57.0719 14.8172V14.8172ZM57.0719 14.8172H57.4594M57.4594 14.8172V14.8172ZM57.4594 14.8172H57.8469M57.8469 14.8172V14.8172ZM57.8469 14.8172V15.1499H57.4594M57.4594 15.1499V15.1499ZM57.4594 15.1499V15.4827M57.4594 15.4827V15.4827ZM57.4594 15.4827V15.8154M57.4594 15.8154V15.8154ZM57.4594 15.8154H57.0719M57.0719 15.8154V15.8154ZM57.0719 15.8154V16.1481M57.0719 15.8154H56.6844M56.6844 15.8154V15.8154ZM56.6844 15.8154V16.1481M56.6844 16.1481V16.1481ZM56.6844 16.1481V16.4808M56.6844 16.4808V16.4808ZM56.6844 16.4808H56.2968M56.2968 16.4808V16.8135M56.2968 16.4808V16.4808ZM56.2968 16.8135V16.8135ZM56.2968 16.8135H55.9093M55.9093 16.8135V16.8135ZM55.9093 16.8135V17.1463M55.9093 17.1463V17.1463ZM55.9093 17.1463V17.479M55.9093 17.479V17.479ZM55.9093 17.479V17.8117M55.9093 17.8117V17.8117ZM55.9093 17.8117V18.1444M55.9093 18.1444V18.1444ZM55.9093 18.1444H56.2968M56.2968 18.1444V18.1444ZM56.2968 18.1444V18.4771L56.6844 18.1444V18.4771M56.6844 18.4771V18.4771ZM56.6844 18.4771V18.8099M56.6844 18.8099V18.8099ZM56.6844 18.8099V19.1426M56.6844 19.1426V19.1426ZM56.6844 19.1426V19.4753M56.6844 19.4753V19.4753ZM56.6844 19.4753V19.808M56.6844 19.4753H57.0719M56.6844 19.808V19.808ZM57.0719 19.4753V19.4753ZM57.0719 19.4753H57.4594M57.4594 19.4753V19.4753ZM57.4594 19.4753V19.808M57.4594 19.4753H57.8469V19.1426M57.4594 19.808V19.808ZM57.8469 19.1426V19.1426ZM57.8469 19.1426H58.2345M58.2345 19.1426V19.1426ZM58.2345 19.1426V19.4753M58.2345 19.4753V19.4753ZM58.2345 19.4753H58.622M58.622 19.4753V19.4753ZM58.622 19.4753V19.808M58.622 19.808V19.808ZM58.622 19.808H59.0095V19.4753M59.0095 19.4753V19.4753ZM59.0095 19.4753H59.397M59.397 19.4753V19.4753ZM59.397 19.4753V19.808M59.397 19.808V19.808ZM59.397 19.808L59.7846 19.4753M59.7846 19.4753V19.4753ZM59.7846 19.4753H60.1721M60.1721 19.4753V19.4753ZM60.1721 19.4753V19.808M60.1721 19.808V19.808ZM60.1721 19.808H60.5596M60.5596 19.808V19.808ZM60.5596 19.808H60.9471M60.9471 19.808V19.808ZM60.9471 19.808V19.4753M60.9471 19.4753V19.4753ZM60.9471 19.4753H61.3347M61.3347 19.4753V19.4753ZM61.3347 19.4753H61.7222M61.7222 19.4753V19.4753ZM61.7222 19.4753V19.808M61.7222 19.808V19.808ZM61.7222 19.808H62.1097M62.1097 19.808V19.808ZM62.1097 19.808H62.4972M62.4972 19.808V19.808ZM62.4972 19.808H62.8848M62.8848 19.808V19.808ZM62.8848 19.808V20.1407M62.8848 20.1407V20.1407ZM62.8848 20.1407V20.4734M62.8848 20.4734V20.4734ZM62.8848 20.4734H63.2723M63.2723 20.4734V20.4734ZM63.2723 20.4734H63.6598M63.6598 20.4734V20.4734ZM63.6598 20.4734H64.0473M64.0473 20.4734V20.4734ZM64.0473 20.4734H64.4349M64.4349 20.4734V20.4734ZM64.4349 20.4734V20.8062M64.4349 20.8062V20.8062ZM64.4349 20.8062V21.1389M64.4349 21.1389V21.1389ZM64.4349 21.1389H64.8224M64.8224 21.1389V21.1389ZM64.8224 21.1389V21.4716M64.8224 21.4716V21.4716ZM64.8224 21.4716V21.8043M64.8224 21.8043V21.8043ZM64.8224 21.8043H65.2099M65.2099 21.8043V21.8043ZM65.2099 21.8043H65.5974M65.2099 21.8043V22.137M65.5974 21.8043V21.8043ZM65.5974 21.8043V22.137M65.5974 22.137V22.137ZM65.5974 22.137V22.4698M65.5974 22.137H65.2099M65.5974 22.4698V22.4698ZM65.5974 22.4698H65.985M65.5974 22.4698H65.2099M65.985 22.4698V22.4698ZM65.985 22.4698H66.3725M66.3725 22.4698V22.4698ZM66.3725 22.4698V22.137M66.3725 22.4698H66.76M66.3725 22.137V22.137ZM66.76 22.4698V22.4698ZM66.76 22.4698H67.1476M67.1476 22.4698V22.4698ZM67.1476 22.4698V22.8025M67.1476 22.8025V22.8025ZM67.1476 22.8025V23.1352M67.1476 22.8025H66.76M67.1476 23.1352V23.1352ZM67.1476 23.1352H66.76M66.76 23.1352V23.1352ZM66.76 23.1352V23.4679M66.76 23.4679V23.4679ZM66.76 23.4679V23.8006H66.3725M66.3725 23.8006V23.8006ZM66.3725 23.8006V24.1333M66.3725 23.8006H65.985M66.3725 24.1333V24.1333ZM66.3725 24.1333V24.4661M66.3725 24.4661V24.4661ZM66.3725 24.4661H65.985M65.985 24.4661V24.4661ZM65.985 24.4661V24.7988M65.985 24.7988V24.7988ZM65.985 24.7988H65.5974M65.5974 24.7988V25.1315M65.5974 24.7988H65.2099V24.4661M65.5974 24.7988V24.7988ZM65.5974 25.1315V25.1315ZM65.5974 25.1315H65.985V25.4642M65.5974 25.1315V25.4642M65.985 25.4642V25.4642ZM65.985 25.4642V25.7969M65.985 25.4642H65.5974M65.985 25.7969V25.7969ZM65.985 25.7969H66.3725M65.985 25.7969L66.3725 26.1297M66.3725 25.7969V25.7969ZM66.3725 25.7969V26.1297M66.3725 25.7969H66.76M66.3725 26.1297V26.1297ZM66.76 25.7969V25.7969ZM66.76 25.7969H67.1476M67.1476 25.7969V25.7969ZM67.1476 25.7969H67.5351M67.5351 25.7969V25.7969ZM67.5351 25.7969H67.9226M67.9226 25.7969V25.7969ZM67.9226 25.7969V26.1297M67.9226 26.1297V26.1297ZM67.9226 26.1297H68.3101M68.3101 26.1297V26.1297ZM68.3101 26.1297V26.4624M68.3101 26.4624V26.4624ZM68.3101 26.4624V26.7951M68.3101 26.7951V26.7951ZM68.3101 26.7951H68.6977V27.1278M68.6977 27.1278V27.1278ZM68.6977 27.1278H69.0852M69.0852 27.1278V27.1278ZM69.0852 27.1278V27.4605M69.0852 27.4605V27.4605ZM69.0852 27.4605L68.6977 27.7932M68.6977 27.7932V27.7932ZM68.6977 27.7932V28.126M68.6977 28.126V28.126ZM68.6977 28.126V28.4587M68.6977 28.4587V28.4587ZM68.6977 28.4587L68.3101 28.7914M68.3101 28.7914V28.7914ZM68.3101 28.7914H68.6977M68.6977 28.7914V28.7914ZM68.6977 28.7914V29.1241M68.6977 29.1241V29.1241ZM68.6977 29.1241V29.4568M68.6977 29.4568V29.4568ZM68.6977 29.4568H69.0852M69.0852 29.4568V29.4568ZM69.0852 29.4568H69.4727V29.7896M69.4727 29.7896V29.7896ZM69.4727 29.7896V30.1223M69.4727 30.1223V30.1223ZM69.4727 30.1223H69.0852M69.0852 30.1223V30.1223ZM69.0852 30.1223V30.455M69.0852 30.455V30.455ZM69.0852 30.455H68.6977M68.6977 30.455V30.455ZM68.6977 30.455H68.3101M68.3101 30.455V30.455ZM68.3101 30.455V30.1223M68.3101 30.1223V30.1223ZM68.3101 30.1223H67.9226M67.9226 30.1223V30.1223ZM67.9226 30.1223H67.5351V30.455M67.5351 30.455V30.455ZM67.5351 30.455H67.9226M67.5351 30.455V30.7877M67.9226 30.455V30.455ZM67.5351 30.7877V30.7877ZM67.5351 30.7877H67.1476M67.5351 30.7877L67.1476 31.1204M67.1476 30.7877V30.7877ZM67.1476 31.1204H67.5351M67.1476 31.1204V31.1204ZM67.5351 31.1204V31.1204ZM67.5351 31.1204V31.4531H67.1476M67.1476 31.4531V31.4531ZM67.1476 31.4531H66.76M66.76 31.4531V31.4531ZM66.76 31.4531V31.7859H66.3725M66.3725 31.7859V31.7859ZM66.3725 31.7859V31.4531M66.3725 31.7859H65.985M65.985 31.7859V31.7859ZM65.985 31.7859V32.1186M65.985 32.1186V32.1186ZM65.985 32.1186H65.5974M65.5974 32.1186V32.1186ZM65.5974 32.1186H65.2099V32.4513M65.2099 32.4513V32.4513ZM65.2099 32.4513V32.784M65.2099 32.784V32.784ZM65.2099 32.784H65.5974M65.5974 32.784V32.784ZM65.5974 32.784V33.1167M65.5974 33.1167V33.1167ZM65.5974 33.1167V33.4495M65.5974 33.4495V33.4495ZM65.5974 33.4495V33.7822M65.5974 33.7822V33.7822ZM65.5974 33.7822L65.2099 33.4495M65.2099 33.4495V33.4495ZM65.2099 33.4495V33.7822M65.2099 33.7822V33.7822ZM65.2099 33.7822H64.8224M64.8224 33.7822V33.7822ZM64.8224 33.7822V34.1149M64.8224 34.1149V34.1149ZM64.8224 34.1149H64.4349M64.8224 34.1149V34.4476M64.4349 34.1149V34.1149ZM64.4349 34.1149V34.4476M64.4349 34.1149L64.0473 33.7822M64.4349 34.4476H64.8224M64.4349 34.4476H64.0473M64.4349 34.4476V34.4476ZM64.8224 34.4476V34.4476ZM64.8224 34.4476V34.7803M64.8224 34.7803V34.7803ZM64.8224 34.7803H64.4349M64.4349 34.7803V34.7803ZM64.4349 34.7803H64.0473M64.0473 34.7803V34.7803ZM64.0473 34.7803V34.4476M64.0473 34.4476V34.4476ZM64.0473 33.7822V33.7822ZM64.0473 33.7822H63.6598M63.6598 33.7822V33.7822ZM63.6598 33.7822V34.1149M63.6598 34.1149V34.1149ZM63.6598 34.1149H63.2723M63.2723 34.1149V34.1149ZM63.2723 34.1149H62.8848M62.8848 34.1149V34.1149ZM62.8848 34.1149V33.7822M62.8848 33.7822V33.7822ZM62.8848 33.7822H62.4972M62.4972 33.7822V33.4495M62.4972 33.7822V33.7822ZM62.4972 33.7822H62.1097M62.4972 33.4495V33.4495ZM62.1097 33.7822V33.7822ZM62.1097 33.7822H61.7222M61.7222 33.7822V33.7822ZM61.7222 33.7822V34.1149M61.7222 34.1149V34.1149ZM61.7222 34.1149H61.3347M61.7222 34.1149L61.3347 34.4476M61.3347 34.4476V34.4476ZM61.3347 34.4476V34.7803M61.3347 34.7803V34.7803ZM61.3347 34.7803H60.9471M60.9471 34.7803V34.7803ZM60.9471 34.7803V35.113H60.5596M60.5596 35.113V35.113ZM60.5596 35.113H60.1721V35.4458M60.1721 35.4458V35.4458ZM60.1721 35.4458V35.7785M60.1721 35.7785V35.7785ZM60.1721 35.7785V36.1112M60.1721 36.1112V36.1112ZM60.1721 36.1112H59.7846M59.7846 36.1112V36.1112ZM59.7846 36.1112V36.4439M59.7846 36.4439V36.4439ZM59.7846 36.4439H59.397M59.7846 36.4439V36.7766M59.7846 36.7766V36.7766ZM59.7846 36.7766V37.1094M59.7846 37.1094V37.1094ZM59.7846 37.1094H59.397V37.4421M59.397 37.4421V37.4421ZM59.397 37.4421H59.0095M59.0095 37.4421V37.4421ZM59.0095 37.4421V37.7748M59.0095 37.7748V37.7748ZM59.0095 37.7748V38.1075M59.0095 38.1075V38.1075ZM59.0095 38.1075H59.397M59.397 38.1075V38.1075ZM59.397 38.1075V38.4402M59.397 38.4402V38.4402ZM59.397 38.4402H59.0095M59.0095 38.4402V38.4402ZM59.0095 38.4402L58.622 38.7729M58.622 38.7729V38.7729ZM58.622 38.7729H58.2345M58.2345 38.7729V38.7729ZM58.2345 38.7729V39.1057M58.2345 39.1057V39.1057ZM58.2345 39.1057V39.4384M58.2345 39.4384V39.4384ZM58.2345 39.4384H57.8469M57.8469 39.4384V39.4384ZM57.8469 39.4384V39.7711M57.8469 39.7711V39.7711ZM57.8469 39.7711V40.1038M57.8469 40.1038V40.1038ZM57.8469 40.1038H57.4594M57.4594 40.1038V40.1038ZM57.4594 40.1038V40.4365M57.4594 40.4365V40.4365ZM57.4594 40.4365H57.8469M57.8469 40.4365V40.4365ZM57.8469 40.4365V40.7693H58.2345M58.2345 40.7693V40.7693ZM58.2345 40.7693V41.102M58.2345 41.102V41.102ZM58.2345 41.102H57.8469M57.8469 41.102V41.102ZM57.8469 41.102V41.4347M57.8469 41.4347V41.4347ZM57.8469 41.4347H57.4594M57.8469 41.4347V41.7674M57.8469 41.7674V41.7674ZM57.8469 41.7674H57.4594M57.4594 41.7674V41.7674ZM57.4594 41.7674V42.1001M57.4594 42.1001V42.1001ZM57.4594 42.1001H57.8469M57.4594 42.1001V42.4328H57.8469M57.8469 42.1001V42.1001ZM57.8469 42.4328V42.4328ZM57.8469 42.4328V42.7656M57.8469 42.7656V42.7656ZM57.8469 42.7656H58.2345M58.2345 42.7656V42.7656ZM58.2345 42.7656H58.622M58.622 42.7656V42.7656ZM58.622 42.7656V43.0983M58.622 43.0983V43.0983ZM58.622 43.0983V43.431M58.622 43.431V43.431ZM58.622 43.431H59.0095V43.7637M59.0095 43.7637V43.7637ZM59.0095 43.7637V44.0964M59.0095 44.0964V44.0964ZM59.0095 44.0964V44.4292M59.0095 44.4292V44.4292ZM59.0095 44.4292H59.397M59.397 44.4292V44.4292ZM59.397 44.4292H59.7846M59.7846 44.4292V44.4292ZM59.7846 44.4292L60.1721 44.7619M60.1721 44.7619H59.7846M60.1721 44.7619V44.7619ZM60.1721 44.7619V45.0946H59.7846M59.7846 44.7619V44.7619ZM59.7846 45.0946V45.0946ZM59.7846 45.0946V45.4273M59.7846 45.4273V45.4273ZM59.7846 45.4273V45.76M59.7846 45.76V45.76ZM59.7846 45.76H60.1721M60.1721 45.76V45.76ZM60.1721 45.76H60.5596M60.5596 45.76V45.76ZM60.5596 45.76V46.0927M60.5596 46.0927V46.0927ZM60.5596 46.0927V46.4255M60.5596 46.4255V46.4255ZM60.5596 46.4255V46.7582H60.1721M60.1721 46.7582V46.4255M60.1721 46.7582V46.7582ZM60.1721 46.7582V47.0909M60.1721 46.4255V46.4255ZM60.1721 47.0909H59.7846M60.1721 47.0909V47.0909ZM60.1721 47.0909L59.7846 47.4236M59.7846 47.0909V47.0909ZM59.7846 47.4236V47.4236ZM59.7846 47.4236H59.397M59.397 47.4236V47.4236ZM59.397 47.4236V47.7563M59.397 47.7563V47.7563ZM59.397 47.7563H59.7846M59.7846 47.7563V47.7563ZM59.7846 47.7563V48.0891M59.7846 48.0891V48.0891ZM59.7846 48.0891L59.397 48.4218M59.397 48.4218V48.4218ZM59.397 48.4218L59.0095 48.7545M59.0095 48.7545V48.7545ZM59.0095 48.7545V48.4218M59.0095 48.7545H58.622M58.622 48.7545V48.7545ZM58.622 48.7545V48.4218H58.2345M58.2345 48.4218V48.4218ZM58.2345 48.4218H57.8469M57.8469 48.4218V48.4218ZM57.8469 48.4218V48.7545M57.8469 48.7545V48.7545ZM57.8469 48.7545H57.4594M57.4594 48.7545V48.7545ZM57.4594 48.7545H57.0719M57.0719 48.7545V48.7545ZM57.0719 48.7545H56.6844M56.6844 48.7545V48.7545ZM56.6844 48.7545H56.2968M56.2968 48.7545V48.7545ZM56.2968 48.7545V48.4218M56.2968 48.4218V48.4218ZM56.2968 48.4218L55.9093 48.7545M55.9093 48.7545V48.7545ZM55.9093 48.7545H55.5218M55.5218 48.7545V48.7545ZM55.5218 48.7545V49.0872M55.5218 49.0872V49.0872ZM55.5218 49.0872H55.1343M55.5218 49.0872V49.4199M55.5218 49.4199V49.4199ZM55.5218 49.4199H55.1343M55.1343 49.4199V49.7527M55.1343 49.4199V49.4199ZM55.1343 49.4199H54.7467M55.1343 49.7527V49.7527ZM54.7467 49.4199V49.4199ZM54.7467 49.4199V49.0872M54.7467 49.0872V49.0872ZM54.7467 49.0872H54.3592M54.3592 49.0872V49.0872ZM54.3592 49.0872H53.9717V49.4199M53.9717 49.4199V49.4199ZM53.9717 49.4199H53.5842V49.7527M53.5842 49.7527V49.7527ZM53.5842 49.7527H53.1966M53.1966 49.7527V49.7527ZM53.1966 49.7527H52.8091M52.8091 49.7527V49.7527ZM52.8091 49.7527H52.4216M52.4216 49.7527V49.7527ZM52.4216 49.7527V49.4199M52.4216 49.4199V49.4199ZM52.4216 49.4199V49.0872M52.4216 49.0872V49.0872ZM52.4216 49.0872H52.8091M52.8091 49.0872V49.0872ZM52.8091 49.0872V48.7545H52.4216M52.4216 48.7545V48.7545ZM52.4216 48.7545H52.0341V48.4218H52.4216M52.4216 48.4218V48.4218ZM52.4216 48.4218V48.0891M52.4216 48.0891V48.0891ZM52.4216 48.0891H52.0341M52.0341 48.0891V48.0891ZM52.0341 48.0891V47.7563M52.0341 47.7563V47.7563ZM52.0341 47.7563V47.4236M52.0341 47.4236V47.4236ZM52.0341 47.4236H51.6465M51.6465 47.4236V47.4236ZM51.6465 47.4236V47.0909M51.6465 47.0909V47.0909ZM51.6465 47.0909H51.259M51.259 47.0909V47.0909ZM51.259 47.0909H50.8715V46.7582M50.8715 46.7582V46.7582ZM50.8715 46.7582H50.484M50.484 46.7582V46.7582ZM50.484 46.7582V47.0909M50.484 47.0909V47.0909ZM50.484 47.0909H50.0964M50.0964 47.0909V47.0909ZM50.0964 47.0909H49.7089M49.7089 47.0909V47.0909ZM49.7089 47.0909V46.7582M49.7089 46.7582V46.7582ZM49.7089 46.7582V46.4255M49.7089 46.4255V46.4255ZM49.7089 46.4255H50.0964M50.0964 46.4255V46.4255ZM50.0964 46.4255V46.0927M50.0964 46.0927V46.0927ZM50.0964 46.0927V45.76M50.0964 45.76V45.76ZM50.0964 45.76H49.7089M49.7089 45.76V45.76ZM49.7089 45.76V45.4273H49.3214M49.3214 45.4273V45.4273ZM49.3214 45.4273V45.0946M49.3214 45.0946V45.0946ZM49.3214 45.0946H48.9339M48.9339 45.0946V45.0946ZM48.9339 45.0946V45.4273M48.9339 45.4273V45.4273ZM48.9339 45.4273H48.5463M48.5463 45.4273V45.4273ZM48.5463 45.4273H48.1588M48.1588 45.4273V45.4273ZM48.1588 45.4273V45.0946M48.1588 45.0946V45.0946ZM48.1588 45.0946H47.7713M47.7713 45.0946V45.0946ZM47.7713 45.0946V45.4273M47.7713 45.0946H47.3838M47.3838 45.0946V45.0946ZM47.3838 45.0946V44.7619M47.3838 44.7619V44.7619ZM47.3838 44.7619H46.9962M46.9962 44.7619V44.7619ZM46.9962 44.7619H46.6087M46.6087 44.7619V44.7619ZM46.6087 44.7619V44.4292M46.6087 44.4292V44.4292ZM46.6087 44.4292V44.0964H46.2212M46.2212 44.0964V44.0964ZM46.2212 44.0964V43.7637M46.2212 43.7637V43.7637ZM46.2212 43.7637H45.8336V43.431M45.8336 43.431V43.431ZM45.8336 43.431L45.4461 43.7637M45.4461 43.7637V43.7637ZM45.4461 43.7637V43.431M45.4461 43.431V43.431ZM45.4461 43.431H45.0586M45.0586 43.431V43.431ZM45.0586 43.431H44.6711M44.6711 43.431V43.431ZM44.6711 43.431V43.0983M44.6711 43.0983V43.0983ZM44.6711 43.0983H44.2835M44.2835 43.0983V43.0983ZM44.2835 43.0983V42.7656M44.2835 42.7656V42.7656ZM44.2835 42.7656H43.896M43.896 42.7656V42.7656ZM43.896 42.7656H43.5085M43.5085 42.7656V42.7656ZM43.5085 42.7656H43.121M43.121 42.7656V42.7656ZM43.121 42.7656V43.0983M43.121 43.0983V43.0983ZM43.121 43.0983H42.7334M42.7334 43.0983V43.0983ZM42.7334 43.0983H42.3459M42.3459 43.0983V43.0983ZM42.3459 43.0983V42.7656H41.9584M41.9584 42.7656V42.7656ZM41.9584 42.7656V43.0983M41.9584 42.7656H41.5709M41.9584 42.7656V42.4328M41.9584 43.0983V43.0983ZM41.9584 43.0983L41.5709 42.7656M41.5709 42.7656V42.7656ZM41.9584 42.4328V42.4328ZM41.9584 42.4328V42.1001M41.9584 42.1001V42.1001ZM41.9584 42.1001V41.7674M41.9584 41.7674V41.7674ZM41.9584 41.7674H41.5709M41.5709 41.7674V41.7674ZM41.5709 41.7674V41.4347M41.5709 41.4347V41.4347ZM41.5709 41.4347V41.102M41.5709 41.102V41.102ZM41.5709 41.102H41.9584M41.9584 41.102V41.102ZM41.9584 41.102V40.7693M41.9584 40.7693V40.7693ZM41.9584 40.7693V40.4365M41.9584 40.4365V40.4365ZM41.9584 40.4365H42.3459M41.9584 40.4365V40.1038M42.3459 40.4365V40.4365ZM42.3459 40.4365V40.1038M42.3459 40.1038V40.1038ZM42.3459 40.1038H41.9584M42.3459 40.1038L41.9584 39.7711M41.9584 40.1038V40.1038ZM41.9584 39.7711H42.3459M41.9584 39.7711V39.7711ZM41.9584 39.7711L41.5709 39.4384M41.5709 39.4384V39.4384ZM41.5709 39.4384V39.1057M41.5709 39.1057V39.1057ZM41.5709 39.1057H41.1833M41.1833 39.1057V39.1057ZM41.1833 39.1057H40.7958M40.7958 39.1057V39.1057ZM40.7958 39.1057V38.7729H40.4083M40.4083 38.7729V38.7729ZM40.4083 38.7729V38.4402H40.7958M40.7958 38.4402V38.4402ZM40.7958 38.4402V38.1075M40.7958 38.1075V38.1075ZM40.7958 38.1075H41.1833M40.7958 38.1075V37.7748H41.1833M41.1833 37.7748V37.7748ZM41.1833 37.7748V37.4421M41.1833 37.4421V37.4421ZM41.1833 37.4421V37.1094M41.1833 37.1094V37.1094ZM41.1833 37.1094H41.5709M41.5709 37.1094V37.1094ZM41.5709 37.1094V36.7766M41.5709 36.7766V36.7766ZM41.5709 36.7766H41.1833M41.1833 36.7766V36.7766ZM41.1833 36.7766V36.4439M41.1833 36.4439V36.4439ZM41.1833 36.4439H41.5709V36.1112M41.5709 36.1112V36.1112ZM41.5709 36.1112V35.7785M41.5709 35.7785V35.7785ZM41.5709 35.7785V35.4458M41.5709 35.4458V35.4458ZM41.5709 35.4458H41.9584M41.9584 35.4458V35.4458ZM41.9584 35.4458V35.7785M41.9584 35.4458V35.113M41.9584 35.7785V35.7785ZM41.9584 35.113V35.113ZM41.9584 35.113V34.7803M41.9584 34.7803V34.7803ZM41.9584 34.7803H42.3459M42.3459 34.7803V34.7803ZM42.3459 34.7803V34.4476M42.3459 34.4476V34.4476ZM42.3459 34.4476H41.9584M41.9584 34.4476V34.4476ZM41.9584 34.4476V34.1149M41.9584 34.1149V34.1149ZM41.9584 34.1149H41.5709M41.5709 34.1149V34.1149ZM41.5709 34.1149H41.1833M41.1833 34.1149V34.1149ZM41.1833 34.1149V33.7822M41.1833 33.7822V33.7822ZM41.1833 33.7822L40.7958 34.1149V34.4476H40.4083H40.0208V34.7803M40.0208 34.7803V34.7803ZM40.0208 34.7803V35.113M40.0208 35.113H39.6332M40.0208 35.113V35.113ZM39.6332 35.113V35.113ZM39.6332 35.113V35.4458M39.6332 35.4458V35.4458ZM39.6332 35.4458H39.2457M39.2457 35.4458V35.4458ZM39.2457 35.4458H38.8582M38.8582 35.4458V35.4458ZM38.8582 35.4458V35.7785M38.8582 35.7785V35.7785ZM38.8582 35.7785V36.1112M38.8582 36.1112V36.1112ZM38.8582 36.1112H38.4707M38.4707 36.1112V36.1112ZM38.4707 36.1112V36.4439M38.4707 36.4439V36.4439ZM38.4707 36.4439H38.8582M38.8582 36.4439V36.4439ZM38.8582 36.4439V36.7766M38.8582 36.7766V36.7766ZM38.8582 36.7766V37.1094M38.8582 37.1094V37.1094ZM38.8582 37.1094H38.4707V37.4421M38.4707 37.4421H38.8582M38.4707 37.4421L38.8582 37.7748M38.8582 37.4421V37.4421ZM38.8582 37.7748H38.4707M38.8582 37.7748V37.7748ZM38.8582 37.7748V38.1075M38.4707 37.7748V37.7748ZM38.8582 38.1075V38.1075ZM38.8582 38.1075H38.4707M38.4707 38.1075V38.1075ZM38.4707 38.1075H38.0831M38.0831 38.1075V38.1075ZM38.0831 38.1075H37.6956M37.6956 38.1075V38.1075ZM37.6956 38.1075H37.3081M37.3081 38.1075V38.1075ZM37.3081 38.1075H36.9206M36.9206 38.1075V38.1075ZM36.9206 38.1075V38.4402M36.9206 38.4402V38.4402ZM36.9206 38.4402H36.533M36.533 38.4402V38.4402ZM36.533 38.4402V38.7729M36.533 38.7729V38.7729ZM36.533 38.7729H36.1455M36.1455 38.7729V38.7729ZM36.1455 38.7729H35.758M35.758 38.7729V38.7729ZM35.758 38.7729V39.1057M35.758 39.1057V39.1057ZM35.758 39.1057H35.3705M35.3705 39.1057V39.1057ZM35.3705 39.1057H34.9829M34.9829 39.1057V39.1057ZM34.9829 39.1057L34.5954 39.4384H34.2079M34.2079 39.4384V39.4384ZM34.2079 39.4384L33.8204 39.1057M33.8204 39.1057V39.1057ZM33.8204 39.1057H33.4328M33.4328 39.1057V39.1057ZM33.4328 39.1057H33.0453M33.0453 39.1057V39.1057ZM33.0453 39.1057H32.6578M32.6578 39.1057V39.1057ZM32.6578 39.1057V38.7729M32.6578 38.7729V38.7729ZM32.6578 38.7729H32.2703M32.2703 38.7729V38.7729ZM32.2703 38.7729H31.8827M31.8827 38.7729V38.7729ZM31.8827 38.7729H31.4952M31.4952 38.7729V38.7729ZM31.4952 38.7729H31.1077M31.1077 38.7729V38.7729ZM31.1077 38.7729H30.7202M30.7202 38.7729V38.7729ZM30.7202 38.7729H30.3326M30.3326 38.7729V38.7729ZM30.3326 38.7729V39.1057M30.3326 38.7729L29.9451 39.1057M29.9451 39.1057V38.7729M29.9451 39.1057V39.1057ZM29.9451 38.7729V38.7729ZM29.9451 38.7729H29.5576V38.4402M29.5576 38.4402V38.4402ZM29.5576 38.4402H29.1701M29.1701 38.4402V38.4402ZM29.1701 38.4402H28.7825M29.1701 38.4402V38.1075M28.7825 38.4402V38.4402ZM29.1701 38.1075V38.1075ZM29.1701 38.1075V37.7748M29.1701 37.7748V37.7748ZM29.1701 37.7748H28.7825M28.7825 37.7748V37.7748ZM28.7825 37.7748V37.4421M28.7825 37.4421V37.4421ZM28.7825 37.4421V37.1094M28.7825 37.1094V37.1094ZM28.7825 37.1094H29.1701M29.1701 37.1094V37.1094ZM29.1701 37.1094V36.7766M29.1701 36.7766V36.7766ZM29.1701 36.7766H29.5576M29.5576 36.7766V36.7766ZM29.5576 36.7766H29.9451M29.9451 36.7766V36.7766ZM29.9451 36.7766V36.4439M29.9451 36.4439V36.4439ZM29.9451 36.4439H30.3326M30.3326 36.4439V36.4439ZM30.3326 36.4439V36.1112M30.3326 36.1112V36.1112ZM30.3326 36.1112V35.7785M30.3326 35.7785V35.7785ZM30.3326 35.7785V35.4458L29.9451 35.7785V35.4458M29.9451 35.4458V35.4458ZM29.9451 35.4458V35.113M29.9451 35.113V35.113ZM29.9451 35.113V34.7803M29.9451 34.7803V34.7803ZM29.9451 34.7803H29.5576M29.5576 34.7803V34.7803ZM29.5576 34.7803H29.1701M29.1701 34.7803V34.7803ZM29.1701 34.7803H28.7825M28.7825 34.7803V34.7803ZM28.7825 34.7803V34.4476M28.7825 34.4476V34.4476ZM28.7825 34.4476V34.1149M28.7825 34.1149V34.1149ZM28.7825 34.1149H29.1701M29.1701 34.1149V34.1149ZM29.1701 34.1149V33.7822M29.1701 33.7822V33.7822ZM29.1701 33.7822V33.4495M29.1701 33.4495V33.4495ZM29.1701 33.4495V33.1167M29.1701 33.1167V33.1167ZM29.1701 33.1167V32.784M29.1701 32.784V32.784ZM29.1701 32.784H29.5576M29.5576 32.784V32.784ZM29.5576 32.784V32.4513M29.5576 32.4513V32.4513ZM29.5576 32.4513L29.9451 32.1186M29.9451 32.1186V32.1186ZM29.9451 32.1186H30.3326M30.3326 32.1186V32.1186ZM30.3326 32.1186V31.7859M30.3326 31.7859V31.7859ZM30.3326 31.7859V31.4531M30.3326 31.4531V31.4531ZM30.3326 31.4531H29.9451M29.9451 31.4531V31.4531ZM29.9451 31.4531H29.5576M29.5576 31.4531V31.4531ZM29.5576 31.4531V31.1204M29.5576 31.4531H29.1701M29.5576 31.4531V31.7859H29.1701M29.5576 31.1204V31.1204ZM29.5576 31.1204H29.1701M29.1701 31.1204V31.1204ZM29.1701 31.1204V31.4531M29.1701 31.4531V31.4531ZM29.1701 31.7859V31.7859ZM29.1701 31.7859H28.7825M28.7825 31.7859V31.7859ZM28.7825 31.7859V31.4531M28.7825 31.4531V31.4531ZM28.7825 31.4531L28.395 31.1204H28.7825M28.7825 31.1204V31.1204ZM28.7825 31.1204L28.395 30.7877M28.395 30.7877V30.7877ZM28.395 30.7877V30.455M28.395 30.455V30.455ZM28.395 30.455H28.0075M28.0075 30.455V30.455ZM28.0075 30.455H27.6199M27.6199 30.455V30.455ZM27.6199 30.455V30.1223M27.6199 30.1223V30.1223ZM27.6199 30.1223L27.2324 29.7896M27.2324 29.7896V29.7896ZM27.2324 29.7896H26.8449M26.8449 29.7896V29.7896ZM26.8449 29.7896V29.4568M26.8449 29.4568V29.4568ZM26.8449 29.4568V29.1241M26.8449 29.4568H26.4574M26.4574 29.4568V29.4568ZM26.4574 29.4568H26.0698M26.0698 29.4568V29.4568ZM26.0698 29.4568V29.7896M26.0698 29.4568L25.6823 29.7896M26.0698 29.7896V29.7896ZM25.6823 29.7896V29.7896ZM25.6823 29.7896V29.4568M25.6823 29.7896H25.2948M25.6823 29.4568V29.4568ZM25.2948 29.7896V29.7896ZM25.2948 29.7896L24.9073 30.1223M24.9073 30.1223V30.1223ZM24.9073 30.1223H24.5197M24.5197 30.1223V30.1223ZM24.5197 30.1223H24.1322M24.5197 30.1223V29.7896M24.1322 30.1223V30.1223ZM24.5197 29.7896V29.7896ZM24.5197 29.7896H24.1322M24.1322 29.7896V29.7896ZM24.1322 29.7896H23.7447M23.7447 29.7896V29.7896ZM23.7447 29.7896V29.4568M23.7447 29.4568V29.4568ZM23.7447 29.4568H23.3572M23.3572 29.4568V29.4568ZM23.3572 29.4568H22.9696M22.9696 29.4568V29.7896M22.9696 29.4568V29.4568ZM22.9696 29.4568H22.5821M22.9696 29.7896V29.7896ZM22.5821 29.4568V29.4568ZM22.5821 29.4568H22.1946M22.1946 29.4568V29.4568ZM22.1946 29.4568H21.8071M21.8071 29.4568V29.4568ZM21.8071 29.4568V29.7896M21.8071 29.7896V29.7896ZM21.8071 29.7896H21.4195V30.1223M21.4195 30.1223V30.1223ZM21.4195 30.1223V30.455M21.4195 30.1223H21.032M21.4195 30.455V30.455ZM21.4195 30.455H21.032M21.4195 30.455L21.032 30.7877V30.455M21.032 30.1223V30.1223ZM21.032 30.1223V30.455M21.032 30.1223H20.6445M21.032 30.455V30.455ZM21.032 30.455L20.6445 30.1223M20.6445 30.1223V30.1223ZM20.6445 30.1223V29.7896M20.6445 29.7896V29.7896ZM20.6445 29.7896H20.257V29.4568M20.257 29.4568V29.4568ZM20.257 29.4568V29.1241M20.257 29.1241V29.1241ZM20.257 29.1241V28.7914M20.257 28.7914V28.7914ZM20.257 28.7914H20.6445V28.4587M20.6445 28.4587V28.4587ZM20.6445 28.4587V28.126M20.6445 28.126V28.126ZM20.6445 28.126V27.7932M20.6445 27.7932V27.7932ZM20.6445 27.7932H20.257M20.257 27.7932V27.7932ZM20.257 27.7932V27.4605M20.257 27.4605V27.4605ZM20.257 27.4605H20.6445M20.257 27.4605V27.1278M20.257 27.1278V27.1278ZM20.257 27.1278V26.7951M20.257 26.7951V26.7951ZM20.257 26.7951H19.8694M19.8694 26.7951V26.7951ZM19.8694 26.7951V26.4624M19.8694 26.4624V26.4624ZM19.8694 26.4624L19.4819 26.1297M19.4819 26.1297V26.1297ZM19.4819 26.1297V25.7969L19.0944 26.1297M19.0944 26.1297V26.1297ZM19.0944 26.1297H18.7069M18.7069 26.1297V26.1297ZM18.7069 26.1297V25.7969M18.7069 25.7969V25.7969ZM18.7069 25.7969H18.3193M18.3193 25.7969V25.7969ZM18.3193 25.7969V26.1297M18.3193 26.1297V26.1297ZM18.3193 26.1297H17.9318M17.9318 26.1297V26.1297ZM17.9318 26.1297H17.5443M17.5443 26.1297V26.1297ZM17.5443 26.1297L17.1568 25.7969H17.5443M17.5443 25.7969V25.7969ZM17.5443 25.7969V25.4642M17.5443 25.4642V25.4642ZM17.5443 25.4642H17.9318V25.1315H17.5443M17.5443 25.1315V25.1315ZM17.5443 25.1315H17.1568M17.1568 25.1315V25.1315ZM17.1568 25.1315H16.7692M16.7692 25.1315V25.1315ZM16.7692 25.1315V25.4642M16.7692 25.4642V25.4642ZM16.7692 25.4642H16.3817M16.3817 25.4642V25.4642ZM16.3817 25.4642V25.7969M16.3817 25.7969V25.7969ZM16.3817 25.7969H15.9942M15.9942 25.7969V25.7969ZM15.9942 25.7969H15.6067M15.6067 25.7969V25.7969ZM15.6067 25.7969V26.1297H15.2191M15.2191 26.1297V26.1297ZM15.2191 26.1297V25.7969H14.8316M14.8316 25.7969V25.7969ZM14.8316 25.7969H14.4441M14.4441 25.7969V25.7969ZM14.4441 25.7969V25.4642M14.4441 25.4642V25.4642ZM14.4441 25.4642H14.0566M14.0566 25.4642V25.4642ZM14.0566 25.4642H13.669M13.669 25.4642V25.4642ZM13.669 25.4642V25.1315M13.669 25.1315V25.1315ZM13.669 25.1315H13.2815V24.7988M13.2815 24.7988H13.669M13.2815 24.7988V24.7988ZM13.669 24.7988V24.7988ZM13.669 24.7988V24.4661M13.669 24.4661V24.4661ZM13.669 24.4661H13.2815M13.2815 24.4661V24.4661ZM13.2815 24.4661V24.1333M13.2815 24.1333V24.1333ZM13.2815 24.1333H13.669M13.669 24.1333V24.1333ZM13.669 24.1333L13.2815 23.8006M13.2815 23.8006V23.8006ZM13.2815 23.8006V23.4679M13.2815 23.4679V23.4679ZM13.2815 23.4679V23.1352M13.2815 23.1352V23.1352ZM13.2815 23.1352H12.894L13.2815 22.8025H12.894M12.894 22.8025V22.8025ZM12.894 22.8025V22.4698M12.894 22.4698V22.4698ZM12.894 22.4698V22.137M12.894 22.137V22.137ZM12.894 22.137V21.8043M12.894 21.8043V21.8043ZM12.894 21.8043L13.2815 21.4716M13.2815 21.4716V21.4716ZM13.2815 21.4716H12.894M12.894 21.4716V21.4716ZM12.894 21.4716V21.1389M12.894 21.1389V21.1389ZM12.894 21.1389H13.2815M13.2815 21.1389V21.1389ZM13.2815 21.1389L12.894 20.8062M12.894 20.8062V20.8062ZM12.894 20.8062H12.5065M12.5065 20.8062V20.8062ZM12.5065 20.8062H12.1189M12.1189 20.8062V20.8062ZM12.1189 20.8062V20.4734M12.1189 20.4734V20.4734ZM12.1189 20.4734H11.7314M12.1189 20.4734V20.1407M11.7314 20.4734V20.4734ZM12.1189 20.1407V20.1407ZM12.1189 20.1407H11.7314M11.7314 20.1407V20.1407ZM11.7314 20.1407V19.808M11.7314 19.808V19.808ZM11.7314 19.808L11.3439 19.4753M11.3439 19.4753V19.4753ZM11.3439 19.4753V19.1426M11.3439 19.1426V19.1426ZM11.3439 19.1426V18.8099M11.3439 18.8099V18.8099ZM11.3439 18.8099H10.9564M10.9564 18.8099V18.8099ZM10.9564 18.8099H10.5688M10.5688 18.8099V18.8099ZM10.5688 18.8099H10.1813M10.5688 18.8099L10.1813 19.1426M10.1813 19.1426V19.1426ZM10.1813 19.1426H9.79378M9.79378 19.1426V19.1426ZM9.79378 19.1426H9.40625M9.40625 19.1426V19.1426ZM9.40625 19.1426H9.01873M9.01873 19.1426V19.1426ZM9.01873 19.1426V19.4753M9.01873 19.4753V19.4753ZM9.01873 19.4753L8.6312 19.1426M8.6312 19.1426V19.1426ZM8.6312 19.1426V19.4753M8.6312 19.4753V19.4753ZM8.6312 19.4753H8.24367M8.24367 19.4753V19.4753ZM8.24367 19.4753V19.808M8.24367 19.808V19.808ZM8.24367 19.808H7.85615M7.85615 19.808V19.808ZM7.85615 19.808H7.46862M7.46862 19.808V19.808ZM7.46862 19.808V20.1407M7.46862 20.1407V20.1407ZM7.46862 20.1407V20.4734M7.46862 20.4734V20.4734ZM7.46862 20.4734H7.0811M7.0811 20.4734V20.4734ZM7.0811 20.4734V20.8062M7.0811 20.8062V20.8062ZM7.0811 20.8062V21.1389M7.0811 20.8062H6.69357V21.1389M6.69357 21.1389V21.1389ZM6.69357 21.1389L6.30605 20.8062M6.30605 20.8062V20.8062ZM6.30605 20.8062V21.1389M6.30605 20.8062H5.91852M5.91852 20.8062V20.8062ZM5.91852 20.8062V20.4734M5.91852 20.4734V20.4734ZM5.91852 20.4734H5.531M5.531 20.4734V20.4734ZM5.531 20.4734H5.14347M5.14347 20.4734V20.8062M5.14347 20.4734V20.4734ZM5.14347 20.4734H4.75594M4.75594 20.4734V20.4734ZM4.75594 20.4734V20.1407M4.75594 20.1407V20.1407ZM4.75594 20.1407H4.36842M4.36842 20.1407V20.1407ZM4.36842 20.1407L4.75594 19.808M4.75594 19.808V19.808ZM4.75594 19.808H4.36842M4.36842 19.808V19.808ZM4.36842 19.808V19.4753M4.36842 19.4753V19.4753ZM4.36842 19.4753H3.98089M4.36842 19.4753L3.98089 19.1426M3.98089 19.4753V19.4753ZM3.98089 19.1426V19.1426ZM3.98089 19.1426H3.59337M3.59337 19.1426V19.1426ZM3.59337 19.1426V18.8099M3.59337 18.8099V18.8099ZM3.59337 18.8099V18.4771M3.59337 18.4771V18.4771ZM3.59337 18.4771V18.1444H3.20584M3.20584 18.1444V18.1444ZM3.20584 18.1444H2.81832M2.81832 18.1444V18.1444ZM2.81832 18.1444H2.43079M2.43079 18.1444V18.1444ZM2.43079 18.1444H2.04327M2.04327 18.1444V18.1444ZM2.04327 18.1444H1.65574V17.8117M1.65574 17.8117V17.8117ZM1.65574 17.8117V17.479M1.65574 17.479V17.479ZM1.65574 17.479H1.26822M1.26822 17.479V17.479ZM1.26822 17.479V17.1463M1.26822 17.1463V17.1463ZM1.26822 17.1463H1.65574M1.65574 17.1463V17.1463ZM1.65574 17.1463V16.8135M1.65574 16.8135H1.26822M1.65574 16.8135L1.26822 16.4808M1.26822 16.8135V16.8135ZM1.26822 16.4808V16.4808ZM1.26822 16.4808V16.1481M1.26822 16.1481V16.1481ZM1.26822 16.1481V15.8154M1.26822 15.8154V15.8154ZM1.26822 15.8154V15.4827M1.26822 15.4827V15.4827ZM1.26822 15.4827H1.65574M1.65574 15.4827V15.4827ZM1.65574 15.4827V15.1499M1.65574 15.1499V15.1499ZM1.65574 15.1499H2.04327L1.65574 14.8172M1.65574 14.8172V14.8172ZM1.65574 14.8172V14.4845M1.65574 14.4845V14.4845ZM1.65574 14.4845V14.1518M1.65574 14.1518V14.1518ZM1.65574 14.1518H1.26822M1.26822 14.1518V14.1518ZM1.26822 14.1518V13.8191M1.26822 13.8191V13.8191ZM1.26822 13.8191H0.88069M0.88069 13.8191V13.8191ZM0.88069 13.8191V13.4864M0.88069 13.4864V13.4864ZM0.88069 13.4864V13.1536L0.493164 12.4882M0.493164 12.4882V12.4882ZM0.493164 12.4882V12.1555M0.493164 12.1555V12.1555ZM0.493164 12.1555V11.49M0.493164 11.49V11.49ZM0.493164 11.49L1.26822 11.1573L1.65574 10.8246M1.65574 10.8246V10.8246ZM1.65574 10.8246H2.04327V10.4919H2.43079H2.81832L3.20584 10.1592M3.20584 10.1592V10.1592ZM3.20584 10.1592H3.59337V9.82646M3.59337 9.82646V9.82646ZM3.59337 9.82646H3.98089M3.98089 9.82646V9.82646ZM3.98089 9.82646L4.36842 9.49374H4.75594L5.14347 9.16102L5.531 8.8283M5.531 8.8283V8.8283ZM5.531 8.8283H5.91852V8.49558M5.91852 8.49558V8.49558ZM5.91852 8.49558H6.30605M6.30605 8.49558V8.49558ZM6.30605 8.49558V8.16286H6.69357M6.69357 8.16286V8.16286ZM6.69357 8.16286L7.0811 7.83015M7.0811 7.83015V7.83015ZM7.0811 7.83015H7.46862M7.46862 7.83015V7.83015ZM7.46862 7.83015L7.85615 7.49743M7.85615 7.49743V7.49743ZM7.85615 7.49743H8.24367M8.24367 7.49743V7.49743ZM8.24367 7.49743V7.16471H8.6312M8.6312 7.16471V7.16471ZM8.6312 7.16471L9.01873 6.83199M9.01873 6.83199V6.83199ZM9.01873 6.83199H9.40625V6.49927H9.79378M9.79378 6.49927V6.49927ZM9.79378 6.49927V6.16656M9.79378 6.16656V6.16656ZM9.79378 6.16656H10.1813M10.1813 6.16656V6.16656ZM10.1813 6.16656H10.5688M10.5688 6.16656V6.16656ZM10.5688 6.16656V5.83384M10.5688 5.83384V5.83384ZM10.5688 5.83384H10.9564M10.9564 5.83384V5.83384ZM10.9564 5.83384H11.3439M11.3439 5.83384V5.83384ZM11.3439 5.83384V5.50112H11.7314M11.7314 5.50112V5.50112ZM11.7314 5.50112L11.3439 5.1684M11.3439 5.1684V5.1684ZM11.3439 5.1684L11.7314 4.83568M11.7314 4.83568V4.83568ZM11.7314 4.83568H12.1189M12.1189 4.83568V4.83568ZM12.1189 4.83568H12.5065M12.5065 4.83568V4.83568ZM12.5065 4.83568V5.1684M12.5065 5.1684V5.1684ZM12.5065 5.1684H12.894M12.894 5.1684V5.1684ZM12.894 5.1684H13.2815M13.2815 5.1684V5.1684ZM13.2815 5.1684H13.669M13.669 5.1684V5.1684ZM13.669 5.1684V4.83568H14.0566M14.0566 4.83568V4.83568ZM14.0566 4.83568H14.4441M14.4441 4.83568V4.83568ZM65.5974 25.4642V25.4642ZM65.2099 24.4661V24.4661ZM65.2099 24.4661H65.5974M65.985 23.8006V23.8006ZM65.985 23.8006V24.1333M65.985 24.1333V24.1333ZM65.985 24.1333L65.5974 24.4661M65.5974 24.4661V24.1333M65.5974 24.4661V24.4661ZM65.2099 22.4698L65.5974 22.8025M65.2099 22.4698V22.4698ZM65.5974 22.8025V22.8025ZM65.5974 22.8025H65.2099M65.5974 22.8025H65.985M65.2099 22.8025V22.8025ZM65.985 22.8025V22.8025ZM65.985 22.8025H66.3725M66.3725 22.8025V22.8025ZM66.3725 22.8025H66.76M66.76 22.8025V22.8025ZM65.2099 22.137V22.137Z" stroke="#13263A"/>
</svg>
