<svg width="35" height="35" viewBox="0 0 35 35" fill="none" xmlns="http://www.w3.org/2000/svg">
<path d="M25.6375 1.96875C23.1875 0.7 20.4312 0 17.5 0C14.5688 0 11.8125 0.7 9.3625 1.96875C3.80625 4.9 0 10.7625 0 17.5C0 24.2375 3.80625 30.1 9.40625 33.0312C11.8125 34.2562 14.5688 35 17.5 35C20.4312 35 23.1437 34.2563 25.5938 32.9875C31.1938 30.1 35 24.2375 35 17.5C35 10.7625 31.1937 4.9 25.6375 1.96875ZM1.75 17.5C1.75 11.7688 4.8125 6.78125 9.40625 3.98125C11.6375 2.625 14.2188 1.8375 17.0625 1.75L15.0938 16.0562L9.40625 20.475L3.63125 24.9812C2.45 22.75 1.75 20.2125 1.75 17.5ZM25.6375 30.975C23.2312 32.4188 20.475 33.25 17.5 33.25C14.525 33.25 11.725 32.4188 9.3625 30.975C7.21875 29.7063 5.46875 27.9562 4.15625 25.8562L9.3625 23.7125L17.5 20.3875L25.6375 23.6687L30.8875 25.8125C29.575 27.9562 27.7375 29.7063 25.6375 30.975ZM25.6375 20.475L19.9937 16.1L17.9812 1.75C20.7375 1.8375 23.3625 2.625 25.5938 3.98125C30.1875 6.7375 33.25 11.7688 33.25 17.5C33.25 20.2125 32.5938 22.75 31.3687 24.9812L25.6375 20.475Z" fill="#858585"/>
</svg>
