<svg width="45" height="60" viewBox="0 0 45 60" fill="none" xmlns="http://www.w3.org/2000/svg">
<path d="M23.948 54.582H34.7547C33.1005 53.6918 32.513 51.3336 32.4202 49.0691C31.3535 38.8399 25.7105 30.8751 24.3345 28.8137C30.7505 24.925 33.5797 18.9749 33.5797 13.4776C33.5797 4.32595 25.6022 0 18.6915 0H0.479269C1.15952 0.983881 1.65425 1.37431 1.65425 3.6388V50.256C1.65425 52.5205 0.680253 53.5981 0 54.582H8.27126C7.591 53.5981 6.617 52.5205 6.617 50.256V33.1396C12.1982 33.0459 16.8517 32.1245 20.5931 30.6253C26.2825 36.794 26.9627 45.7427 27.071 48.1946C27.1483 50.6465 25.896 52.8172 23.948 54.582ZM6.617 28.923V3.24837H17.331C24.7365 3.24837 27.1637 7.96475 27.071 12.9779C26.5762 26.8459 12.9403 28.923 6.617 28.923Z" fill="#858585"/>
<path d="M16.3415 38.5569C18.9079 38.5101 21.3661 38.307 23.546 37.9322C23.2522 36.9327 22.1855 34.7776 21.6444 33.8718C19.65 34.2153 17.8102 34.3247 16.3415 34.3247V33.2471C15.6612 33.4969 12.6465 33.9342 11.3787 34.0904V55.6733C11.3787 57.9378 10.4047 59.0154 9.72449 59.9993H17.9957C17.3155 59.0154 16.3415 57.9378 16.3415 55.6733V38.5569Z" fill="#858585"/>
<path d="M25.1075 8.51107H16.3415V26.1116C15.2284 26.502 12.9866 27.236 11.3788 27.3922V8.90149C11.3788 6.63701 10.8995 6.24658 10.2038 5.2627H22.3247C23.3141 5.85615 24.6282 7.27731 25.1075 8.51107Z" fill="#858585"/>
<path d="M34.8782 11.6514C36.3624 13.4474 36.9344 15.8524 36.8726 18.3356C36.6098 25.8474 32.4819 29.8923 27.7665 32.0318C28.4622 33.0938 29.328 35.0928 29.8691 36.186C30.0082 36.1391 30.4256 35.983 30.5493 35.9361C36.2387 42.1049 36.7798 51.1004 36.8726 53.5523C36.9654 56.0042 35.6976 58.1749 33.7651 59.9397H44.5718C42.9176 59.0495 42.3301 56.6913 42.2373 54.4268C41.1706 44.1976 35.5275 36.2328 34.1516 34.1714C40.5676 30.2827 43.3968 24.3326 43.3968 18.8353C43.3968 11.6202 38.2795 7.35669 32.7911 5.9043C33.2394 6.62269 34.4453 9.04335 34.8782 11.6514Z" fill="#858585"/>
</svg>
