<svg width="102" height="102" viewBox="0 0 102 102" fill="none" xmlns="http://www.w3.org/2000/svg">
<path d="M3 51C3 63.7305 8.05711 75.9395 17.0589 84.9413C26.0606 93.9427 38.2696 99 51 99C63.7305 99 75.9395 93.9427 84.9413 84.9413C93.9427 75.9395 99 63.7305 99 51C99 38.2696 93.9427 26.0606 84.9413 17.0589C75.9395 8.05711 63.7305 3 51 3C38.2696 3 26.0606 8.05711 17.0589 17.0589C8.05711 26.0606 3 38.2696 3 51Z" stroke="#362618" stroke-width="5" stroke-linecap="round" stroke-linejoin="round"/>
<path d="M62.6054 33.9331C61.3105 32.6832 59.5838 31.9803 57.7841 31.9705C56.0139 31.9699 54.314 32.6612 53.0464 33.8967C51.7792 35.1323 51.0445 36.8143 51.0001 38.5838V44.5998L40.2054 33.9331C38.9379 32.6206 37.2079 31.8551 35.3841 31.7998C33.5849 31.7998 31.8593 32.5146 30.5871 33.7868C29.3149 35.059 28.6001 36.7846 28.6001 38.5838V63.4158C28.6001 65.2151 29.3149 66.9405 30.5871 68.2128C31.8593 69.4851 33.5849 70.1998 35.3841 70.1998C36.2886 70.1793 37.1802 69.9801 38.0076 69.614C38.835 69.2479 39.5819 68.7223 40.2054 68.0665L51.0001 57.3998V63.4158C51.0001 65.2151 51.7148 66.9405 52.9871 68.2128C54.2594 69.4851 55.9848 70.1998 57.7841 70.1998C58.6886 70.1793 59.5804 69.9801 60.4077 69.614C61.235 69.2479 61.9821 68.7223 62.6054 68.0665L76.6001 54.0291C76.9999 53.6323 77.3173 53.1604 77.5341 52.6408C77.7508 52.1207 77.8622 51.563 77.8622 50.9998C77.8622 50.4366 77.7508 49.879 77.5341 49.3588C77.3173 48.8392 76.9999 48.3673 76.6001 47.9705L62.6054 33.9331Z" stroke="#362618" stroke-width="5" stroke-linecap="round" stroke-linejoin="round"/>
</svg>
