<svg width="550" height="550" viewBox="0 0 550 550" fill="none" xmlns="http://www.w3.org/2000/svg">
<mask id="mask0_408_1112" style="mask-type:alpha" maskUnits="userSpaceOnUse" x="0" y="0" width="550" height="550">
<rect width="550" height="550" fill="url(#paint0_linear_408_1112)" fill-opacity="0.94"/>
</mask>
<g mask="url(#mask0_408_1112)">
<path d="M-188.591 431.409H10.2727C8.3788 445.614 10.8646 458.161 17.7301 469.051C24.5957 479.941 34.8939 488.464 48.625 494.619C62.3561 500.775 78.4546 503.852 96.9205 503.852C115.86 503.852 132.669 500.42 147.347 493.554C162.261 486.688 174.335 477.455 183.568 465.855C193.038 454.255 199.193 441.352 202.034 427.148C204.402 411.049 202.034 397.437 194.932 386.31C187.83 374.946 176.939 366.423 162.261 360.741C147.583 354.823 130.064 351.864 109.705 351.864H17.375L40.1023 221.182L210.557 87.6591V83.3977H-93.4205L-67.8523 -74.2727H470.5L446.352 67.7727L221.92 239.648V245.33C263.824 250.538 297.678 260.008 323.483 273.739C349.525 287.47 369.174 303.687 382.432 322.389C395.926 341.092 404.33 360.978 407.645 382.048C411.196 403.118 411.314 423.833 408 444.193C400.424 488.227 380.538 526.698 348.341 559.605C316.381 592.276 276.134 617.725 227.602 635.955C179.307 653.947 126.75 662.943 69.9318 662.943C10.2727 662.943 -40.1534 653 -81.3466 633.114C-122.303 613.227 -152.251 585.884 -171.19 551.082C-189.893 516.281 -195.693 476.39 -188.591 431.409Z" fill="#5A5A5A"/>
</g>
<rect width="550" height="550" fill="url(#paint1_linear_408_1112)" fill-opacity="0.94"/>
<defs>
<linearGradient id="paint0_linear_408_1112" x1="275" y1="0" x2="275" y2="550" gradientUnits="userSpaceOnUse">
<stop stop-color="#EDEDED"/>
<stop offset="1" stop-color="#A7A7A7"/>
</linearGradient>
<linearGradient id="paint1_linear_408_1112" x1="275" y1="0" x2="275" y2="550" gradientUnits="userSpaceOnUse">
<stop stop-color="white"/>
<stop offset="1" stop-color="#F3EFFF"/>
</linearGradient>
</defs>
</svg>
