<svg width="550" height="550" viewBox="0 0 550 550" fill="none" xmlns="http://www.w3.org/2000/svg">
<mask id="mask0_408_1111" style="mask-type:alpha" maskUnits="userSpaceOnUse" x="0" y="0" width="550" height="550">
<rect width="550" height="550" fill="url(#paint0_linear_408_1111)" fill-opacity="0.94"/>
</mask>
<g mask="url(#mask0_408_1111)">
<path d="M-197.159 653L-173.722 510.955L135.227 286.523C155.824 271.608 173.58 257.64 188.494 244.619C203.646 231.362 215.838 217.749 225.071 203.781C234.304 189.813 240.341 174.307 243.182 157.261C246.259 138.559 244.839 122.579 238.92 109.321C233.239 95.8267 224.006 85.5284 211.222 78.4261C198.438 71.3238 183.049 67.7727 165.057 67.7727C146.828 67.7727 130.137 71.4422 114.986 78.7812C99.8343 86.1203 87.1686 96.892 76.9887 111.097C67.0455 125.301 60.4167 142.583 57.1023 162.943H-130.398C-121.875 111.807 -103.054 67.7727 -73.9347 30.8409C-44.5786 -6.09092 -7.41003 -34.5 37.571 -54.3864C82.7888 -74.2727 133.57 -84.2159 189.915 -84.2159C248.153 -84.2159 297.159 -74.8646 336.932 -56.1619C376.705 -37.696 405.469 -11.6544 423.224 21.9631C441.217 55.5805 446.307 94.9981 438.494 140.216C433.759 168.152 423.224 195.85 406.889 223.312C390.791 250.775 364.867 281.314 329.119 314.932C293.608 348.312 244.366 388.085 181.392 434.25L103.977 491.068L103.267 495.33H387.358L361.08 653H-197.159Z" fill="#5A5A5A"/>
</g>
<rect width="550" height="550" fill="url(#paint1_linear_408_1111)" fill-opacity="0.94"/>
<defs>
<linearGradient id="paint0_linear_408_1111" x1="275" y1="0" x2="275" y2="550" gradientUnits="userSpaceOnUse">
<stop stop-color="#EDEDED"/>
<stop offset="1" stop-color="#A7A7A7"/>
</linearGradient>
<linearGradient id="paint1_linear_408_1111" x1="275" y1="0" x2="275" y2="550" gradientUnits="userSpaceOnUse">
<stop stop-color="white"/>
<stop offset="1" stop-color="#F3EFFF"/>
</linearGradient>
</defs>
</svg>
