<svg width="82" height="49" viewBox="0 0 82 49" fill="none" xmlns="http://www.w3.org/2000/svg">
<path d="M79.3858 13.1696H79.335L72.57 4.18623V4.1356L72.5192 4.08333C71.0071 2.26543 68.739 0 65.6 0H52.48C51.8978 0 51.3582 0.120866 50.84 0.307066C49.6477 0.919566 47.5534 2.34057 47.56 4.7481V22.8667H1.64C0.73472 22.8667 0 23.5984 0 24.5V34.3C0 37.3788 2.1566 39.9497 5.03808 40.6373C5.74 45.3609 9.82524 49 14.76 49C19.6259 49 23.6668 45.4606 24.4524 40.8333H24.7492C25.5332 45.4606 29.5741 49 34.4416 49C39.3092 49 43.3485 45.4606 44.134 40.8333H54.2758C55.0581 45.4655 59.099 49 63.9616 49C68.816 49 72.8652 45.4524 73.6524 40.8333H73.8H75.44H77.08C79.8024 40.8333 82 38.6447 82 35.9333V20.2125C82 16.4738 79.3858 13.1696 79.3858 13.1696ZM72.7242 9.8L76.7225 15.1083C76.7225 15.1083 78.2083 17.6416 78.5166 19.6H62.32C62.0445 19.6 61.6017 19.3958 61.2442 19.0381C60.8866 18.6804 60.68 18.2411 60.68 17.9667V11.4333C60.68 10.6101 61.6542 9.8 62.32 9.8H72.7242ZM14.76 45.7333C11.1422 45.7333 8.2 42.8031 8.2 39.2C8.2 35.5969 11.1422 32.6667 14.76 32.6667C18.3778 32.6667 21.32 35.5969 21.32 39.2C21.32 42.8031 18.3778 45.7333 14.76 45.7333ZM34.44 45.7333C30.8222 45.7333 27.88 42.8031 27.88 39.2C27.88 35.5969 30.8222 32.6667 34.44 32.6667C38.0578 32.6667 41 35.5969 41 39.2C41 42.8031 38.0578 45.7333 34.44 45.7333ZM63.96 45.7333C60.3143 45.7333 57.4 42.8309 57.4 39.2C57.4 35.5691 60.3143 32.6667 63.96 32.6667C67.6057 32.6667 70.52 35.5691 70.52 39.2C70.52 42.8309 67.6057 45.7333 63.96 45.7333ZM78.72 35.9333C78.72 36.5458 77.695 37.5667 77.08 37.5667H75.44H73.8H73.6508C72.8636 32.9476 68.8128 29.4 63.96 29.4C59.0974 29.4 55.0548 32.9345 54.2742 37.5667H54.12H44.1324C43.3485 32.9394 39.3075 29.4 34.44 29.4C29.5725 29.4 25.5332 32.9394 24.7476 37.5667H24.4524C23.6685 32.9394 19.6275 29.4 14.76 29.4C10.0138 29.4 6.0434 32.763 5.12172 37.222C4.03604 36.6896 3.28 35.5854 3.28 34.3V26.1333H49.2C50.1053 26.1333 50.84 25.4016 50.84 24.5V4.9C50.84 4.2875 51.865 3.26667 52.48 3.26667H65.6C66.8874 3.26667 68.7012 4.63867 69.9558 6.125C69.969 6.1446 69.9936 6.15767 70.0067 6.17563L70.2642 6.53333H62.32C59.7058 6.53333 57.4 8.6387 57.4 11.4333V17.9667C57.4 19.3256 58.015 20.5196 58.8858 21.3869C59.7567 22.2542 60.9555 22.8667 62.32 22.8667H78.72V35.9333Z" fill="black"/>
</svg>
