<svg width="25" height="19" viewBox="0 0 25 19" fill="none" xmlns="http://www.w3.org/2000/svg">
<path d="M4.75 7.74707V14.5001C4.75 15.2957 5.06607 16.0588 5.62868 16.6214C6.19129 17.184 6.95435 17.5001 7.75 17.5001H16.75C17.5456 17.5001 18.3087 17.184 18.8713 16.6214C19.4339 16.0588 19.75 15.2957 19.75 14.5001V13.7501" stroke="#13263A" stroke-width="1.5" stroke-linecap="round" stroke-linejoin="round"/>
<path d="M19.75 10.747V4C19.75 3.20435 19.4339 2.44129 18.8713 1.87868C18.3087 1.31607 17.5456 1 16.75 1H7.75C6.95435 1 6.19129 1.31607 5.62868 1.87868C5.06607 2.44129 4.75 3.20435 4.75 4V4.75" stroke="#13263A" stroke-width="1.5" stroke-linecap="round" stroke-linejoin="round"/>
<path d="M8.5 11.4971L4.75 7.74707L1 11.4971" stroke="#13263A" stroke-width="1.5" stroke-linecap="round" stroke-linejoin="round"/>
<path d="M16 6.99707L19.75 10.7471L23.5 6.99707" stroke="#13263A" stroke-width="1.5" stroke-linecap="round" stroke-linejoin="round"/>
</svg>
