<svg width="43" height="43" viewBox="0 0 43 43" fill="none" xmlns="http://www.w3.org/2000/svg">
<path d="M14.1819 43C14.0976 43 14.0133 43 13.929 43C13.339 42.916 12.9175 42.5801 12.5803 42.0763L8.45012 34.6024L0.948267 30.4876C0.442525 30.2357 0.105363 29.7318 0.0210726 29.144C-0.0632178 28.5562 0.105363 28.0523 0.526815 27.6325L4.31988 23.8536C4.74134 23.4337 5.33137 23.2657 5.9214 23.3497L10.2202 24.1055L15.8677 18.4791L2.21262 11.7611C1.70688 11.5091 1.36972 11.0053 1.20114 10.4175C1.03256 9.82963 1.28543 9.2418 1.70688 8.82192L5.9214 4.62314C6.34285 4.20326 7.01718 4.03531 7.60721 4.11929L25.4768 8.73795L31.7143 2.52375C33.9058 0.340383 39.0475 -1.25515 41.6605 1.34809C42.8406 2.52375 43.2621 4.45519 42.8406 6.63856C42.5034 8.40204 41.5763 10.0816 40.4805 11.1732L34.243 17.3874L38.879 35.1903C39.0475 35.7781 38.879 36.4499 38.3732 36.8698L34.1587 41.0686C33.7372 41.4884 33.1472 41.6564 32.5572 41.5724C31.9671 41.4884 31.4614 41.1525 31.2085 40.5647L24.4653 26.9607L18.8178 32.587L19.5765 36.8698C19.6607 37.4576 19.4922 38.0454 19.0707 38.4653L15.2776 42.2442C15.1091 42.8321 14.6876 43 14.1819 43ZM4.74134 28.4722L10.6417 31.6633C10.9788 31.8312 11.1474 32.0832 11.316 32.3351L14.519 38.2134L15.952 36.7858L15.2776 32.503C15.1933 31.9152 15.3619 31.3274 15.7834 30.9075L23.8753 22.8458C24.2967 22.426 24.8867 22.258 25.4768 22.342C26.0668 22.426 26.5726 22.7619 26.8254 23.3497L33.5687 36.9538L35.2545 35.2742L30.6185 17.4714C30.4499 16.8836 30.6185 16.2118 31.1242 15.7919L38.0361 8.9059C39.3004 7.64626 39.9747 4.79109 39.2161 4.03531C38.4575 3.27953 35.5916 4.03531 34.3273 5.21097L27.4155 12.097C26.994 12.5168 26.3197 12.6848 25.7297 12.6008L7.77579 7.98217L6.08998 9.66168L19.745 16.3797C20.2508 16.6317 20.5879 17.1355 20.7565 17.7233C20.9251 18.3112 20.6722 18.899 20.2508 19.3189L12.1589 27.3805C11.7374 27.8004 11.1474 27.9684 10.5574 27.8844L6.25856 27.1286L4.74134 28.4722Z" fill="black"/>
</svg>
