<svg width="60" height="32" viewBox="0 0 60 32" fill="none" xmlns="http://www.w3.org/2000/svg">
<path fill-rule="evenodd" clip-rule="evenodd" d="M9.62539 27.4286H2.30769C1.69615 27.4286 1.10884 27.1874 0.676152 26.7589C0.24346 26.3303 0 25.7486 0 25.1429C0 21.3794 0 14.0366 0 11.4286C0 10.8229 0.24346 10.2411 0.676152 9.81257C2.23615 8.26743 6.13962 4.40115 8.55462 2.008C9.85269 0.72229 11.6146 0 13.4504 0C18.6935 0 29.7681 0 35.0112 0C36.8469 0 38.6088 0.72229 39.9069 2.008L47.1092 9.14286H50.7692H53.0769C54.9127 9.14286 56.6735 9.86515 57.9727 11.1509C59.2708 12.4377 60 14.1817 60 16C60 19.2251 60 22.856 60 25.1429C60 25.7486 59.7565 26.3303 59.3238 26.7589C58.8912 27.1874 58.3038 27.4286 57.6923 27.4286H50.3746C49.4238 30.0903 46.8577 32 43.8462 32C40.8346 32 38.2685 30.0903 37.3177 27.4286H22.6823C21.7315 30.0903 19.1654 32 16.1538 32C13.1423 32 10.5762 30.0903 9.62539 27.4286ZM43.8462 22.8571C42.5723 22.8571 41.5385 23.8811 41.5385 25.1429C41.5385 26.4046 42.5723 27.4286 43.8462 27.4286C45.12 27.4286 46.1538 26.4046 46.1538 25.1429C46.1538 23.8811 45.12 22.8571 43.8462 22.8571ZM16.1538 22.8571C14.88 22.8571 13.8462 23.8811 13.8462 25.1429C13.8462 26.4046 14.88 27.4286 16.1538 27.4286C17.4277 27.4286 18.4615 26.4046 18.4615 25.1429C18.4615 23.8811 17.4277 22.8571 16.1538 22.8571ZM50.3746 22.8571H55.3846V16C55.3846 14.7371 54.3519 13.7143 53.0769 13.7143C50.0723 13.7143 45.1985 13.7143 45.1985 13.7143H25.3846C24.1096 13.7143 23.0769 12.6914 23.0769 11.4286C23.0769 10.8229 23.3204 10.2411 23.7531 9.81257C24.1858 9.384 24.7731 9.14286 25.3846 9.14286C30.1385 9.14286 40.5831 9.14286 40.5831 9.14286C40.5831 9.14286 37.9246 6.51086 36.6427 5.24114C36.21 4.81257 35.6238 4.57143 35.0112 4.57143C31.2173 4.57143 17.2442 4.57143 13.4504 4.57143C12.8377 4.57143 12.2515 4.81257 11.8188 5.24114C9.90923 7.13143 4.61538 12.3749 4.61538 12.3749V22.8571H9.62539C10.5762 20.1954 13.1423 18.2857 16.1538 18.2857C19.1654 18.2857 21.7315 20.1954 22.6823 22.8571H37.3177C38.2685 20.1954 40.8346 18.2857 43.8462 18.2857C46.8577 18.2857 49.4238 20.1954 50.3746 22.8571Z" fill="black"/>
</svg>
