<svg width="31" height="31" viewBox="0 0 31 31" fill="none" xmlns="http://www.w3.org/2000/svg">
<path d="M22.2665 28.0664H14.5332" stroke="#FBFBFB" stroke-width="1.5" stroke-linecap="round" stroke-linejoin="round"/>
<path d="M11.3105 17.1113H19.6883" stroke="#FBFBFB" stroke-width="1.5" stroke-linecap="round" stroke-linejoin="round"/>
<path d="M11.3105 12.5996H19.6883" stroke="#FBFBFB" stroke-width="1.5" stroke-linecap="round" stroke-linejoin="round"/>
<path d="M11.3105 8.08887H19.6883" stroke="#FBFBFB" stroke-width="1.5" stroke-linecap="round" stroke-linejoin="round"/>
<path d="M26.1335 1H24.2002V8.08889H30.0002V4.86667C30.0002 3.84116 29.5928 2.85766 28.8676 2.13252C28.1425 1.40738 27.159 1 26.1335 1Z" stroke="#FBFBFB" stroke-width="1.5" stroke-linecap="round" stroke-linejoin="round"/>
<path d="M17.4333 22.2667H4.86667C3.84116 22.2667 2.85766 22.6741 2.13252 23.3992C1.40738 24.1243 1 25.1079 1 26.1333V30H14.5333V25.1667C14.5333 24.3976 14.8389 23.66 15.3827 23.116C15.9266 22.5723 16.6643 22.2667 17.4333 22.2667ZM17.4333 22.2667C18.2024 22.2667 18.94 22.5723 19.484 23.116C20.0277 23.66 20.3333 24.3976 20.3333 25.1667V26.1333C20.3333 26.6461 20.537 27.1379 20.8995 27.5005C21.2621 27.863 21.7539 28.0667 22.2667 28.0667C22.7794 28.0667 23.2712 27.863 23.6338 27.5005C23.9964 27.1379 24.2 26.6461 24.2 26.1333V1H10.6667C9.64116 1 8.65766 1.40738 7.93252 2.13252C7.20738 2.85766 6.8 3.84116 6.8 4.86667V22.2667" stroke="#FBFBFB" stroke-width="1.5" stroke-linecap="round" stroke-linejoin="round"/>
</svg>
