<svg width="61" height="30" viewBox="0 0 61 30" fill="none" xmlns="http://www.w3.org/2000/svg">
<path fill-rule="evenodd" clip-rule="evenodd" d="M9.3844 2.30769C9.3844 1.03269 10.4343 0 11.7306 0C17.2628 0 30.9738 0 35.1922 0C35.977 0 36.709 0.385374 37.1442 1.02807C38.4511 2.95614 41.1398 6.92308 41.1398 6.92308H58.6539C59.5067 6.92308 60.2927 7.37884 60.7056 8.11154C61.1197 8.84538 61.0951 9.74192 60.6434 10.4538C57.2509 15.7938 50.989 25.6477 48.9126 28.9154C48.4844 29.5904 47.7325 30 46.9231 30C40.5227 30 12.2749 30 2.3459 30C1.56697 30 0.839664 29.6204 0.403277 28.9858C-0.0331099 28.3523 -0.121096 27.5458 0.167483 26.835C1.58691 23.3458 3.80873 17.8834 4.85982 15.2965C5.21643 14.4208 6.07865 13.8462 7.03823 13.8462C8.36499 13.8462 10.039 13.8462 10.039 13.8462L13.1676 4.61538H11.7306C10.4343 4.61538 9.3844 3.58269 9.3844 2.30769ZM40.4383 11.5385L26.3613 18.4615H8.62659L5.81119 25.3846H45.6233L54.4214 11.5385H40.4383ZM36.458 8.33538L33.937 4.61538H18.1145L14.9859 13.8462H25.2539L36.458 8.33538Z" fill="black"/>
</svg>
