<svg width="42" height="31" viewBox="0 0 42 31" fill="none" xmlns="http://www.w3.org/2000/svg">
<path fill-rule="evenodd" clip-rule="evenodd" d="M27.7847 6.88889L26.7076 3.44444H22.75C21.784 3.44444 21 2.67289 21 1.72222C21 0.771556 21.784 0 22.75 0H28C28.7682 0 29.4464 0.493419 29.673 1.21589L31.4466 6.88889H35C35.966 6.88889 36.75 7.66044 36.75 8.61111C36.75 9.56178 35.966 10.3333 35 10.3333H32.5229L34.6798 17.2291C34.7856 17.2248 34.8924 17.2222 35 17.2222C38.8631 17.2222 42 20.3093 42 24.1111C42 27.9129 38.8631 31 35 31C31.1369 31 28 27.9129 28 24.1111C28 21.6311 29.3344 19.4559 31.3346 18.2426L30.2829 14.8783C26.8538 16.5798 24.5 20.0768 24.5 24.1111C24.5 25.0626 23.7169 25.8333 22.75 25.8333H13.7795C13.0008 28.8033 10.2594 31 7 31C3.13688 31 0 27.9129 0 24.1111C0 20.9035 2.23213 18.2056 5.25 17.4392V15.5H3.5C3.03625 15.5 2.59087 15.3183 2.26275 14.9954C1.93462 14.6725 1.75 14.2342 1.75 13.7778C1.75 13.3214 1.93462 12.8831 2.26275 12.5602C2.59087 12.2372 3.03625 12.0556 3.5 12.0556C6.72437 12.0556 13.2755 12.0556 13.2755 12.0556C13.2755 12.0556 16.6915 8.69291 18.0127 7.3935C18.3409 7.07058 18.7862 6.88889 19.25 6.88889H27.7847ZM35 20.6667C36.932 20.6667 38.5 22.2098 38.5 24.1111C38.5 26.0124 36.932 27.5556 35 27.5556C33.068 27.5556 31.5 26.0124 31.5 24.1111C31.5 22.2098 33.068 20.6667 35 20.6667ZM7 20.6667C8.932 20.6667 10.5 22.2098 10.5 24.1111C10.5 26.0124 8.932 27.5556 7 27.5556C5.068 27.5556 3.5 26.0124 3.5 24.1111C3.5 22.2098 5.068 20.6667 7 20.6667ZM28.861 10.3333H19.9745C19.9745 10.3333 16.5585 13.696 15.2373 14.9954C14.9091 15.3183 14.4637 15.5 14 15.5H8.75V17.4392C11.2087 18.0635 13.1451 19.97 13.7795 22.3889H21.1085C21.7227 17.5503 24.8911 13.4876 29.2416 11.5509L28.861 10.3333Z" fill="black"/>
</svg>
