<svg width="50" height="21" viewBox="0 0 50 21" fill="none" xmlns="http://www.w3.org/2000/svg">
<path d="M39.2666 4.80078H41.7999C42.1799 4.80078 42.5599 5.0541 42.8133 5.30744L44.9666 8.60078L47.8799 9.61411C48.3866 9.74078 48.7666 10.2474 48.7666 10.7541V16.2008C48.7666 16.8341 48.2599 17.4674 47.4999 17.4674H43.715" stroke="#FBFBFB" stroke-width="2" stroke-miterlimit="10" stroke-linecap="round" stroke-linejoin="round"/>
<path d="M41.1666 20.0003C42.5658 20.0003 43.7 18.8661 43.7 17.4669C43.7 16.0678 42.5658 14.9336 41.1666 14.9336C39.7675 14.9336 38.6333 16.0678 38.6333 17.4669C38.6333 18.8661 39.7675 20.0003 41.1666 20.0003Z" stroke="#FBFBFB" stroke-width="2" stroke-miterlimit="10" stroke-linecap="round" stroke-linejoin="round"/>
<path d="M39.2666 15.8086V2.26667C39.2666 1.50667 38.7599 1 37.9999 1H21.5333C20.7733 1 20.2666 1.50667 20.2666 2.26667V16.2C20.2666 16.8333 20.7733 17.4667 21.5333 17.4667H23.4298M38.6259 17.4667H33.5634" stroke="#FBFBFB" stroke-width="2" stroke-miterlimit="10" stroke-linecap="round" stroke-linejoin="round"/>
<path d="M25.9667 20.0003C27.3658 20.0003 28.5 18.8661 28.5 17.4669C28.5 16.0678 27.3658 14.9336 25.9667 14.9336C24.5676 14.9336 23.4333 16.0678 23.4333 17.4669C23.4333 18.8661 24.5676 20.0003 25.9667 20.0003Z" stroke="#FBFBFB" stroke-width="2" stroke-miterlimit="10" stroke-linecap="round" stroke-linejoin="round"/>
<path d="M31.0333 20.0003C32.4325 20.0003 33.5667 18.8661 33.5667 17.4669C33.5667 16.0678 32.4325 14.9336 31.0333 14.9336C29.6342 14.9336 28.5 16.0678 28.5 17.4669C28.5 18.8661 29.6342 20.0003 31.0333 20.0003Z" stroke="#FBFBFB" stroke-width="2" stroke-miterlimit="10" stroke-linecap="round" stroke-linejoin="round"/>
<path d="M25.9666 1V9.86667" stroke="#FBFBFB" stroke-width="2" stroke-miterlimit="10" stroke-linecap="round" stroke-linejoin="round"/>
<path d="M32.3 1V9.86667" stroke="#FBFBFB" stroke-width="2" stroke-miterlimit="10" stroke-linecap="round" stroke-linejoin="round"/>
<path d="M5.06665 4.80078H16.4667" stroke="#FBFBFB" stroke-width="2"/>
<path d="M16.4666 9.86719H11.3999" stroke="#FBFBFB" stroke-width="2"/>
<path d="M16.4667 14.9336H0" stroke="#FBFBFB" stroke-width="2"/>
</svg>
