<svg width="45" height="37" viewBox="0 0 45 37" fill="none" xmlns="http://www.w3.org/2000/svg">
<path d="M14.1565 36.5C31.1335 36.5 40.4218 22.6483 40.4218 10.6398C40.4218 10.2504 40.413 9.85233 40.3954 9.46292C42.2023 8.17638 43.7616 6.58283 45 4.75713C43.3172 5.49428 41.5306 5.9757 39.7011 6.18496C41.6274 5.04809 43.0697 3.26212 43.7607 1.15813C41.9485 2.21555 39.9667 2.96147 37.9002 3.36391C36.5078 1.90726 34.6668 0.942781 32.6619 0.619596C30.657 0.29641 28.5997 0.632517 26.8083 1.57595C25.0168 2.51939 23.5909 4.0176 22.751 5.83896C21.9111 7.66032 21.7039 9.70338 22.1616 11.6523C18.4922 11.471 14.9024 10.5324 11.625 8.89753C8.34755 7.26263 5.45567 4.96784 3.13682 2.16194C1.95825 4.16259 1.59761 6.53001 2.12818 8.78306C2.65876 11.0361 4.04074 13.0057 5.99326 14.2916C4.52743 14.2458 3.0937 13.8572 1.81055 13.158V13.2705C1.80923 15.37 2.54643 17.4052 3.89683 19.0301C5.24723 20.655 7.12748 21.7693 9.21797 22.1836C7.8601 22.5494 6.43497 22.6027 5.05283 22.3394C5.64273 24.145 6.79045 25.7242 8.33582 26.8567C9.88119 27.9892 11.7471 28.6183 13.6731 28.6564C10.4033 31.1853 6.36408 32.557 2.20605 32.5505C1.46866 32.5494 0.731998 32.5049 0 32.4173C4.22411 35.0855 9.13787 36.5026 14.1565 36.5Z" fill="white"/>
</svg>
