<svg width="60" height="60" viewBox="0 0 60 60" fill="none" xmlns="http://www.w3.org/2000/svg">
<path d="M28.1725 28.0625H26.8675V27.205H32.0475V28.0625H30.7575V31.9375H31.955C33.0625 31.9375 33.79 31.2075 33.79 30.2125H34.645V32.8075H26.87V31.94H28.175L28.1725 28.0625ZM34.505 28.065H33.2175V27.205H38.8375V28.065H37.4775L39.3725 31.5225L41.245 28.065H40.125V27.205H44V28.065H42.71L40.1425 32.815L37.1175 32.8125L34.505 28.065ZM47.4575 27.085C50.06 27.085 51.4575 28.385 51.4575 30.0125C51.4575 31.6625 50.14 32.98 47.4725 32.98C44.805 32.98 43.475 31.665 43.475 30.0125C43.475 28.385 44.8575 27.0875 47.4575 27.0875V27.085ZM14.4525 31.525L16.3225 28.0675H15.205V27.2075H19.075V28.0675H17.7875L15.2175 32.8175L12.1925 32.815L9.58 28.0675H8.295V27.2075H13.9125V28.0675H12.555L14.4525 31.525ZM22.545 27.0875C25.1475 27.0875 26.545 28.3875 26.545 30.015C26.545 31.665 25.2275 32.9825 22.56 32.9825C19.8925 32.9825 18.5625 31.6675 18.5625 30.015C18.5625 28.3875 19.9425 27.09 22.545 27.09V27.0875ZM21.1675 29.98C21.185 28.9 21.7025 27.9575 22.5925 27.9725C23.4825 27.99 23.9525 28.9475 23.935 30.03C23.915 31.0475 23.495 32.1075 22.5175 32.09C21.5675 32.0725 21.15 31.0225 21.1675 29.98ZM46.08 29.98C46.0975 28.9 46.615 27.9575 47.505 27.9725C48.395 27.99 48.865 28.9475 48.8475 30.03C48.8275 31.0475 48.4075 32.1075 47.43 32.09C46.48 32.0725 46.0625 31.0225 46.08 29.98ZM8.065 24.575C10.495 14.7175 19.3925 7.40753 30 7.40753C40.6075 7.40753 49.505 14.7175 51.935 24.5725L8.065 24.575ZM51.935 35.43C49.505 45.285 40.6075 52.595 30 52.595C19.3925 52.595 10.495 45.285 8.065 35.43H51.935ZM54.0575 12.0775L55.4775 10.655C56.4875 11.985 57.4 13.395 58.195 14.875H59.3175V0.707531H45.15V1.81753C46.6225 2.61003 48.025 3.51753 49.345 4.52253L47.9225 5.94253C42.7481 2.07572 36.4596 -0.00934745 30 3.15028e-05C13.4325 3.15028e-05 0 13.4325 0 30C0 46.5675 13.4325 60 30 60C46.5675 60 60 46.5675 60 30C60 23.28 57.79 17.0775 54.0575 12.0775Z" fill="#858585"/>
</svg>
