<svg width="35" height="35" viewBox="0 0 35 35" fill="none" xmlns="http://www.w3.org/2000/svg">
<path d="M16.434 16.3698H15.6727V15.8696H18.6944V16.3698H17.9419V18.6302H18.6404C19.2865 18.6302 19.7108 18.2044 19.7108 17.624H20.2096V19.1377H15.6742V18.6317H16.4354L16.434 16.3698ZM20.1279 16.3713H19.3769V15.8696H22.6552V16.3713H21.8619L22.9673 18.3881L24.0596 16.3713H23.4062V15.8696H25.6667V16.3713H24.9142L23.4165 19.1421L21.6519 19.1406L20.1279 16.3713ZM27.6835 15.7996C29.2017 15.7996 30.0169 16.5579 30.0169 17.5073C30.0169 18.4698 29.2483 19.2383 27.6923 19.2383C26.1363 19.2383 25.3604 18.4713 25.3604 17.5073C25.3604 16.5579 26.1669 15.8011 27.6835 15.8011V15.7996ZM8.43062 18.3896L9.52146 16.3727H8.86958V15.8711H11.1271V16.3727H10.376L8.87687 19.1435L7.11229 19.1421L5.58833 16.3727H4.83875V15.8711H8.11563V16.3727H7.32375L8.43062 18.3896ZM13.1512 15.8011C14.6694 15.8011 15.4846 16.5594 15.4846 17.5088C15.4846 18.4713 14.716 19.2398 13.16 19.2398C11.604 19.2398 10.8281 18.4727 10.8281 17.5088C10.8281 16.5594 11.6331 15.8025 13.1512 15.8025V15.8011ZM12.3477 17.4883C12.3579 16.8583 12.6598 16.3086 13.179 16.3173C13.6981 16.3275 13.9723 16.8861 13.9621 17.5175C13.9504 18.111 13.7054 18.7294 13.1352 18.7192C12.581 18.709 12.3375 18.0965 12.3477 17.4883ZM26.88 17.4883C26.8902 16.8583 27.1921 16.3086 27.7113 16.3173C28.2304 16.3275 28.5046 16.8861 28.4944 17.5175C28.4827 18.111 28.2377 18.7294 27.6675 18.7192C27.1133 18.709 26.8698 18.0965 26.88 17.4883ZM4.70458 14.3354C6.12208 8.58522 11.3123 4.32106 17.5 4.32106C23.6877 4.32106 28.8779 8.58522 30.2954 14.334L4.70458 14.3354ZM30.2954 20.6675C28.8779 26.4163 23.6877 30.6804 17.5 30.6804C11.3123 30.6804 6.12208 26.4163 4.70458 20.6675H30.2954ZM31.5335 7.04522L32.3619 6.21543C32.951 6.99126 33.4833 7.81376 33.9471 8.6771H34.6019V0.412726H26.3375V1.06023C27.1965 1.52252 28.0146 2.05189 28.7846 2.63814L27.9548 3.46648C24.9364 1.21084 21.2681 -0.00545268 17.5 1.83766e-05C7.83563 1.83766e-05 0 7.83564 0 17.5C0 27.1644 7.83563 35 17.5 35C27.1644 35 35 27.1644 35 17.5C35 13.58 33.7108 9.96189 31.5335 7.04522Z" fill="#858585"/>
</svg>
